%TF.GenerationSoftware,KiCad,Pcbnew,(5.1.6)-1*%
%TF.CreationDate,2022-09-14T08:17:57+02:00*%
%TF.ProjectId,LoRaWAN_EndNode_Microchip,4c6f5261-5741-44e5-9f45-6e644e6f6465,rev?*%
%TF.SameCoordinates,Original*%
%TF.FileFunction,Copper,L3,Inr*%
%TF.FilePolarity,Positive*%
%FSLAX46Y46*%
G04 Gerber Fmt 4.6, Leading zero omitted, Abs format (unit mm)*
G04 Created by KiCad (PCBNEW (5.1.6)-1) date 2022-09-14 08:17:57*
%MOMM*%
%LPD*%
G01*
G04 APERTURE LIST*
%TA.AperFunction,ViaPad*%
%ADD10C,2.000000*%
%TD*%
%TA.AperFunction,ViaPad*%
%ADD11R,2.000000X2.000000*%
%TD*%
%TA.AperFunction,ViaPad*%
%ADD12O,1.700000X1.700000*%
%TD*%
%TA.AperFunction,ViaPad*%
%ADD13R,1.700000X1.700000*%
%TD*%
%TA.AperFunction,ViaPad*%
%ADD14O,1.500000X1.100000*%
%TD*%
%TA.AperFunction,ViaPad*%
%ADD15O,1.500000X1.000000*%
%TD*%
%TA.AperFunction,ViaPad*%
%ADD16C,0.800000*%
%TD*%
%TA.AperFunction,ViaPad*%
%ADD17C,1.000000*%
%TD*%
%TA.AperFunction,Conductor*%
%ADD18C,0.254000*%
%TD*%
G04 APERTURE END LIST*
D10*
%TO.N,GND*%
%TO.C,B1*%
X207137000Y-74295000D03*
D11*
%TO.N,+BATT*%
X194437000Y-74295000D03*
%TD*%
D12*
%TO.N,/MCU_part/PGC*%
%TO.C,J1*%
X211836000Y-90868500D03*
%TO.N,/MCU_part/PGD*%
X211836000Y-88328500D03*
%TO.N,GND*%
X211836000Y-85788500D03*
%TO.N,+BATT*%
X211836000Y-83248500D03*
D13*
%TO.N,/MCU_part/MCLR*%
X211836000Y-80708500D03*
%TD*%
D14*
%TO.N,GND*%
%TO.C,U4*%
X189238000Y-72288400D03*
%TO.N,/MCU_part/temp_sens2*%
X190500000Y-73558400D03*
D15*
%TO.N,VDD*%
X189280000Y-74828400D03*
%TD*%
D13*
%TO.N,GND*%
%TO.C,CON1*%
X191008000Y-99949000D03*
D12*
%TO.N,DIO5*%
X191008000Y-102489000D03*
%TO.N,SCK*%
X191008000Y-105029000D03*
%TO.N,MISO*%
X191008000Y-107569000D03*
%TO.N,MOSI*%
X191008000Y-110109000D03*
%TO.N,NSS*%
X191008000Y-112649000D03*
%TO.N,VDD*%
X191008000Y-115189000D03*
D13*
%TO.N,GND*%
X191008000Y-117729000D03*
%TD*%
%TO.N,GND*%
%TO.C,CON2*%
X211328000Y-99949000D03*
D12*
%TO.N,Net-(CON2-Pad2)*%
X211328000Y-102489000D03*
%TO.N,Net-(CON2-Pad3)*%
X211328000Y-105029000D03*
%TO.N,DIO2*%
X211328000Y-107569000D03*
%TO.N,DIO1*%
X211328000Y-110109000D03*
%TO.N,DIO0*%
X211328000Y-112649000D03*
%TO.N,NRESET*%
X211328000Y-115189000D03*
D13*
%TO.N,GND*%
X211328000Y-117729000D03*
%TD*%
D16*
%TO.N,+BATT*%
X203990000Y-93140000D03*
X203280000Y-93120000D03*
X190640000Y-81320000D03*
X194130000Y-85330000D03*
X203210000Y-82380000D03*
X202710000Y-81880000D03*
X204070000Y-78000000D03*
X210970000Y-76690000D03*
X198020000Y-74330000D03*
X197255000Y-74295000D03*
X196455000Y-74295000D03*
%TO.N,GND*%
X204987631Y-104556031D03*
X207365600Y-109778800D03*
X202641200Y-117856000D03*
X203504800Y-117856000D03*
X204419200Y-117856000D03*
X205333600Y-117856000D03*
X193700400Y-113690400D03*
X193700400Y-114503200D03*
X193751200Y-116636800D03*
X206248000Y-117856000D03*
X207162400Y-117856000D03*
X203860400Y-111099600D03*
X201574400Y-117856000D03*
X200304400Y-117856000D03*
X204978000Y-111099600D03*
X207873600Y-110337600D03*
X204165200Y-83515200D03*
X200710800Y-83464400D03*
X204317600Y-86766400D03*
X200660000Y-86969600D03*
X203835000Y-114300000D03*
X205105000Y-114300000D03*
X206375000Y-114300000D03*
X206375000Y-115570000D03*
X205105000Y-115570000D03*
X203835000Y-115570000D03*
X207669543Y-99633642D03*
X202990000Y-112250000D03*
X200930000Y-115340000D03*
X195940000Y-112740000D03*
X193600000Y-109970000D03*
X203440000Y-96747500D03*
X191540000Y-76420000D03*
X191000000Y-84460000D03*
X192818400Y-91541600D03*
X193751200Y-117551200D03*
X196240000Y-124110000D03*
X212610000Y-76520000D03*
X212610000Y-75660000D03*
X212390000Y-74900000D03*
X211845000Y-74355000D03*
X211105000Y-74295000D03*
X210335000Y-74295000D03*
%TO.N,VDD*%
X194570000Y-115360000D03*
X199970000Y-111090000D03*
X197431999Y-100610500D03*
X204399708Y-107660030D03*
X189020000Y-93940000D03*
X189020000Y-93260000D03*
X195910000Y-116220000D03*
%TO.N,/RF_Part/50_ohm_ant*%
X197490000Y-118151000D03*
D17*
X197480000Y-120270000D03*
D16*
%TO.N,NSS*%
X195262500Y-108648500D03*
X194437000Y-97282000D03*
X195326000Y-106299000D03*
%TO.N,MOSI*%
X193865500Y-107505500D03*
X198755000Y-97409000D03*
%TO.N,MISO*%
X191643000Y-97218500D03*
X193675000Y-99695000D03*
X193675000Y-104965500D03*
%TO.N,SCK*%
X194601000Y-103695500D03*
X196596000Y-97345500D03*
X196215000Y-102425500D03*
%TO.N,DIO5*%
X194400000Y-100647500D03*
X199898000Y-99885500D03*
X200152000Y-97345500D03*
%TO.N,NRESET*%
X203962000Y-103251000D03*
X199263000Y-89662000D03*
%TO.N,DIO0*%
X204597000Y-99527000D03*
X204660500Y-96747500D03*
X203962000Y-102108000D03*
%TO.N,DIO1*%
X202882500Y-99568000D03*
X202628500Y-97472500D03*
X202819000Y-101219000D03*
%TO.N,DIO2*%
X201676000Y-100330000D03*
%TO.N,/MCU_part/MCLR*%
X190601600Y-79451200D03*
%TO.N,Net-(R301-Pad2)*%
X201485500Y-93218000D03*
X203962000Y-89979500D03*
%TO.N,Net-(R307-Pad1)*%
X194664500Y-90068400D03*
X194970400Y-86106000D03*
%TO.N,Net-(Rext1-Pad1)*%
X199339200Y-75145000D03*
X199339200Y-73138400D03*
X194143800Y-83007200D03*
X199288400Y-77724000D03*
%TO.N,/MCU_part/DONE*%
X195783200Y-78587600D03*
X193446400Y-78181200D03*
%TO.N,/MCU_part/WAKE_UP*%
X193649600Y-76962000D03*
X206502000Y-87630000D03*
%TD*%
D18*
%TO.N,+BATT*%
G36*
X212954000Y-74032069D02*
G01*
X212880256Y-73982795D01*
X212796782Y-73948218D01*
X212762205Y-73864744D01*
X212648937Y-73695226D01*
X212504774Y-73551063D01*
X212335256Y-73437795D01*
X212146898Y-73359774D01*
X211946939Y-73320000D01*
X211743061Y-73320000D01*
X211548944Y-73358612D01*
X211406898Y-73299774D01*
X211206939Y-73260000D01*
X211003061Y-73260000D01*
X210803102Y-73299774D01*
X210720000Y-73334196D01*
X210636898Y-73299774D01*
X210436939Y-73260000D01*
X210233061Y-73260000D01*
X210033102Y-73299774D01*
X209844744Y-73377795D01*
X209675226Y-73491063D01*
X209531063Y-73635226D01*
X209417795Y-73804744D01*
X209339774Y-73993102D01*
X209300000Y-74193061D01*
X209300000Y-74396939D01*
X209339774Y-74596898D01*
X209417795Y-74785256D01*
X209531063Y-74954774D01*
X209675226Y-75098937D01*
X209844744Y-75212205D01*
X210033102Y-75290226D01*
X210233061Y-75330000D01*
X210436939Y-75330000D01*
X210636898Y-75290226D01*
X210720000Y-75255804D01*
X210803102Y-75290226D01*
X211003061Y-75330000D01*
X211206939Y-75330000D01*
X211401056Y-75291388D01*
X211438218Y-75306782D01*
X211472795Y-75390256D01*
X211577275Y-75546622D01*
X211575000Y-75558061D01*
X211575000Y-75761939D01*
X211614774Y-75961898D01*
X211667836Y-76090000D01*
X211614774Y-76218102D01*
X211575000Y-76418061D01*
X211575000Y-76621939D01*
X211614774Y-76821898D01*
X211692795Y-77010256D01*
X211806063Y-77179774D01*
X211950226Y-77323937D01*
X212119744Y-77437205D01*
X212308102Y-77515226D01*
X212508061Y-77555000D01*
X212711939Y-77555000D01*
X212911898Y-77515226D01*
X212954000Y-77497787D01*
X212954000Y-79281730D01*
X212930180Y-79268998D01*
X212810482Y-79232688D01*
X212686000Y-79220428D01*
X210986000Y-79220428D01*
X210861518Y-79232688D01*
X210741820Y-79268998D01*
X210631506Y-79327963D01*
X210534815Y-79407315D01*
X210455463Y-79504006D01*
X210396498Y-79614320D01*
X210360188Y-79734018D01*
X210347928Y-79858500D01*
X210347928Y-81558500D01*
X210360188Y-81682982D01*
X210396498Y-81802680D01*
X210455463Y-81912994D01*
X210534815Y-82009685D01*
X210631506Y-82089037D01*
X210741820Y-82148002D01*
X210822466Y-82172466D01*
X210738412Y-82248231D01*
X210564359Y-82481580D01*
X210439175Y-82744401D01*
X210394524Y-82891610D01*
X210515845Y-83121500D01*
X211709000Y-83121500D01*
X211709000Y-83101500D01*
X211963000Y-83101500D01*
X211963000Y-83121500D01*
X211983000Y-83121500D01*
X211983000Y-83375500D01*
X211963000Y-83375500D01*
X211963000Y-83395500D01*
X211709000Y-83395500D01*
X211709000Y-83375500D01*
X210515845Y-83375500D01*
X210394524Y-83605390D01*
X210439175Y-83752599D01*
X210564359Y-84015420D01*
X210738412Y-84248769D01*
X210954645Y-84443678D01*
X211071534Y-84513305D01*
X210889368Y-84635025D01*
X210682525Y-84841868D01*
X210520010Y-85085089D01*
X210408068Y-85355342D01*
X210351000Y-85642240D01*
X210351000Y-85934760D01*
X210408068Y-86221658D01*
X210520010Y-86491911D01*
X210682525Y-86735132D01*
X210889368Y-86941975D01*
X211063760Y-87058500D01*
X210889368Y-87175025D01*
X210682525Y-87381868D01*
X210520010Y-87625089D01*
X210408068Y-87895342D01*
X210351000Y-88182240D01*
X210351000Y-88474760D01*
X210408068Y-88761658D01*
X210520010Y-89031911D01*
X210682525Y-89275132D01*
X210889368Y-89481975D01*
X211063760Y-89598500D01*
X210889368Y-89715025D01*
X210682525Y-89921868D01*
X210520010Y-90165089D01*
X210408068Y-90435342D01*
X210351000Y-90722240D01*
X210351000Y-91014760D01*
X210408068Y-91301658D01*
X210520010Y-91571911D01*
X210682525Y-91815132D01*
X210889368Y-92021975D01*
X211132589Y-92184490D01*
X211402842Y-92296432D01*
X211689740Y-92353500D01*
X211982260Y-92353500D01*
X212269158Y-92296432D01*
X212539411Y-92184490D01*
X212782632Y-92021975D01*
X212954000Y-91850607D01*
X212954000Y-95021534D01*
X195567159Y-94983279D01*
X195569504Y-93116061D01*
X200450500Y-93116061D01*
X200450500Y-93319939D01*
X200490274Y-93519898D01*
X200568295Y-93708256D01*
X200681563Y-93877774D01*
X200825726Y-94021937D01*
X200995244Y-94135205D01*
X201183602Y-94213226D01*
X201383561Y-94253000D01*
X201587439Y-94253000D01*
X201787398Y-94213226D01*
X201975756Y-94135205D01*
X202145274Y-94021937D01*
X202289437Y-93877774D01*
X202402705Y-93708256D01*
X202480726Y-93519898D01*
X202520500Y-93319939D01*
X202520500Y-93116061D01*
X202480726Y-92916102D01*
X202402705Y-92727744D01*
X202289437Y-92558226D01*
X202145274Y-92414063D01*
X201975756Y-92300795D01*
X201787398Y-92222774D01*
X201587439Y-92183000D01*
X201383561Y-92183000D01*
X201183602Y-92222774D01*
X200995244Y-92300795D01*
X200825726Y-92414063D01*
X200681563Y-92558226D01*
X200568295Y-92727744D01*
X200490274Y-92916102D01*
X200450500Y-93116061D01*
X195569504Y-93116061D01*
X195572701Y-90572132D01*
X195581705Y-90558656D01*
X195659726Y-90370298D01*
X195699500Y-90170339D01*
X195699500Y-89966461D01*
X195659726Y-89766502D01*
X195581705Y-89578144D01*
X195573964Y-89566559D01*
X195573972Y-89560061D01*
X198228000Y-89560061D01*
X198228000Y-89763939D01*
X198267774Y-89963898D01*
X198345795Y-90152256D01*
X198459063Y-90321774D01*
X198603226Y-90465937D01*
X198772744Y-90579205D01*
X198961102Y-90657226D01*
X199161061Y-90697000D01*
X199364939Y-90697000D01*
X199564898Y-90657226D01*
X199753256Y-90579205D01*
X199922774Y-90465937D01*
X200066937Y-90321774D01*
X200180205Y-90152256D01*
X200258226Y-89963898D01*
X200275399Y-89877561D01*
X202927000Y-89877561D01*
X202927000Y-90081439D01*
X202966774Y-90281398D01*
X203044795Y-90469756D01*
X203158063Y-90639274D01*
X203302226Y-90783437D01*
X203471744Y-90896705D01*
X203660102Y-90974726D01*
X203860061Y-91014500D01*
X204063939Y-91014500D01*
X204263898Y-90974726D01*
X204452256Y-90896705D01*
X204621774Y-90783437D01*
X204765937Y-90639274D01*
X204879205Y-90469756D01*
X204957226Y-90281398D01*
X204997000Y-90081439D01*
X204997000Y-89877561D01*
X204957226Y-89677602D01*
X204879205Y-89489244D01*
X204765937Y-89319726D01*
X204621774Y-89175563D01*
X204452256Y-89062295D01*
X204263898Y-88984274D01*
X204063939Y-88944500D01*
X203860061Y-88944500D01*
X203660102Y-88984274D01*
X203471744Y-89062295D01*
X203302226Y-89175563D01*
X203158063Y-89319726D01*
X203044795Y-89489244D01*
X202966774Y-89677602D01*
X202927000Y-89877561D01*
X200275399Y-89877561D01*
X200298000Y-89763939D01*
X200298000Y-89560061D01*
X200258226Y-89360102D01*
X200180205Y-89171744D01*
X200066937Y-89002226D01*
X199922774Y-88858063D01*
X199753256Y-88744795D01*
X199564898Y-88666774D01*
X199364939Y-88627000D01*
X199161061Y-88627000D01*
X198961102Y-88666774D01*
X198772744Y-88744795D01*
X198603226Y-88858063D01*
X198459063Y-89002226D01*
X198345795Y-89171744D01*
X198267774Y-89360102D01*
X198228000Y-89560061D01*
X195573972Y-89560061D01*
X195577000Y-87150160D01*
X195574591Y-87125380D01*
X195567394Y-87101547D01*
X195555685Y-87079575D01*
X195539915Y-87060310D01*
X195520690Y-87044492D01*
X195498748Y-87032728D01*
X195474933Y-87025471D01*
X195459062Y-87023865D01*
X195460656Y-87023205D01*
X195630174Y-86909937D01*
X195672450Y-86867661D01*
X199625000Y-86867661D01*
X199625000Y-87071539D01*
X199664774Y-87271498D01*
X199742795Y-87459856D01*
X199856063Y-87629374D01*
X200000226Y-87773537D01*
X200169744Y-87886805D01*
X200358102Y-87964826D01*
X200558061Y-88004600D01*
X200761939Y-88004600D01*
X200961898Y-87964826D01*
X201150256Y-87886805D01*
X201319774Y-87773537D01*
X201463937Y-87629374D01*
X201577205Y-87459856D01*
X201655226Y-87271498D01*
X201695000Y-87071539D01*
X201695000Y-86867661D01*
X201655226Y-86667702D01*
X201653884Y-86664461D01*
X203282600Y-86664461D01*
X203282600Y-86868339D01*
X203322374Y-87068298D01*
X203400395Y-87256656D01*
X203513663Y-87426174D01*
X203657826Y-87570337D01*
X203827344Y-87683605D01*
X204015702Y-87761626D01*
X204215661Y-87801400D01*
X204419539Y-87801400D01*
X204619498Y-87761626D01*
X204807856Y-87683605D01*
X204977374Y-87570337D01*
X205019650Y-87528061D01*
X205467000Y-87528061D01*
X205467000Y-87731939D01*
X205506774Y-87931898D01*
X205584795Y-88120256D01*
X205698063Y-88289774D01*
X205842226Y-88433937D01*
X206011744Y-88547205D01*
X206200102Y-88625226D01*
X206400061Y-88665000D01*
X206603939Y-88665000D01*
X206803898Y-88625226D01*
X206992256Y-88547205D01*
X207161774Y-88433937D01*
X207305937Y-88289774D01*
X207419205Y-88120256D01*
X207497226Y-87931898D01*
X207537000Y-87731939D01*
X207537000Y-87528061D01*
X207497226Y-87328102D01*
X207419205Y-87139744D01*
X207305937Y-86970226D01*
X207161774Y-86826063D01*
X206992256Y-86712795D01*
X206803898Y-86634774D01*
X206603939Y-86595000D01*
X206400061Y-86595000D01*
X206200102Y-86634774D01*
X206011744Y-86712795D01*
X205842226Y-86826063D01*
X205698063Y-86970226D01*
X205584795Y-87139744D01*
X205506774Y-87328102D01*
X205467000Y-87528061D01*
X205019650Y-87528061D01*
X205121537Y-87426174D01*
X205234805Y-87256656D01*
X205312826Y-87068298D01*
X205352600Y-86868339D01*
X205352600Y-86664461D01*
X205312826Y-86464502D01*
X205234805Y-86276144D01*
X205121537Y-86106626D01*
X204977374Y-85962463D01*
X204807856Y-85849195D01*
X204619498Y-85771174D01*
X204419539Y-85731400D01*
X204215661Y-85731400D01*
X204015702Y-85771174D01*
X203827344Y-85849195D01*
X203657826Y-85962463D01*
X203513663Y-86106626D01*
X203400395Y-86276144D01*
X203322374Y-86464502D01*
X203282600Y-86664461D01*
X201653884Y-86664461D01*
X201577205Y-86479344D01*
X201463937Y-86309826D01*
X201319774Y-86165663D01*
X201150256Y-86052395D01*
X200961898Y-85974374D01*
X200761939Y-85934600D01*
X200558061Y-85934600D01*
X200358102Y-85974374D01*
X200169744Y-86052395D01*
X200000226Y-86165663D01*
X199856063Y-86309826D01*
X199742795Y-86479344D01*
X199664774Y-86667702D01*
X199625000Y-86867661D01*
X195672450Y-86867661D01*
X195774337Y-86765774D01*
X195887605Y-86596256D01*
X195965626Y-86407898D01*
X196005400Y-86207939D01*
X196005400Y-86004061D01*
X195965626Y-85804102D01*
X195887605Y-85615744D01*
X195774337Y-85446226D01*
X195630174Y-85302063D01*
X195460656Y-85188795D01*
X195272298Y-85110774D01*
X195072339Y-85071000D01*
X194868461Y-85071000D01*
X194668502Y-85110774D01*
X194480144Y-85188795D01*
X194310626Y-85302063D01*
X194166463Y-85446226D01*
X194053195Y-85615744D01*
X193975174Y-85804102D01*
X193935400Y-86004061D01*
X193935400Y-86207939D01*
X193975174Y-86407898D01*
X194053195Y-86596256D01*
X194166463Y-86765774D01*
X194310626Y-86909937D01*
X194473905Y-87019036D01*
X188638580Y-86995348D01*
X188635482Y-84358061D01*
X189965000Y-84358061D01*
X189965000Y-84561939D01*
X190004774Y-84761898D01*
X190082795Y-84950256D01*
X190196063Y-85119774D01*
X190340226Y-85263937D01*
X190509744Y-85377205D01*
X190698102Y-85455226D01*
X190898061Y-85495000D01*
X191101939Y-85495000D01*
X191301898Y-85455226D01*
X191490256Y-85377205D01*
X191659774Y-85263937D01*
X191803937Y-85119774D01*
X191917205Y-84950256D01*
X191995226Y-84761898D01*
X192035000Y-84561939D01*
X192035000Y-84358061D01*
X191995226Y-84158102D01*
X191917205Y-83969744D01*
X191803937Y-83800226D01*
X191659774Y-83656063D01*
X191490256Y-83542795D01*
X191301898Y-83464774D01*
X191101939Y-83425000D01*
X190898061Y-83425000D01*
X190698102Y-83464774D01*
X190509744Y-83542795D01*
X190340226Y-83656063D01*
X190196063Y-83800226D01*
X190082795Y-83969744D01*
X190004774Y-84158102D01*
X189965000Y-84358061D01*
X188635482Y-84358061D01*
X188633775Y-82905261D01*
X193108800Y-82905261D01*
X193108800Y-83109139D01*
X193148574Y-83309098D01*
X193226595Y-83497456D01*
X193339863Y-83666974D01*
X193484026Y-83811137D01*
X193653544Y-83924405D01*
X193841902Y-84002426D01*
X194041861Y-84042200D01*
X194245739Y-84042200D01*
X194445698Y-84002426D01*
X194634056Y-83924405D01*
X194803574Y-83811137D01*
X194947737Y-83666974D01*
X195061005Y-83497456D01*
X195116922Y-83362461D01*
X199675800Y-83362461D01*
X199675800Y-83566339D01*
X199715574Y-83766298D01*
X199793595Y-83954656D01*
X199906863Y-84124174D01*
X200051026Y-84268337D01*
X200220544Y-84381605D01*
X200408902Y-84459626D01*
X200608861Y-84499400D01*
X200812739Y-84499400D01*
X201012698Y-84459626D01*
X201201056Y-84381605D01*
X201370574Y-84268337D01*
X201514737Y-84124174D01*
X201628005Y-83954656D01*
X201706026Y-83766298D01*
X201745800Y-83566339D01*
X201745800Y-83413261D01*
X203130200Y-83413261D01*
X203130200Y-83617139D01*
X203169974Y-83817098D01*
X203247995Y-84005456D01*
X203361263Y-84174974D01*
X203505426Y-84319137D01*
X203674944Y-84432405D01*
X203863302Y-84510426D01*
X204063261Y-84550200D01*
X204267139Y-84550200D01*
X204467098Y-84510426D01*
X204655456Y-84432405D01*
X204824974Y-84319137D01*
X204969137Y-84174974D01*
X205082405Y-84005456D01*
X205160426Y-83817098D01*
X205200200Y-83617139D01*
X205200200Y-83413261D01*
X205160426Y-83213302D01*
X205082405Y-83024944D01*
X204969137Y-82855426D01*
X204824974Y-82711263D01*
X204655456Y-82597995D01*
X204467098Y-82519974D01*
X204267139Y-82480200D01*
X204063261Y-82480200D01*
X203863302Y-82519974D01*
X203674944Y-82597995D01*
X203505426Y-82711263D01*
X203361263Y-82855426D01*
X203247995Y-83024944D01*
X203169974Y-83213302D01*
X203130200Y-83413261D01*
X201745800Y-83413261D01*
X201745800Y-83362461D01*
X201706026Y-83162502D01*
X201628005Y-82974144D01*
X201514737Y-82804626D01*
X201370574Y-82660463D01*
X201201056Y-82547195D01*
X201012698Y-82469174D01*
X200812739Y-82429400D01*
X200608861Y-82429400D01*
X200408902Y-82469174D01*
X200220544Y-82547195D01*
X200051026Y-82660463D01*
X199906863Y-82804626D01*
X199793595Y-82974144D01*
X199715574Y-83162502D01*
X199675800Y-83362461D01*
X195116922Y-83362461D01*
X195139026Y-83309098D01*
X195178800Y-83109139D01*
X195178800Y-82905261D01*
X195139026Y-82705302D01*
X195061005Y-82516944D01*
X194947737Y-82347426D01*
X194803574Y-82203263D01*
X194634056Y-82089995D01*
X194445698Y-82011974D01*
X194245739Y-81972200D01*
X194041861Y-81972200D01*
X193841902Y-82011974D01*
X193653544Y-82089995D01*
X193484026Y-82203263D01*
X193339863Y-82347426D01*
X193226595Y-82516944D01*
X193148574Y-82705302D01*
X193108800Y-82905261D01*
X188633775Y-82905261D01*
X188629596Y-79349261D01*
X189566600Y-79349261D01*
X189566600Y-79553139D01*
X189606374Y-79753098D01*
X189684395Y-79941456D01*
X189797663Y-80110974D01*
X189941826Y-80255137D01*
X190111344Y-80368405D01*
X190299702Y-80446426D01*
X190499661Y-80486200D01*
X190703539Y-80486200D01*
X190903498Y-80446426D01*
X191091856Y-80368405D01*
X191261374Y-80255137D01*
X191405537Y-80110974D01*
X191518805Y-79941456D01*
X191596826Y-79753098D01*
X191636600Y-79553139D01*
X191636600Y-79349261D01*
X191596826Y-79149302D01*
X191518805Y-78960944D01*
X191405537Y-78791426D01*
X191261374Y-78647263D01*
X191091856Y-78533995D01*
X190903498Y-78455974D01*
X190703539Y-78416200D01*
X190499661Y-78416200D01*
X190299702Y-78455974D01*
X190111344Y-78533995D01*
X189941826Y-78647263D01*
X189797663Y-78791426D01*
X189684395Y-78960944D01*
X189606374Y-79149302D01*
X189566600Y-79349261D01*
X188629596Y-79349261D01*
X188628104Y-78079261D01*
X192411400Y-78079261D01*
X192411400Y-78283139D01*
X192451174Y-78483098D01*
X192529195Y-78671456D01*
X192642463Y-78840974D01*
X192786626Y-78985137D01*
X192956144Y-79098405D01*
X193144502Y-79176426D01*
X193344461Y-79216200D01*
X193548339Y-79216200D01*
X193748298Y-79176426D01*
X193936656Y-79098405D01*
X194106174Y-78985137D01*
X194250337Y-78840974D01*
X194363605Y-78671456D01*
X194440564Y-78485661D01*
X194748200Y-78485661D01*
X194748200Y-78689539D01*
X194787974Y-78889498D01*
X194865995Y-79077856D01*
X194979263Y-79247374D01*
X195123426Y-79391537D01*
X195292944Y-79504805D01*
X195481302Y-79582826D01*
X195681261Y-79622600D01*
X195885139Y-79622600D01*
X196085098Y-79582826D01*
X196273456Y-79504805D01*
X196442974Y-79391537D01*
X196587137Y-79247374D01*
X196700405Y-79077856D01*
X196778426Y-78889498D01*
X196818200Y-78689539D01*
X196818200Y-78485661D01*
X196778426Y-78285702D01*
X196700405Y-78097344D01*
X196587137Y-77927826D01*
X196442974Y-77783663D01*
X196273456Y-77670395D01*
X196156769Y-77622061D01*
X198253400Y-77622061D01*
X198253400Y-77825939D01*
X198293174Y-78025898D01*
X198371195Y-78214256D01*
X198484463Y-78383774D01*
X198628626Y-78527937D01*
X198798144Y-78641205D01*
X198986502Y-78719226D01*
X199186461Y-78759000D01*
X199390339Y-78759000D01*
X199590298Y-78719226D01*
X199778656Y-78641205D01*
X199948174Y-78527937D01*
X200092337Y-78383774D01*
X200205605Y-78214256D01*
X200283626Y-78025898D01*
X200323400Y-77825939D01*
X200323400Y-77622061D01*
X200283626Y-77422102D01*
X200205605Y-77233744D01*
X200092337Y-77064226D01*
X199948174Y-76920063D01*
X199778656Y-76806795D01*
X199590298Y-76728774D01*
X199390339Y-76689000D01*
X199186461Y-76689000D01*
X198986502Y-76728774D01*
X198798144Y-76806795D01*
X198628626Y-76920063D01*
X198484463Y-77064226D01*
X198371195Y-77233744D01*
X198293174Y-77422102D01*
X198253400Y-77622061D01*
X196156769Y-77622061D01*
X196085098Y-77592374D01*
X195885139Y-77552600D01*
X195681261Y-77552600D01*
X195481302Y-77592374D01*
X195292944Y-77670395D01*
X195123426Y-77783663D01*
X194979263Y-77927826D01*
X194865995Y-78097344D01*
X194787974Y-78285702D01*
X194748200Y-78485661D01*
X194440564Y-78485661D01*
X194441626Y-78483098D01*
X194481400Y-78283139D01*
X194481400Y-78079261D01*
X194441626Y-77879302D01*
X194369686Y-77705625D01*
X194453537Y-77621774D01*
X194566805Y-77452256D01*
X194644826Y-77263898D01*
X194684600Y-77063939D01*
X194684600Y-76860061D01*
X194644826Y-76660102D01*
X194566805Y-76471744D01*
X194453537Y-76302226D01*
X194309374Y-76158063D01*
X194139856Y-76044795D01*
X193951498Y-75966774D01*
X193774762Y-75931619D01*
X194151250Y-75930000D01*
X194310000Y-75771250D01*
X194310000Y-74422000D01*
X194564000Y-74422000D01*
X194564000Y-75771250D01*
X194722750Y-75930000D01*
X195437000Y-75933072D01*
X195561482Y-75920812D01*
X195681180Y-75884502D01*
X195791494Y-75825537D01*
X195888185Y-75746185D01*
X195967537Y-75649494D01*
X196026502Y-75539180D01*
X196062812Y-75419482D01*
X196075072Y-75295000D01*
X196072000Y-74580750D01*
X195913250Y-74422000D01*
X194564000Y-74422000D01*
X194310000Y-74422000D01*
X192960750Y-74422000D01*
X192802000Y-74580750D01*
X192798928Y-75295000D01*
X192811188Y-75419482D01*
X192847498Y-75539180D01*
X192906463Y-75649494D01*
X192985815Y-75746185D01*
X193082506Y-75825537D01*
X193192820Y-75884502D01*
X193312518Y-75920812D01*
X193437000Y-75933072D01*
X193518906Y-75932720D01*
X193347702Y-75966774D01*
X193159344Y-76044795D01*
X192989826Y-76158063D01*
X192845663Y-76302226D01*
X192732395Y-76471744D01*
X192654374Y-76660102D01*
X192614600Y-76860061D01*
X192614600Y-77063939D01*
X192654374Y-77263898D01*
X192726314Y-77437575D01*
X192642463Y-77521426D01*
X192529195Y-77690944D01*
X192451174Y-77879302D01*
X192411400Y-78079261D01*
X188628104Y-78079261D01*
X188626034Y-76318061D01*
X190505000Y-76318061D01*
X190505000Y-76521939D01*
X190544774Y-76721898D01*
X190622795Y-76910256D01*
X190736063Y-77079774D01*
X190880226Y-77223937D01*
X191049744Y-77337205D01*
X191238102Y-77415226D01*
X191438061Y-77455000D01*
X191641939Y-77455000D01*
X191841898Y-77415226D01*
X192030256Y-77337205D01*
X192199774Y-77223937D01*
X192343937Y-77079774D01*
X192457205Y-76910256D01*
X192535226Y-76721898D01*
X192575000Y-76521939D01*
X192575000Y-76318061D01*
X192535226Y-76118102D01*
X192457205Y-75929744D01*
X192343937Y-75760226D01*
X192199774Y-75616063D01*
X192030256Y-75502795D01*
X191841898Y-75424774D01*
X191641939Y-75385000D01*
X191438061Y-75385000D01*
X191238102Y-75424774D01*
X191049744Y-75502795D01*
X190880226Y-75616063D01*
X190736063Y-75760226D01*
X190622795Y-75929744D01*
X190544774Y-76118102D01*
X190505000Y-76318061D01*
X188626034Y-76318061D01*
X188625533Y-75891777D01*
X188807501Y-75946977D01*
X188974248Y-75963400D01*
X189585752Y-75963400D01*
X189752499Y-75946977D01*
X189966447Y-75882076D01*
X190163623Y-75776684D01*
X190336449Y-75634849D01*
X190478284Y-75462023D01*
X190583676Y-75264847D01*
X190648577Y-75050899D01*
X190670491Y-74828400D01*
X190662119Y-74743400D01*
X190758207Y-74743400D01*
X190932300Y-74726253D01*
X191155674Y-74658494D01*
X191361536Y-74548458D01*
X191541975Y-74400375D01*
X191690058Y-74219936D01*
X191800094Y-74014074D01*
X191867853Y-73790700D01*
X191890733Y-73558400D01*
X191867853Y-73326100D01*
X191858420Y-73295000D01*
X192798928Y-73295000D01*
X192802000Y-74009250D01*
X192960750Y-74168000D01*
X194310000Y-74168000D01*
X194310000Y-72818750D01*
X194564000Y-72818750D01*
X194564000Y-74168000D01*
X195913250Y-74168000D01*
X196072000Y-74009250D01*
X196075072Y-73295000D01*
X196062812Y-73170518D01*
X196026502Y-73050820D01*
X196018827Y-73036461D01*
X198304200Y-73036461D01*
X198304200Y-73240339D01*
X198343974Y-73440298D01*
X198421995Y-73628656D01*
X198535263Y-73798174D01*
X198679426Y-73942337D01*
X198848944Y-74055605D01*
X199037302Y-74133626D01*
X199077893Y-74141700D01*
X199037302Y-74149774D01*
X198848944Y-74227795D01*
X198679426Y-74341063D01*
X198535263Y-74485226D01*
X198421995Y-74654744D01*
X198343974Y-74843102D01*
X198304200Y-75043061D01*
X198304200Y-75246939D01*
X198343974Y-75446898D01*
X198421995Y-75635256D01*
X198535263Y-75804774D01*
X198679426Y-75948937D01*
X198848944Y-76062205D01*
X199037302Y-76140226D01*
X199237261Y-76180000D01*
X199441139Y-76180000D01*
X199641098Y-76140226D01*
X199829456Y-76062205D01*
X199998974Y-75948937D01*
X200143137Y-75804774D01*
X200256405Y-75635256D01*
X200334426Y-75446898D01*
X200374200Y-75246939D01*
X200374200Y-75043061D01*
X200334426Y-74843102D01*
X200256405Y-74654744D01*
X200143137Y-74485226D01*
X199998974Y-74341063D01*
X199829456Y-74227795D01*
X199641098Y-74149774D01*
X199600507Y-74141700D01*
X199639383Y-74133967D01*
X205502000Y-74133967D01*
X205502000Y-74456033D01*
X205564832Y-74771912D01*
X205688082Y-75069463D01*
X205867013Y-75337252D01*
X206094748Y-75564987D01*
X206362537Y-75743918D01*
X206660088Y-75867168D01*
X206975967Y-75930000D01*
X207298033Y-75930000D01*
X207613912Y-75867168D01*
X207911463Y-75743918D01*
X208179252Y-75564987D01*
X208406987Y-75337252D01*
X208585918Y-75069463D01*
X208709168Y-74771912D01*
X208772000Y-74456033D01*
X208772000Y-74133967D01*
X208709168Y-73818088D01*
X208585918Y-73520537D01*
X208406987Y-73252748D01*
X208179252Y-73025013D01*
X207911463Y-72846082D01*
X207613912Y-72722832D01*
X207298033Y-72660000D01*
X206975967Y-72660000D01*
X206660088Y-72722832D01*
X206362537Y-72846082D01*
X206094748Y-73025013D01*
X205867013Y-73252748D01*
X205688082Y-73520537D01*
X205564832Y-73818088D01*
X205502000Y-74133967D01*
X199639383Y-74133967D01*
X199641098Y-74133626D01*
X199829456Y-74055605D01*
X199998974Y-73942337D01*
X200143137Y-73798174D01*
X200256405Y-73628656D01*
X200334426Y-73440298D01*
X200374200Y-73240339D01*
X200374200Y-73036461D01*
X200334426Y-72836502D01*
X200256405Y-72648144D01*
X200143137Y-72478626D01*
X199998974Y-72334463D01*
X199829456Y-72221195D01*
X199641098Y-72143174D01*
X199441139Y-72103400D01*
X199237261Y-72103400D01*
X199037302Y-72143174D01*
X198848944Y-72221195D01*
X198679426Y-72334463D01*
X198535263Y-72478626D01*
X198421995Y-72648144D01*
X198343974Y-72836502D01*
X198304200Y-73036461D01*
X196018827Y-73036461D01*
X195967537Y-72940506D01*
X195888185Y-72843815D01*
X195791494Y-72764463D01*
X195681180Y-72705498D01*
X195561482Y-72669188D01*
X195437000Y-72656928D01*
X194722750Y-72660000D01*
X194564000Y-72818750D01*
X194310000Y-72818750D01*
X194151250Y-72660000D01*
X193437000Y-72656928D01*
X193312518Y-72669188D01*
X193192820Y-72705498D01*
X193082506Y-72764463D01*
X192985815Y-72843815D01*
X192906463Y-72940506D01*
X192847498Y-73050820D01*
X192811188Y-73170518D01*
X192798928Y-73295000D01*
X191858420Y-73295000D01*
X191800094Y-73102726D01*
X191690058Y-72896864D01*
X191541975Y-72716425D01*
X191361536Y-72568342D01*
X191155674Y-72458306D01*
X190932300Y-72390547D01*
X190758207Y-72373400D01*
X190620361Y-72373400D01*
X190628733Y-72288400D01*
X190605853Y-72056100D01*
X190541362Y-71843500D01*
X212954000Y-71843500D01*
X212954000Y-74032069D01*
G37*
X212954000Y-74032069D02*
X212880256Y-73982795D01*
X212796782Y-73948218D01*
X212762205Y-73864744D01*
X212648937Y-73695226D01*
X212504774Y-73551063D01*
X212335256Y-73437795D01*
X212146898Y-73359774D01*
X211946939Y-73320000D01*
X211743061Y-73320000D01*
X211548944Y-73358612D01*
X211406898Y-73299774D01*
X211206939Y-73260000D01*
X211003061Y-73260000D01*
X210803102Y-73299774D01*
X210720000Y-73334196D01*
X210636898Y-73299774D01*
X210436939Y-73260000D01*
X210233061Y-73260000D01*
X210033102Y-73299774D01*
X209844744Y-73377795D01*
X209675226Y-73491063D01*
X209531063Y-73635226D01*
X209417795Y-73804744D01*
X209339774Y-73993102D01*
X209300000Y-74193061D01*
X209300000Y-74396939D01*
X209339774Y-74596898D01*
X209417795Y-74785256D01*
X209531063Y-74954774D01*
X209675226Y-75098937D01*
X209844744Y-75212205D01*
X210033102Y-75290226D01*
X210233061Y-75330000D01*
X210436939Y-75330000D01*
X210636898Y-75290226D01*
X210720000Y-75255804D01*
X210803102Y-75290226D01*
X211003061Y-75330000D01*
X211206939Y-75330000D01*
X211401056Y-75291388D01*
X211438218Y-75306782D01*
X211472795Y-75390256D01*
X211577275Y-75546622D01*
X211575000Y-75558061D01*
X211575000Y-75761939D01*
X211614774Y-75961898D01*
X211667836Y-76090000D01*
X211614774Y-76218102D01*
X211575000Y-76418061D01*
X211575000Y-76621939D01*
X211614774Y-76821898D01*
X211692795Y-77010256D01*
X211806063Y-77179774D01*
X211950226Y-77323937D01*
X212119744Y-77437205D01*
X212308102Y-77515226D01*
X212508061Y-77555000D01*
X212711939Y-77555000D01*
X212911898Y-77515226D01*
X212954000Y-77497787D01*
X212954000Y-79281730D01*
X212930180Y-79268998D01*
X212810482Y-79232688D01*
X212686000Y-79220428D01*
X210986000Y-79220428D01*
X210861518Y-79232688D01*
X210741820Y-79268998D01*
X210631506Y-79327963D01*
X210534815Y-79407315D01*
X210455463Y-79504006D01*
X210396498Y-79614320D01*
X210360188Y-79734018D01*
X210347928Y-79858500D01*
X210347928Y-81558500D01*
X210360188Y-81682982D01*
X210396498Y-81802680D01*
X210455463Y-81912994D01*
X210534815Y-82009685D01*
X210631506Y-82089037D01*
X210741820Y-82148002D01*
X210822466Y-82172466D01*
X210738412Y-82248231D01*
X210564359Y-82481580D01*
X210439175Y-82744401D01*
X210394524Y-82891610D01*
X210515845Y-83121500D01*
X211709000Y-83121500D01*
X211709000Y-83101500D01*
X211963000Y-83101500D01*
X211963000Y-83121500D01*
X211983000Y-83121500D01*
X211983000Y-83375500D01*
X211963000Y-83375500D01*
X211963000Y-83395500D01*
X211709000Y-83395500D01*
X211709000Y-83375500D01*
X210515845Y-83375500D01*
X210394524Y-83605390D01*
X210439175Y-83752599D01*
X210564359Y-84015420D01*
X210738412Y-84248769D01*
X210954645Y-84443678D01*
X211071534Y-84513305D01*
X210889368Y-84635025D01*
X210682525Y-84841868D01*
X210520010Y-85085089D01*
X210408068Y-85355342D01*
X210351000Y-85642240D01*
X210351000Y-85934760D01*
X210408068Y-86221658D01*
X210520010Y-86491911D01*
X210682525Y-86735132D01*
X210889368Y-86941975D01*
X211063760Y-87058500D01*
X210889368Y-87175025D01*
X210682525Y-87381868D01*
X210520010Y-87625089D01*
X210408068Y-87895342D01*
X210351000Y-88182240D01*
X210351000Y-88474760D01*
X210408068Y-88761658D01*
X210520010Y-89031911D01*
X210682525Y-89275132D01*
X210889368Y-89481975D01*
X211063760Y-89598500D01*
X210889368Y-89715025D01*
X210682525Y-89921868D01*
X210520010Y-90165089D01*
X210408068Y-90435342D01*
X210351000Y-90722240D01*
X210351000Y-91014760D01*
X210408068Y-91301658D01*
X210520010Y-91571911D01*
X210682525Y-91815132D01*
X210889368Y-92021975D01*
X211132589Y-92184490D01*
X211402842Y-92296432D01*
X211689740Y-92353500D01*
X211982260Y-92353500D01*
X212269158Y-92296432D01*
X212539411Y-92184490D01*
X212782632Y-92021975D01*
X212954000Y-91850607D01*
X212954000Y-95021534D01*
X195567159Y-94983279D01*
X195569504Y-93116061D01*
X200450500Y-93116061D01*
X200450500Y-93319939D01*
X200490274Y-93519898D01*
X200568295Y-93708256D01*
X200681563Y-93877774D01*
X200825726Y-94021937D01*
X200995244Y-94135205D01*
X201183602Y-94213226D01*
X201383561Y-94253000D01*
X201587439Y-94253000D01*
X201787398Y-94213226D01*
X201975756Y-94135205D01*
X202145274Y-94021937D01*
X202289437Y-93877774D01*
X202402705Y-93708256D01*
X202480726Y-93519898D01*
X202520500Y-93319939D01*
X202520500Y-93116061D01*
X202480726Y-92916102D01*
X202402705Y-92727744D01*
X202289437Y-92558226D01*
X202145274Y-92414063D01*
X201975756Y-92300795D01*
X201787398Y-92222774D01*
X201587439Y-92183000D01*
X201383561Y-92183000D01*
X201183602Y-92222774D01*
X200995244Y-92300795D01*
X200825726Y-92414063D01*
X200681563Y-92558226D01*
X200568295Y-92727744D01*
X200490274Y-92916102D01*
X200450500Y-93116061D01*
X195569504Y-93116061D01*
X195572701Y-90572132D01*
X195581705Y-90558656D01*
X195659726Y-90370298D01*
X195699500Y-90170339D01*
X195699500Y-89966461D01*
X195659726Y-89766502D01*
X195581705Y-89578144D01*
X195573964Y-89566559D01*
X195573972Y-89560061D01*
X198228000Y-89560061D01*
X198228000Y-89763939D01*
X198267774Y-89963898D01*
X198345795Y-90152256D01*
X198459063Y-90321774D01*
X198603226Y-90465937D01*
X198772744Y-90579205D01*
X198961102Y-90657226D01*
X199161061Y-90697000D01*
X199364939Y-90697000D01*
X199564898Y-90657226D01*
X199753256Y-90579205D01*
X199922774Y-90465937D01*
X200066937Y-90321774D01*
X200180205Y-90152256D01*
X200258226Y-89963898D01*
X200275399Y-89877561D01*
X202927000Y-89877561D01*
X202927000Y-90081439D01*
X202966774Y-90281398D01*
X203044795Y-90469756D01*
X203158063Y-90639274D01*
X203302226Y-90783437D01*
X203471744Y-90896705D01*
X203660102Y-90974726D01*
X203860061Y-91014500D01*
X204063939Y-91014500D01*
X204263898Y-90974726D01*
X204452256Y-90896705D01*
X204621774Y-90783437D01*
X204765937Y-90639274D01*
X204879205Y-90469756D01*
X204957226Y-90281398D01*
X204997000Y-90081439D01*
X204997000Y-89877561D01*
X204957226Y-89677602D01*
X204879205Y-89489244D01*
X204765937Y-89319726D01*
X204621774Y-89175563D01*
X204452256Y-89062295D01*
X204263898Y-88984274D01*
X204063939Y-88944500D01*
X203860061Y-88944500D01*
X203660102Y-88984274D01*
X203471744Y-89062295D01*
X203302226Y-89175563D01*
X203158063Y-89319726D01*
X203044795Y-89489244D01*
X202966774Y-89677602D01*
X202927000Y-89877561D01*
X200275399Y-89877561D01*
X200298000Y-89763939D01*
X200298000Y-89560061D01*
X200258226Y-89360102D01*
X200180205Y-89171744D01*
X200066937Y-89002226D01*
X199922774Y-88858063D01*
X199753256Y-88744795D01*
X199564898Y-88666774D01*
X199364939Y-88627000D01*
X199161061Y-88627000D01*
X198961102Y-88666774D01*
X198772744Y-88744795D01*
X198603226Y-88858063D01*
X198459063Y-89002226D01*
X198345795Y-89171744D01*
X198267774Y-89360102D01*
X198228000Y-89560061D01*
X195573972Y-89560061D01*
X195577000Y-87150160D01*
X195574591Y-87125380D01*
X195567394Y-87101547D01*
X195555685Y-87079575D01*
X195539915Y-87060310D01*
X195520690Y-87044492D01*
X195498748Y-87032728D01*
X195474933Y-87025471D01*
X195459062Y-87023865D01*
X195460656Y-87023205D01*
X195630174Y-86909937D01*
X195672450Y-86867661D01*
X199625000Y-86867661D01*
X199625000Y-87071539D01*
X199664774Y-87271498D01*
X199742795Y-87459856D01*
X199856063Y-87629374D01*
X200000226Y-87773537D01*
X200169744Y-87886805D01*
X200358102Y-87964826D01*
X200558061Y-88004600D01*
X200761939Y-88004600D01*
X200961898Y-87964826D01*
X201150256Y-87886805D01*
X201319774Y-87773537D01*
X201463937Y-87629374D01*
X201577205Y-87459856D01*
X201655226Y-87271498D01*
X201695000Y-87071539D01*
X201695000Y-86867661D01*
X201655226Y-86667702D01*
X201653884Y-86664461D01*
X203282600Y-86664461D01*
X203282600Y-86868339D01*
X203322374Y-87068298D01*
X203400395Y-87256656D01*
X203513663Y-87426174D01*
X203657826Y-87570337D01*
X203827344Y-87683605D01*
X204015702Y-87761626D01*
X204215661Y-87801400D01*
X204419539Y-87801400D01*
X204619498Y-87761626D01*
X204807856Y-87683605D01*
X204977374Y-87570337D01*
X205019650Y-87528061D01*
X205467000Y-87528061D01*
X205467000Y-87731939D01*
X205506774Y-87931898D01*
X205584795Y-88120256D01*
X205698063Y-88289774D01*
X205842226Y-88433937D01*
X206011744Y-88547205D01*
X206200102Y-88625226D01*
X206400061Y-88665000D01*
X206603939Y-88665000D01*
X206803898Y-88625226D01*
X206992256Y-88547205D01*
X207161774Y-88433937D01*
X207305937Y-88289774D01*
X207419205Y-88120256D01*
X207497226Y-87931898D01*
X207537000Y-87731939D01*
X207537000Y-87528061D01*
X207497226Y-87328102D01*
X207419205Y-87139744D01*
X207305937Y-86970226D01*
X207161774Y-86826063D01*
X206992256Y-86712795D01*
X206803898Y-86634774D01*
X206603939Y-86595000D01*
X206400061Y-86595000D01*
X206200102Y-86634774D01*
X206011744Y-86712795D01*
X205842226Y-86826063D01*
X205698063Y-86970226D01*
X205584795Y-87139744D01*
X205506774Y-87328102D01*
X205467000Y-87528061D01*
X205019650Y-87528061D01*
X205121537Y-87426174D01*
X205234805Y-87256656D01*
X205312826Y-87068298D01*
X205352600Y-86868339D01*
X205352600Y-86664461D01*
X205312826Y-86464502D01*
X205234805Y-86276144D01*
X205121537Y-86106626D01*
X204977374Y-85962463D01*
X204807856Y-85849195D01*
X204619498Y-85771174D01*
X204419539Y-85731400D01*
X204215661Y-85731400D01*
X204015702Y-85771174D01*
X203827344Y-85849195D01*
X203657826Y-85962463D01*
X203513663Y-86106626D01*
X203400395Y-86276144D01*
X203322374Y-86464502D01*
X203282600Y-86664461D01*
X201653884Y-86664461D01*
X201577205Y-86479344D01*
X201463937Y-86309826D01*
X201319774Y-86165663D01*
X201150256Y-86052395D01*
X200961898Y-85974374D01*
X200761939Y-85934600D01*
X200558061Y-85934600D01*
X200358102Y-85974374D01*
X200169744Y-86052395D01*
X200000226Y-86165663D01*
X199856063Y-86309826D01*
X199742795Y-86479344D01*
X199664774Y-86667702D01*
X199625000Y-86867661D01*
X195672450Y-86867661D01*
X195774337Y-86765774D01*
X195887605Y-86596256D01*
X195965626Y-86407898D01*
X196005400Y-86207939D01*
X196005400Y-86004061D01*
X195965626Y-85804102D01*
X195887605Y-85615744D01*
X195774337Y-85446226D01*
X195630174Y-85302063D01*
X195460656Y-85188795D01*
X195272298Y-85110774D01*
X195072339Y-85071000D01*
X194868461Y-85071000D01*
X194668502Y-85110774D01*
X194480144Y-85188795D01*
X194310626Y-85302063D01*
X194166463Y-85446226D01*
X194053195Y-85615744D01*
X193975174Y-85804102D01*
X193935400Y-86004061D01*
X193935400Y-86207939D01*
X193975174Y-86407898D01*
X194053195Y-86596256D01*
X194166463Y-86765774D01*
X194310626Y-86909937D01*
X194473905Y-87019036D01*
X188638580Y-86995348D01*
X188635482Y-84358061D01*
X189965000Y-84358061D01*
X189965000Y-84561939D01*
X190004774Y-84761898D01*
X190082795Y-84950256D01*
X190196063Y-85119774D01*
X190340226Y-85263937D01*
X190509744Y-85377205D01*
X190698102Y-85455226D01*
X190898061Y-85495000D01*
X191101939Y-85495000D01*
X191301898Y-85455226D01*
X191490256Y-85377205D01*
X191659774Y-85263937D01*
X191803937Y-85119774D01*
X191917205Y-84950256D01*
X191995226Y-84761898D01*
X192035000Y-84561939D01*
X192035000Y-84358061D01*
X191995226Y-84158102D01*
X191917205Y-83969744D01*
X191803937Y-83800226D01*
X191659774Y-83656063D01*
X191490256Y-83542795D01*
X191301898Y-83464774D01*
X191101939Y-83425000D01*
X190898061Y-83425000D01*
X190698102Y-83464774D01*
X190509744Y-83542795D01*
X190340226Y-83656063D01*
X190196063Y-83800226D01*
X190082795Y-83969744D01*
X190004774Y-84158102D01*
X189965000Y-84358061D01*
X188635482Y-84358061D01*
X188633775Y-82905261D01*
X193108800Y-82905261D01*
X193108800Y-83109139D01*
X193148574Y-83309098D01*
X193226595Y-83497456D01*
X193339863Y-83666974D01*
X193484026Y-83811137D01*
X193653544Y-83924405D01*
X193841902Y-84002426D01*
X194041861Y-84042200D01*
X194245739Y-84042200D01*
X194445698Y-84002426D01*
X194634056Y-83924405D01*
X194803574Y-83811137D01*
X194947737Y-83666974D01*
X195061005Y-83497456D01*
X195116922Y-83362461D01*
X199675800Y-83362461D01*
X199675800Y-83566339D01*
X199715574Y-83766298D01*
X199793595Y-83954656D01*
X199906863Y-84124174D01*
X200051026Y-84268337D01*
X200220544Y-84381605D01*
X200408902Y-84459626D01*
X200608861Y-84499400D01*
X200812739Y-84499400D01*
X201012698Y-84459626D01*
X201201056Y-84381605D01*
X201370574Y-84268337D01*
X201514737Y-84124174D01*
X201628005Y-83954656D01*
X201706026Y-83766298D01*
X201745800Y-83566339D01*
X201745800Y-83413261D01*
X203130200Y-83413261D01*
X203130200Y-83617139D01*
X203169974Y-83817098D01*
X203247995Y-84005456D01*
X203361263Y-84174974D01*
X203505426Y-84319137D01*
X203674944Y-84432405D01*
X203863302Y-84510426D01*
X204063261Y-84550200D01*
X204267139Y-84550200D01*
X204467098Y-84510426D01*
X204655456Y-84432405D01*
X204824974Y-84319137D01*
X204969137Y-84174974D01*
X205082405Y-84005456D01*
X205160426Y-83817098D01*
X205200200Y-83617139D01*
X205200200Y-83413261D01*
X205160426Y-83213302D01*
X205082405Y-83024944D01*
X204969137Y-82855426D01*
X204824974Y-82711263D01*
X204655456Y-82597995D01*
X204467098Y-82519974D01*
X204267139Y-82480200D01*
X204063261Y-82480200D01*
X203863302Y-82519974D01*
X203674944Y-82597995D01*
X203505426Y-82711263D01*
X203361263Y-82855426D01*
X203247995Y-83024944D01*
X203169974Y-83213302D01*
X203130200Y-83413261D01*
X201745800Y-83413261D01*
X201745800Y-83362461D01*
X201706026Y-83162502D01*
X201628005Y-82974144D01*
X201514737Y-82804626D01*
X201370574Y-82660463D01*
X201201056Y-82547195D01*
X201012698Y-82469174D01*
X200812739Y-82429400D01*
X200608861Y-82429400D01*
X200408902Y-82469174D01*
X200220544Y-82547195D01*
X200051026Y-82660463D01*
X199906863Y-82804626D01*
X199793595Y-82974144D01*
X199715574Y-83162502D01*
X199675800Y-83362461D01*
X195116922Y-83362461D01*
X195139026Y-83309098D01*
X195178800Y-83109139D01*
X195178800Y-82905261D01*
X195139026Y-82705302D01*
X195061005Y-82516944D01*
X194947737Y-82347426D01*
X194803574Y-82203263D01*
X194634056Y-82089995D01*
X194445698Y-82011974D01*
X194245739Y-81972200D01*
X194041861Y-81972200D01*
X193841902Y-82011974D01*
X193653544Y-82089995D01*
X193484026Y-82203263D01*
X193339863Y-82347426D01*
X193226595Y-82516944D01*
X193148574Y-82705302D01*
X193108800Y-82905261D01*
X188633775Y-82905261D01*
X188629596Y-79349261D01*
X189566600Y-79349261D01*
X189566600Y-79553139D01*
X189606374Y-79753098D01*
X189684395Y-79941456D01*
X189797663Y-80110974D01*
X189941826Y-80255137D01*
X190111344Y-80368405D01*
X190299702Y-80446426D01*
X190499661Y-80486200D01*
X190703539Y-80486200D01*
X190903498Y-80446426D01*
X191091856Y-80368405D01*
X191261374Y-80255137D01*
X191405537Y-80110974D01*
X191518805Y-79941456D01*
X191596826Y-79753098D01*
X191636600Y-79553139D01*
X191636600Y-79349261D01*
X191596826Y-79149302D01*
X191518805Y-78960944D01*
X191405537Y-78791426D01*
X191261374Y-78647263D01*
X191091856Y-78533995D01*
X190903498Y-78455974D01*
X190703539Y-78416200D01*
X190499661Y-78416200D01*
X190299702Y-78455974D01*
X190111344Y-78533995D01*
X189941826Y-78647263D01*
X189797663Y-78791426D01*
X189684395Y-78960944D01*
X189606374Y-79149302D01*
X189566600Y-79349261D01*
X188629596Y-79349261D01*
X188628104Y-78079261D01*
X192411400Y-78079261D01*
X192411400Y-78283139D01*
X192451174Y-78483098D01*
X192529195Y-78671456D01*
X192642463Y-78840974D01*
X192786626Y-78985137D01*
X192956144Y-79098405D01*
X193144502Y-79176426D01*
X193344461Y-79216200D01*
X193548339Y-79216200D01*
X193748298Y-79176426D01*
X193936656Y-79098405D01*
X194106174Y-78985137D01*
X194250337Y-78840974D01*
X194363605Y-78671456D01*
X194440564Y-78485661D01*
X194748200Y-78485661D01*
X194748200Y-78689539D01*
X194787974Y-78889498D01*
X194865995Y-79077856D01*
X194979263Y-79247374D01*
X195123426Y-79391537D01*
X195292944Y-79504805D01*
X195481302Y-79582826D01*
X195681261Y-79622600D01*
X195885139Y-79622600D01*
X196085098Y-79582826D01*
X196273456Y-79504805D01*
X196442974Y-79391537D01*
X196587137Y-79247374D01*
X196700405Y-79077856D01*
X196778426Y-78889498D01*
X196818200Y-78689539D01*
X196818200Y-78485661D01*
X196778426Y-78285702D01*
X196700405Y-78097344D01*
X196587137Y-77927826D01*
X196442974Y-77783663D01*
X196273456Y-77670395D01*
X196156769Y-77622061D01*
X198253400Y-77622061D01*
X198253400Y-77825939D01*
X198293174Y-78025898D01*
X198371195Y-78214256D01*
X198484463Y-78383774D01*
X198628626Y-78527937D01*
X198798144Y-78641205D01*
X198986502Y-78719226D01*
X199186461Y-78759000D01*
X199390339Y-78759000D01*
X199590298Y-78719226D01*
X199778656Y-78641205D01*
X199948174Y-78527937D01*
X200092337Y-78383774D01*
X200205605Y-78214256D01*
X200283626Y-78025898D01*
X200323400Y-77825939D01*
X200323400Y-77622061D01*
X200283626Y-77422102D01*
X200205605Y-77233744D01*
X200092337Y-77064226D01*
X199948174Y-76920063D01*
X199778656Y-76806795D01*
X199590298Y-76728774D01*
X199390339Y-76689000D01*
X199186461Y-76689000D01*
X198986502Y-76728774D01*
X198798144Y-76806795D01*
X198628626Y-76920063D01*
X198484463Y-77064226D01*
X198371195Y-77233744D01*
X198293174Y-77422102D01*
X198253400Y-77622061D01*
X196156769Y-77622061D01*
X196085098Y-77592374D01*
X195885139Y-77552600D01*
X195681261Y-77552600D01*
X195481302Y-77592374D01*
X195292944Y-77670395D01*
X195123426Y-77783663D01*
X194979263Y-77927826D01*
X194865995Y-78097344D01*
X194787974Y-78285702D01*
X194748200Y-78485661D01*
X194440564Y-78485661D01*
X194441626Y-78483098D01*
X194481400Y-78283139D01*
X194481400Y-78079261D01*
X194441626Y-77879302D01*
X194369686Y-77705625D01*
X194453537Y-77621774D01*
X194566805Y-77452256D01*
X194644826Y-77263898D01*
X194684600Y-77063939D01*
X194684600Y-76860061D01*
X194644826Y-76660102D01*
X194566805Y-76471744D01*
X194453537Y-76302226D01*
X194309374Y-76158063D01*
X194139856Y-76044795D01*
X193951498Y-75966774D01*
X193774762Y-75931619D01*
X194151250Y-75930000D01*
X194310000Y-75771250D01*
X194310000Y-74422000D01*
X194564000Y-74422000D01*
X194564000Y-75771250D01*
X194722750Y-75930000D01*
X195437000Y-75933072D01*
X195561482Y-75920812D01*
X195681180Y-75884502D01*
X195791494Y-75825537D01*
X195888185Y-75746185D01*
X195967537Y-75649494D01*
X196026502Y-75539180D01*
X196062812Y-75419482D01*
X196075072Y-75295000D01*
X196072000Y-74580750D01*
X195913250Y-74422000D01*
X194564000Y-74422000D01*
X194310000Y-74422000D01*
X192960750Y-74422000D01*
X192802000Y-74580750D01*
X192798928Y-75295000D01*
X192811188Y-75419482D01*
X192847498Y-75539180D01*
X192906463Y-75649494D01*
X192985815Y-75746185D01*
X193082506Y-75825537D01*
X193192820Y-75884502D01*
X193312518Y-75920812D01*
X193437000Y-75933072D01*
X193518906Y-75932720D01*
X193347702Y-75966774D01*
X193159344Y-76044795D01*
X192989826Y-76158063D01*
X192845663Y-76302226D01*
X192732395Y-76471744D01*
X192654374Y-76660102D01*
X192614600Y-76860061D01*
X192614600Y-77063939D01*
X192654374Y-77263898D01*
X192726314Y-77437575D01*
X192642463Y-77521426D01*
X192529195Y-77690944D01*
X192451174Y-77879302D01*
X192411400Y-78079261D01*
X188628104Y-78079261D01*
X188626034Y-76318061D01*
X190505000Y-76318061D01*
X190505000Y-76521939D01*
X190544774Y-76721898D01*
X190622795Y-76910256D01*
X190736063Y-77079774D01*
X190880226Y-77223937D01*
X191049744Y-77337205D01*
X191238102Y-77415226D01*
X191438061Y-77455000D01*
X191641939Y-77455000D01*
X191841898Y-77415226D01*
X192030256Y-77337205D01*
X192199774Y-77223937D01*
X192343937Y-77079774D01*
X192457205Y-76910256D01*
X192535226Y-76721898D01*
X192575000Y-76521939D01*
X192575000Y-76318061D01*
X192535226Y-76118102D01*
X192457205Y-75929744D01*
X192343937Y-75760226D01*
X192199774Y-75616063D01*
X192030256Y-75502795D01*
X191841898Y-75424774D01*
X191641939Y-75385000D01*
X191438061Y-75385000D01*
X191238102Y-75424774D01*
X191049744Y-75502795D01*
X190880226Y-75616063D01*
X190736063Y-75760226D01*
X190622795Y-75929744D01*
X190544774Y-76118102D01*
X190505000Y-76318061D01*
X188626034Y-76318061D01*
X188625533Y-75891777D01*
X188807501Y-75946977D01*
X188974248Y-75963400D01*
X189585752Y-75963400D01*
X189752499Y-75946977D01*
X189966447Y-75882076D01*
X190163623Y-75776684D01*
X190336449Y-75634849D01*
X190478284Y-75462023D01*
X190583676Y-75264847D01*
X190648577Y-75050899D01*
X190670491Y-74828400D01*
X190662119Y-74743400D01*
X190758207Y-74743400D01*
X190932300Y-74726253D01*
X191155674Y-74658494D01*
X191361536Y-74548458D01*
X191541975Y-74400375D01*
X191690058Y-74219936D01*
X191800094Y-74014074D01*
X191867853Y-73790700D01*
X191890733Y-73558400D01*
X191867853Y-73326100D01*
X191858420Y-73295000D01*
X192798928Y-73295000D01*
X192802000Y-74009250D01*
X192960750Y-74168000D01*
X194310000Y-74168000D01*
X194310000Y-72818750D01*
X194564000Y-72818750D01*
X194564000Y-74168000D01*
X195913250Y-74168000D01*
X196072000Y-74009250D01*
X196075072Y-73295000D01*
X196062812Y-73170518D01*
X196026502Y-73050820D01*
X196018827Y-73036461D01*
X198304200Y-73036461D01*
X198304200Y-73240339D01*
X198343974Y-73440298D01*
X198421995Y-73628656D01*
X198535263Y-73798174D01*
X198679426Y-73942337D01*
X198848944Y-74055605D01*
X199037302Y-74133626D01*
X199077893Y-74141700D01*
X199037302Y-74149774D01*
X198848944Y-74227795D01*
X198679426Y-74341063D01*
X198535263Y-74485226D01*
X198421995Y-74654744D01*
X198343974Y-74843102D01*
X198304200Y-75043061D01*
X198304200Y-75246939D01*
X198343974Y-75446898D01*
X198421995Y-75635256D01*
X198535263Y-75804774D01*
X198679426Y-75948937D01*
X198848944Y-76062205D01*
X199037302Y-76140226D01*
X199237261Y-76180000D01*
X199441139Y-76180000D01*
X199641098Y-76140226D01*
X199829456Y-76062205D01*
X199998974Y-75948937D01*
X200143137Y-75804774D01*
X200256405Y-75635256D01*
X200334426Y-75446898D01*
X200374200Y-75246939D01*
X200374200Y-75043061D01*
X200334426Y-74843102D01*
X200256405Y-74654744D01*
X200143137Y-74485226D01*
X199998974Y-74341063D01*
X199829456Y-74227795D01*
X199641098Y-74149774D01*
X199600507Y-74141700D01*
X199639383Y-74133967D01*
X205502000Y-74133967D01*
X205502000Y-74456033D01*
X205564832Y-74771912D01*
X205688082Y-75069463D01*
X205867013Y-75337252D01*
X206094748Y-75564987D01*
X206362537Y-75743918D01*
X206660088Y-75867168D01*
X206975967Y-75930000D01*
X207298033Y-75930000D01*
X207613912Y-75867168D01*
X207911463Y-75743918D01*
X208179252Y-75564987D01*
X208406987Y-75337252D01*
X208585918Y-75069463D01*
X208709168Y-74771912D01*
X208772000Y-74456033D01*
X208772000Y-74133967D01*
X208709168Y-73818088D01*
X208585918Y-73520537D01*
X208406987Y-73252748D01*
X208179252Y-73025013D01*
X207911463Y-72846082D01*
X207613912Y-72722832D01*
X207298033Y-72660000D01*
X206975967Y-72660000D01*
X206660088Y-72722832D01*
X206362537Y-72846082D01*
X206094748Y-73025013D01*
X205867013Y-73252748D01*
X205688082Y-73520537D01*
X205564832Y-73818088D01*
X205502000Y-74133967D01*
X199639383Y-74133967D01*
X199641098Y-74133626D01*
X199829456Y-74055605D01*
X199998974Y-73942337D01*
X200143137Y-73798174D01*
X200256405Y-73628656D01*
X200334426Y-73440298D01*
X200374200Y-73240339D01*
X200374200Y-73036461D01*
X200334426Y-72836502D01*
X200256405Y-72648144D01*
X200143137Y-72478626D01*
X199998974Y-72334463D01*
X199829456Y-72221195D01*
X199641098Y-72143174D01*
X199441139Y-72103400D01*
X199237261Y-72103400D01*
X199037302Y-72143174D01*
X198848944Y-72221195D01*
X198679426Y-72334463D01*
X198535263Y-72478626D01*
X198421995Y-72648144D01*
X198343974Y-72836502D01*
X198304200Y-73036461D01*
X196018827Y-73036461D01*
X195967537Y-72940506D01*
X195888185Y-72843815D01*
X195791494Y-72764463D01*
X195681180Y-72705498D01*
X195561482Y-72669188D01*
X195437000Y-72656928D01*
X194722750Y-72660000D01*
X194564000Y-72818750D01*
X194310000Y-72818750D01*
X194151250Y-72660000D01*
X193437000Y-72656928D01*
X193312518Y-72669188D01*
X193192820Y-72705498D01*
X193082506Y-72764463D01*
X192985815Y-72843815D01*
X192906463Y-72940506D01*
X192847498Y-73050820D01*
X192811188Y-73170518D01*
X192798928Y-73295000D01*
X191858420Y-73295000D01*
X191800094Y-73102726D01*
X191690058Y-72896864D01*
X191541975Y-72716425D01*
X191361536Y-72568342D01*
X191155674Y-72458306D01*
X190932300Y-72390547D01*
X190758207Y-72373400D01*
X190620361Y-72373400D01*
X190628733Y-72288400D01*
X190605853Y-72056100D01*
X190541362Y-71843500D01*
X212954000Y-71843500D01*
X212954000Y-74032069D01*
%TO.N,VDD*%
G36*
X193875792Y-89393397D02*
G01*
X193860563Y-89408626D01*
X193747295Y-89578144D01*
X193669274Y-89766502D01*
X193629500Y-89966461D01*
X193629500Y-90170339D01*
X193669274Y-90370298D01*
X193747295Y-90558656D01*
X193860563Y-90728174D01*
X193880749Y-90748360D01*
X193901408Y-96395087D01*
X193777226Y-96478063D01*
X193633063Y-96622226D01*
X193519795Y-96791744D01*
X193441774Y-96980102D01*
X193402000Y-97180061D01*
X193402000Y-97383939D01*
X193441774Y-97583898D01*
X193519795Y-97772256D01*
X193633063Y-97941774D01*
X193777226Y-98085937D01*
X193946744Y-98199205D01*
X194135102Y-98277226D01*
X194335061Y-98317000D01*
X194538939Y-98317000D01*
X194738898Y-98277226D01*
X194927256Y-98199205D01*
X195096774Y-98085937D01*
X195240937Y-97941774D01*
X195354205Y-97772256D01*
X195432226Y-97583898D01*
X195472000Y-97383939D01*
X195472000Y-97180061D01*
X195432226Y-96980102D01*
X195422657Y-96957000D01*
X195636646Y-96957000D01*
X195600774Y-97043602D01*
X195561000Y-97243561D01*
X195561000Y-97447439D01*
X195600774Y-97647398D01*
X195678795Y-97835756D01*
X195792063Y-98005274D01*
X195936226Y-98149437D01*
X196105744Y-98262705D01*
X196294102Y-98340726D01*
X196494061Y-98380500D01*
X196697939Y-98380500D01*
X196897898Y-98340726D01*
X197086256Y-98262705D01*
X197255774Y-98149437D01*
X197399937Y-98005274D01*
X197513205Y-97835756D01*
X197591226Y-97647398D01*
X197631000Y-97447439D01*
X197631000Y-97243561D01*
X197591226Y-97043602D01*
X197555354Y-96957000D01*
X197821949Y-96957000D01*
X197759774Y-97107102D01*
X197720000Y-97307061D01*
X197720000Y-97510939D01*
X197759774Y-97710898D01*
X197837795Y-97899256D01*
X197951063Y-98068774D01*
X198095226Y-98212937D01*
X198264744Y-98326205D01*
X198453102Y-98404226D01*
X198653061Y-98444000D01*
X198856939Y-98444000D01*
X199056898Y-98404226D01*
X199245256Y-98326205D01*
X199414774Y-98212937D01*
X199485250Y-98142461D01*
X199492226Y-98149437D01*
X199661744Y-98262705D01*
X199850102Y-98340726D01*
X200050061Y-98380500D01*
X200253939Y-98380500D01*
X200453898Y-98340726D01*
X200642256Y-98262705D01*
X200811774Y-98149437D01*
X200955937Y-98005274D01*
X201069205Y-97835756D01*
X201147226Y-97647398D01*
X201187000Y-97447439D01*
X201187000Y-97243561D01*
X201147226Y-97043602D01*
X201111354Y-96957000D01*
X201728162Y-96957000D01*
X201711295Y-96982244D01*
X201633274Y-97170602D01*
X201593500Y-97370561D01*
X201593500Y-97574439D01*
X201633274Y-97774398D01*
X201711295Y-97962756D01*
X201824563Y-98132274D01*
X201968726Y-98276437D01*
X202138244Y-98389705D01*
X202326602Y-98467726D01*
X202526561Y-98507500D01*
X202730439Y-98507500D01*
X202930398Y-98467726D01*
X203118756Y-98389705D01*
X203288274Y-98276437D01*
X203432437Y-98132274D01*
X203545705Y-97962756D01*
X203623726Y-97774398D01*
X203625417Y-97765895D01*
X203741898Y-97742726D01*
X203930256Y-97664705D01*
X204050250Y-97584528D01*
X204170244Y-97664705D01*
X204358602Y-97742726D01*
X204558561Y-97782500D01*
X204762439Y-97782500D01*
X204962398Y-97742726D01*
X205150756Y-97664705D01*
X205320274Y-97551437D01*
X205464437Y-97407274D01*
X205577705Y-97237756D01*
X205655726Y-97049398D01*
X205674105Y-96957000D01*
X212954000Y-96957000D01*
X212954001Y-124562000D01*
X197173051Y-124562000D01*
X197235226Y-124411898D01*
X197275000Y-124211939D01*
X197275000Y-124008061D01*
X197235226Y-123808102D01*
X197157205Y-123619744D01*
X197043937Y-123450226D01*
X196899774Y-123306063D01*
X196730256Y-123192795D01*
X196541898Y-123114774D01*
X196341939Y-123075000D01*
X196138061Y-123075000D01*
X195938102Y-123114774D01*
X195749744Y-123192795D01*
X195580226Y-123306063D01*
X195436063Y-123450226D01*
X195322795Y-123619744D01*
X195244774Y-123808102D01*
X195205000Y-124008061D01*
X195205000Y-124211939D01*
X195244774Y-124411898D01*
X195306949Y-124562000D01*
X188682724Y-124562000D01*
X188677550Y-120158212D01*
X196345000Y-120158212D01*
X196345000Y-120381788D01*
X196388617Y-120601067D01*
X196474176Y-120807624D01*
X196598388Y-120993520D01*
X196756480Y-121151612D01*
X196942376Y-121275824D01*
X197148933Y-121361383D01*
X197368212Y-121405000D01*
X197591788Y-121405000D01*
X197811067Y-121361383D01*
X198017624Y-121275824D01*
X198203520Y-121151612D01*
X198361612Y-120993520D01*
X198485824Y-120807624D01*
X198571383Y-120601067D01*
X198615000Y-120381788D01*
X198615000Y-120158212D01*
X198571383Y-119938933D01*
X198485824Y-119732376D01*
X198361612Y-119546480D01*
X198203520Y-119388388D01*
X198017624Y-119264176D01*
X197811067Y-119178617D01*
X197720062Y-119160515D01*
X197791898Y-119146226D01*
X197980256Y-119068205D01*
X198149774Y-118954937D01*
X198293937Y-118810774D01*
X198407205Y-118641256D01*
X198485226Y-118452898D01*
X198525000Y-118252939D01*
X198525000Y-118049061D01*
X198485226Y-117849102D01*
X198445859Y-117754061D01*
X199269400Y-117754061D01*
X199269400Y-117957939D01*
X199309174Y-118157898D01*
X199387195Y-118346256D01*
X199500463Y-118515774D01*
X199644626Y-118659937D01*
X199814144Y-118773205D01*
X200002502Y-118851226D01*
X200202461Y-118891000D01*
X200406339Y-118891000D01*
X200606298Y-118851226D01*
X200794656Y-118773205D01*
X200939400Y-118676490D01*
X201084144Y-118773205D01*
X201272502Y-118851226D01*
X201472461Y-118891000D01*
X201676339Y-118891000D01*
X201876298Y-118851226D01*
X202064656Y-118773205D01*
X202107800Y-118744377D01*
X202150944Y-118773205D01*
X202339302Y-118851226D01*
X202539261Y-118891000D01*
X202743139Y-118891000D01*
X202943098Y-118851226D01*
X203073000Y-118797418D01*
X203202902Y-118851226D01*
X203402861Y-118891000D01*
X203606739Y-118891000D01*
X203806698Y-118851226D01*
X203962000Y-118786897D01*
X204117302Y-118851226D01*
X204317261Y-118891000D01*
X204521139Y-118891000D01*
X204721098Y-118851226D01*
X204876400Y-118786897D01*
X205031702Y-118851226D01*
X205231661Y-118891000D01*
X205435539Y-118891000D01*
X205635498Y-118851226D01*
X205790800Y-118786897D01*
X205946102Y-118851226D01*
X206146061Y-118891000D01*
X206349939Y-118891000D01*
X206549898Y-118851226D01*
X206705200Y-118786897D01*
X206860502Y-118851226D01*
X207060461Y-118891000D01*
X207264339Y-118891000D01*
X207464298Y-118851226D01*
X207652656Y-118773205D01*
X207822174Y-118659937D01*
X207966337Y-118515774D01*
X208079605Y-118346256D01*
X208157626Y-118157898D01*
X208197400Y-117957939D01*
X208197400Y-117754061D01*
X208157626Y-117554102D01*
X208079605Y-117365744D01*
X207966337Y-117196226D01*
X207822174Y-117052063D01*
X207652656Y-116938795D01*
X207464298Y-116860774D01*
X207264339Y-116821000D01*
X207060461Y-116821000D01*
X206860502Y-116860774D01*
X206705200Y-116925103D01*
X206549898Y-116860774D01*
X206349939Y-116821000D01*
X206146061Y-116821000D01*
X205946102Y-116860774D01*
X205790800Y-116925103D01*
X205635498Y-116860774D01*
X205435539Y-116821000D01*
X205231661Y-116821000D01*
X205031702Y-116860774D01*
X204876400Y-116925103D01*
X204721098Y-116860774D01*
X204521139Y-116821000D01*
X204317261Y-116821000D01*
X204117302Y-116860774D01*
X203962000Y-116925103D01*
X203806698Y-116860774D01*
X203606739Y-116821000D01*
X203402861Y-116821000D01*
X203202902Y-116860774D01*
X203073000Y-116914582D01*
X202943098Y-116860774D01*
X202743139Y-116821000D01*
X202539261Y-116821000D01*
X202339302Y-116860774D01*
X202150944Y-116938795D01*
X202107800Y-116967623D01*
X202064656Y-116938795D01*
X201876298Y-116860774D01*
X201676339Y-116821000D01*
X201472461Y-116821000D01*
X201272502Y-116860774D01*
X201084144Y-116938795D01*
X200939400Y-117035510D01*
X200794656Y-116938795D01*
X200606298Y-116860774D01*
X200406339Y-116821000D01*
X200202461Y-116821000D01*
X200002502Y-116860774D01*
X199814144Y-116938795D01*
X199644626Y-117052063D01*
X199500463Y-117196226D01*
X199387195Y-117365744D01*
X199309174Y-117554102D01*
X199269400Y-117754061D01*
X198445859Y-117754061D01*
X198407205Y-117660744D01*
X198293937Y-117491226D01*
X198149774Y-117347063D01*
X197980256Y-117233795D01*
X197791898Y-117155774D01*
X197591939Y-117116000D01*
X197388061Y-117116000D01*
X197188102Y-117155774D01*
X196999744Y-117233795D01*
X196830226Y-117347063D01*
X196686063Y-117491226D01*
X196572795Y-117660744D01*
X196494774Y-117849102D01*
X196455000Y-118049061D01*
X196455000Y-118252939D01*
X196494774Y-118452898D01*
X196572795Y-118641256D01*
X196686063Y-118810774D01*
X196830226Y-118954937D01*
X196999744Y-119068205D01*
X197188102Y-119146226D01*
X197249938Y-119158526D01*
X197148933Y-119178617D01*
X196942376Y-119264176D01*
X196756480Y-119388388D01*
X196598388Y-119546480D01*
X196474176Y-119732376D01*
X196388617Y-119938933D01*
X196345000Y-120158212D01*
X188677550Y-120158212D01*
X188673696Y-116879000D01*
X189519928Y-116879000D01*
X189519928Y-118579000D01*
X189532188Y-118703482D01*
X189568498Y-118823180D01*
X189627463Y-118933494D01*
X189706815Y-119030185D01*
X189803506Y-119109537D01*
X189913820Y-119168502D01*
X190033518Y-119204812D01*
X190158000Y-119217072D01*
X191858000Y-119217072D01*
X191982482Y-119204812D01*
X192102180Y-119168502D01*
X192212494Y-119109537D01*
X192309185Y-119030185D01*
X192388537Y-118933494D01*
X192447502Y-118823180D01*
X192483812Y-118703482D01*
X192496072Y-118579000D01*
X192496072Y-116879000D01*
X192483812Y-116754518D01*
X192447502Y-116634820D01*
X192394072Y-116534861D01*
X192716200Y-116534861D01*
X192716200Y-116738739D01*
X192755974Y-116938698D01*
X192820303Y-117094000D01*
X192755974Y-117249302D01*
X192716200Y-117449261D01*
X192716200Y-117653139D01*
X192755974Y-117853098D01*
X192833995Y-118041456D01*
X192947263Y-118210974D01*
X193091426Y-118355137D01*
X193260944Y-118468405D01*
X193449302Y-118546426D01*
X193649261Y-118586200D01*
X193853139Y-118586200D01*
X194053098Y-118546426D01*
X194241456Y-118468405D01*
X194410974Y-118355137D01*
X194555137Y-118210974D01*
X194668405Y-118041456D01*
X194746426Y-117853098D01*
X194786200Y-117653139D01*
X194786200Y-117449261D01*
X194746426Y-117249302D01*
X194682097Y-117094000D01*
X194746426Y-116938698D01*
X194786200Y-116738739D01*
X194786200Y-116534861D01*
X194746426Y-116334902D01*
X194668405Y-116146544D01*
X194555137Y-115977026D01*
X194410974Y-115832863D01*
X194241456Y-115719595D01*
X194053098Y-115641574D01*
X193853139Y-115601800D01*
X193649261Y-115601800D01*
X193449302Y-115641574D01*
X193260944Y-115719595D01*
X193091426Y-115832863D01*
X192947263Y-115977026D01*
X192833995Y-116146544D01*
X192755974Y-116334902D01*
X192716200Y-116534861D01*
X192394072Y-116534861D01*
X192388537Y-116524506D01*
X192309185Y-116427815D01*
X192212494Y-116348463D01*
X192102180Y-116289498D01*
X192021534Y-116265034D01*
X192105588Y-116189269D01*
X192279641Y-115955920D01*
X192404825Y-115693099D01*
X192449476Y-115545890D01*
X192328155Y-115316000D01*
X191135000Y-115316000D01*
X191135000Y-115336000D01*
X190881000Y-115336000D01*
X190881000Y-115316000D01*
X189687845Y-115316000D01*
X189566524Y-115545890D01*
X189611175Y-115693099D01*
X189736359Y-115955920D01*
X189910412Y-116189269D01*
X189994466Y-116265034D01*
X189913820Y-116289498D01*
X189803506Y-116348463D01*
X189706815Y-116427815D01*
X189627463Y-116524506D01*
X189568498Y-116634820D01*
X189532188Y-116754518D01*
X189519928Y-116879000D01*
X188673696Y-116879000D01*
X188652803Y-99099000D01*
X189519928Y-99099000D01*
X189519928Y-100799000D01*
X189532188Y-100923482D01*
X189568498Y-101043180D01*
X189627463Y-101153494D01*
X189706815Y-101250185D01*
X189803506Y-101329537D01*
X189913820Y-101388502D01*
X189986380Y-101410513D01*
X189854525Y-101542368D01*
X189692010Y-101785589D01*
X189580068Y-102055842D01*
X189523000Y-102342740D01*
X189523000Y-102635260D01*
X189580068Y-102922158D01*
X189692010Y-103192411D01*
X189854525Y-103435632D01*
X190061368Y-103642475D01*
X190235760Y-103759000D01*
X190061368Y-103875525D01*
X189854525Y-104082368D01*
X189692010Y-104325589D01*
X189580068Y-104595842D01*
X189523000Y-104882740D01*
X189523000Y-105175260D01*
X189580068Y-105462158D01*
X189692010Y-105732411D01*
X189854525Y-105975632D01*
X190061368Y-106182475D01*
X190235760Y-106299000D01*
X190061368Y-106415525D01*
X189854525Y-106622368D01*
X189692010Y-106865589D01*
X189580068Y-107135842D01*
X189523000Y-107422740D01*
X189523000Y-107715260D01*
X189580068Y-108002158D01*
X189692010Y-108272411D01*
X189854525Y-108515632D01*
X190061368Y-108722475D01*
X190235760Y-108839000D01*
X190061368Y-108955525D01*
X189854525Y-109162368D01*
X189692010Y-109405589D01*
X189580068Y-109675842D01*
X189523000Y-109962740D01*
X189523000Y-110255260D01*
X189580068Y-110542158D01*
X189692010Y-110812411D01*
X189854525Y-111055632D01*
X190061368Y-111262475D01*
X190235760Y-111379000D01*
X190061368Y-111495525D01*
X189854525Y-111702368D01*
X189692010Y-111945589D01*
X189580068Y-112215842D01*
X189523000Y-112502740D01*
X189523000Y-112795260D01*
X189580068Y-113082158D01*
X189692010Y-113352411D01*
X189854525Y-113595632D01*
X190061368Y-113802475D01*
X190243534Y-113924195D01*
X190126645Y-113993822D01*
X189910412Y-114188731D01*
X189736359Y-114422080D01*
X189611175Y-114684901D01*
X189566524Y-114832110D01*
X189687845Y-115062000D01*
X190881000Y-115062000D01*
X190881000Y-115042000D01*
X191135000Y-115042000D01*
X191135000Y-115062000D01*
X192328155Y-115062000D01*
X192449476Y-114832110D01*
X192404825Y-114684901D01*
X192279641Y-114422080D01*
X192105588Y-114188731D01*
X191889355Y-113993822D01*
X191772466Y-113924195D01*
X191954632Y-113802475D01*
X192161475Y-113595632D01*
X192166266Y-113588461D01*
X192665400Y-113588461D01*
X192665400Y-113792339D01*
X192705174Y-113992298D01*
X192748460Y-114096800D01*
X192705174Y-114201302D01*
X192665400Y-114401261D01*
X192665400Y-114605139D01*
X192705174Y-114805098D01*
X192783195Y-114993456D01*
X192896463Y-115162974D01*
X193040626Y-115307137D01*
X193210144Y-115420405D01*
X193398502Y-115498426D01*
X193598461Y-115538200D01*
X193802339Y-115538200D01*
X194002298Y-115498426D01*
X194190656Y-115420405D01*
X194360174Y-115307137D01*
X194429250Y-115238061D01*
X199895000Y-115238061D01*
X199895000Y-115441939D01*
X199934774Y-115641898D01*
X200012795Y-115830256D01*
X200126063Y-115999774D01*
X200270226Y-116143937D01*
X200439744Y-116257205D01*
X200628102Y-116335226D01*
X200828061Y-116375000D01*
X201031939Y-116375000D01*
X201231898Y-116335226D01*
X201420256Y-116257205D01*
X201589774Y-116143937D01*
X201733937Y-115999774D01*
X201847205Y-115830256D01*
X201925226Y-115641898D01*
X201965000Y-115441939D01*
X201965000Y-115238061D01*
X201925226Y-115038102D01*
X201847205Y-114849744D01*
X201733937Y-114680226D01*
X201589774Y-114536063D01*
X201420256Y-114422795D01*
X201231898Y-114344774D01*
X201031939Y-114305000D01*
X200828061Y-114305000D01*
X200628102Y-114344774D01*
X200439744Y-114422795D01*
X200270226Y-114536063D01*
X200126063Y-114680226D01*
X200012795Y-114849744D01*
X199934774Y-115038102D01*
X199895000Y-115238061D01*
X194429250Y-115238061D01*
X194504337Y-115162974D01*
X194617605Y-114993456D01*
X194695626Y-114805098D01*
X194735400Y-114605139D01*
X194735400Y-114401261D01*
X194695626Y-114201302D01*
X194694284Y-114198061D01*
X202800000Y-114198061D01*
X202800000Y-114401939D01*
X202839774Y-114601898D01*
X202917795Y-114790256D01*
X203014510Y-114935000D01*
X202917795Y-115079744D01*
X202839774Y-115268102D01*
X202800000Y-115468061D01*
X202800000Y-115671939D01*
X202839774Y-115871898D01*
X202917795Y-116060256D01*
X203031063Y-116229774D01*
X203175226Y-116373937D01*
X203344744Y-116487205D01*
X203533102Y-116565226D01*
X203733061Y-116605000D01*
X203936939Y-116605000D01*
X204136898Y-116565226D01*
X204325256Y-116487205D01*
X204470000Y-116390490D01*
X204614744Y-116487205D01*
X204803102Y-116565226D01*
X205003061Y-116605000D01*
X205206939Y-116605000D01*
X205406898Y-116565226D01*
X205595256Y-116487205D01*
X205740000Y-116390490D01*
X205884744Y-116487205D01*
X206073102Y-116565226D01*
X206273061Y-116605000D01*
X206476939Y-116605000D01*
X206676898Y-116565226D01*
X206865256Y-116487205D01*
X207034774Y-116373937D01*
X207178937Y-116229774D01*
X207292205Y-116060256D01*
X207370226Y-115871898D01*
X207410000Y-115671939D01*
X207410000Y-115468061D01*
X207370226Y-115268102D01*
X207292205Y-115079744D01*
X207195490Y-114935000D01*
X207292205Y-114790256D01*
X207370226Y-114601898D01*
X207410000Y-114401939D01*
X207410000Y-114198061D01*
X207370226Y-113998102D01*
X207292205Y-113809744D01*
X207178937Y-113640226D01*
X207034774Y-113496063D01*
X206865256Y-113382795D01*
X206676898Y-113304774D01*
X206476939Y-113265000D01*
X206273061Y-113265000D01*
X206073102Y-113304774D01*
X205884744Y-113382795D01*
X205740000Y-113479510D01*
X205595256Y-113382795D01*
X205406898Y-113304774D01*
X205206939Y-113265000D01*
X205003061Y-113265000D01*
X204803102Y-113304774D01*
X204614744Y-113382795D01*
X204470000Y-113479510D01*
X204325256Y-113382795D01*
X204136898Y-113304774D01*
X203936939Y-113265000D01*
X203733061Y-113265000D01*
X203533102Y-113304774D01*
X203344744Y-113382795D01*
X203175226Y-113496063D01*
X203031063Y-113640226D01*
X202917795Y-113809744D01*
X202839774Y-113998102D01*
X202800000Y-114198061D01*
X194694284Y-114198061D01*
X194652340Y-114096800D01*
X194695626Y-113992298D01*
X194735400Y-113792339D01*
X194735400Y-113588461D01*
X194695626Y-113388502D01*
X194617605Y-113200144D01*
X194504337Y-113030626D01*
X194360174Y-112886463D01*
X194190656Y-112773195D01*
X194002298Y-112695174D01*
X193802339Y-112655400D01*
X193598461Y-112655400D01*
X193398502Y-112695174D01*
X193210144Y-112773195D01*
X193040626Y-112886463D01*
X192896463Y-113030626D01*
X192783195Y-113200144D01*
X192705174Y-113388502D01*
X192665400Y-113588461D01*
X192166266Y-113588461D01*
X192323990Y-113352411D01*
X192435932Y-113082158D01*
X192493000Y-112795260D01*
X192493000Y-112638061D01*
X194905000Y-112638061D01*
X194905000Y-112841939D01*
X194944774Y-113041898D01*
X195022795Y-113230256D01*
X195136063Y-113399774D01*
X195280226Y-113543937D01*
X195449744Y-113657205D01*
X195638102Y-113735226D01*
X195838061Y-113775000D01*
X196041939Y-113775000D01*
X196241898Y-113735226D01*
X196430256Y-113657205D01*
X196599774Y-113543937D01*
X196743937Y-113399774D01*
X196857205Y-113230256D01*
X196935226Y-113041898D01*
X196975000Y-112841939D01*
X196975000Y-112638061D01*
X196935226Y-112438102D01*
X196857205Y-112249744D01*
X196789263Y-112148061D01*
X201955000Y-112148061D01*
X201955000Y-112351939D01*
X201994774Y-112551898D01*
X202072795Y-112740256D01*
X202186063Y-112909774D01*
X202330226Y-113053937D01*
X202499744Y-113167205D01*
X202688102Y-113245226D01*
X202888061Y-113285000D01*
X203091939Y-113285000D01*
X203291898Y-113245226D01*
X203480256Y-113167205D01*
X203649774Y-113053937D01*
X203793937Y-112909774D01*
X203907205Y-112740256D01*
X203985226Y-112551898D01*
X204025000Y-112351939D01*
X204025000Y-112148061D01*
X204020040Y-112123123D01*
X204162298Y-112094826D01*
X204350656Y-112016805D01*
X204419200Y-111971005D01*
X204487744Y-112016805D01*
X204676102Y-112094826D01*
X204876061Y-112134600D01*
X205079939Y-112134600D01*
X205279898Y-112094826D01*
X205468256Y-112016805D01*
X205637774Y-111903537D01*
X205781937Y-111759374D01*
X205895205Y-111589856D01*
X205973226Y-111401498D01*
X206013000Y-111201539D01*
X206013000Y-110997661D01*
X205973226Y-110797702D01*
X205895205Y-110609344D01*
X205781937Y-110439826D01*
X205637774Y-110295663D01*
X205468256Y-110182395D01*
X205279898Y-110104374D01*
X205079939Y-110064600D01*
X204876061Y-110064600D01*
X204676102Y-110104374D01*
X204487744Y-110182395D01*
X204419200Y-110228195D01*
X204350656Y-110182395D01*
X204162298Y-110104374D01*
X203962339Y-110064600D01*
X203758461Y-110064600D01*
X203558502Y-110104374D01*
X203370144Y-110182395D01*
X203200626Y-110295663D01*
X203056463Y-110439826D01*
X202943195Y-110609344D01*
X202865174Y-110797702D01*
X202825400Y-110997661D01*
X202825400Y-111201539D01*
X202830360Y-111226477D01*
X202688102Y-111254774D01*
X202499744Y-111332795D01*
X202330226Y-111446063D01*
X202186063Y-111590226D01*
X202072795Y-111759744D01*
X201994774Y-111948102D01*
X201955000Y-112148061D01*
X196789263Y-112148061D01*
X196743937Y-112080226D01*
X196599774Y-111936063D01*
X196430256Y-111822795D01*
X196241898Y-111744774D01*
X196041939Y-111705000D01*
X195838061Y-111705000D01*
X195638102Y-111744774D01*
X195449744Y-111822795D01*
X195280226Y-111936063D01*
X195136063Y-112080226D01*
X195022795Y-112249744D01*
X194944774Y-112438102D01*
X194905000Y-112638061D01*
X192493000Y-112638061D01*
X192493000Y-112502740D01*
X192435932Y-112215842D01*
X192323990Y-111945589D01*
X192161475Y-111702368D01*
X191954632Y-111495525D01*
X191780240Y-111379000D01*
X191954632Y-111262475D01*
X192161475Y-111055632D01*
X192323990Y-110812411D01*
X192435932Y-110542158D01*
X192493000Y-110255260D01*
X192493000Y-109962740D01*
X192474168Y-109868061D01*
X192565000Y-109868061D01*
X192565000Y-110071939D01*
X192604774Y-110271898D01*
X192682795Y-110460256D01*
X192796063Y-110629774D01*
X192940226Y-110773937D01*
X193109744Y-110887205D01*
X193298102Y-110965226D01*
X193498061Y-111005000D01*
X193701939Y-111005000D01*
X193901898Y-110965226D01*
X194090256Y-110887205D01*
X194259774Y-110773937D01*
X194403937Y-110629774D01*
X194517205Y-110460256D01*
X194595226Y-110271898D01*
X194635000Y-110071939D01*
X194635000Y-109868061D01*
X194595226Y-109668102D01*
X194517205Y-109479744D01*
X194403937Y-109310226D01*
X194259774Y-109166063D01*
X194090256Y-109052795D01*
X193901898Y-108974774D01*
X193701939Y-108935000D01*
X193498061Y-108935000D01*
X193298102Y-108974774D01*
X193109744Y-109052795D01*
X192940226Y-109166063D01*
X192796063Y-109310226D01*
X192682795Y-109479744D01*
X192604774Y-109668102D01*
X192565000Y-109868061D01*
X192474168Y-109868061D01*
X192435932Y-109675842D01*
X192323990Y-109405589D01*
X192161475Y-109162368D01*
X191954632Y-108955525D01*
X191780240Y-108839000D01*
X191954632Y-108722475D01*
X192161475Y-108515632D01*
X192323990Y-108272411D01*
X192435932Y-108002158D01*
X192493000Y-107715260D01*
X192493000Y-107422740D01*
X192489186Y-107403561D01*
X192830500Y-107403561D01*
X192830500Y-107607439D01*
X192870274Y-107807398D01*
X192948295Y-107995756D01*
X193061563Y-108165274D01*
X193205726Y-108309437D01*
X193375244Y-108422705D01*
X193563602Y-108500726D01*
X193763561Y-108540500D01*
X193967439Y-108540500D01*
X194167398Y-108500726D01*
X194242832Y-108469480D01*
X194227500Y-108546561D01*
X194227500Y-108750439D01*
X194267274Y-108950398D01*
X194345295Y-109138756D01*
X194458563Y-109308274D01*
X194602726Y-109452437D01*
X194772244Y-109565705D01*
X194960602Y-109643726D01*
X195160561Y-109683500D01*
X195364439Y-109683500D01*
X195397815Y-109676861D01*
X206330600Y-109676861D01*
X206330600Y-109880739D01*
X206370374Y-110080698D01*
X206448395Y-110269056D01*
X206561663Y-110438574D01*
X206705826Y-110582737D01*
X206875344Y-110696005D01*
X206907255Y-110709223D01*
X206956395Y-110827856D01*
X207069663Y-110997374D01*
X207213826Y-111141537D01*
X207383344Y-111254805D01*
X207571702Y-111332826D01*
X207771661Y-111372600D01*
X207975539Y-111372600D01*
X208175498Y-111332826D01*
X208363856Y-111254805D01*
X208533374Y-111141537D01*
X208677537Y-110997374D01*
X208790805Y-110827856D01*
X208868826Y-110639498D01*
X208908600Y-110439539D01*
X208908600Y-110235661D01*
X208868826Y-110035702D01*
X208790805Y-109847344D01*
X208677537Y-109677826D01*
X208533374Y-109533663D01*
X208363856Y-109420395D01*
X208331945Y-109407177D01*
X208282805Y-109288544D01*
X208169537Y-109119026D01*
X208025374Y-108974863D01*
X207855856Y-108861595D01*
X207667498Y-108783574D01*
X207467539Y-108743800D01*
X207263661Y-108743800D01*
X207063702Y-108783574D01*
X206875344Y-108861595D01*
X206705826Y-108974863D01*
X206561663Y-109119026D01*
X206448395Y-109288544D01*
X206370374Y-109476902D01*
X206330600Y-109676861D01*
X195397815Y-109676861D01*
X195564398Y-109643726D01*
X195752756Y-109565705D01*
X195922274Y-109452437D01*
X196066437Y-109308274D01*
X196179705Y-109138756D01*
X196257726Y-108950398D01*
X196297500Y-108750439D01*
X196297500Y-108546561D01*
X196257726Y-108346602D01*
X196179705Y-108158244D01*
X196066437Y-107988726D01*
X195922274Y-107844563D01*
X195752756Y-107731295D01*
X195564398Y-107653274D01*
X195364439Y-107613500D01*
X195160561Y-107613500D01*
X194960602Y-107653274D01*
X194885168Y-107684520D01*
X194900500Y-107607439D01*
X194900500Y-107403561D01*
X194865701Y-107228614D01*
X195024102Y-107294226D01*
X195224061Y-107334000D01*
X195427939Y-107334000D01*
X195627898Y-107294226D01*
X195816256Y-107216205D01*
X195985774Y-107102937D01*
X196129937Y-106958774D01*
X196243205Y-106789256D01*
X196321226Y-106600898D01*
X196361000Y-106400939D01*
X196361000Y-106197061D01*
X196321226Y-105997102D01*
X196243205Y-105808744D01*
X196129937Y-105639226D01*
X195985774Y-105495063D01*
X195816256Y-105381795D01*
X195627898Y-105303774D01*
X195427939Y-105264000D01*
X195224061Y-105264000D01*
X195024102Y-105303774D01*
X194835744Y-105381795D01*
X194666226Y-105495063D01*
X194522063Y-105639226D01*
X194408795Y-105808744D01*
X194330774Y-105997102D01*
X194291000Y-106197061D01*
X194291000Y-106400939D01*
X194325799Y-106575886D01*
X194167398Y-106510274D01*
X193967439Y-106470500D01*
X193763561Y-106470500D01*
X193563602Y-106510274D01*
X193375244Y-106588295D01*
X193205726Y-106701563D01*
X193061563Y-106845726D01*
X192948295Y-107015244D01*
X192870274Y-107203602D01*
X192830500Y-107403561D01*
X192489186Y-107403561D01*
X192435932Y-107135842D01*
X192323990Y-106865589D01*
X192161475Y-106622368D01*
X191954632Y-106415525D01*
X191780240Y-106299000D01*
X191954632Y-106182475D01*
X192161475Y-105975632D01*
X192323990Y-105732411D01*
X192435932Y-105462158D01*
X192493000Y-105175260D01*
X192493000Y-104882740D01*
X192489186Y-104863561D01*
X192640000Y-104863561D01*
X192640000Y-105067439D01*
X192679774Y-105267398D01*
X192757795Y-105455756D01*
X192871063Y-105625274D01*
X193015226Y-105769437D01*
X193184744Y-105882705D01*
X193373102Y-105960726D01*
X193573061Y-106000500D01*
X193776939Y-106000500D01*
X193976898Y-105960726D01*
X194165256Y-105882705D01*
X194334774Y-105769437D01*
X194478937Y-105625274D01*
X194592205Y-105455756D01*
X194670226Y-105267398D01*
X194710000Y-105067439D01*
X194710000Y-104863561D01*
X194683533Y-104730500D01*
X194702939Y-104730500D01*
X194902898Y-104690726D01*
X195091256Y-104612705D01*
X195260774Y-104499437D01*
X195404937Y-104355274D01*
X195518205Y-104185756D01*
X195596226Y-103997398D01*
X195636000Y-103797439D01*
X195636000Y-103593561D01*
X195596226Y-103393602D01*
X195518205Y-103205244D01*
X195492374Y-103166585D01*
X195555226Y-103229437D01*
X195724744Y-103342705D01*
X195913102Y-103420726D01*
X196113061Y-103460500D01*
X196316939Y-103460500D01*
X196516898Y-103420726D01*
X196705256Y-103342705D01*
X196874774Y-103229437D01*
X197018937Y-103085274D01*
X197132205Y-102915756D01*
X197210226Y-102727398D01*
X197250000Y-102527439D01*
X197250000Y-102323561D01*
X197210226Y-102123602D01*
X197132205Y-101935244D01*
X197018937Y-101765726D01*
X196874774Y-101621563D01*
X196705256Y-101508295D01*
X196516898Y-101430274D01*
X196316939Y-101390500D01*
X196113061Y-101390500D01*
X195913102Y-101430274D01*
X195724744Y-101508295D01*
X195555226Y-101621563D01*
X195411063Y-101765726D01*
X195297795Y-101935244D01*
X195219774Y-102123602D01*
X195180000Y-102323561D01*
X195180000Y-102527439D01*
X195219774Y-102727398D01*
X195297795Y-102915756D01*
X195323626Y-102954415D01*
X195260774Y-102891563D01*
X195091256Y-102778295D01*
X194902898Y-102700274D01*
X194702939Y-102660500D01*
X194499061Y-102660500D01*
X194299102Y-102700274D01*
X194110744Y-102778295D01*
X193941226Y-102891563D01*
X193797063Y-103035726D01*
X193683795Y-103205244D01*
X193605774Y-103393602D01*
X193566000Y-103593561D01*
X193566000Y-103797439D01*
X193592467Y-103930500D01*
X193573061Y-103930500D01*
X193373102Y-103970274D01*
X193184744Y-104048295D01*
X193015226Y-104161563D01*
X192871063Y-104305726D01*
X192757795Y-104475244D01*
X192679774Y-104663602D01*
X192640000Y-104863561D01*
X192489186Y-104863561D01*
X192435932Y-104595842D01*
X192323990Y-104325589D01*
X192161475Y-104082368D01*
X191954632Y-103875525D01*
X191780240Y-103759000D01*
X191954632Y-103642475D01*
X192161475Y-103435632D01*
X192323990Y-103192411D01*
X192435932Y-102922158D01*
X192493000Y-102635260D01*
X192493000Y-102342740D01*
X192435932Y-102055842D01*
X192323990Y-101785589D01*
X192161475Y-101542368D01*
X192029620Y-101410513D01*
X192102180Y-101388502D01*
X192212494Y-101329537D01*
X192309185Y-101250185D01*
X192388537Y-101153494D01*
X192447502Y-101043180D01*
X192483812Y-100923482D01*
X192496072Y-100799000D01*
X192496072Y-99593061D01*
X192640000Y-99593061D01*
X192640000Y-99796939D01*
X192679774Y-99996898D01*
X192757795Y-100185256D01*
X192871063Y-100354774D01*
X193015226Y-100498937D01*
X193184744Y-100612205D01*
X193365000Y-100686870D01*
X193365000Y-100749439D01*
X193404774Y-100949398D01*
X193482795Y-101137756D01*
X193596063Y-101307274D01*
X193740226Y-101451437D01*
X193909744Y-101564705D01*
X194098102Y-101642726D01*
X194298061Y-101682500D01*
X194501939Y-101682500D01*
X194701898Y-101642726D01*
X194890256Y-101564705D01*
X195059774Y-101451437D01*
X195203937Y-101307274D01*
X195317205Y-101137756D01*
X195395226Y-100949398D01*
X195435000Y-100749439D01*
X195435000Y-100545561D01*
X195395226Y-100345602D01*
X195317205Y-100157244D01*
X195203937Y-99987726D01*
X195059774Y-99843563D01*
X194969975Y-99783561D01*
X198863000Y-99783561D01*
X198863000Y-99987439D01*
X198902774Y-100187398D01*
X198980795Y-100375756D01*
X199094063Y-100545274D01*
X199238226Y-100689437D01*
X199407744Y-100802705D01*
X199596102Y-100880726D01*
X199796061Y-100920500D01*
X199999939Y-100920500D01*
X200199898Y-100880726D01*
X200388256Y-100802705D01*
X200557774Y-100689437D01*
X200669913Y-100577298D01*
X200680774Y-100631898D01*
X200758795Y-100820256D01*
X200872063Y-100989774D01*
X201016226Y-101133937D01*
X201185744Y-101247205D01*
X201374102Y-101325226D01*
X201574061Y-101365000D01*
X201777939Y-101365000D01*
X201792200Y-101362163D01*
X201823774Y-101520898D01*
X201901795Y-101709256D01*
X202015063Y-101878774D01*
X202159226Y-102022937D01*
X202328744Y-102136205D01*
X202517102Y-102214226D01*
X202717061Y-102254000D01*
X202920939Y-102254000D01*
X202935200Y-102251163D01*
X202966774Y-102409898D01*
X203044795Y-102598256D01*
X203099080Y-102679500D01*
X203044795Y-102760744D01*
X202966774Y-102949102D01*
X202927000Y-103149061D01*
X202927000Y-103352939D01*
X202966774Y-103552898D01*
X203044795Y-103741256D01*
X203158063Y-103910774D01*
X203302226Y-104054937D01*
X203471744Y-104168205D01*
X203660102Y-104246226D01*
X203860061Y-104286000D01*
X203986066Y-104286000D01*
X203952631Y-104454092D01*
X203952631Y-104657970D01*
X203992405Y-104857929D01*
X204070426Y-105046287D01*
X204183694Y-105215805D01*
X204327857Y-105359968D01*
X204497375Y-105473236D01*
X204685733Y-105551257D01*
X204885692Y-105591031D01*
X205089570Y-105591031D01*
X205289529Y-105551257D01*
X205477887Y-105473236D01*
X205647405Y-105359968D01*
X205791568Y-105215805D01*
X205904836Y-105046287D01*
X205982857Y-104857929D01*
X206022631Y-104657970D01*
X206022631Y-104454092D01*
X205982857Y-104254133D01*
X205904836Y-104065775D01*
X205791568Y-103896257D01*
X205647405Y-103752094D01*
X205477887Y-103638826D01*
X205289529Y-103560805D01*
X205089570Y-103521031D01*
X204963565Y-103521031D01*
X204997000Y-103352939D01*
X204997000Y-103149061D01*
X204957226Y-102949102D01*
X204879205Y-102760744D01*
X204824920Y-102679500D01*
X204879205Y-102598256D01*
X204957226Y-102409898D01*
X204997000Y-102209939D01*
X204997000Y-102006061D01*
X204957226Y-101806102D01*
X204879205Y-101617744D01*
X204765937Y-101448226D01*
X204621774Y-101304063D01*
X204452256Y-101190795D01*
X204263898Y-101112774D01*
X204063939Y-101073000D01*
X203860061Y-101073000D01*
X203845800Y-101075837D01*
X203814226Y-100917102D01*
X203736205Y-100728744D01*
X203622937Y-100559226D01*
X203478774Y-100415063D01*
X203478253Y-100414715D01*
X203542274Y-100371937D01*
X203686437Y-100227774D01*
X203753448Y-100127485D01*
X203793063Y-100186774D01*
X203937226Y-100330937D01*
X204106744Y-100444205D01*
X204295102Y-100522226D01*
X204495061Y-100562000D01*
X204698939Y-100562000D01*
X204898898Y-100522226D01*
X205087256Y-100444205D01*
X205256774Y-100330937D01*
X205400937Y-100186774D01*
X205514205Y-100017256D01*
X205592226Y-99828898D01*
X205632000Y-99628939D01*
X205632000Y-99531703D01*
X206634543Y-99531703D01*
X206634543Y-99735581D01*
X206674317Y-99935540D01*
X206752338Y-100123898D01*
X206865606Y-100293416D01*
X207009769Y-100437579D01*
X207179287Y-100550847D01*
X207367645Y-100628868D01*
X207567604Y-100668642D01*
X207771482Y-100668642D01*
X207971441Y-100628868D01*
X208159799Y-100550847D01*
X208329317Y-100437579D01*
X208473480Y-100293416D01*
X208586748Y-100123898D01*
X208664769Y-99935540D01*
X208704543Y-99735581D01*
X208704543Y-99531703D01*
X208664769Y-99331744D01*
X208586748Y-99143386D01*
X208557091Y-99099000D01*
X209839928Y-99099000D01*
X209839928Y-100799000D01*
X209852188Y-100923482D01*
X209888498Y-101043180D01*
X209947463Y-101153494D01*
X210026815Y-101250185D01*
X210123506Y-101329537D01*
X210233820Y-101388502D01*
X210306380Y-101410513D01*
X210174525Y-101542368D01*
X210012010Y-101785589D01*
X209900068Y-102055842D01*
X209843000Y-102342740D01*
X209843000Y-102635260D01*
X209900068Y-102922158D01*
X210012010Y-103192411D01*
X210174525Y-103435632D01*
X210381368Y-103642475D01*
X210555760Y-103759000D01*
X210381368Y-103875525D01*
X210174525Y-104082368D01*
X210012010Y-104325589D01*
X209900068Y-104595842D01*
X209843000Y-104882740D01*
X209843000Y-105175260D01*
X209900068Y-105462158D01*
X210012010Y-105732411D01*
X210174525Y-105975632D01*
X210381368Y-106182475D01*
X210555760Y-106299000D01*
X210381368Y-106415525D01*
X210174525Y-106622368D01*
X210012010Y-106865589D01*
X209900068Y-107135842D01*
X209843000Y-107422740D01*
X209843000Y-107715260D01*
X209900068Y-108002158D01*
X210012010Y-108272411D01*
X210174525Y-108515632D01*
X210381368Y-108722475D01*
X210555760Y-108839000D01*
X210381368Y-108955525D01*
X210174525Y-109162368D01*
X210012010Y-109405589D01*
X209900068Y-109675842D01*
X209843000Y-109962740D01*
X209843000Y-110255260D01*
X209900068Y-110542158D01*
X210012010Y-110812411D01*
X210174525Y-111055632D01*
X210381368Y-111262475D01*
X210555760Y-111379000D01*
X210381368Y-111495525D01*
X210174525Y-111702368D01*
X210012010Y-111945589D01*
X209900068Y-112215842D01*
X209843000Y-112502740D01*
X209843000Y-112795260D01*
X209900068Y-113082158D01*
X210012010Y-113352411D01*
X210174525Y-113595632D01*
X210381368Y-113802475D01*
X210555760Y-113919000D01*
X210381368Y-114035525D01*
X210174525Y-114242368D01*
X210012010Y-114485589D01*
X209900068Y-114755842D01*
X209843000Y-115042740D01*
X209843000Y-115335260D01*
X209900068Y-115622158D01*
X210012010Y-115892411D01*
X210174525Y-116135632D01*
X210306380Y-116267487D01*
X210233820Y-116289498D01*
X210123506Y-116348463D01*
X210026815Y-116427815D01*
X209947463Y-116524506D01*
X209888498Y-116634820D01*
X209852188Y-116754518D01*
X209839928Y-116879000D01*
X209839928Y-118579000D01*
X209852188Y-118703482D01*
X209888498Y-118823180D01*
X209947463Y-118933494D01*
X210026815Y-119030185D01*
X210123506Y-119109537D01*
X210233820Y-119168502D01*
X210353518Y-119204812D01*
X210478000Y-119217072D01*
X212178000Y-119217072D01*
X212302482Y-119204812D01*
X212422180Y-119168502D01*
X212532494Y-119109537D01*
X212629185Y-119030185D01*
X212708537Y-118933494D01*
X212767502Y-118823180D01*
X212803812Y-118703482D01*
X212816072Y-118579000D01*
X212816072Y-116879000D01*
X212803812Y-116754518D01*
X212767502Y-116634820D01*
X212708537Y-116524506D01*
X212629185Y-116427815D01*
X212532494Y-116348463D01*
X212422180Y-116289498D01*
X212349620Y-116267487D01*
X212481475Y-116135632D01*
X212643990Y-115892411D01*
X212755932Y-115622158D01*
X212813000Y-115335260D01*
X212813000Y-115042740D01*
X212755932Y-114755842D01*
X212643990Y-114485589D01*
X212481475Y-114242368D01*
X212274632Y-114035525D01*
X212100240Y-113919000D01*
X212274632Y-113802475D01*
X212481475Y-113595632D01*
X212643990Y-113352411D01*
X212755932Y-113082158D01*
X212813000Y-112795260D01*
X212813000Y-112502740D01*
X212755932Y-112215842D01*
X212643990Y-111945589D01*
X212481475Y-111702368D01*
X212274632Y-111495525D01*
X212100240Y-111379000D01*
X212274632Y-111262475D01*
X212481475Y-111055632D01*
X212643990Y-110812411D01*
X212755932Y-110542158D01*
X212813000Y-110255260D01*
X212813000Y-109962740D01*
X212755932Y-109675842D01*
X212643990Y-109405589D01*
X212481475Y-109162368D01*
X212274632Y-108955525D01*
X212100240Y-108839000D01*
X212274632Y-108722475D01*
X212481475Y-108515632D01*
X212643990Y-108272411D01*
X212755932Y-108002158D01*
X212813000Y-107715260D01*
X212813000Y-107422740D01*
X212755932Y-107135842D01*
X212643990Y-106865589D01*
X212481475Y-106622368D01*
X212274632Y-106415525D01*
X212100240Y-106299000D01*
X212274632Y-106182475D01*
X212481475Y-105975632D01*
X212643990Y-105732411D01*
X212755932Y-105462158D01*
X212813000Y-105175260D01*
X212813000Y-104882740D01*
X212755932Y-104595842D01*
X212643990Y-104325589D01*
X212481475Y-104082368D01*
X212274632Y-103875525D01*
X212100240Y-103759000D01*
X212274632Y-103642475D01*
X212481475Y-103435632D01*
X212643990Y-103192411D01*
X212755932Y-102922158D01*
X212813000Y-102635260D01*
X212813000Y-102342740D01*
X212755932Y-102055842D01*
X212643990Y-101785589D01*
X212481475Y-101542368D01*
X212349620Y-101410513D01*
X212422180Y-101388502D01*
X212532494Y-101329537D01*
X212629185Y-101250185D01*
X212708537Y-101153494D01*
X212767502Y-101043180D01*
X212803812Y-100923482D01*
X212816072Y-100799000D01*
X212816072Y-99099000D01*
X212803812Y-98974518D01*
X212767502Y-98854820D01*
X212708537Y-98744506D01*
X212629185Y-98647815D01*
X212532494Y-98568463D01*
X212422180Y-98509498D01*
X212302482Y-98473188D01*
X212178000Y-98460928D01*
X210478000Y-98460928D01*
X210353518Y-98473188D01*
X210233820Y-98509498D01*
X210123506Y-98568463D01*
X210026815Y-98647815D01*
X209947463Y-98744506D01*
X209888498Y-98854820D01*
X209852188Y-98974518D01*
X209839928Y-99099000D01*
X208557091Y-99099000D01*
X208473480Y-98973868D01*
X208329317Y-98829705D01*
X208159799Y-98716437D01*
X207971441Y-98638416D01*
X207771482Y-98598642D01*
X207567604Y-98598642D01*
X207367645Y-98638416D01*
X207179287Y-98716437D01*
X207009769Y-98829705D01*
X206865606Y-98973868D01*
X206752338Y-99143386D01*
X206674317Y-99331744D01*
X206634543Y-99531703D01*
X205632000Y-99531703D01*
X205632000Y-99425061D01*
X205592226Y-99225102D01*
X205514205Y-99036744D01*
X205400937Y-98867226D01*
X205256774Y-98723063D01*
X205087256Y-98609795D01*
X204898898Y-98531774D01*
X204698939Y-98492000D01*
X204495061Y-98492000D01*
X204295102Y-98531774D01*
X204106744Y-98609795D01*
X203937226Y-98723063D01*
X203793063Y-98867226D01*
X203726052Y-98967515D01*
X203686437Y-98908226D01*
X203542274Y-98764063D01*
X203372756Y-98650795D01*
X203184398Y-98572774D01*
X202984439Y-98533000D01*
X202780561Y-98533000D01*
X202580602Y-98572774D01*
X202392244Y-98650795D01*
X202222726Y-98764063D01*
X202078563Y-98908226D01*
X201965295Y-99077744D01*
X201887274Y-99266102D01*
X201877583Y-99314820D01*
X201777939Y-99295000D01*
X201574061Y-99295000D01*
X201374102Y-99334774D01*
X201185744Y-99412795D01*
X201016226Y-99526063D01*
X200904087Y-99638202D01*
X200893226Y-99583602D01*
X200815205Y-99395244D01*
X200701937Y-99225726D01*
X200557774Y-99081563D01*
X200388256Y-98968295D01*
X200199898Y-98890274D01*
X199999939Y-98850500D01*
X199796061Y-98850500D01*
X199596102Y-98890274D01*
X199407744Y-98968295D01*
X199238226Y-99081563D01*
X199094063Y-99225726D01*
X198980795Y-99395244D01*
X198902774Y-99583602D01*
X198863000Y-99783561D01*
X194969975Y-99783561D01*
X194890256Y-99730295D01*
X194710000Y-99655630D01*
X194710000Y-99593061D01*
X194670226Y-99393102D01*
X194592205Y-99204744D01*
X194478937Y-99035226D01*
X194334774Y-98891063D01*
X194165256Y-98777795D01*
X193976898Y-98699774D01*
X193776939Y-98660000D01*
X193573061Y-98660000D01*
X193373102Y-98699774D01*
X193184744Y-98777795D01*
X193015226Y-98891063D01*
X192871063Y-99035226D01*
X192757795Y-99204744D01*
X192679774Y-99393102D01*
X192640000Y-99593061D01*
X192496072Y-99593061D01*
X192496072Y-99099000D01*
X192483812Y-98974518D01*
X192447502Y-98854820D01*
X192388537Y-98744506D01*
X192309185Y-98647815D01*
X192212494Y-98568463D01*
X192102180Y-98509498D01*
X191982482Y-98473188D01*
X191858000Y-98460928D01*
X190158000Y-98460928D01*
X190033518Y-98473188D01*
X189913820Y-98509498D01*
X189803506Y-98568463D01*
X189706815Y-98647815D01*
X189627463Y-98744506D01*
X189568498Y-98854820D01*
X189532188Y-98974518D01*
X189519928Y-99099000D01*
X188652803Y-99099000D01*
X188650474Y-97116561D01*
X190608000Y-97116561D01*
X190608000Y-97320439D01*
X190647774Y-97520398D01*
X190725795Y-97708756D01*
X190839063Y-97878274D01*
X190983226Y-98022437D01*
X191152744Y-98135705D01*
X191341102Y-98213726D01*
X191541061Y-98253500D01*
X191744939Y-98253500D01*
X191944898Y-98213726D01*
X192133256Y-98135705D01*
X192302774Y-98022437D01*
X192446937Y-97878274D01*
X192560205Y-97708756D01*
X192638226Y-97520398D01*
X192678000Y-97320439D01*
X192678000Y-97116561D01*
X192638226Y-96916602D01*
X192560205Y-96728244D01*
X192446937Y-96558726D01*
X192302774Y-96414563D01*
X192133256Y-96301295D01*
X191944898Y-96223274D01*
X191744939Y-96183500D01*
X191541061Y-96183500D01*
X191341102Y-96223274D01*
X191152744Y-96301295D01*
X190983226Y-96414563D01*
X190839063Y-96558726D01*
X190725795Y-96728244D01*
X190647774Y-96916602D01*
X190608000Y-97116561D01*
X188650474Y-97116561D01*
X188643803Y-91439661D01*
X191783400Y-91439661D01*
X191783400Y-91643539D01*
X191823174Y-91843498D01*
X191901195Y-92031856D01*
X192014463Y-92201374D01*
X192158626Y-92345537D01*
X192328144Y-92458805D01*
X192516502Y-92536826D01*
X192716461Y-92576600D01*
X192920339Y-92576600D01*
X193120298Y-92536826D01*
X193308656Y-92458805D01*
X193478174Y-92345537D01*
X193622337Y-92201374D01*
X193735605Y-92031856D01*
X193813626Y-91843498D01*
X193853400Y-91643539D01*
X193853400Y-91439661D01*
X193813626Y-91239702D01*
X193735605Y-91051344D01*
X193622337Y-90881826D01*
X193478174Y-90737663D01*
X193308656Y-90624395D01*
X193120298Y-90546374D01*
X192920339Y-90506600D01*
X192716461Y-90506600D01*
X192516502Y-90546374D01*
X192328144Y-90624395D01*
X192158626Y-90737663D01*
X192014463Y-90881826D01*
X191901195Y-91051344D01*
X191823174Y-91239702D01*
X191783400Y-91439661D01*
X188643803Y-91439661D01*
X188640650Y-88757000D01*
X193873464Y-88757000D01*
X193875792Y-89393397D01*
G37*
X193875792Y-89393397D02*
X193860563Y-89408626D01*
X193747295Y-89578144D01*
X193669274Y-89766502D01*
X193629500Y-89966461D01*
X193629500Y-90170339D01*
X193669274Y-90370298D01*
X193747295Y-90558656D01*
X193860563Y-90728174D01*
X193880749Y-90748360D01*
X193901408Y-96395087D01*
X193777226Y-96478063D01*
X193633063Y-96622226D01*
X193519795Y-96791744D01*
X193441774Y-96980102D01*
X193402000Y-97180061D01*
X193402000Y-97383939D01*
X193441774Y-97583898D01*
X193519795Y-97772256D01*
X193633063Y-97941774D01*
X193777226Y-98085937D01*
X193946744Y-98199205D01*
X194135102Y-98277226D01*
X194335061Y-98317000D01*
X194538939Y-98317000D01*
X194738898Y-98277226D01*
X194927256Y-98199205D01*
X195096774Y-98085937D01*
X195240937Y-97941774D01*
X195354205Y-97772256D01*
X195432226Y-97583898D01*
X195472000Y-97383939D01*
X195472000Y-97180061D01*
X195432226Y-96980102D01*
X195422657Y-96957000D01*
X195636646Y-96957000D01*
X195600774Y-97043602D01*
X195561000Y-97243561D01*
X195561000Y-97447439D01*
X195600774Y-97647398D01*
X195678795Y-97835756D01*
X195792063Y-98005274D01*
X195936226Y-98149437D01*
X196105744Y-98262705D01*
X196294102Y-98340726D01*
X196494061Y-98380500D01*
X196697939Y-98380500D01*
X196897898Y-98340726D01*
X197086256Y-98262705D01*
X197255774Y-98149437D01*
X197399937Y-98005274D01*
X197513205Y-97835756D01*
X197591226Y-97647398D01*
X197631000Y-97447439D01*
X197631000Y-97243561D01*
X197591226Y-97043602D01*
X197555354Y-96957000D01*
X197821949Y-96957000D01*
X197759774Y-97107102D01*
X197720000Y-97307061D01*
X197720000Y-97510939D01*
X197759774Y-97710898D01*
X197837795Y-97899256D01*
X197951063Y-98068774D01*
X198095226Y-98212937D01*
X198264744Y-98326205D01*
X198453102Y-98404226D01*
X198653061Y-98444000D01*
X198856939Y-98444000D01*
X199056898Y-98404226D01*
X199245256Y-98326205D01*
X199414774Y-98212937D01*
X199485250Y-98142461D01*
X199492226Y-98149437D01*
X199661744Y-98262705D01*
X199850102Y-98340726D01*
X200050061Y-98380500D01*
X200253939Y-98380500D01*
X200453898Y-98340726D01*
X200642256Y-98262705D01*
X200811774Y-98149437D01*
X200955937Y-98005274D01*
X201069205Y-97835756D01*
X201147226Y-97647398D01*
X201187000Y-97447439D01*
X201187000Y-97243561D01*
X201147226Y-97043602D01*
X201111354Y-96957000D01*
X201728162Y-96957000D01*
X201711295Y-96982244D01*
X201633274Y-97170602D01*
X201593500Y-97370561D01*
X201593500Y-97574439D01*
X201633274Y-97774398D01*
X201711295Y-97962756D01*
X201824563Y-98132274D01*
X201968726Y-98276437D01*
X202138244Y-98389705D01*
X202326602Y-98467726D01*
X202526561Y-98507500D01*
X202730439Y-98507500D01*
X202930398Y-98467726D01*
X203118756Y-98389705D01*
X203288274Y-98276437D01*
X203432437Y-98132274D01*
X203545705Y-97962756D01*
X203623726Y-97774398D01*
X203625417Y-97765895D01*
X203741898Y-97742726D01*
X203930256Y-97664705D01*
X204050250Y-97584528D01*
X204170244Y-97664705D01*
X204358602Y-97742726D01*
X204558561Y-97782500D01*
X204762439Y-97782500D01*
X204962398Y-97742726D01*
X205150756Y-97664705D01*
X205320274Y-97551437D01*
X205464437Y-97407274D01*
X205577705Y-97237756D01*
X205655726Y-97049398D01*
X205674105Y-96957000D01*
X212954000Y-96957000D01*
X212954001Y-124562000D01*
X197173051Y-124562000D01*
X197235226Y-124411898D01*
X197275000Y-124211939D01*
X197275000Y-124008061D01*
X197235226Y-123808102D01*
X197157205Y-123619744D01*
X197043937Y-123450226D01*
X196899774Y-123306063D01*
X196730256Y-123192795D01*
X196541898Y-123114774D01*
X196341939Y-123075000D01*
X196138061Y-123075000D01*
X195938102Y-123114774D01*
X195749744Y-123192795D01*
X195580226Y-123306063D01*
X195436063Y-123450226D01*
X195322795Y-123619744D01*
X195244774Y-123808102D01*
X195205000Y-124008061D01*
X195205000Y-124211939D01*
X195244774Y-124411898D01*
X195306949Y-124562000D01*
X188682724Y-124562000D01*
X188677550Y-120158212D01*
X196345000Y-120158212D01*
X196345000Y-120381788D01*
X196388617Y-120601067D01*
X196474176Y-120807624D01*
X196598388Y-120993520D01*
X196756480Y-121151612D01*
X196942376Y-121275824D01*
X197148933Y-121361383D01*
X197368212Y-121405000D01*
X197591788Y-121405000D01*
X197811067Y-121361383D01*
X198017624Y-121275824D01*
X198203520Y-121151612D01*
X198361612Y-120993520D01*
X198485824Y-120807624D01*
X198571383Y-120601067D01*
X198615000Y-120381788D01*
X198615000Y-120158212D01*
X198571383Y-119938933D01*
X198485824Y-119732376D01*
X198361612Y-119546480D01*
X198203520Y-119388388D01*
X198017624Y-119264176D01*
X197811067Y-119178617D01*
X197720062Y-119160515D01*
X197791898Y-119146226D01*
X197980256Y-119068205D01*
X198149774Y-118954937D01*
X198293937Y-118810774D01*
X198407205Y-118641256D01*
X198485226Y-118452898D01*
X198525000Y-118252939D01*
X198525000Y-118049061D01*
X198485226Y-117849102D01*
X198445859Y-117754061D01*
X199269400Y-117754061D01*
X199269400Y-117957939D01*
X199309174Y-118157898D01*
X199387195Y-118346256D01*
X199500463Y-118515774D01*
X199644626Y-118659937D01*
X199814144Y-118773205D01*
X200002502Y-118851226D01*
X200202461Y-118891000D01*
X200406339Y-118891000D01*
X200606298Y-118851226D01*
X200794656Y-118773205D01*
X200939400Y-118676490D01*
X201084144Y-118773205D01*
X201272502Y-118851226D01*
X201472461Y-118891000D01*
X201676339Y-118891000D01*
X201876298Y-118851226D01*
X202064656Y-118773205D01*
X202107800Y-118744377D01*
X202150944Y-118773205D01*
X202339302Y-118851226D01*
X202539261Y-118891000D01*
X202743139Y-118891000D01*
X202943098Y-118851226D01*
X203073000Y-118797418D01*
X203202902Y-118851226D01*
X203402861Y-118891000D01*
X203606739Y-118891000D01*
X203806698Y-118851226D01*
X203962000Y-118786897D01*
X204117302Y-118851226D01*
X204317261Y-118891000D01*
X204521139Y-118891000D01*
X204721098Y-118851226D01*
X204876400Y-118786897D01*
X205031702Y-118851226D01*
X205231661Y-118891000D01*
X205435539Y-118891000D01*
X205635498Y-118851226D01*
X205790800Y-118786897D01*
X205946102Y-118851226D01*
X206146061Y-118891000D01*
X206349939Y-118891000D01*
X206549898Y-118851226D01*
X206705200Y-118786897D01*
X206860502Y-118851226D01*
X207060461Y-118891000D01*
X207264339Y-118891000D01*
X207464298Y-118851226D01*
X207652656Y-118773205D01*
X207822174Y-118659937D01*
X207966337Y-118515774D01*
X208079605Y-118346256D01*
X208157626Y-118157898D01*
X208197400Y-117957939D01*
X208197400Y-117754061D01*
X208157626Y-117554102D01*
X208079605Y-117365744D01*
X207966337Y-117196226D01*
X207822174Y-117052063D01*
X207652656Y-116938795D01*
X207464298Y-116860774D01*
X207264339Y-116821000D01*
X207060461Y-116821000D01*
X206860502Y-116860774D01*
X206705200Y-116925103D01*
X206549898Y-116860774D01*
X206349939Y-116821000D01*
X206146061Y-116821000D01*
X205946102Y-116860774D01*
X205790800Y-116925103D01*
X205635498Y-116860774D01*
X205435539Y-116821000D01*
X205231661Y-116821000D01*
X205031702Y-116860774D01*
X204876400Y-116925103D01*
X204721098Y-116860774D01*
X204521139Y-116821000D01*
X204317261Y-116821000D01*
X204117302Y-116860774D01*
X203962000Y-116925103D01*
X203806698Y-116860774D01*
X203606739Y-116821000D01*
X203402861Y-116821000D01*
X203202902Y-116860774D01*
X203073000Y-116914582D01*
X202943098Y-116860774D01*
X202743139Y-116821000D01*
X202539261Y-116821000D01*
X202339302Y-116860774D01*
X202150944Y-116938795D01*
X202107800Y-116967623D01*
X202064656Y-116938795D01*
X201876298Y-116860774D01*
X201676339Y-116821000D01*
X201472461Y-116821000D01*
X201272502Y-116860774D01*
X201084144Y-116938795D01*
X200939400Y-117035510D01*
X200794656Y-116938795D01*
X200606298Y-116860774D01*
X200406339Y-116821000D01*
X200202461Y-116821000D01*
X200002502Y-116860774D01*
X199814144Y-116938795D01*
X199644626Y-117052063D01*
X199500463Y-117196226D01*
X199387195Y-117365744D01*
X199309174Y-117554102D01*
X199269400Y-117754061D01*
X198445859Y-117754061D01*
X198407205Y-117660744D01*
X198293937Y-117491226D01*
X198149774Y-117347063D01*
X197980256Y-117233795D01*
X197791898Y-117155774D01*
X197591939Y-117116000D01*
X197388061Y-117116000D01*
X197188102Y-117155774D01*
X196999744Y-117233795D01*
X196830226Y-117347063D01*
X196686063Y-117491226D01*
X196572795Y-117660744D01*
X196494774Y-117849102D01*
X196455000Y-118049061D01*
X196455000Y-118252939D01*
X196494774Y-118452898D01*
X196572795Y-118641256D01*
X196686063Y-118810774D01*
X196830226Y-118954937D01*
X196999744Y-119068205D01*
X197188102Y-119146226D01*
X197249938Y-119158526D01*
X197148933Y-119178617D01*
X196942376Y-119264176D01*
X196756480Y-119388388D01*
X196598388Y-119546480D01*
X196474176Y-119732376D01*
X196388617Y-119938933D01*
X196345000Y-120158212D01*
X188677550Y-120158212D01*
X188673696Y-116879000D01*
X189519928Y-116879000D01*
X189519928Y-118579000D01*
X189532188Y-118703482D01*
X189568498Y-118823180D01*
X189627463Y-118933494D01*
X189706815Y-119030185D01*
X189803506Y-119109537D01*
X189913820Y-119168502D01*
X190033518Y-119204812D01*
X190158000Y-119217072D01*
X191858000Y-119217072D01*
X191982482Y-119204812D01*
X192102180Y-119168502D01*
X192212494Y-119109537D01*
X192309185Y-119030185D01*
X192388537Y-118933494D01*
X192447502Y-118823180D01*
X192483812Y-118703482D01*
X192496072Y-118579000D01*
X192496072Y-116879000D01*
X192483812Y-116754518D01*
X192447502Y-116634820D01*
X192394072Y-116534861D01*
X192716200Y-116534861D01*
X192716200Y-116738739D01*
X192755974Y-116938698D01*
X192820303Y-117094000D01*
X192755974Y-117249302D01*
X192716200Y-117449261D01*
X192716200Y-117653139D01*
X192755974Y-117853098D01*
X192833995Y-118041456D01*
X192947263Y-118210974D01*
X193091426Y-118355137D01*
X193260944Y-118468405D01*
X193449302Y-118546426D01*
X193649261Y-118586200D01*
X193853139Y-118586200D01*
X194053098Y-118546426D01*
X194241456Y-118468405D01*
X194410974Y-118355137D01*
X194555137Y-118210974D01*
X194668405Y-118041456D01*
X194746426Y-117853098D01*
X194786200Y-117653139D01*
X194786200Y-117449261D01*
X194746426Y-117249302D01*
X194682097Y-117094000D01*
X194746426Y-116938698D01*
X194786200Y-116738739D01*
X194786200Y-116534861D01*
X194746426Y-116334902D01*
X194668405Y-116146544D01*
X194555137Y-115977026D01*
X194410974Y-115832863D01*
X194241456Y-115719595D01*
X194053098Y-115641574D01*
X193853139Y-115601800D01*
X193649261Y-115601800D01*
X193449302Y-115641574D01*
X193260944Y-115719595D01*
X193091426Y-115832863D01*
X192947263Y-115977026D01*
X192833995Y-116146544D01*
X192755974Y-116334902D01*
X192716200Y-116534861D01*
X192394072Y-116534861D01*
X192388537Y-116524506D01*
X192309185Y-116427815D01*
X192212494Y-116348463D01*
X192102180Y-116289498D01*
X192021534Y-116265034D01*
X192105588Y-116189269D01*
X192279641Y-115955920D01*
X192404825Y-115693099D01*
X192449476Y-115545890D01*
X192328155Y-115316000D01*
X191135000Y-115316000D01*
X191135000Y-115336000D01*
X190881000Y-115336000D01*
X190881000Y-115316000D01*
X189687845Y-115316000D01*
X189566524Y-115545890D01*
X189611175Y-115693099D01*
X189736359Y-115955920D01*
X189910412Y-116189269D01*
X189994466Y-116265034D01*
X189913820Y-116289498D01*
X189803506Y-116348463D01*
X189706815Y-116427815D01*
X189627463Y-116524506D01*
X189568498Y-116634820D01*
X189532188Y-116754518D01*
X189519928Y-116879000D01*
X188673696Y-116879000D01*
X188652803Y-99099000D01*
X189519928Y-99099000D01*
X189519928Y-100799000D01*
X189532188Y-100923482D01*
X189568498Y-101043180D01*
X189627463Y-101153494D01*
X189706815Y-101250185D01*
X189803506Y-101329537D01*
X189913820Y-101388502D01*
X189986380Y-101410513D01*
X189854525Y-101542368D01*
X189692010Y-101785589D01*
X189580068Y-102055842D01*
X189523000Y-102342740D01*
X189523000Y-102635260D01*
X189580068Y-102922158D01*
X189692010Y-103192411D01*
X189854525Y-103435632D01*
X190061368Y-103642475D01*
X190235760Y-103759000D01*
X190061368Y-103875525D01*
X189854525Y-104082368D01*
X189692010Y-104325589D01*
X189580068Y-104595842D01*
X189523000Y-104882740D01*
X189523000Y-105175260D01*
X189580068Y-105462158D01*
X189692010Y-105732411D01*
X189854525Y-105975632D01*
X190061368Y-106182475D01*
X190235760Y-106299000D01*
X190061368Y-106415525D01*
X189854525Y-106622368D01*
X189692010Y-106865589D01*
X189580068Y-107135842D01*
X189523000Y-107422740D01*
X189523000Y-107715260D01*
X189580068Y-108002158D01*
X189692010Y-108272411D01*
X189854525Y-108515632D01*
X190061368Y-108722475D01*
X190235760Y-108839000D01*
X190061368Y-108955525D01*
X189854525Y-109162368D01*
X189692010Y-109405589D01*
X189580068Y-109675842D01*
X189523000Y-109962740D01*
X189523000Y-110255260D01*
X189580068Y-110542158D01*
X189692010Y-110812411D01*
X189854525Y-111055632D01*
X190061368Y-111262475D01*
X190235760Y-111379000D01*
X190061368Y-111495525D01*
X189854525Y-111702368D01*
X189692010Y-111945589D01*
X189580068Y-112215842D01*
X189523000Y-112502740D01*
X189523000Y-112795260D01*
X189580068Y-113082158D01*
X189692010Y-113352411D01*
X189854525Y-113595632D01*
X190061368Y-113802475D01*
X190243534Y-113924195D01*
X190126645Y-113993822D01*
X189910412Y-114188731D01*
X189736359Y-114422080D01*
X189611175Y-114684901D01*
X189566524Y-114832110D01*
X189687845Y-115062000D01*
X190881000Y-115062000D01*
X190881000Y-115042000D01*
X191135000Y-115042000D01*
X191135000Y-115062000D01*
X192328155Y-115062000D01*
X192449476Y-114832110D01*
X192404825Y-114684901D01*
X192279641Y-114422080D01*
X192105588Y-114188731D01*
X191889355Y-113993822D01*
X191772466Y-113924195D01*
X191954632Y-113802475D01*
X192161475Y-113595632D01*
X192166266Y-113588461D01*
X192665400Y-113588461D01*
X192665400Y-113792339D01*
X192705174Y-113992298D01*
X192748460Y-114096800D01*
X192705174Y-114201302D01*
X192665400Y-114401261D01*
X192665400Y-114605139D01*
X192705174Y-114805098D01*
X192783195Y-114993456D01*
X192896463Y-115162974D01*
X193040626Y-115307137D01*
X193210144Y-115420405D01*
X193398502Y-115498426D01*
X193598461Y-115538200D01*
X193802339Y-115538200D01*
X194002298Y-115498426D01*
X194190656Y-115420405D01*
X194360174Y-115307137D01*
X194429250Y-115238061D01*
X199895000Y-115238061D01*
X199895000Y-115441939D01*
X199934774Y-115641898D01*
X200012795Y-115830256D01*
X200126063Y-115999774D01*
X200270226Y-116143937D01*
X200439744Y-116257205D01*
X200628102Y-116335226D01*
X200828061Y-116375000D01*
X201031939Y-116375000D01*
X201231898Y-116335226D01*
X201420256Y-116257205D01*
X201589774Y-116143937D01*
X201733937Y-115999774D01*
X201847205Y-115830256D01*
X201925226Y-115641898D01*
X201965000Y-115441939D01*
X201965000Y-115238061D01*
X201925226Y-115038102D01*
X201847205Y-114849744D01*
X201733937Y-114680226D01*
X201589774Y-114536063D01*
X201420256Y-114422795D01*
X201231898Y-114344774D01*
X201031939Y-114305000D01*
X200828061Y-114305000D01*
X200628102Y-114344774D01*
X200439744Y-114422795D01*
X200270226Y-114536063D01*
X200126063Y-114680226D01*
X200012795Y-114849744D01*
X199934774Y-115038102D01*
X199895000Y-115238061D01*
X194429250Y-115238061D01*
X194504337Y-115162974D01*
X194617605Y-114993456D01*
X194695626Y-114805098D01*
X194735400Y-114605139D01*
X194735400Y-114401261D01*
X194695626Y-114201302D01*
X194694284Y-114198061D01*
X202800000Y-114198061D01*
X202800000Y-114401939D01*
X202839774Y-114601898D01*
X202917795Y-114790256D01*
X203014510Y-114935000D01*
X202917795Y-115079744D01*
X202839774Y-115268102D01*
X202800000Y-115468061D01*
X202800000Y-115671939D01*
X202839774Y-115871898D01*
X202917795Y-116060256D01*
X203031063Y-116229774D01*
X203175226Y-116373937D01*
X203344744Y-116487205D01*
X203533102Y-116565226D01*
X203733061Y-116605000D01*
X203936939Y-116605000D01*
X204136898Y-116565226D01*
X204325256Y-116487205D01*
X204470000Y-116390490D01*
X204614744Y-116487205D01*
X204803102Y-116565226D01*
X205003061Y-116605000D01*
X205206939Y-116605000D01*
X205406898Y-116565226D01*
X205595256Y-116487205D01*
X205740000Y-116390490D01*
X205884744Y-116487205D01*
X206073102Y-116565226D01*
X206273061Y-116605000D01*
X206476939Y-116605000D01*
X206676898Y-116565226D01*
X206865256Y-116487205D01*
X207034774Y-116373937D01*
X207178937Y-116229774D01*
X207292205Y-116060256D01*
X207370226Y-115871898D01*
X207410000Y-115671939D01*
X207410000Y-115468061D01*
X207370226Y-115268102D01*
X207292205Y-115079744D01*
X207195490Y-114935000D01*
X207292205Y-114790256D01*
X207370226Y-114601898D01*
X207410000Y-114401939D01*
X207410000Y-114198061D01*
X207370226Y-113998102D01*
X207292205Y-113809744D01*
X207178937Y-113640226D01*
X207034774Y-113496063D01*
X206865256Y-113382795D01*
X206676898Y-113304774D01*
X206476939Y-113265000D01*
X206273061Y-113265000D01*
X206073102Y-113304774D01*
X205884744Y-113382795D01*
X205740000Y-113479510D01*
X205595256Y-113382795D01*
X205406898Y-113304774D01*
X205206939Y-113265000D01*
X205003061Y-113265000D01*
X204803102Y-113304774D01*
X204614744Y-113382795D01*
X204470000Y-113479510D01*
X204325256Y-113382795D01*
X204136898Y-113304774D01*
X203936939Y-113265000D01*
X203733061Y-113265000D01*
X203533102Y-113304774D01*
X203344744Y-113382795D01*
X203175226Y-113496063D01*
X203031063Y-113640226D01*
X202917795Y-113809744D01*
X202839774Y-113998102D01*
X202800000Y-114198061D01*
X194694284Y-114198061D01*
X194652340Y-114096800D01*
X194695626Y-113992298D01*
X194735400Y-113792339D01*
X194735400Y-113588461D01*
X194695626Y-113388502D01*
X194617605Y-113200144D01*
X194504337Y-113030626D01*
X194360174Y-112886463D01*
X194190656Y-112773195D01*
X194002298Y-112695174D01*
X193802339Y-112655400D01*
X193598461Y-112655400D01*
X193398502Y-112695174D01*
X193210144Y-112773195D01*
X193040626Y-112886463D01*
X192896463Y-113030626D01*
X192783195Y-113200144D01*
X192705174Y-113388502D01*
X192665400Y-113588461D01*
X192166266Y-113588461D01*
X192323990Y-113352411D01*
X192435932Y-113082158D01*
X192493000Y-112795260D01*
X192493000Y-112638061D01*
X194905000Y-112638061D01*
X194905000Y-112841939D01*
X194944774Y-113041898D01*
X195022795Y-113230256D01*
X195136063Y-113399774D01*
X195280226Y-113543937D01*
X195449744Y-113657205D01*
X195638102Y-113735226D01*
X195838061Y-113775000D01*
X196041939Y-113775000D01*
X196241898Y-113735226D01*
X196430256Y-113657205D01*
X196599774Y-113543937D01*
X196743937Y-113399774D01*
X196857205Y-113230256D01*
X196935226Y-113041898D01*
X196975000Y-112841939D01*
X196975000Y-112638061D01*
X196935226Y-112438102D01*
X196857205Y-112249744D01*
X196789263Y-112148061D01*
X201955000Y-112148061D01*
X201955000Y-112351939D01*
X201994774Y-112551898D01*
X202072795Y-112740256D01*
X202186063Y-112909774D01*
X202330226Y-113053937D01*
X202499744Y-113167205D01*
X202688102Y-113245226D01*
X202888061Y-113285000D01*
X203091939Y-113285000D01*
X203291898Y-113245226D01*
X203480256Y-113167205D01*
X203649774Y-113053937D01*
X203793937Y-112909774D01*
X203907205Y-112740256D01*
X203985226Y-112551898D01*
X204025000Y-112351939D01*
X204025000Y-112148061D01*
X204020040Y-112123123D01*
X204162298Y-112094826D01*
X204350656Y-112016805D01*
X204419200Y-111971005D01*
X204487744Y-112016805D01*
X204676102Y-112094826D01*
X204876061Y-112134600D01*
X205079939Y-112134600D01*
X205279898Y-112094826D01*
X205468256Y-112016805D01*
X205637774Y-111903537D01*
X205781937Y-111759374D01*
X205895205Y-111589856D01*
X205973226Y-111401498D01*
X206013000Y-111201539D01*
X206013000Y-110997661D01*
X205973226Y-110797702D01*
X205895205Y-110609344D01*
X205781937Y-110439826D01*
X205637774Y-110295663D01*
X205468256Y-110182395D01*
X205279898Y-110104374D01*
X205079939Y-110064600D01*
X204876061Y-110064600D01*
X204676102Y-110104374D01*
X204487744Y-110182395D01*
X204419200Y-110228195D01*
X204350656Y-110182395D01*
X204162298Y-110104374D01*
X203962339Y-110064600D01*
X203758461Y-110064600D01*
X203558502Y-110104374D01*
X203370144Y-110182395D01*
X203200626Y-110295663D01*
X203056463Y-110439826D01*
X202943195Y-110609344D01*
X202865174Y-110797702D01*
X202825400Y-110997661D01*
X202825400Y-111201539D01*
X202830360Y-111226477D01*
X202688102Y-111254774D01*
X202499744Y-111332795D01*
X202330226Y-111446063D01*
X202186063Y-111590226D01*
X202072795Y-111759744D01*
X201994774Y-111948102D01*
X201955000Y-112148061D01*
X196789263Y-112148061D01*
X196743937Y-112080226D01*
X196599774Y-111936063D01*
X196430256Y-111822795D01*
X196241898Y-111744774D01*
X196041939Y-111705000D01*
X195838061Y-111705000D01*
X195638102Y-111744774D01*
X195449744Y-111822795D01*
X195280226Y-111936063D01*
X195136063Y-112080226D01*
X195022795Y-112249744D01*
X194944774Y-112438102D01*
X194905000Y-112638061D01*
X192493000Y-112638061D01*
X192493000Y-112502740D01*
X192435932Y-112215842D01*
X192323990Y-111945589D01*
X192161475Y-111702368D01*
X191954632Y-111495525D01*
X191780240Y-111379000D01*
X191954632Y-111262475D01*
X192161475Y-111055632D01*
X192323990Y-110812411D01*
X192435932Y-110542158D01*
X192493000Y-110255260D01*
X192493000Y-109962740D01*
X192474168Y-109868061D01*
X192565000Y-109868061D01*
X192565000Y-110071939D01*
X192604774Y-110271898D01*
X192682795Y-110460256D01*
X192796063Y-110629774D01*
X192940226Y-110773937D01*
X193109744Y-110887205D01*
X193298102Y-110965226D01*
X193498061Y-111005000D01*
X193701939Y-111005000D01*
X193901898Y-110965226D01*
X194090256Y-110887205D01*
X194259774Y-110773937D01*
X194403937Y-110629774D01*
X194517205Y-110460256D01*
X194595226Y-110271898D01*
X194635000Y-110071939D01*
X194635000Y-109868061D01*
X194595226Y-109668102D01*
X194517205Y-109479744D01*
X194403937Y-109310226D01*
X194259774Y-109166063D01*
X194090256Y-109052795D01*
X193901898Y-108974774D01*
X193701939Y-108935000D01*
X193498061Y-108935000D01*
X193298102Y-108974774D01*
X193109744Y-109052795D01*
X192940226Y-109166063D01*
X192796063Y-109310226D01*
X192682795Y-109479744D01*
X192604774Y-109668102D01*
X192565000Y-109868061D01*
X192474168Y-109868061D01*
X192435932Y-109675842D01*
X192323990Y-109405589D01*
X192161475Y-109162368D01*
X191954632Y-108955525D01*
X191780240Y-108839000D01*
X191954632Y-108722475D01*
X192161475Y-108515632D01*
X192323990Y-108272411D01*
X192435932Y-108002158D01*
X192493000Y-107715260D01*
X192493000Y-107422740D01*
X192489186Y-107403561D01*
X192830500Y-107403561D01*
X192830500Y-107607439D01*
X192870274Y-107807398D01*
X192948295Y-107995756D01*
X193061563Y-108165274D01*
X193205726Y-108309437D01*
X193375244Y-108422705D01*
X193563602Y-108500726D01*
X193763561Y-108540500D01*
X193967439Y-108540500D01*
X194167398Y-108500726D01*
X194242832Y-108469480D01*
X194227500Y-108546561D01*
X194227500Y-108750439D01*
X194267274Y-108950398D01*
X194345295Y-109138756D01*
X194458563Y-109308274D01*
X194602726Y-109452437D01*
X194772244Y-109565705D01*
X194960602Y-109643726D01*
X195160561Y-109683500D01*
X195364439Y-109683500D01*
X195397815Y-109676861D01*
X206330600Y-109676861D01*
X206330600Y-109880739D01*
X206370374Y-110080698D01*
X206448395Y-110269056D01*
X206561663Y-110438574D01*
X206705826Y-110582737D01*
X206875344Y-110696005D01*
X206907255Y-110709223D01*
X206956395Y-110827856D01*
X207069663Y-110997374D01*
X207213826Y-111141537D01*
X207383344Y-111254805D01*
X207571702Y-111332826D01*
X207771661Y-111372600D01*
X207975539Y-111372600D01*
X208175498Y-111332826D01*
X208363856Y-111254805D01*
X208533374Y-111141537D01*
X208677537Y-110997374D01*
X208790805Y-110827856D01*
X208868826Y-110639498D01*
X208908600Y-110439539D01*
X208908600Y-110235661D01*
X208868826Y-110035702D01*
X208790805Y-109847344D01*
X208677537Y-109677826D01*
X208533374Y-109533663D01*
X208363856Y-109420395D01*
X208331945Y-109407177D01*
X208282805Y-109288544D01*
X208169537Y-109119026D01*
X208025374Y-108974863D01*
X207855856Y-108861595D01*
X207667498Y-108783574D01*
X207467539Y-108743800D01*
X207263661Y-108743800D01*
X207063702Y-108783574D01*
X206875344Y-108861595D01*
X206705826Y-108974863D01*
X206561663Y-109119026D01*
X206448395Y-109288544D01*
X206370374Y-109476902D01*
X206330600Y-109676861D01*
X195397815Y-109676861D01*
X195564398Y-109643726D01*
X195752756Y-109565705D01*
X195922274Y-109452437D01*
X196066437Y-109308274D01*
X196179705Y-109138756D01*
X196257726Y-108950398D01*
X196297500Y-108750439D01*
X196297500Y-108546561D01*
X196257726Y-108346602D01*
X196179705Y-108158244D01*
X196066437Y-107988726D01*
X195922274Y-107844563D01*
X195752756Y-107731295D01*
X195564398Y-107653274D01*
X195364439Y-107613500D01*
X195160561Y-107613500D01*
X194960602Y-107653274D01*
X194885168Y-107684520D01*
X194900500Y-107607439D01*
X194900500Y-107403561D01*
X194865701Y-107228614D01*
X195024102Y-107294226D01*
X195224061Y-107334000D01*
X195427939Y-107334000D01*
X195627898Y-107294226D01*
X195816256Y-107216205D01*
X195985774Y-107102937D01*
X196129937Y-106958774D01*
X196243205Y-106789256D01*
X196321226Y-106600898D01*
X196361000Y-106400939D01*
X196361000Y-106197061D01*
X196321226Y-105997102D01*
X196243205Y-105808744D01*
X196129937Y-105639226D01*
X195985774Y-105495063D01*
X195816256Y-105381795D01*
X195627898Y-105303774D01*
X195427939Y-105264000D01*
X195224061Y-105264000D01*
X195024102Y-105303774D01*
X194835744Y-105381795D01*
X194666226Y-105495063D01*
X194522063Y-105639226D01*
X194408795Y-105808744D01*
X194330774Y-105997102D01*
X194291000Y-106197061D01*
X194291000Y-106400939D01*
X194325799Y-106575886D01*
X194167398Y-106510274D01*
X193967439Y-106470500D01*
X193763561Y-106470500D01*
X193563602Y-106510274D01*
X193375244Y-106588295D01*
X193205726Y-106701563D01*
X193061563Y-106845726D01*
X192948295Y-107015244D01*
X192870274Y-107203602D01*
X192830500Y-107403561D01*
X192489186Y-107403561D01*
X192435932Y-107135842D01*
X192323990Y-106865589D01*
X192161475Y-106622368D01*
X191954632Y-106415525D01*
X191780240Y-106299000D01*
X191954632Y-106182475D01*
X192161475Y-105975632D01*
X192323990Y-105732411D01*
X192435932Y-105462158D01*
X192493000Y-105175260D01*
X192493000Y-104882740D01*
X192489186Y-104863561D01*
X192640000Y-104863561D01*
X192640000Y-105067439D01*
X192679774Y-105267398D01*
X192757795Y-105455756D01*
X192871063Y-105625274D01*
X193015226Y-105769437D01*
X193184744Y-105882705D01*
X193373102Y-105960726D01*
X193573061Y-106000500D01*
X193776939Y-106000500D01*
X193976898Y-105960726D01*
X194165256Y-105882705D01*
X194334774Y-105769437D01*
X194478937Y-105625274D01*
X194592205Y-105455756D01*
X194670226Y-105267398D01*
X194710000Y-105067439D01*
X194710000Y-104863561D01*
X194683533Y-104730500D01*
X194702939Y-104730500D01*
X194902898Y-104690726D01*
X195091256Y-104612705D01*
X195260774Y-104499437D01*
X195404937Y-104355274D01*
X195518205Y-104185756D01*
X195596226Y-103997398D01*
X195636000Y-103797439D01*
X195636000Y-103593561D01*
X195596226Y-103393602D01*
X195518205Y-103205244D01*
X195492374Y-103166585D01*
X195555226Y-103229437D01*
X195724744Y-103342705D01*
X195913102Y-103420726D01*
X196113061Y-103460500D01*
X196316939Y-103460500D01*
X196516898Y-103420726D01*
X196705256Y-103342705D01*
X196874774Y-103229437D01*
X197018937Y-103085274D01*
X197132205Y-102915756D01*
X197210226Y-102727398D01*
X197250000Y-102527439D01*
X197250000Y-102323561D01*
X197210226Y-102123602D01*
X197132205Y-101935244D01*
X197018937Y-101765726D01*
X196874774Y-101621563D01*
X196705256Y-101508295D01*
X196516898Y-101430274D01*
X196316939Y-101390500D01*
X196113061Y-101390500D01*
X195913102Y-101430274D01*
X195724744Y-101508295D01*
X195555226Y-101621563D01*
X195411063Y-101765726D01*
X195297795Y-101935244D01*
X195219774Y-102123602D01*
X195180000Y-102323561D01*
X195180000Y-102527439D01*
X195219774Y-102727398D01*
X195297795Y-102915756D01*
X195323626Y-102954415D01*
X195260774Y-102891563D01*
X195091256Y-102778295D01*
X194902898Y-102700274D01*
X194702939Y-102660500D01*
X194499061Y-102660500D01*
X194299102Y-102700274D01*
X194110744Y-102778295D01*
X193941226Y-102891563D01*
X193797063Y-103035726D01*
X193683795Y-103205244D01*
X193605774Y-103393602D01*
X193566000Y-103593561D01*
X193566000Y-103797439D01*
X193592467Y-103930500D01*
X193573061Y-103930500D01*
X193373102Y-103970274D01*
X193184744Y-104048295D01*
X193015226Y-104161563D01*
X192871063Y-104305726D01*
X192757795Y-104475244D01*
X192679774Y-104663602D01*
X192640000Y-104863561D01*
X192489186Y-104863561D01*
X192435932Y-104595842D01*
X192323990Y-104325589D01*
X192161475Y-104082368D01*
X191954632Y-103875525D01*
X191780240Y-103759000D01*
X191954632Y-103642475D01*
X192161475Y-103435632D01*
X192323990Y-103192411D01*
X192435932Y-102922158D01*
X192493000Y-102635260D01*
X192493000Y-102342740D01*
X192435932Y-102055842D01*
X192323990Y-101785589D01*
X192161475Y-101542368D01*
X192029620Y-101410513D01*
X192102180Y-101388502D01*
X192212494Y-101329537D01*
X192309185Y-101250185D01*
X192388537Y-101153494D01*
X192447502Y-101043180D01*
X192483812Y-100923482D01*
X192496072Y-100799000D01*
X192496072Y-99593061D01*
X192640000Y-99593061D01*
X192640000Y-99796939D01*
X192679774Y-99996898D01*
X192757795Y-100185256D01*
X192871063Y-100354774D01*
X193015226Y-100498937D01*
X193184744Y-100612205D01*
X193365000Y-100686870D01*
X193365000Y-100749439D01*
X193404774Y-100949398D01*
X193482795Y-101137756D01*
X193596063Y-101307274D01*
X193740226Y-101451437D01*
X193909744Y-101564705D01*
X194098102Y-101642726D01*
X194298061Y-101682500D01*
X194501939Y-101682500D01*
X194701898Y-101642726D01*
X194890256Y-101564705D01*
X195059774Y-101451437D01*
X195203937Y-101307274D01*
X195317205Y-101137756D01*
X195395226Y-100949398D01*
X195435000Y-100749439D01*
X195435000Y-100545561D01*
X195395226Y-100345602D01*
X195317205Y-100157244D01*
X195203937Y-99987726D01*
X195059774Y-99843563D01*
X194969975Y-99783561D01*
X198863000Y-99783561D01*
X198863000Y-99987439D01*
X198902774Y-100187398D01*
X198980795Y-100375756D01*
X199094063Y-100545274D01*
X199238226Y-100689437D01*
X199407744Y-100802705D01*
X199596102Y-100880726D01*
X199796061Y-100920500D01*
X199999939Y-100920500D01*
X200199898Y-100880726D01*
X200388256Y-100802705D01*
X200557774Y-100689437D01*
X200669913Y-100577298D01*
X200680774Y-100631898D01*
X200758795Y-100820256D01*
X200872063Y-100989774D01*
X201016226Y-101133937D01*
X201185744Y-101247205D01*
X201374102Y-101325226D01*
X201574061Y-101365000D01*
X201777939Y-101365000D01*
X201792200Y-101362163D01*
X201823774Y-101520898D01*
X201901795Y-101709256D01*
X202015063Y-101878774D01*
X202159226Y-102022937D01*
X202328744Y-102136205D01*
X202517102Y-102214226D01*
X202717061Y-102254000D01*
X202920939Y-102254000D01*
X202935200Y-102251163D01*
X202966774Y-102409898D01*
X203044795Y-102598256D01*
X203099080Y-102679500D01*
X203044795Y-102760744D01*
X202966774Y-102949102D01*
X202927000Y-103149061D01*
X202927000Y-103352939D01*
X202966774Y-103552898D01*
X203044795Y-103741256D01*
X203158063Y-103910774D01*
X203302226Y-104054937D01*
X203471744Y-104168205D01*
X203660102Y-104246226D01*
X203860061Y-104286000D01*
X203986066Y-104286000D01*
X203952631Y-104454092D01*
X203952631Y-104657970D01*
X203992405Y-104857929D01*
X204070426Y-105046287D01*
X204183694Y-105215805D01*
X204327857Y-105359968D01*
X204497375Y-105473236D01*
X204685733Y-105551257D01*
X204885692Y-105591031D01*
X205089570Y-105591031D01*
X205289529Y-105551257D01*
X205477887Y-105473236D01*
X205647405Y-105359968D01*
X205791568Y-105215805D01*
X205904836Y-105046287D01*
X205982857Y-104857929D01*
X206022631Y-104657970D01*
X206022631Y-104454092D01*
X205982857Y-104254133D01*
X205904836Y-104065775D01*
X205791568Y-103896257D01*
X205647405Y-103752094D01*
X205477887Y-103638826D01*
X205289529Y-103560805D01*
X205089570Y-103521031D01*
X204963565Y-103521031D01*
X204997000Y-103352939D01*
X204997000Y-103149061D01*
X204957226Y-102949102D01*
X204879205Y-102760744D01*
X204824920Y-102679500D01*
X204879205Y-102598256D01*
X204957226Y-102409898D01*
X204997000Y-102209939D01*
X204997000Y-102006061D01*
X204957226Y-101806102D01*
X204879205Y-101617744D01*
X204765937Y-101448226D01*
X204621774Y-101304063D01*
X204452256Y-101190795D01*
X204263898Y-101112774D01*
X204063939Y-101073000D01*
X203860061Y-101073000D01*
X203845800Y-101075837D01*
X203814226Y-100917102D01*
X203736205Y-100728744D01*
X203622937Y-100559226D01*
X203478774Y-100415063D01*
X203478253Y-100414715D01*
X203542274Y-100371937D01*
X203686437Y-100227774D01*
X203753448Y-100127485D01*
X203793063Y-100186774D01*
X203937226Y-100330937D01*
X204106744Y-100444205D01*
X204295102Y-100522226D01*
X204495061Y-100562000D01*
X204698939Y-100562000D01*
X204898898Y-100522226D01*
X205087256Y-100444205D01*
X205256774Y-100330937D01*
X205400937Y-100186774D01*
X205514205Y-100017256D01*
X205592226Y-99828898D01*
X205632000Y-99628939D01*
X205632000Y-99531703D01*
X206634543Y-99531703D01*
X206634543Y-99735581D01*
X206674317Y-99935540D01*
X206752338Y-100123898D01*
X206865606Y-100293416D01*
X207009769Y-100437579D01*
X207179287Y-100550847D01*
X207367645Y-100628868D01*
X207567604Y-100668642D01*
X207771482Y-100668642D01*
X207971441Y-100628868D01*
X208159799Y-100550847D01*
X208329317Y-100437579D01*
X208473480Y-100293416D01*
X208586748Y-100123898D01*
X208664769Y-99935540D01*
X208704543Y-99735581D01*
X208704543Y-99531703D01*
X208664769Y-99331744D01*
X208586748Y-99143386D01*
X208557091Y-99099000D01*
X209839928Y-99099000D01*
X209839928Y-100799000D01*
X209852188Y-100923482D01*
X209888498Y-101043180D01*
X209947463Y-101153494D01*
X210026815Y-101250185D01*
X210123506Y-101329537D01*
X210233820Y-101388502D01*
X210306380Y-101410513D01*
X210174525Y-101542368D01*
X210012010Y-101785589D01*
X209900068Y-102055842D01*
X209843000Y-102342740D01*
X209843000Y-102635260D01*
X209900068Y-102922158D01*
X210012010Y-103192411D01*
X210174525Y-103435632D01*
X210381368Y-103642475D01*
X210555760Y-103759000D01*
X210381368Y-103875525D01*
X210174525Y-104082368D01*
X210012010Y-104325589D01*
X209900068Y-104595842D01*
X209843000Y-104882740D01*
X209843000Y-105175260D01*
X209900068Y-105462158D01*
X210012010Y-105732411D01*
X210174525Y-105975632D01*
X210381368Y-106182475D01*
X210555760Y-106299000D01*
X210381368Y-106415525D01*
X210174525Y-106622368D01*
X210012010Y-106865589D01*
X209900068Y-107135842D01*
X209843000Y-107422740D01*
X209843000Y-107715260D01*
X209900068Y-108002158D01*
X210012010Y-108272411D01*
X210174525Y-108515632D01*
X210381368Y-108722475D01*
X210555760Y-108839000D01*
X210381368Y-108955525D01*
X210174525Y-109162368D01*
X210012010Y-109405589D01*
X209900068Y-109675842D01*
X209843000Y-109962740D01*
X209843000Y-110255260D01*
X209900068Y-110542158D01*
X210012010Y-110812411D01*
X210174525Y-111055632D01*
X210381368Y-111262475D01*
X210555760Y-111379000D01*
X210381368Y-111495525D01*
X210174525Y-111702368D01*
X210012010Y-111945589D01*
X209900068Y-112215842D01*
X209843000Y-112502740D01*
X209843000Y-112795260D01*
X209900068Y-113082158D01*
X210012010Y-113352411D01*
X210174525Y-113595632D01*
X210381368Y-113802475D01*
X210555760Y-113919000D01*
X210381368Y-114035525D01*
X210174525Y-114242368D01*
X210012010Y-114485589D01*
X209900068Y-114755842D01*
X209843000Y-115042740D01*
X209843000Y-115335260D01*
X209900068Y-115622158D01*
X210012010Y-115892411D01*
X210174525Y-116135632D01*
X210306380Y-116267487D01*
X210233820Y-116289498D01*
X210123506Y-116348463D01*
X210026815Y-116427815D01*
X209947463Y-116524506D01*
X209888498Y-116634820D01*
X209852188Y-116754518D01*
X209839928Y-116879000D01*
X209839928Y-118579000D01*
X209852188Y-118703482D01*
X209888498Y-118823180D01*
X209947463Y-118933494D01*
X210026815Y-119030185D01*
X210123506Y-119109537D01*
X210233820Y-119168502D01*
X210353518Y-119204812D01*
X210478000Y-119217072D01*
X212178000Y-119217072D01*
X212302482Y-119204812D01*
X212422180Y-119168502D01*
X212532494Y-119109537D01*
X212629185Y-119030185D01*
X212708537Y-118933494D01*
X212767502Y-118823180D01*
X212803812Y-118703482D01*
X212816072Y-118579000D01*
X212816072Y-116879000D01*
X212803812Y-116754518D01*
X212767502Y-116634820D01*
X212708537Y-116524506D01*
X212629185Y-116427815D01*
X212532494Y-116348463D01*
X212422180Y-116289498D01*
X212349620Y-116267487D01*
X212481475Y-116135632D01*
X212643990Y-115892411D01*
X212755932Y-115622158D01*
X212813000Y-115335260D01*
X212813000Y-115042740D01*
X212755932Y-114755842D01*
X212643990Y-114485589D01*
X212481475Y-114242368D01*
X212274632Y-114035525D01*
X212100240Y-113919000D01*
X212274632Y-113802475D01*
X212481475Y-113595632D01*
X212643990Y-113352411D01*
X212755932Y-113082158D01*
X212813000Y-112795260D01*
X212813000Y-112502740D01*
X212755932Y-112215842D01*
X212643990Y-111945589D01*
X212481475Y-111702368D01*
X212274632Y-111495525D01*
X212100240Y-111379000D01*
X212274632Y-111262475D01*
X212481475Y-111055632D01*
X212643990Y-110812411D01*
X212755932Y-110542158D01*
X212813000Y-110255260D01*
X212813000Y-109962740D01*
X212755932Y-109675842D01*
X212643990Y-109405589D01*
X212481475Y-109162368D01*
X212274632Y-108955525D01*
X212100240Y-108839000D01*
X212274632Y-108722475D01*
X212481475Y-108515632D01*
X212643990Y-108272411D01*
X212755932Y-108002158D01*
X212813000Y-107715260D01*
X212813000Y-107422740D01*
X212755932Y-107135842D01*
X212643990Y-106865589D01*
X212481475Y-106622368D01*
X212274632Y-106415525D01*
X212100240Y-106299000D01*
X212274632Y-106182475D01*
X212481475Y-105975632D01*
X212643990Y-105732411D01*
X212755932Y-105462158D01*
X212813000Y-105175260D01*
X212813000Y-104882740D01*
X212755932Y-104595842D01*
X212643990Y-104325589D01*
X212481475Y-104082368D01*
X212274632Y-103875525D01*
X212100240Y-103759000D01*
X212274632Y-103642475D01*
X212481475Y-103435632D01*
X212643990Y-103192411D01*
X212755932Y-102922158D01*
X212813000Y-102635260D01*
X212813000Y-102342740D01*
X212755932Y-102055842D01*
X212643990Y-101785589D01*
X212481475Y-101542368D01*
X212349620Y-101410513D01*
X212422180Y-101388502D01*
X212532494Y-101329537D01*
X212629185Y-101250185D01*
X212708537Y-101153494D01*
X212767502Y-101043180D01*
X212803812Y-100923482D01*
X212816072Y-100799000D01*
X212816072Y-99099000D01*
X212803812Y-98974518D01*
X212767502Y-98854820D01*
X212708537Y-98744506D01*
X212629185Y-98647815D01*
X212532494Y-98568463D01*
X212422180Y-98509498D01*
X212302482Y-98473188D01*
X212178000Y-98460928D01*
X210478000Y-98460928D01*
X210353518Y-98473188D01*
X210233820Y-98509498D01*
X210123506Y-98568463D01*
X210026815Y-98647815D01*
X209947463Y-98744506D01*
X209888498Y-98854820D01*
X209852188Y-98974518D01*
X209839928Y-99099000D01*
X208557091Y-99099000D01*
X208473480Y-98973868D01*
X208329317Y-98829705D01*
X208159799Y-98716437D01*
X207971441Y-98638416D01*
X207771482Y-98598642D01*
X207567604Y-98598642D01*
X207367645Y-98638416D01*
X207179287Y-98716437D01*
X207009769Y-98829705D01*
X206865606Y-98973868D01*
X206752338Y-99143386D01*
X206674317Y-99331744D01*
X206634543Y-99531703D01*
X205632000Y-99531703D01*
X205632000Y-99425061D01*
X205592226Y-99225102D01*
X205514205Y-99036744D01*
X205400937Y-98867226D01*
X205256774Y-98723063D01*
X205087256Y-98609795D01*
X204898898Y-98531774D01*
X204698939Y-98492000D01*
X204495061Y-98492000D01*
X204295102Y-98531774D01*
X204106744Y-98609795D01*
X203937226Y-98723063D01*
X203793063Y-98867226D01*
X203726052Y-98967515D01*
X203686437Y-98908226D01*
X203542274Y-98764063D01*
X203372756Y-98650795D01*
X203184398Y-98572774D01*
X202984439Y-98533000D01*
X202780561Y-98533000D01*
X202580602Y-98572774D01*
X202392244Y-98650795D01*
X202222726Y-98764063D01*
X202078563Y-98908226D01*
X201965295Y-99077744D01*
X201887274Y-99266102D01*
X201877583Y-99314820D01*
X201777939Y-99295000D01*
X201574061Y-99295000D01*
X201374102Y-99334774D01*
X201185744Y-99412795D01*
X201016226Y-99526063D01*
X200904087Y-99638202D01*
X200893226Y-99583602D01*
X200815205Y-99395244D01*
X200701937Y-99225726D01*
X200557774Y-99081563D01*
X200388256Y-98968295D01*
X200199898Y-98890274D01*
X199999939Y-98850500D01*
X199796061Y-98850500D01*
X199596102Y-98890274D01*
X199407744Y-98968295D01*
X199238226Y-99081563D01*
X199094063Y-99225726D01*
X198980795Y-99395244D01*
X198902774Y-99583602D01*
X198863000Y-99783561D01*
X194969975Y-99783561D01*
X194890256Y-99730295D01*
X194710000Y-99655630D01*
X194710000Y-99593061D01*
X194670226Y-99393102D01*
X194592205Y-99204744D01*
X194478937Y-99035226D01*
X194334774Y-98891063D01*
X194165256Y-98777795D01*
X193976898Y-98699774D01*
X193776939Y-98660000D01*
X193573061Y-98660000D01*
X193373102Y-98699774D01*
X193184744Y-98777795D01*
X193015226Y-98891063D01*
X192871063Y-99035226D01*
X192757795Y-99204744D01*
X192679774Y-99393102D01*
X192640000Y-99593061D01*
X192496072Y-99593061D01*
X192496072Y-99099000D01*
X192483812Y-98974518D01*
X192447502Y-98854820D01*
X192388537Y-98744506D01*
X192309185Y-98647815D01*
X192212494Y-98568463D01*
X192102180Y-98509498D01*
X191982482Y-98473188D01*
X191858000Y-98460928D01*
X190158000Y-98460928D01*
X190033518Y-98473188D01*
X189913820Y-98509498D01*
X189803506Y-98568463D01*
X189706815Y-98647815D01*
X189627463Y-98744506D01*
X189568498Y-98854820D01*
X189532188Y-98974518D01*
X189519928Y-99099000D01*
X188652803Y-99099000D01*
X188650474Y-97116561D01*
X190608000Y-97116561D01*
X190608000Y-97320439D01*
X190647774Y-97520398D01*
X190725795Y-97708756D01*
X190839063Y-97878274D01*
X190983226Y-98022437D01*
X191152744Y-98135705D01*
X191341102Y-98213726D01*
X191541061Y-98253500D01*
X191744939Y-98253500D01*
X191944898Y-98213726D01*
X192133256Y-98135705D01*
X192302774Y-98022437D01*
X192446937Y-97878274D01*
X192560205Y-97708756D01*
X192638226Y-97520398D01*
X192678000Y-97320439D01*
X192678000Y-97116561D01*
X192638226Y-96916602D01*
X192560205Y-96728244D01*
X192446937Y-96558726D01*
X192302774Y-96414563D01*
X192133256Y-96301295D01*
X191944898Y-96223274D01*
X191744939Y-96183500D01*
X191541061Y-96183500D01*
X191341102Y-96223274D01*
X191152744Y-96301295D01*
X190983226Y-96414563D01*
X190839063Y-96558726D01*
X190725795Y-96728244D01*
X190647774Y-96916602D01*
X190608000Y-97116561D01*
X188650474Y-97116561D01*
X188643803Y-91439661D01*
X191783400Y-91439661D01*
X191783400Y-91643539D01*
X191823174Y-91843498D01*
X191901195Y-92031856D01*
X192014463Y-92201374D01*
X192158626Y-92345537D01*
X192328144Y-92458805D01*
X192516502Y-92536826D01*
X192716461Y-92576600D01*
X192920339Y-92576600D01*
X193120298Y-92536826D01*
X193308656Y-92458805D01*
X193478174Y-92345537D01*
X193622337Y-92201374D01*
X193735605Y-92031856D01*
X193813626Y-91843498D01*
X193853400Y-91643539D01*
X193853400Y-91439661D01*
X193813626Y-91239702D01*
X193735605Y-91051344D01*
X193622337Y-90881826D01*
X193478174Y-90737663D01*
X193308656Y-90624395D01*
X193120298Y-90546374D01*
X192920339Y-90506600D01*
X192716461Y-90506600D01*
X192516502Y-90546374D01*
X192328144Y-90624395D01*
X192158626Y-90737663D01*
X192014463Y-90881826D01*
X191901195Y-91051344D01*
X191823174Y-91239702D01*
X191783400Y-91439661D01*
X188643803Y-91439661D01*
X188640650Y-88757000D01*
X193873464Y-88757000D01*
X193875792Y-89393397D01*
%TD*%
M02*
