%TF.GenerationSoftware,KiCad,Pcbnew,(5.1.6)-1*%
%TF.CreationDate,2022-09-14T08:17:56+02:00*%
%TF.ProjectId,LoRaWAN_EndNode_Microchip,4c6f5261-5741-44e5-9f45-6e644e6f6465,rev?*%
%TF.SameCoordinates,Original*%
%TF.FileFunction,Copper,L1,Top*%
%TF.FilePolarity,Positive*%
%FSLAX46Y46*%
G04 Gerber Fmt 4.6, Leading zero omitted, Abs format (unit mm)*
G04 Created by KiCad (PCBNEW (5.1.6)-1) date 2022-09-14 08:17:56*
%MOMM*%
%LPD*%
G01*
G04 APERTURE LIST*
%TA.AperFunction,ComponentPad*%
%ADD10C,2.000000*%
%TD*%
%TA.AperFunction,ComponentPad*%
%ADD11R,2.000000X2.000000*%
%TD*%
%TA.AperFunction,ComponentPad*%
%ADD12O,1.700000X1.700000*%
%TD*%
%TA.AperFunction,ComponentPad*%
%ADD13R,1.700000X1.700000*%
%TD*%
%TA.AperFunction,ComponentPad*%
%ADD14O,1.500000X1.100000*%
%TD*%
%TA.AperFunction,ComponentPad*%
%ADD15O,1.500000X1.000000*%
%TD*%
%TA.AperFunction,SMDPad,CuDef*%
%ADD16R,0.400000X0.650000*%
%TD*%
%TA.AperFunction,SMDPad,CuDef*%
%ADD17R,0.650000X1.060000*%
%TD*%
%TA.AperFunction,SMDPad,CuDef*%
%ADD18R,0.800000X0.900000*%
%TD*%
%TA.AperFunction,SMDPad,CuDef*%
%ADD19R,4.700000X4.700000*%
%TD*%
%TA.AperFunction,SMDPad,CuDef*%
%ADD20R,1.000000X0.750000*%
%TD*%
%TA.AperFunction,SMDPad,CuDef*%
%ADD21R,0.550000X1.500000*%
%TD*%
%TA.AperFunction,SMDPad,CuDef*%
%ADD22R,1.500000X0.550000*%
%TD*%
%TA.AperFunction,SMDPad,CuDef*%
%ADD23R,1.050000X2.200000*%
%TD*%
%TA.AperFunction,SMDPad,CuDef*%
%ADD24R,1.000000X1.050000*%
%TD*%
%TA.AperFunction,ViaPad*%
%ADD25C,0.800000*%
%TD*%
%TA.AperFunction,ViaPad*%
%ADD26C,1.000000*%
%TD*%
%TA.AperFunction,Conductor*%
%ADD27C,0.300000*%
%TD*%
%TA.AperFunction,Conductor*%
%ADD28C,0.400000*%
%TD*%
%TA.AperFunction,Conductor*%
%ADD29C,0.500000*%
%TD*%
%TA.AperFunction,Conductor*%
%ADD30C,0.750000*%
%TD*%
%TA.AperFunction,Conductor*%
%ADD31C,0.250000*%
%TD*%
%TA.AperFunction,Conductor*%
%ADD32C,0.254000*%
%TD*%
G04 APERTURE END LIST*
D10*
%TO.P,B1,2*%
%TO.N,GND*%
X207137000Y-74295000D03*
D11*
%TO.P,B1,1*%
%TO.N,+BATT*%
X194437000Y-74295000D03*
%TD*%
D12*
%TO.P,J1,5*%
%TO.N,/MCU_part/PGC*%
X211836000Y-90868500D03*
%TO.P,J1,4*%
%TO.N,/MCU_part/PGD*%
X211836000Y-88328500D03*
%TO.P,J1,3*%
%TO.N,GND*%
X211836000Y-85788500D03*
%TO.P,J1,2*%
%TO.N,+BATT*%
X211836000Y-83248500D03*
D13*
%TO.P,J1,1*%
%TO.N,/MCU_part/MCLR*%
X211836000Y-80708500D03*
%TD*%
D14*
%TO.P,U4,3*%
%TO.N,GND*%
X189238000Y-72288400D03*
%TO.P,U4,2*%
%TO.N,/MCU_part/temp_sens2*%
X190500000Y-73558400D03*
D15*
%TO.P,U4,1*%
%TO.N,VDD*%
X189280000Y-74828400D03*
%TD*%
%TO.P,R311,2*%
%TO.N,GND*%
%TA.AperFunction,SMDPad,CuDef*%
G36*
G01*
X193291750Y-90418500D02*
X193804250Y-90418500D01*
G75*
G02*
X194023000Y-90637250I0J-218750D01*
G01*
X194023000Y-91074750D01*
G75*
G02*
X193804250Y-91293500I-218750J0D01*
G01*
X193291750Y-91293500D01*
G75*
G02*
X193073000Y-91074750I0J218750D01*
G01*
X193073000Y-90637250D01*
G75*
G02*
X193291750Y-90418500I218750J0D01*
G01*
G37*
%TD.AperFunction*%
%TO.P,R311,1*%
%TO.N,/MCU_part/EN_LORA*%
%TA.AperFunction,SMDPad,CuDef*%
G36*
G01*
X193291750Y-88843500D02*
X193804250Y-88843500D01*
G75*
G02*
X194023000Y-89062250I0J-218750D01*
G01*
X194023000Y-89499750D01*
G75*
G02*
X193804250Y-89718500I-218750J0D01*
G01*
X193291750Y-89718500D01*
G75*
G02*
X193073000Y-89499750I0J218750D01*
G01*
X193073000Y-89062250D01*
G75*
G02*
X193291750Y-88843500I218750J0D01*
G01*
G37*
%TD.AperFunction*%
%TD*%
D16*
%TO.P,U6,6*%
%TO.N,Net-(U6-Pad6)*%
X190358000Y-87528400D03*
%TO.P,U6,4*%
%TO.N,+BATT*%
X191658000Y-87528400D03*
%TO.P,U6,2*%
%TO.N,GND*%
X191008000Y-89428400D03*
%TO.P,U6,5*%
X191008000Y-87528400D03*
%TO.P,U6,3*%
%TO.N,/MCU_part/EN_LORA*%
X191658000Y-89428400D03*
%TO.P,U6,1*%
%TO.N,VDD*%
X190358000Y-89428400D03*
%TD*%
%TO.P,R302,2*%
%TO.N,Net-(R302-Pad2)*%
%TA.AperFunction,SMDPad,CuDef*%
G36*
G01*
X205996250Y-94862000D02*
X205483750Y-94862000D01*
G75*
G02*
X205265000Y-94643250I0J218750D01*
G01*
X205265000Y-94205750D01*
G75*
G02*
X205483750Y-93987000I218750J0D01*
G01*
X205996250Y-93987000D01*
G75*
G02*
X206215000Y-94205750I0J-218750D01*
G01*
X206215000Y-94643250D01*
G75*
G02*
X205996250Y-94862000I-218750J0D01*
G01*
G37*
%TD.AperFunction*%
%TO.P,R302,1*%
%TO.N,DIO0*%
%TA.AperFunction,SMDPad,CuDef*%
G36*
G01*
X205996250Y-96437000D02*
X205483750Y-96437000D01*
G75*
G02*
X205265000Y-96218250I0J218750D01*
G01*
X205265000Y-95780750D01*
G75*
G02*
X205483750Y-95562000I218750J0D01*
G01*
X205996250Y-95562000D01*
G75*
G02*
X206215000Y-95780750I0J-218750D01*
G01*
X206215000Y-96218250D01*
G75*
G02*
X205996250Y-96437000I-218750J0D01*
G01*
G37*
%TD.AperFunction*%
%TD*%
D13*
%TO.P,CON1,8*%
%TO.N,GND*%
X191008000Y-99949000D03*
D12*
%TO.P,CON1,7*%
%TO.N,DIO5*%
X191008000Y-102489000D03*
%TO.P,CON1,6*%
%TO.N,SCK*%
X191008000Y-105029000D03*
%TO.P,CON1,5*%
%TO.N,MISO*%
X191008000Y-107569000D03*
%TO.P,CON1,4*%
%TO.N,MOSI*%
X191008000Y-110109000D03*
%TO.P,CON1,3*%
%TO.N,NSS*%
X191008000Y-112649000D03*
%TO.P,CON1,2*%
%TO.N,VDD*%
X191008000Y-115189000D03*
D13*
%TO.P,CON1,1*%
%TO.N,GND*%
X191008000Y-117729000D03*
%TD*%
%TO.P,L204,1*%
%TO.N,Net-(C213-Pad2)*%
%TA.AperFunction,SMDPad,CuDef*%
G36*
G01*
X197312500Y-116083000D02*
X197657500Y-116083000D01*
G75*
G02*
X197805000Y-116230500I0J-147500D01*
G01*
X197805000Y-116525500D01*
G75*
G02*
X197657500Y-116673000I-147500J0D01*
G01*
X197312500Y-116673000D01*
G75*
G02*
X197165000Y-116525500I0J147500D01*
G01*
X197165000Y-116230500D01*
G75*
G02*
X197312500Y-116083000I147500J0D01*
G01*
G37*
%TD.AperFunction*%
%TO.P,L204,2*%
%TO.N,/RF_Part/50_ohm_ant*%
%TA.AperFunction,SMDPad,CuDef*%
G36*
G01*
X197312500Y-117053000D02*
X197657500Y-117053000D01*
G75*
G02*
X197805000Y-117200500I0J-147500D01*
G01*
X197805000Y-117495500D01*
G75*
G02*
X197657500Y-117643000I-147500J0D01*
G01*
X197312500Y-117643000D01*
G75*
G02*
X197165000Y-117495500I0J147500D01*
G01*
X197165000Y-117200500D01*
G75*
G02*
X197312500Y-117053000I147500J0D01*
G01*
G37*
%TD.AperFunction*%
%TD*%
%TO.P,L203,2*%
%TO.N,Net-(C213-Pad2)*%
%TA.AperFunction,SMDPad,CuDef*%
G36*
G01*
X197312500Y-115021000D02*
X197657500Y-115021000D01*
G75*
G02*
X197805000Y-115168500I0J-147500D01*
G01*
X197805000Y-115463500D01*
G75*
G02*
X197657500Y-115611000I-147500J0D01*
G01*
X197312500Y-115611000D01*
G75*
G02*
X197165000Y-115463500I0J147500D01*
G01*
X197165000Y-115168500D01*
G75*
G02*
X197312500Y-115021000I147500J0D01*
G01*
G37*
%TD.AperFunction*%
%TO.P,L203,1*%
%TO.N,Net-(C212-Pad1)*%
%TA.AperFunction,SMDPad,CuDef*%
G36*
G01*
X197312500Y-114051000D02*
X197657500Y-114051000D01*
G75*
G02*
X197805000Y-114198500I0J-147500D01*
G01*
X197805000Y-114493500D01*
G75*
G02*
X197657500Y-114641000I-147500J0D01*
G01*
X197312500Y-114641000D01*
G75*
G02*
X197165000Y-114493500I0J147500D01*
G01*
X197165000Y-114198500D01*
G75*
G02*
X197312500Y-114051000I147500J0D01*
G01*
G37*
%TD.AperFunction*%
%TD*%
%TO.P,CON2,1*%
%TO.N,GND*%
X211328000Y-99949000D03*
D12*
%TO.P,CON2,2*%
%TO.N,Net-(CON2-Pad2)*%
X211328000Y-102489000D03*
%TO.P,CON2,3*%
%TO.N,Net-(CON2-Pad3)*%
X211328000Y-105029000D03*
%TO.P,CON2,4*%
%TO.N,DIO2*%
X211328000Y-107569000D03*
%TO.P,CON2,5*%
%TO.N,DIO1*%
X211328000Y-110109000D03*
%TO.P,CON2,6*%
%TO.N,DIO0*%
X211328000Y-112649000D03*
%TO.P,CON2,7*%
%TO.N,NRESET*%
X211328000Y-115189000D03*
D13*
%TO.P,CON2,8*%
%TO.N,GND*%
X211328000Y-117729000D03*
%TD*%
%TO.P,L202,2*%
%TO.N,GND*%
%TA.AperFunction,SMDPad,CuDef*%
G36*
G01*
X194628000Y-109809500D02*
X194628000Y-110154500D01*
G75*
G02*
X194480500Y-110302000I-147500J0D01*
G01*
X194185500Y-110302000D01*
G75*
G02*
X194038000Y-110154500I0J147500D01*
G01*
X194038000Y-109809500D01*
G75*
G02*
X194185500Y-109662000I147500J0D01*
G01*
X194480500Y-109662000D01*
G75*
G02*
X194628000Y-109809500I0J-147500D01*
G01*
G37*
%TD.AperFunction*%
%TO.P,L202,1*%
%TO.N,RFI_HF*%
%TA.AperFunction,SMDPad,CuDef*%
G36*
G01*
X195598000Y-109809500D02*
X195598000Y-110154500D01*
G75*
G02*
X195450500Y-110302000I-147500J0D01*
G01*
X195155500Y-110302000D01*
G75*
G02*
X195008000Y-110154500I0J147500D01*
G01*
X195008000Y-109809500D01*
G75*
G02*
X195155500Y-109662000I147500J0D01*
G01*
X195450500Y-109662000D01*
G75*
G02*
X195598000Y-109809500I0J-147500D01*
G01*
G37*
%TD.AperFunction*%
%TD*%
%TO.P,L201,1*%
%TO.N,VR_PA*%
%TA.AperFunction,SMDPad,CuDef*%
G36*
G01*
X199893000Y-112095500D02*
X199893000Y-112440500D01*
G75*
G02*
X199745500Y-112588000I-147500J0D01*
G01*
X199450500Y-112588000D01*
G75*
G02*
X199303000Y-112440500I0J147500D01*
G01*
X199303000Y-112095500D01*
G75*
G02*
X199450500Y-111948000I147500J0D01*
G01*
X199745500Y-111948000D01*
G75*
G02*
X199893000Y-112095500I0J-147500D01*
G01*
G37*
%TD.AperFunction*%
%TO.P,L201,2*%
%TO.N,RFO_HF*%
%TA.AperFunction,SMDPad,CuDef*%
G36*
G01*
X198923000Y-112095500D02*
X198923000Y-112440500D01*
G75*
G02*
X198775500Y-112588000I-147500J0D01*
G01*
X198480500Y-112588000D01*
G75*
G02*
X198333000Y-112440500I0J147500D01*
G01*
X198333000Y-112095500D01*
G75*
G02*
X198480500Y-111948000I147500J0D01*
G01*
X198775500Y-111948000D01*
G75*
G02*
X198923000Y-112095500I0J-147500D01*
G01*
G37*
%TD.AperFunction*%
%TD*%
%TO.P,C302,2*%
%TO.N,GND*%
%TA.AperFunction,SMDPad,CuDef*%
G36*
G01*
X201326000Y-77772550D02*
X201326000Y-78285050D01*
G75*
G02*
X201107250Y-78503800I-218750J0D01*
G01*
X200669750Y-78503800D01*
G75*
G02*
X200451000Y-78285050I0J218750D01*
G01*
X200451000Y-77772550D01*
G75*
G02*
X200669750Y-77553800I218750J0D01*
G01*
X201107250Y-77553800D01*
G75*
G02*
X201326000Y-77772550I0J-218750D01*
G01*
G37*
%TD.AperFunction*%
%TO.P,C302,1*%
%TO.N,+BATT*%
%TA.AperFunction,SMDPad,CuDef*%
G36*
G01*
X202901000Y-77772550D02*
X202901000Y-78285050D01*
G75*
G02*
X202682250Y-78503800I-218750J0D01*
G01*
X202244750Y-78503800D01*
G75*
G02*
X202026000Y-78285050I0J218750D01*
G01*
X202026000Y-77772550D01*
G75*
G02*
X202244750Y-77553800I218750J0D01*
G01*
X202682250Y-77553800D01*
G75*
G02*
X202901000Y-77772550I0J-218750D01*
G01*
G37*
%TD.AperFunction*%
%TD*%
%TO.P,D301,2*%
%TO.N,/MCU_part/LED*%
%TA.AperFunction,SMDPad,CuDef*%
G36*
G01*
X208018750Y-77762500D02*
X208931250Y-77762500D01*
G75*
G02*
X209175000Y-78006250I0J-243750D01*
G01*
X209175000Y-78493750D01*
G75*
G02*
X208931250Y-78737500I-243750J0D01*
G01*
X208018750Y-78737500D01*
G75*
G02*
X207775000Y-78493750I0J243750D01*
G01*
X207775000Y-78006250D01*
G75*
G02*
X208018750Y-77762500I243750J0D01*
G01*
G37*
%TD.AperFunction*%
%TO.P,D301,1*%
%TO.N,Net-(D301-Pad1)*%
%TA.AperFunction,SMDPad,CuDef*%
G36*
G01*
X208018750Y-75887500D02*
X208931250Y-75887500D01*
G75*
G02*
X209175000Y-76131250I0J-243750D01*
G01*
X209175000Y-76618750D01*
G75*
G02*
X208931250Y-76862500I-243750J0D01*
G01*
X208018750Y-76862500D01*
G75*
G02*
X207775000Y-76618750I0J243750D01*
G01*
X207775000Y-76131250D01*
G75*
G02*
X208018750Y-75887500I243750J0D01*
G01*
G37*
%TD.AperFunction*%
%TD*%
%TO.P,C308,1*%
%TO.N,GND*%
%TA.AperFunction,SMDPad,CuDef*%
G36*
G01*
X191970950Y-72003100D02*
X192483450Y-72003100D01*
G75*
G02*
X192702200Y-72221850I0J-218750D01*
G01*
X192702200Y-72659350D01*
G75*
G02*
X192483450Y-72878100I-218750J0D01*
G01*
X191970950Y-72878100D01*
G75*
G02*
X191752200Y-72659350I0J218750D01*
G01*
X191752200Y-72221850D01*
G75*
G02*
X191970950Y-72003100I218750J0D01*
G01*
G37*
%TD.AperFunction*%
%TO.P,C308,2*%
%TO.N,/MCU_part/temp_sens2*%
%TA.AperFunction,SMDPad,CuDef*%
G36*
G01*
X191970950Y-73578100D02*
X192483450Y-73578100D01*
G75*
G02*
X192702200Y-73796850I0J-218750D01*
G01*
X192702200Y-74234350D01*
G75*
G02*
X192483450Y-74453100I-218750J0D01*
G01*
X191970950Y-74453100D01*
G75*
G02*
X191752200Y-74234350I0J218750D01*
G01*
X191752200Y-73796850D01*
G75*
G02*
X191970950Y-73578100I218750J0D01*
G01*
G37*
%TD.AperFunction*%
%TD*%
%TO.P,C309,2*%
%TO.N,GND*%
%TA.AperFunction,SMDPad,CuDef*%
G36*
G01*
X191851900Y-85290950D02*
X191851900Y-85803450D01*
G75*
G02*
X191633150Y-86022200I-218750J0D01*
G01*
X191195650Y-86022200D01*
G75*
G02*
X190976900Y-85803450I0J218750D01*
G01*
X190976900Y-85290950D01*
G75*
G02*
X191195650Y-85072200I218750J0D01*
G01*
X191633150Y-85072200D01*
G75*
G02*
X191851900Y-85290950I0J-218750D01*
G01*
G37*
%TD.AperFunction*%
%TO.P,C309,1*%
%TO.N,+BATT*%
%TA.AperFunction,SMDPad,CuDef*%
G36*
G01*
X193426900Y-85290950D02*
X193426900Y-85803450D01*
G75*
G02*
X193208150Y-86022200I-218750J0D01*
G01*
X192770650Y-86022200D01*
G75*
G02*
X192551900Y-85803450I0J218750D01*
G01*
X192551900Y-85290950D01*
G75*
G02*
X192770650Y-85072200I218750J0D01*
G01*
X193208150Y-85072200D01*
G75*
G02*
X193426900Y-85290950I0J-218750D01*
G01*
G37*
%TD.AperFunction*%
%TD*%
%TO.P,R301,1*%
%TO.N,DIO5*%
%TA.AperFunction,SMDPad,CuDef*%
G36*
G01*
X201614750Y-96373500D02*
X201102250Y-96373500D01*
G75*
G02*
X200883500Y-96154750I0J218750D01*
G01*
X200883500Y-95717250D01*
G75*
G02*
X201102250Y-95498500I218750J0D01*
G01*
X201614750Y-95498500D01*
G75*
G02*
X201833500Y-95717250I0J-218750D01*
G01*
X201833500Y-96154750D01*
G75*
G02*
X201614750Y-96373500I-218750J0D01*
G01*
G37*
%TD.AperFunction*%
%TO.P,R301,2*%
%TO.N,Net-(R301-Pad2)*%
%TA.AperFunction,SMDPad,CuDef*%
G36*
G01*
X201614750Y-94798500D02*
X201102250Y-94798500D01*
G75*
G02*
X200883500Y-94579750I0J218750D01*
G01*
X200883500Y-94142250D01*
G75*
G02*
X201102250Y-93923500I218750J0D01*
G01*
X201614750Y-93923500D01*
G75*
G02*
X201833500Y-94142250I0J-218750D01*
G01*
X201833500Y-94579750D01*
G75*
G02*
X201614750Y-94798500I-218750J0D01*
G01*
G37*
%TD.AperFunction*%
%TD*%
%TO.P,C310,1*%
%TO.N,VDD*%
%TA.AperFunction,SMDPad,CuDef*%
G36*
G01*
X189706700Y-91797850D02*
X189706700Y-91285350D01*
G75*
G02*
X189925450Y-91066600I218750J0D01*
G01*
X190362950Y-91066600D01*
G75*
G02*
X190581700Y-91285350I0J-218750D01*
G01*
X190581700Y-91797850D01*
G75*
G02*
X190362950Y-92016600I-218750J0D01*
G01*
X189925450Y-92016600D01*
G75*
G02*
X189706700Y-91797850I0J218750D01*
G01*
G37*
%TD.AperFunction*%
%TO.P,C310,2*%
%TO.N,GND*%
%TA.AperFunction,SMDPad,CuDef*%
G36*
G01*
X191281700Y-91797850D02*
X191281700Y-91285350D01*
G75*
G02*
X191500450Y-91066600I218750J0D01*
G01*
X191937950Y-91066600D01*
G75*
G02*
X192156700Y-91285350I0J-218750D01*
G01*
X192156700Y-91797850D01*
G75*
G02*
X191937950Y-92016600I-218750J0D01*
G01*
X191500450Y-92016600D01*
G75*
G02*
X191281700Y-91797850I0J218750D01*
G01*
G37*
%TD.AperFunction*%
%TD*%
%TO.P,C307,2*%
%TO.N,VDD*%
%TA.AperFunction,SMDPad,CuDef*%
G36*
G01*
X190378500Y-77162950D02*
X190378500Y-77675450D01*
G75*
G02*
X190159750Y-77894200I-218750J0D01*
G01*
X189722250Y-77894200D01*
G75*
G02*
X189503500Y-77675450I0J218750D01*
G01*
X189503500Y-77162950D01*
G75*
G02*
X189722250Y-76944200I218750J0D01*
G01*
X190159750Y-76944200D01*
G75*
G02*
X190378500Y-77162950I0J-218750D01*
G01*
G37*
%TD.AperFunction*%
%TO.P,C307,1*%
%TO.N,GND*%
%TA.AperFunction,SMDPad,CuDef*%
G36*
G01*
X191953500Y-77162950D02*
X191953500Y-77675450D01*
G75*
G02*
X191734750Y-77894200I-218750J0D01*
G01*
X191297250Y-77894200D01*
G75*
G02*
X191078500Y-77675450I0J218750D01*
G01*
X191078500Y-77162950D01*
G75*
G02*
X191297250Y-76944200I218750J0D01*
G01*
X191734750Y-76944200D01*
G75*
G02*
X191953500Y-77162950I0J-218750D01*
G01*
G37*
%TD.AperFunction*%
%TD*%
%TO.P,C301,1*%
%TO.N,+BATT*%
%TA.AperFunction,SMDPad,CuDef*%
G36*
G01*
X203197750Y-93923500D02*
X203710250Y-93923500D01*
G75*
G02*
X203929000Y-94142250I0J-218750D01*
G01*
X203929000Y-94579750D01*
G75*
G02*
X203710250Y-94798500I-218750J0D01*
G01*
X203197750Y-94798500D01*
G75*
G02*
X202979000Y-94579750I0J218750D01*
G01*
X202979000Y-94142250D01*
G75*
G02*
X203197750Y-93923500I218750J0D01*
G01*
G37*
%TD.AperFunction*%
%TO.P,C301,2*%
%TO.N,GND*%
%TA.AperFunction,SMDPad,CuDef*%
G36*
G01*
X203197750Y-95498500D02*
X203710250Y-95498500D01*
G75*
G02*
X203929000Y-95717250I0J-218750D01*
G01*
X203929000Y-96154750D01*
G75*
G02*
X203710250Y-96373500I-218750J0D01*
G01*
X203197750Y-96373500D01*
G75*
G02*
X202979000Y-96154750I0J218750D01*
G01*
X202979000Y-95717250D01*
G75*
G02*
X203197750Y-95498500I218750J0D01*
G01*
G37*
%TD.AperFunction*%
%TD*%
%TO.P,R303,2*%
%TO.N,Net-(R303-Pad2)*%
%TA.AperFunction,SMDPad,CuDef*%
G36*
G01*
X208345750Y-94862000D02*
X207833250Y-94862000D01*
G75*
G02*
X207614500Y-94643250I0J218750D01*
G01*
X207614500Y-94205750D01*
G75*
G02*
X207833250Y-93987000I218750J0D01*
G01*
X208345750Y-93987000D01*
G75*
G02*
X208564500Y-94205750I0J-218750D01*
G01*
X208564500Y-94643250D01*
G75*
G02*
X208345750Y-94862000I-218750J0D01*
G01*
G37*
%TD.AperFunction*%
%TO.P,R303,1*%
%TO.N,DIO1*%
%TA.AperFunction,SMDPad,CuDef*%
G36*
G01*
X208345750Y-96437000D02*
X207833250Y-96437000D01*
G75*
G02*
X207614500Y-96218250I0J218750D01*
G01*
X207614500Y-95780750D01*
G75*
G02*
X207833250Y-95562000I218750J0D01*
G01*
X208345750Y-95562000D01*
G75*
G02*
X208564500Y-95780750I0J-218750D01*
G01*
X208564500Y-96218250D01*
G75*
G02*
X208345750Y-96437000I-218750J0D01*
G01*
G37*
%TD.AperFunction*%
%TD*%
D17*
%TO.P,U5,5*%
%TO.N,/MCU_part/WAKE_UP*%
X192466000Y-79181600D03*
%TO.P,U5,6*%
%TO.N,/MCU_part/MCLR*%
X191516000Y-79181600D03*
%TO.P,U5,4*%
%TO.N,/MCU_part/DONE*%
X193416000Y-79181600D03*
%TO.P,U5,3*%
%TO.N,Net-(Rext1-Pad1)*%
X193416000Y-81381600D03*
%TO.P,U5,2*%
%TO.N,GND*%
X192466000Y-81381600D03*
%TO.P,U5,1*%
%TO.N,+BATT*%
X191516000Y-81381600D03*
%TD*%
%TO.P,R307,2*%
%TO.N,MISO*%
%TA.AperFunction,SMDPad,CuDef*%
G36*
G01*
X190751750Y-95511000D02*
X191264250Y-95511000D01*
G75*
G02*
X191483000Y-95729750I0J-218750D01*
G01*
X191483000Y-96167250D01*
G75*
G02*
X191264250Y-96386000I-218750J0D01*
G01*
X190751750Y-96386000D01*
G75*
G02*
X190533000Y-96167250I0J218750D01*
G01*
X190533000Y-95729750D01*
G75*
G02*
X190751750Y-95511000I218750J0D01*
G01*
G37*
%TD.AperFunction*%
%TO.P,R307,1*%
%TO.N,Net-(R307-Pad1)*%
%TA.AperFunction,SMDPad,CuDef*%
G36*
G01*
X190751750Y-93936000D02*
X191264250Y-93936000D01*
G75*
G02*
X191483000Y-94154750I0J-218750D01*
G01*
X191483000Y-94592250D01*
G75*
G02*
X191264250Y-94811000I-218750J0D01*
G01*
X190751750Y-94811000D01*
G75*
G02*
X190533000Y-94592250I0J218750D01*
G01*
X190533000Y-94154750D01*
G75*
G02*
X190751750Y-93936000I218750J0D01*
G01*
G37*
%TD.AperFunction*%
%TD*%
D18*
%TO.P,Y1,4*%
%TO.N,GND*%
X205910000Y-103632000D03*
%TO.P,Y1,3*%
%TO.N,/RF_Part/XTB*%
X205910000Y-102232000D03*
%TO.P,Y1,2*%
%TO.N,GND*%
X207010000Y-102232000D03*
%TO.P,Y1,1*%
%TO.N,/RF_Part/XTA*%
X207010000Y-103632000D03*
%TD*%
%TO.P,Rext1,1*%
%TO.N,Net-(Rext1-Pad1)*%
%TA.AperFunction,SMDPad,CuDef*%
G36*
G01*
X193477700Y-83157350D02*
X193477700Y-83669850D01*
G75*
G02*
X193258950Y-83888600I-218750J0D01*
G01*
X192821450Y-83888600D01*
G75*
G02*
X192602700Y-83669850I0J218750D01*
G01*
X192602700Y-83157350D01*
G75*
G02*
X192821450Y-82938600I218750J0D01*
G01*
X193258950Y-82938600D01*
G75*
G02*
X193477700Y-83157350I0J-218750D01*
G01*
G37*
%TD.AperFunction*%
%TO.P,Rext1,2*%
%TO.N,GND*%
%TA.AperFunction,SMDPad,CuDef*%
G36*
G01*
X191902700Y-83157350D02*
X191902700Y-83669850D01*
G75*
G02*
X191683950Y-83888600I-218750J0D01*
G01*
X191246450Y-83888600D01*
G75*
G02*
X191027700Y-83669850I0J218750D01*
G01*
X191027700Y-83157350D01*
G75*
G02*
X191246450Y-82938600I218750J0D01*
G01*
X191683950Y-82938600D01*
G75*
G02*
X191902700Y-83157350I0J-218750D01*
G01*
G37*
%TD.AperFunction*%
%TD*%
%TO.P,R305,2*%
%TO.N,/MCU_part/MCLR*%
%TA.AperFunction,SMDPad,CuDef*%
G36*
G01*
X212097000Y-78234250D02*
X212097000Y-77721750D01*
G75*
G02*
X212315750Y-77503000I218750J0D01*
G01*
X212753250Y-77503000D01*
G75*
G02*
X212972000Y-77721750I0J-218750D01*
G01*
X212972000Y-78234250D01*
G75*
G02*
X212753250Y-78453000I-218750J0D01*
G01*
X212315750Y-78453000D01*
G75*
G02*
X212097000Y-78234250I0J218750D01*
G01*
G37*
%TD.AperFunction*%
%TO.P,R305,1*%
%TO.N,+BATT*%
%TA.AperFunction,SMDPad,CuDef*%
G36*
G01*
X210522000Y-78234250D02*
X210522000Y-77721750D01*
G75*
G02*
X210740750Y-77503000I218750J0D01*
G01*
X211178250Y-77503000D01*
G75*
G02*
X211397000Y-77721750I0J-218750D01*
G01*
X211397000Y-78234250D01*
G75*
G02*
X211178250Y-78453000I-218750J0D01*
G01*
X210740750Y-78453000D01*
G75*
G02*
X210522000Y-78234250I0J218750D01*
G01*
G37*
%TD.AperFunction*%
%TD*%
D19*
%TO.P,U1,29*%
%TO.N,GND*%
X199517000Y-105664000D03*
%TO.P,U1,21*%
%TO.N,RFI_HF*%
%TA.AperFunction,SMDPad,CuDef*%
G36*
G01*
X196967000Y-107466800D02*
X196967000Y-107761200D01*
G75*
G02*
X196954200Y-107774000I-12800J0D01*
G01*
X196169800Y-107774000D01*
G75*
G02*
X196157000Y-107761200I0J12800D01*
G01*
X196157000Y-107466800D01*
G75*
G02*
X196169800Y-107454000I12800J0D01*
G01*
X196954200Y-107454000D01*
G75*
G02*
X196967000Y-107466800I0J-12800D01*
G01*
G37*
%TD.AperFunction*%
%TO.P,U1,20*%
%TO.N,Net-(U1-Pad20)*%
%TA.AperFunction,SMDPad,CuDef*%
G36*
G01*
X196967000Y-106816800D02*
X196967000Y-107111200D01*
G75*
G02*
X196954200Y-107124000I-12800J0D01*
G01*
X196169800Y-107124000D01*
G75*
G02*
X196157000Y-107111200I0J12800D01*
G01*
X196157000Y-106816800D01*
G75*
G02*
X196169800Y-106804000I12800J0D01*
G01*
X196954200Y-106804000D01*
G75*
G02*
X196967000Y-106816800I0J-12800D01*
G01*
G37*
%TD.AperFunction*%
%TO.P,U1,19*%
%TO.N,NSS*%
%TA.AperFunction,SMDPad,CuDef*%
G36*
G01*
X196967000Y-106166800D02*
X196967000Y-106461200D01*
G75*
G02*
X196954200Y-106474000I-12800J0D01*
G01*
X196169800Y-106474000D01*
G75*
G02*
X196157000Y-106461200I0J12800D01*
G01*
X196157000Y-106166800D01*
G75*
G02*
X196169800Y-106154000I12800J0D01*
G01*
X196954200Y-106154000D01*
G75*
G02*
X196967000Y-106166800I0J-12800D01*
G01*
G37*
%TD.AperFunction*%
%TO.P,U1,18*%
%TO.N,MOSI*%
%TA.AperFunction,SMDPad,CuDef*%
G36*
G01*
X196967000Y-105516800D02*
X196967000Y-105811200D01*
G75*
G02*
X196954200Y-105824000I-12800J0D01*
G01*
X196169800Y-105824000D01*
G75*
G02*
X196157000Y-105811200I0J12800D01*
G01*
X196157000Y-105516800D01*
G75*
G02*
X196169800Y-105504000I12800J0D01*
G01*
X196954200Y-105504000D01*
G75*
G02*
X196967000Y-105516800I0J-12800D01*
G01*
G37*
%TD.AperFunction*%
%TO.P,U1,17*%
%TO.N,MISO*%
%TA.AperFunction,SMDPad,CuDef*%
G36*
G01*
X196967000Y-104866800D02*
X196967000Y-105161200D01*
G75*
G02*
X196954200Y-105174000I-12800J0D01*
G01*
X196169800Y-105174000D01*
G75*
G02*
X196157000Y-105161200I0J12800D01*
G01*
X196157000Y-104866800D01*
G75*
G02*
X196169800Y-104854000I12800J0D01*
G01*
X196954200Y-104854000D01*
G75*
G02*
X196967000Y-104866800I0J-12800D01*
G01*
G37*
%TD.AperFunction*%
%TO.P,U1,16*%
%TO.N,SCK*%
%TA.AperFunction,SMDPad,CuDef*%
G36*
G01*
X196967000Y-104216800D02*
X196967000Y-104511200D01*
G75*
G02*
X196954200Y-104524000I-12800J0D01*
G01*
X196169800Y-104524000D01*
G75*
G02*
X196157000Y-104511200I0J12800D01*
G01*
X196157000Y-104216800D01*
G75*
G02*
X196169800Y-104204000I12800J0D01*
G01*
X196954200Y-104204000D01*
G75*
G02*
X196967000Y-104216800I0J-12800D01*
G01*
G37*
%TD.AperFunction*%
%TO.P,U1,15*%
%TO.N,GND*%
%TA.AperFunction,SMDPad,CuDef*%
G36*
G01*
X196967000Y-103566800D02*
X196967000Y-103861200D01*
G75*
G02*
X196954200Y-103874000I-12800J0D01*
G01*
X196169800Y-103874000D01*
G75*
G02*
X196157000Y-103861200I0J12800D01*
G01*
X196157000Y-103566800D01*
G75*
G02*
X196169800Y-103554000I12800J0D01*
G01*
X196954200Y-103554000D01*
G75*
G02*
X196967000Y-103566800I0J-12800D01*
G01*
G37*
%TD.AperFunction*%
%TO.P,U1,7*%
%TO.N,NRESET*%
%TA.AperFunction,SMDPad,CuDef*%
G36*
G01*
X202877000Y-103566800D02*
X202877000Y-103861200D01*
G75*
G02*
X202864200Y-103874000I-12800J0D01*
G01*
X202079800Y-103874000D01*
G75*
G02*
X202067000Y-103861200I0J12800D01*
G01*
X202067000Y-103566800D01*
G75*
G02*
X202079800Y-103554000I12800J0D01*
G01*
X202864200Y-103554000D01*
G75*
G02*
X202877000Y-103566800I0J-12800D01*
G01*
G37*
%TD.AperFunction*%
%TO.P,U1,6*%
%TO.N,/RF_Part/XTB*%
%TA.AperFunction,SMDPad,CuDef*%
G36*
G01*
X202877000Y-104216800D02*
X202877000Y-104511200D01*
G75*
G02*
X202864200Y-104524000I-12800J0D01*
G01*
X202079800Y-104524000D01*
G75*
G02*
X202067000Y-104511200I0J12800D01*
G01*
X202067000Y-104216800D01*
G75*
G02*
X202079800Y-104204000I12800J0D01*
G01*
X202864200Y-104204000D01*
G75*
G02*
X202877000Y-104216800I0J-12800D01*
G01*
G37*
%TD.AperFunction*%
%TO.P,U1,5*%
%TO.N,/RF_Part/XTA*%
%TA.AperFunction,SMDPad,CuDef*%
G36*
G01*
X202877000Y-104866800D02*
X202877000Y-105161200D01*
G75*
G02*
X202864200Y-105174000I-12800J0D01*
G01*
X202079800Y-105174000D01*
G75*
G02*
X202067000Y-105161200I0J12800D01*
G01*
X202067000Y-104866800D01*
G75*
G02*
X202079800Y-104854000I12800J0D01*
G01*
X202864200Y-104854000D01*
G75*
G02*
X202877000Y-104866800I0J-12800D01*
G01*
G37*
%TD.AperFunction*%
%TO.P,U1,4*%
%TO.N,/RF_Part/VR_DIG*%
%TA.AperFunction,SMDPad,CuDef*%
G36*
G01*
X202877000Y-105516800D02*
X202877000Y-105811200D01*
G75*
G02*
X202864200Y-105824000I-12800J0D01*
G01*
X202079800Y-105824000D01*
G75*
G02*
X202067000Y-105811200I0J12800D01*
G01*
X202067000Y-105516800D01*
G75*
G02*
X202079800Y-105504000I12800J0D01*
G01*
X202864200Y-105504000D01*
G75*
G02*
X202877000Y-105516800I0J-12800D01*
G01*
G37*
%TD.AperFunction*%
%TO.P,U1,3*%
%TO.N,VDD*%
%TA.AperFunction,SMDPad,CuDef*%
G36*
G01*
X202877000Y-106166800D02*
X202877000Y-106461200D01*
G75*
G02*
X202864200Y-106474000I-12800J0D01*
G01*
X202079800Y-106474000D01*
G75*
G02*
X202067000Y-106461200I0J12800D01*
G01*
X202067000Y-106166800D01*
G75*
G02*
X202079800Y-106154000I12800J0D01*
G01*
X202864200Y-106154000D01*
G75*
G02*
X202877000Y-106166800I0J-12800D01*
G01*
G37*
%TD.AperFunction*%
%TO.P,U1,2*%
%TO.N,/RF_Part/VR_ANA*%
%TA.AperFunction,SMDPad,CuDef*%
G36*
G01*
X202877000Y-106816800D02*
X202877000Y-107111200D01*
G75*
G02*
X202864200Y-107124000I-12800J0D01*
G01*
X202079800Y-107124000D01*
G75*
G02*
X202067000Y-107111200I0J12800D01*
G01*
X202067000Y-106816800D01*
G75*
G02*
X202079800Y-106804000I12800J0D01*
G01*
X202864200Y-106804000D01*
G75*
G02*
X202877000Y-106816800I0J-12800D01*
G01*
G37*
%TD.AperFunction*%
%TO.P,U1,1*%
%TO.N,Net-(U1-Pad1)*%
%TA.AperFunction,SMDPad,CuDef*%
G36*
G01*
X202877000Y-107466800D02*
X202877000Y-107761200D01*
G75*
G02*
X202864200Y-107774000I-12800J0D01*
G01*
X202079800Y-107774000D01*
G75*
G02*
X202067000Y-107761200I0J12800D01*
G01*
X202067000Y-107466800D01*
G75*
G02*
X202079800Y-107454000I12800J0D01*
G01*
X202864200Y-107454000D01*
G75*
G02*
X202877000Y-107466800I0J-12800D01*
G01*
G37*
%TD.AperFunction*%
%TO.P,U1,28*%
%TO.N,Net-(U1-Pad28)*%
%TA.AperFunction,SMDPad,CuDef*%
G36*
G01*
X201319800Y-108214000D02*
X201614200Y-108214000D01*
G75*
G02*
X201627000Y-108226800I0J-12800D01*
G01*
X201627000Y-109011200D01*
G75*
G02*
X201614200Y-109024000I-12800J0D01*
G01*
X201319800Y-109024000D01*
G75*
G02*
X201307000Y-109011200I0J12800D01*
G01*
X201307000Y-108226800D01*
G75*
G02*
X201319800Y-108214000I12800J0D01*
G01*
G37*
%TD.AperFunction*%
%TO.P,U1,27*%
%TO.N,Net-(U1-Pad27)*%
%TA.AperFunction,SMDPad,CuDef*%
G36*
G01*
X200669800Y-108214000D02*
X200964200Y-108214000D01*
G75*
G02*
X200977000Y-108226800I0J-12800D01*
G01*
X200977000Y-109011200D01*
G75*
G02*
X200964200Y-109024000I-12800J0D01*
G01*
X200669800Y-109024000D01*
G75*
G02*
X200657000Y-109011200I0J12800D01*
G01*
X200657000Y-108226800D01*
G75*
G02*
X200669800Y-108214000I12800J0D01*
G01*
G37*
%TD.AperFunction*%
%TO.P,U1,26*%
%TO.N,GND*%
%TA.AperFunction,SMDPad,CuDef*%
G36*
G01*
X200019800Y-108214000D02*
X200314200Y-108214000D01*
G75*
G02*
X200327000Y-108226800I0J-12800D01*
G01*
X200327000Y-109011200D01*
G75*
G02*
X200314200Y-109024000I-12800J0D01*
G01*
X200019800Y-109024000D01*
G75*
G02*
X200007000Y-109011200I0J12800D01*
G01*
X200007000Y-108226800D01*
G75*
G02*
X200019800Y-108214000I12800J0D01*
G01*
G37*
%TD.AperFunction*%
%TO.P,U1,25*%
%TO.N,VR_PA*%
%TA.AperFunction,SMDPad,CuDef*%
G36*
G01*
X199369800Y-108214000D02*
X199664200Y-108214000D01*
G75*
G02*
X199677000Y-108226800I0J-12800D01*
G01*
X199677000Y-109011200D01*
G75*
G02*
X199664200Y-109024000I-12800J0D01*
G01*
X199369800Y-109024000D01*
G75*
G02*
X199357000Y-109011200I0J12800D01*
G01*
X199357000Y-108226800D01*
G75*
G02*
X199369800Y-108214000I12800J0D01*
G01*
G37*
%TD.AperFunction*%
%TO.P,U1,24*%
%TO.N,VDD*%
%TA.AperFunction,SMDPad,CuDef*%
G36*
G01*
X198719800Y-108214000D02*
X199014200Y-108214000D01*
G75*
G02*
X199027000Y-108226800I0J-12800D01*
G01*
X199027000Y-109011200D01*
G75*
G02*
X199014200Y-109024000I-12800J0D01*
G01*
X198719800Y-109024000D01*
G75*
G02*
X198707000Y-109011200I0J12800D01*
G01*
X198707000Y-108226800D01*
G75*
G02*
X198719800Y-108214000I12800J0D01*
G01*
G37*
%TD.AperFunction*%
%TO.P,U1,23*%
%TO.N,GND*%
%TA.AperFunction,SMDPad,CuDef*%
G36*
G01*
X198069800Y-108214000D02*
X198364200Y-108214000D01*
G75*
G02*
X198377000Y-108226800I0J-12800D01*
G01*
X198377000Y-109011200D01*
G75*
G02*
X198364200Y-109024000I-12800J0D01*
G01*
X198069800Y-109024000D01*
G75*
G02*
X198057000Y-109011200I0J12800D01*
G01*
X198057000Y-108226800D01*
G75*
G02*
X198069800Y-108214000I12800J0D01*
G01*
G37*
%TD.AperFunction*%
%TO.P,U1,22*%
%TO.N,RFO_HF*%
%TA.AperFunction,SMDPad,CuDef*%
G36*
G01*
X197419800Y-108214000D02*
X197714200Y-108214000D01*
G75*
G02*
X197727000Y-108226800I0J-12800D01*
G01*
X197727000Y-109011200D01*
G75*
G02*
X197714200Y-109024000I-12800J0D01*
G01*
X197419800Y-109024000D01*
G75*
G02*
X197407000Y-109011200I0J12800D01*
G01*
X197407000Y-108226800D01*
G75*
G02*
X197419800Y-108214000I12800J0D01*
G01*
G37*
%TD.AperFunction*%
%TO.P,U1,14*%
%TO.N,VDD*%
%TA.AperFunction,SMDPad,CuDef*%
G36*
G01*
X197419800Y-102304000D02*
X197714200Y-102304000D01*
G75*
G02*
X197727000Y-102316800I0J-12800D01*
G01*
X197727000Y-103101200D01*
G75*
G02*
X197714200Y-103114000I-12800J0D01*
G01*
X197419800Y-103114000D01*
G75*
G02*
X197407000Y-103101200I0J12800D01*
G01*
X197407000Y-102316800D01*
G75*
G02*
X197419800Y-102304000I12800J0D01*
G01*
G37*
%TD.AperFunction*%
%TO.P,U1,13*%
%TO.N,DIO5*%
%TA.AperFunction,SMDPad,CuDef*%
G36*
G01*
X198069800Y-102304000D02*
X198364200Y-102304000D01*
G75*
G02*
X198377000Y-102316800I0J-12800D01*
G01*
X198377000Y-103101200D01*
G75*
G02*
X198364200Y-103114000I-12800J0D01*
G01*
X198069800Y-103114000D01*
G75*
G02*
X198057000Y-103101200I0J12800D01*
G01*
X198057000Y-102316800D01*
G75*
G02*
X198069800Y-102304000I12800J0D01*
G01*
G37*
%TD.AperFunction*%
%TO.P,U1,12*%
%TO.N,Net-(U1-Pad12)*%
%TA.AperFunction,SMDPad,CuDef*%
G36*
G01*
X198719800Y-102304000D02*
X199014200Y-102304000D01*
G75*
G02*
X199027000Y-102316800I0J-12800D01*
G01*
X199027000Y-103101200D01*
G75*
G02*
X199014200Y-103114000I-12800J0D01*
G01*
X198719800Y-103114000D01*
G75*
G02*
X198707000Y-103101200I0J12800D01*
G01*
X198707000Y-102316800D01*
G75*
G02*
X198719800Y-102304000I12800J0D01*
G01*
G37*
%TD.AperFunction*%
%TO.P,U1,11*%
%TO.N,Net-(U1-Pad11)*%
%TA.AperFunction,SMDPad,CuDef*%
G36*
G01*
X199369800Y-102304000D02*
X199664200Y-102304000D01*
G75*
G02*
X199677000Y-102316800I0J-12800D01*
G01*
X199677000Y-103101200D01*
G75*
G02*
X199664200Y-103114000I-12800J0D01*
G01*
X199369800Y-103114000D01*
G75*
G02*
X199357000Y-103101200I0J12800D01*
G01*
X199357000Y-102316800D01*
G75*
G02*
X199369800Y-102304000I12800J0D01*
G01*
G37*
%TD.AperFunction*%
%TO.P,U1,10*%
%TO.N,DIO2*%
%TA.AperFunction,SMDPad,CuDef*%
G36*
G01*
X200019800Y-102304000D02*
X200314200Y-102304000D01*
G75*
G02*
X200327000Y-102316800I0J-12800D01*
G01*
X200327000Y-103101200D01*
G75*
G02*
X200314200Y-103114000I-12800J0D01*
G01*
X200019800Y-103114000D01*
G75*
G02*
X200007000Y-103101200I0J12800D01*
G01*
X200007000Y-102316800D01*
G75*
G02*
X200019800Y-102304000I12800J0D01*
G01*
G37*
%TD.AperFunction*%
%TO.P,U1,9*%
%TO.N,DIO1*%
%TA.AperFunction,SMDPad,CuDef*%
G36*
G01*
X200669800Y-102304000D02*
X200964200Y-102304000D01*
G75*
G02*
X200977000Y-102316800I0J-12800D01*
G01*
X200977000Y-103101200D01*
G75*
G02*
X200964200Y-103114000I-12800J0D01*
G01*
X200669800Y-103114000D01*
G75*
G02*
X200657000Y-103101200I0J12800D01*
G01*
X200657000Y-102316800D01*
G75*
G02*
X200669800Y-102304000I12800J0D01*
G01*
G37*
%TD.AperFunction*%
%TO.P,U1,8*%
%TO.N,DIO0*%
%TA.AperFunction,SMDPad,CuDef*%
G36*
G01*
X201319800Y-102304000D02*
X201614200Y-102304000D01*
G75*
G02*
X201627000Y-102316800I0J-12800D01*
G01*
X201627000Y-103101200D01*
G75*
G02*
X201614200Y-103114000I-12800J0D01*
G01*
X201319800Y-103114000D01*
G75*
G02*
X201307000Y-103101200I0J12800D01*
G01*
X201307000Y-102316800D01*
G75*
G02*
X201319800Y-102304000I12800J0D01*
G01*
G37*
%TD.AperFunction*%
%TD*%
D20*
%TO.P,S301,D*%
%TO.N,Net-(Rext1-Pad1)*%
X198056500Y-72196000D03*
%TO.P,S301,C*%
X204056500Y-72196000D03*
%TO.P,S301,B*%
%TO.N,+BATT*%
X198056500Y-75946000D03*
%TO.P,S301,A*%
X204056500Y-75946000D03*
%TD*%
%TO.P,R310,2*%
%TO.N,GND*%
%TA.AperFunction,SMDPad,CuDef*%
G36*
G01*
X206531250Y-77025000D02*
X206018750Y-77025000D01*
G75*
G02*
X205800000Y-76806250I0J218750D01*
G01*
X205800000Y-76368750D01*
G75*
G02*
X206018750Y-76150000I218750J0D01*
G01*
X206531250Y-76150000D01*
G75*
G02*
X206750000Y-76368750I0J-218750D01*
G01*
X206750000Y-76806250D01*
G75*
G02*
X206531250Y-77025000I-218750J0D01*
G01*
G37*
%TD.AperFunction*%
%TO.P,R310,1*%
%TO.N,Net-(D301-Pad1)*%
%TA.AperFunction,SMDPad,CuDef*%
G36*
G01*
X206531250Y-78600000D02*
X206018750Y-78600000D01*
G75*
G02*
X205800000Y-78381250I0J218750D01*
G01*
X205800000Y-77943750D01*
G75*
G02*
X206018750Y-77725000I218750J0D01*
G01*
X206531250Y-77725000D01*
G75*
G02*
X206750000Y-77943750I0J-218750D01*
G01*
X206750000Y-78381250D01*
G75*
G02*
X206531250Y-78600000I-218750J0D01*
G01*
G37*
%TD.AperFunction*%
%TD*%
%TO.P,R309,1*%
%TO.N,Net-(R309-Pad1)*%
%TA.AperFunction,SMDPad,CuDef*%
G36*
G01*
X198498750Y-93923500D02*
X199011250Y-93923500D01*
G75*
G02*
X199230000Y-94142250I0J-218750D01*
G01*
X199230000Y-94579750D01*
G75*
G02*
X199011250Y-94798500I-218750J0D01*
G01*
X198498750Y-94798500D01*
G75*
G02*
X198280000Y-94579750I0J218750D01*
G01*
X198280000Y-94142250D01*
G75*
G02*
X198498750Y-93923500I218750J0D01*
G01*
G37*
%TD.AperFunction*%
%TO.P,R309,2*%
%TO.N,MOSI*%
%TA.AperFunction,SMDPad,CuDef*%
G36*
G01*
X198498750Y-95498500D02*
X199011250Y-95498500D01*
G75*
G02*
X199230000Y-95717250I0J-218750D01*
G01*
X199230000Y-96154750D01*
G75*
G02*
X199011250Y-96373500I-218750J0D01*
G01*
X198498750Y-96373500D01*
G75*
G02*
X198280000Y-96154750I0J218750D01*
G01*
X198280000Y-95717250D01*
G75*
G02*
X198498750Y-95498500I218750J0D01*
G01*
G37*
%TD.AperFunction*%
%TD*%
%TO.P,R308,1*%
%TO.N,Net-(R308-Pad1)*%
%TA.AperFunction,SMDPad,CuDef*%
G36*
G01*
X193291750Y-93936000D02*
X193804250Y-93936000D01*
G75*
G02*
X194023000Y-94154750I0J-218750D01*
G01*
X194023000Y-94592250D01*
G75*
G02*
X193804250Y-94811000I-218750J0D01*
G01*
X193291750Y-94811000D01*
G75*
G02*
X193073000Y-94592250I0J218750D01*
G01*
X193073000Y-94154750D01*
G75*
G02*
X193291750Y-93936000I218750J0D01*
G01*
G37*
%TD.AperFunction*%
%TO.P,R308,2*%
%TO.N,NSS*%
%TA.AperFunction,SMDPad,CuDef*%
G36*
G01*
X193291750Y-95511000D02*
X193804250Y-95511000D01*
G75*
G02*
X194023000Y-95729750I0J-218750D01*
G01*
X194023000Y-96167250D01*
G75*
G02*
X193804250Y-96386000I-218750J0D01*
G01*
X193291750Y-96386000D01*
G75*
G02*
X193073000Y-96167250I0J218750D01*
G01*
X193073000Y-95729750D01*
G75*
G02*
X193291750Y-95511000I218750J0D01*
G01*
G37*
%TD.AperFunction*%
%TD*%
%TO.P,R304,1*%
%TO.N,DIO2*%
%TA.AperFunction,SMDPad,CuDef*%
G36*
G01*
X210441250Y-96437000D02*
X209928750Y-96437000D01*
G75*
G02*
X209710000Y-96218250I0J218750D01*
G01*
X209710000Y-95780750D01*
G75*
G02*
X209928750Y-95562000I218750J0D01*
G01*
X210441250Y-95562000D01*
G75*
G02*
X210660000Y-95780750I0J-218750D01*
G01*
X210660000Y-96218250D01*
G75*
G02*
X210441250Y-96437000I-218750J0D01*
G01*
G37*
%TD.AperFunction*%
%TO.P,R304,2*%
%TO.N,Net-(R304-Pad2)*%
%TA.AperFunction,SMDPad,CuDef*%
G36*
G01*
X210441250Y-94862000D02*
X209928750Y-94862000D01*
G75*
G02*
X209710000Y-94643250I0J218750D01*
G01*
X209710000Y-94205750D01*
G75*
G02*
X209928750Y-93987000I218750J0D01*
G01*
X210441250Y-93987000D01*
G75*
G02*
X210660000Y-94205750I0J-218750D01*
G01*
X210660000Y-94643250D01*
G75*
G02*
X210441250Y-94862000I-218750J0D01*
G01*
G37*
%TD.AperFunction*%
%TD*%
%TO.P,R306,1*%
%TO.N,Net-(R306-Pad1)*%
%TA.AperFunction,SMDPad,CuDef*%
G36*
G01*
X195895250Y-93936000D02*
X196407750Y-93936000D01*
G75*
G02*
X196626500Y-94154750I0J-218750D01*
G01*
X196626500Y-94592250D01*
G75*
G02*
X196407750Y-94811000I-218750J0D01*
G01*
X195895250Y-94811000D01*
G75*
G02*
X195676500Y-94592250I0J218750D01*
G01*
X195676500Y-94154750D01*
G75*
G02*
X195895250Y-93936000I218750J0D01*
G01*
G37*
%TD.AperFunction*%
%TO.P,R306,2*%
%TO.N,SCK*%
%TA.AperFunction,SMDPad,CuDef*%
G36*
G01*
X195895250Y-95511000D02*
X196407750Y-95511000D01*
G75*
G02*
X196626500Y-95729750I0J-218750D01*
G01*
X196626500Y-96167250D01*
G75*
G02*
X196407750Y-96386000I-218750J0D01*
G01*
X195895250Y-96386000D01*
G75*
G02*
X195676500Y-96167250I0J218750D01*
G01*
X195676500Y-95729750D01*
G75*
G02*
X195895250Y-95511000I218750J0D01*
G01*
G37*
%TD.AperFunction*%
%TD*%
%TO.P,C213,1*%
%TO.N,GND*%
%TA.AperFunction,SMDPad,CuDef*%
G36*
G01*
X200020000Y-115143500D02*
X200020000Y-115488500D01*
G75*
G02*
X199872500Y-115636000I-147500J0D01*
G01*
X199577500Y-115636000D01*
G75*
G02*
X199430000Y-115488500I0J147500D01*
G01*
X199430000Y-115143500D01*
G75*
G02*
X199577500Y-114996000I147500J0D01*
G01*
X199872500Y-114996000D01*
G75*
G02*
X200020000Y-115143500I0J-147500D01*
G01*
G37*
%TD.AperFunction*%
%TO.P,C213,2*%
%TO.N,Net-(C213-Pad2)*%
%TA.AperFunction,SMDPad,CuDef*%
G36*
G01*
X199050000Y-115143500D02*
X199050000Y-115488500D01*
G75*
G02*
X198902500Y-115636000I-147500J0D01*
G01*
X198607500Y-115636000D01*
G75*
G02*
X198460000Y-115488500I0J147500D01*
G01*
X198460000Y-115143500D01*
G75*
G02*
X198607500Y-114996000I147500J0D01*
G01*
X198902500Y-114996000D01*
G75*
G02*
X199050000Y-115143500I0J-147500D01*
G01*
G37*
%TD.AperFunction*%
%TD*%
%TO.P,C206,2*%
%TO.N,GND*%
%TA.AperFunction,SMDPad,CuDef*%
G36*
G01*
X206311000Y-109900500D02*
X206311000Y-109555500D01*
G75*
G02*
X206458500Y-109408000I147500J0D01*
G01*
X206753500Y-109408000D01*
G75*
G02*
X206901000Y-109555500I0J-147500D01*
G01*
X206901000Y-109900500D01*
G75*
G02*
X206753500Y-110048000I-147500J0D01*
G01*
X206458500Y-110048000D01*
G75*
G02*
X206311000Y-109900500I0J147500D01*
G01*
G37*
%TD.AperFunction*%
%TO.P,C206,1*%
%TO.N,/RF_Part/VR_ANA*%
%TA.AperFunction,SMDPad,CuDef*%
G36*
G01*
X205341000Y-109900500D02*
X205341000Y-109555500D01*
G75*
G02*
X205488500Y-109408000I147500J0D01*
G01*
X205783500Y-109408000D01*
G75*
G02*
X205931000Y-109555500I0J-147500D01*
G01*
X205931000Y-109900500D01*
G75*
G02*
X205783500Y-110048000I-147500J0D01*
G01*
X205488500Y-110048000D01*
G75*
G02*
X205341000Y-109900500I0J147500D01*
G01*
G37*
%TD.AperFunction*%
%TD*%
%TO.P,C212,2*%
%TO.N,RFO_HF*%
%TA.AperFunction,SMDPad,CuDef*%
G36*
G01*
X197657500Y-112563000D02*
X197312500Y-112563000D01*
G75*
G02*
X197165000Y-112415500I0J147500D01*
G01*
X197165000Y-112120500D01*
G75*
G02*
X197312500Y-111973000I147500J0D01*
G01*
X197657500Y-111973000D01*
G75*
G02*
X197805000Y-112120500I0J-147500D01*
G01*
X197805000Y-112415500D01*
G75*
G02*
X197657500Y-112563000I-147500J0D01*
G01*
G37*
%TD.AperFunction*%
%TO.P,C212,1*%
%TO.N,Net-(C212-Pad1)*%
%TA.AperFunction,SMDPad,CuDef*%
G36*
G01*
X197657500Y-113533000D02*
X197312500Y-113533000D01*
G75*
G02*
X197165000Y-113385500I0J147500D01*
G01*
X197165000Y-113090500D01*
G75*
G02*
X197312500Y-112943000I147500J0D01*
G01*
X197657500Y-112943000D01*
G75*
G02*
X197805000Y-113090500I0J-147500D01*
G01*
X197805000Y-113385500D01*
G75*
G02*
X197657500Y-113533000I-147500J0D01*
G01*
G37*
%TD.AperFunction*%
%TD*%
%TO.P,C211,1*%
%TO.N,RFO_HF*%
%TA.AperFunction,SMDPad,CuDef*%
G36*
G01*
X197526000Y-110952500D02*
X197526000Y-111297500D01*
G75*
G02*
X197378500Y-111445000I-147500J0D01*
G01*
X197083500Y-111445000D01*
G75*
G02*
X196936000Y-111297500I0J147500D01*
G01*
X196936000Y-110952500D01*
G75*
G02*
X197083500Y-110805000I147500J0D01*
G01*
X197378500Y-110805000D01*
G75*
G02*
X197526000Y-110952500I0J-147500D01*
G01*
G37*
%TD.AperFunction*%
%TO.P,C211,2*%
%TO.N,RFI_HF*%
%TA.AperFunction,SMDPad,CuDef*%
G36*
G01*
X196556000Y-110952500D02*
X196556000Y-111297500D01*
G75*
G02*
X196408500Y-111445000I-147500J0D01*
G01*
X196113500Y-111445000D01*
G75*
G02*
X195966000Y-111297500I0J147500D01*
G01*
X195966000Y-110952500D01*
G75*
G02*
X196113500Y-110805000I147500J0D01*
G01*
X196408500Y-110805000D01*
G75*
G02*
X196556000Y-110952500I0J-147500D01*
G01*
G37*
%TD.AperFunction*%
%TD*%
%TO.P,C204,2*%
%TO.N,GND*%
%TA.AperFunction,SMDPad,CuDef*%
G36*
G01*
X206311000Y-108630500D02*
X206311000Y-108285500D01*
G75*
G02*
X206458500Y-108138000I147500J0D01*
G01*
X206753500Y-108138000D01*
G75*
G02*
X206901000Y-108285500I0J-147500D01*
G01*
X206901000Y-108630500D01*
G75*
G02*
X206753500Y-108778000I-147500J0D01*
G01*
X206458500Y-108778000D01*
G75*
G02*
X206311000Y-108630500I0J147500D01*
G01*
G37*
%TD.AperFunction*%
%TO.P,C204,1*%
%TO.N,VDD*%
%TA.AperFunction,SMDPad,CuDef*%
G36*
G01*
X205341000Y-108630500D02*
X205341000Y-108285500D01*
G75*
G02*
X205488500Y-108138000I147500J0D01*
G01*
X205783500Y-108138000D01*
G75*
G02*
X205931000Y-108285500I0J-147500D01*
G01*
X205931000Y-108630500D01*
G75*
G02*
X205783500Y-108778000I-147500J0D01*
G01*
X205488500Y-108778000D01*
G75*
G02*
X205341000Y-108630500I0J147500D01*
G01*
G37*
%TD.AperFunction*%
%TD*%
%TO.P,C209,2*%
%TO.N,GND*%
%TA.AperFunction,SMDPad,CuDef*%
G36*
G01*
X201635000Y-111170500D02*
X201635000Y-110825500D01*
G75*
G02*
X201782500Y-110678000I147500J0D01*
G01*
X202077500Y-110678000D01*
G75*
G02*
X202225000Y-110825500I0J-147500D01*
G01*
X202225000Y-111170500D01*
G75*
G02*
X202077500Y-111318000I-147500J0D01*
G01*
X201782500Y-111318000D01*
G75*
G02*
X201635000Y-111170500I0J147500D01*
G01*
G37*
%TD.AperFunction*%
%TO.P,C209,1*%
%TO.N,VR_PA*%
%TA.AperFunction,SMDPad,CuDef*%
G36*
G01*
X200665000Y-111170500D02*
X200665000Y-110825500D01*
G75*
G02*
X200812500Y-110678000I147500J0D01*
G01*
X201107500Y-110678000D01*
G75*
G02*
X201255000Y-110825500I0J-147500D01*
G01*
X201255000Y-111170500D01*
G75*
G02*
X201107500Y-111318000I-147500J0D01*
G01*
X200812500Y-111318000D01*
G75*
G02*
X200665000Y-111170500I0J147500D01*
G01*
G37*
%TD.AperFunction*%
%TD*%
%TO.P,C203,1*%
%TO.N,VDD*%
%TA.AperFunction,SMDPad,CuDef*%
G36*
G01*
X197757000Y-101046500D02*
X197757000Y-101391500D01*
G75*
G02*
X197609500Y-101539000I-147500J0D01*
G01*
X197314500Y-101539000D01*
G75*
G02*
X197167000Y-101391500I0J147500D01*
G01*
X197167000Y-101046500D01*
G75*
G02*
X197314500Y-100899000I147500J0D01*
G01*
X197609500Y-100899000D01*
G75*
G02*
X197757000Y-101046500I0J-147500D01*
G01*
G37*
%TD.AperFunction*%
%TO.P,C203,2*%
%TO.N,GND*%
%TA.AperFunction,SMDPad,CuDef*%
G36*
G01*
X196787000Y-101046500D02*
X196787000Y-101391500D01*
G75*
G02*
X196639500Y-101539000I-147500J0D01*
G01*
X196344500Y-101539000D01*
G75*
G02*
X196197000Y-101391500I0J147500D01*
G01*
X196197000Y-101046500D01*
G75*
G02*
X196344500Y-100899000I147500J0D01*
G01*
X196639500Y-100899000D01*
G75*
G02*
X196787000Y-101046500I0J-147500D01*
G01*
G37*
%TD.AperFunction*%
%TD*%
%TO.P,C208,1*%
%TO.N,/RF_Part/XTB*%
%TA.AperFunction,SMDPad,CuDef*%
G36*
G01*
X205556500Y-100586250D02*
X205556500Y-100073750D01*
G75*
G02*
X205775250Y-99855000I218750J0D01*
G01*
X206212750Y-99855000D01*
G75*
G02*
X206431500Y-100073750I0J-218750D01*
G01*
X206431500Y-100586250D01*
G75*
G02*
X206212750Y-100805000I-218750J0D01*
G01*
X205775250Y-100805000D01*
G75*
G02*
X205556500Y-100586250I0J218750D01*
G01*
G37*
%TD.AperFunction*%
%TO.P,C208,2*%
%TO.N,GND*%
%TA.AperFunction,SMDPad,CuDef*%
G36*
G01*
X207131500Y-100586250D02*
X207131500Y-100073750D01*
G75*
G02*
X207350250Y-99855000I218750J0D01*
G01*
X207787750Y-99855000D01*
G75*
G02*
X208006500Y-100073750I0J-218750D01*
G01*
X208006500Y-100586250D01*
G75*
G02*
X207787750Y-100805000I-218750J0D01*
G01*
X207350250Y-100805000D01*
G75*
G02*
X207131500Y-100586250I0J218750D01*
G01*
G37*
%TD.AperFunction*%
%TD*%
%TO.P,C205,1*%
%TO.N,/RF_Part/VR_DIG*%
%TA.AperFunction,SMDPad,CuDef*%
G36*
G01*
X205364000Y-107233500D02*
X205364000Y-106888500D01*
G75*
G02*
X205511500Y-106741000I147500J0D01*
G01*
X205806500Y-106741000D01*
G75*
G02*
X205954000Y-106888500I0J-147500D01*
G01*
X205954000Y-107233500D01*
G75*
G02*
X205806500Y-107381000I-147500J0D01*
G01*
X205511500Y-107381000D01*
G75*
G02*
X205364000Y-107233500I0J147500D01*
G01*
G37*
%TD.AperFunction*%
%TO.P,C205,2*%
%TO.N,GND*%
%TA.AperFunction,SMDPad,CuDef*%
G36*
G01*
X206334000Y-107233500D02*
X206334000Y-106888500D01*
G75*
G02*
X206481500Y-106741000I147500J0D01*
G01*
X206776500Y-106741000D01*
G75*
G02*
X206924000Y-106888500I0J-147500D01*
G01*
X206924000Y-107233500D01*
G75*
G02*
X206776500Y-107381000I-147500J0D01*
G01*
X206481500Y-107381000D01*
G75*
G02*
X206334000Y-107233500I0J147500D01*
G01*
G37*
%TD.AperFunction*%
%TD*%
%TO.P,C207,2*%
%TO.N,GND*%
%TA.AperFunction,SMDPad,CuDef*%
G36*
G01*
X206953500Y-105666250D02*
X206953500Y-105153750D01*
G75*
G02*
X207172250Y-104935000I218750J0D01*
G01*
X207609750Y-104935000D01*
G75*
G02*
X207828500Y-105153750I0J-218750D01*
G01*
X207828500Y-105666250D01*
G75*
G02*
X207609750Y-105885000I-218750J0D01*
G01*
X207172250Y-105885000D01*
G75*
G02*
X206953500Y-105666250I0J218750D01*
G01*
G37*
%TD.AperFunction*%
%TO.P,C207,1*%
%TO.N,/RF_Part/XTA*%
%TA.AperFunction,SMDPad,CuDef*%
G36*
G01*
X205378500Y-105666250D02*
X205378500Y-105153750D01*
G75*
G02*
X205597250Y-104935000I218750J0D01*
G01*
X206034750Y-104935000D01*
G75*
G02*
X206253500Y-105153750I0J-218750D01*
G01*
X206253500Y-105666250D01*
G75*
G02*
X206034750Y-105885000I-218750J0D01*
G01*
X205597250Y-105885000D01*
G75*
G02*
X205378500Y-105666250I0J218750D01*
G01*
G37*
%TD.AperFunction*%
%TD*%
%TO.P,C202,2*%
%TO.N,GND*%
%TA.AperFunction,SMDPad,CuDef*%
G36*
G01*
X198709500Y-110784000D02*
X199054500Y-110784000D01*
G75*
G02*
X199202000Y-110931500I0J-147500D01*
G01*
X199202000Y-111226500D01*
G75*
G02*
X199054500Y-111374000I-147500J0D01*
G01*
X198709500Y-111374000D01*
G75*
G02*
X198562000Y-111226500I0J147500D01*
G01*
X198562000Y-110931500D01*
G75*
G02*
X198709500Y-110784000I147500J0D01*
G01*
G37*
%TD.AperFunction*%
%TO.P,C202,1*%
%TO.N,VDD*%
%TA.AperFunction,SMDPad,CuDef*%
G36*
G01*
X198709500Y-109814000D02*
X199054500Y-109814000D01*
G75*
G02*
X199202000Y-109961500I0J-147500D01*
G01*
X199202000Y-110256500D01*
G75*
G02*
X199054500Y-110404000I-147500J0D01*
G01*
X198709500Y-110404000D01*
G75*
G02*
X198562000Y-110256500I0J147500D01*
G01*
X198562000Y-109961500D01*
G75*
G02*
X198709500Y-109814000I147500J0D01*
G01*
G37*
%TD.AperFunction*%
%TD*%
%TO.P,C201,1*%
%TO.N,VR_PA*%
%TA.AperFunction,SMDPad,CuDef*%
G36*
G01*
X200665000Y-112440500D02*
X200665000Y-112095500D01*
G75*
G02*
X200812500Y-111948000I147500J0D01*
G01*
X201107500Y-111948000D01*
G75*
G02*
X201255000Y-112095500I0J-147500D01*
G01*
X201255000Y-112440500D01*
G75*
G02*
X201107500Y-112588000I-147500J0D01*
G01*
X200812500Y-112588000D01*
G75*
G02*
X200665000Y-112440500I0J147500D01*
G01*
G37*
%TD.AperFunction*%
%TO.P,C201,2*%
%TO.N,GND*%
%TA.AperFunction,SMDPad,CuDef*%
G36*
G01*
X201635000Y-112440500D02*
X201635000Y-112095500D01*
G75*
G02*
X201782500Y-111948000I147500J0D01*
G01*
X202077500Y-111948000D01*
G75*
G02*
X202225000Y-112095500I0J-147500D01*
G01*
X202225000Y-112440500D01*
G75*
G02*
X202077500Y-112588000I-147500J0D01*
G01*
X201782500Y-112588000D01*
G75*
G02*
X201635000Y-112440500I0J147500D01*
G01*
G37*
%TD.AperFunction*%
%TD*%
%TO.P,C214,2*%
%TO.N,/RF_Part/50_ohm_ant*%
%TA.AperFunction,SMDPad,CuDef*%
G36*
G01*
X195793000Y-117520500D02*
X195793000Y-117175500D01*
G75*
G02*
X195940500Y-117028000I147500J0D01*
G01*
X196235500Y-117028000D01*
G75*
G02*
X196383000Y-117175500I0J-147500D01*
G01*
X196383000Y-117520500D01*
G75*
G02*
X196235500Y-117668000I-147500J0D01*
G01*
X195940500Y-117668000D01*
G75*
G02*
X195793000Y-117520500I0J147500D01*
G01*
G37*
%TD.AperFunction*%
%TO.P,C214,1*%
%TO.N,GND*%
%TA.AperFunction,SMDPad,CuDef*%
G36*
G01*
X194823000Y-117520500D02*
X194823000Y-117175500D01*
G75*
G02*
X194970500Y-117028000I147500J0D01*
G01*
X195265500Y-117028000D01*
G75*
G02*
X195413000Y-117175500I0J-147500D01*
G01*
X195413000Y-117520500D01*
G75*
G02*
X195265500Y-117668000I-147500J0D01*
G01*
X194970500Y-117668000D01*
G75*
G02*
X194823000Y-117520500I0J147500D01*
G01*
G37*
%TD.AperFunction*%
%TD*%
D21*
%TO.P,U2,1*%
%TO.N,Net-(U2-Pad1)*%
X198450400Y-91694000D03*
%TO.P,U2,2*%
%TO.N,Net-(R309-Pad1)*%
X199250400Y-91694000D03*
%TO.P,U2,3*%
%TO.N,Net-(U2-Pad3)*%
X200050400Y-91694000D03*
%TO.P,U2,4*%
%TO.N,Net-(U2-Pad4)*%
X200850400Y-91694000D03*
%TO.P,U2,5*%
%TO.N,Net-(U2-Pad5)*%
X201650400Y-91694000D03*
%TO.P,U2,6*%
%TO.N,GND*%
X202450400Y-91694000D03*
%TO.P,U2,7*%
%TO.N,+BATT*%
X203250400Y-91694000D03*
%TO.P,U2,8*%
%TO.N,Net-(R301-Pad2)*%
X204050400Y-91694000D03*
%TO.P,U2,9*%
%TO.N,Net-(R302-Pad2)*%
X204850400Y-91694000D03*
%TO.P,U2,10*%
%TO.N,Net-(R303-Pad2)*%
X205650400Y-91694000D03*
%TO.P,U2,11*%
%TO.N,Net-(U2-Pad11)*%
X206450400Y-91694000D03*
D22*
%TO.P,U2,12*%
%TO.N,Net-(U2-Pad12)*%
X208150400Y-89994000D03*
%TO.P,U2,13*%
%TO.N,Net-(U2-Pad13)*%
X208150400Y-89194000D03*
%TO.P,U2,14*%
%TO.N,Net-(R304-Pad2)*%
X208150400Y-88394000D03*
%TO.P,U2,15*%
%TO.N,/MCU_part/WAKE_UP*%
X208150400Y-87594000D03*
%TO.P,U2,16*%
%TO.N,/MCU_part/PGC*%
X208150400Y-86794000D03*
%TO.P,U2,17*%
%TO.N,/MCU_part/PGD*%
X208150400Y-85994000D03*
%TO.P,U2,18*%
%TO.N,/MCU_part/MCLR*%
X208150400Y-85194000D03*
%TO.P,U2,19*%
%TO.N,Net-(U2-Pad19)*%
X208150400Y-84394000D03*
%TO.P,U2,20*%
%TO.N,Net-(U2-Pad20)*%
X208150400Y-83594000D03*
%TO.P,U2,21*%
%TO.N,Net-(U2-Pad21)*%
X208150400Y-82794000D03*
%TO.P,U2,22*%
%TO.N,Net-(U2-Pad22)*%
X208150400Y-81994000D03*
D21*
%TO.P,U2,23*%
%TO.N,/MCU_part/LED*%
X206450400Y-80294000D03*
%TO.P,U2,24*%
%TO.N,Net-(U2-Pad24)*%
X205650400Y-80294000D03*
%TO.P,U2,25*%
%TO.N,Net-(U2-Pad25)*%
X204850400Y-80294000D03*
%TO.P,U2,26*%
%TO.N,Net-(U2-Pad26)*%
X204050400Y-80294000D03*
%TO.P,U2,27*%
%TO.N,Net-(U2-Pad27)*%
X203250400Y-80294000D03*
%TO.P,U2,28*%
%TO.N,+BATT*%
X202450400Y-80294000D03*
%TO.P,U2,29*%
%TO.N,GND*%
X201650400Y-80294000D03*
%TO.P,U2,30*%
%TO.N,Net-(U2-Pad30)*%
X200850400Y-80294000D03*
%TO.P,U2,31*%
%TO.N,Net-(U2-Pad31)*%
X200050400Y-80294000D03*
%TO.P,U2,32*%
%TO.N,/MCU_part/DONE*%
X199250400Y-80294000D03*
%TO.P,U2,33*%
%TO.N,Net-(U2-Pad33)*%
X198450400Y-80294000D03*
D22*
%TO.P,U2,34*%
%TO.N,Net-(U2-Pad34)*%
X196750400Y-81994000D03*
%TO.P,U2,35*%
%TO.N,Net-(U2-Pad35)*%
X196750400Y-82794000D03*
%TO.P,U2,36*%
%TO.N,NRESET*%
X196750400Y-83594000D03*
%TO.P,U2,37*%
%TO.N,/MCU_part/temp_sens2*%
X196750400Y-84394000D03*
%TO.P,U2,38*%
%TO.N,Net-(R306-Pad1)*%
X196750400Y-85194000D03*
%TO.P,U2,39*%
%TO.N,Net-(R307-Pad1)*%
X196750400Y-85994000D03*
%TO.P,U2,40*%
%TO.N,/MCU_part/EN_LORA*%
X196750400Y-86794000D03*
%TO.P,U2,41*%
%TO.N,Net-(R308-Pad1)*%
X196750400Y-87594000D03*
%TO.P,U2,42*%
%TO.N,Net-(U2-Pad42)*%
X196750400Y-88394000D03*
%TO.P,U2,43*%
%TO.N,Net-(U2-Pad43)*%
X196750400Y-89194000D03*
%TO.P,U2,44*%
%TO.N,Net-(U2-Pad44)*%
X196750400Y-89994000D03*
%TD*%
%TO.P,C215,1*%
%TO.N,VDD*%
%TA.AperFunction,SMDPad,CuDef*%
G36*
G01*
X196181250Y-115775000D02*
X195668750Y-115775000D01*
G75*
G02*
X195450000Y-115556250I0J218750D01*
G01*
X195450000Y-115118750D01*
G75*
G02*
X195668750Y-114900000I218750J0D01*
G01*
X196181250Y-114900000D01*
G75*
G02*
X196400000Y-115118750I0J-218750D01*
G01*
X196400000Y-115556250D01*
G75*
G02*
X196181250Y-115775000I-218750J0D01*
G01*
G37*
%TD.AperFunction*%
%TO.P,C215,2*%
%TO.N,GND*%
%TA.AperFunction,SMDPad,CuDef*%
G36*
G01*
X196181250Y-114200000D02*
X195668750Y-114200000D01*
G75*
G02*
X195450000Y-113981250I0J218750D01*
G01*
X195450000Y-113543750D01*
G75*
G02*
X195668750Y-113325000I218750J0D01*
G01*
X196181250Y-113325000D01*
G75*
G02*
X196400000Y-113543750I0J-218750D01*
G01*
X196400000Y-113981250D01*
G75*
G02*
X196181250Y-114200000I-218750J0D01*
G01*
G37*
%TD.AperFunction*%
%TD*%
D23*
%TO.P,J2,S1*%
%TO.N,GND*%
X195995000Y-122405000D03*
%TO.P,J2,S3*%
X198945000Y-122405000D03*
D24*
%TO.P,J2,S2*%
X197470000Y-123930000D03*
%TO.P,J2,1*%
%TO.N,/RF_Part/50_ohm_ant*%
X197470000Y-120880000D03*
%TD*%
D25*
%TO.N,+BATT*%
X203990000Y-93140000D03*
X203280000Y-93120000D03*
X190640000Y-81320000D03*
X194130000Y-85330000D03*
X203210000Y-82380000D03*
X202710000Y-81880000D03*
X204070000Y-78000000D03*
X210970000Y-76690000D03*
X198020000Y-74330000D03*
X197255000Y-74295000D03*
X196455000Y-74295000D03*
%TO.N,GND*%
X204987631Y-104556031D03*
X207365600Y-109778800D03*
X202641200Y-117856000D03*
X203504800Y-117856000D03*
X204419200Y-117856000D03*
X205333600Y-117856000D03*
X193700400Y-113690400D03*
X193700400Y-114503200D03*
X193751200Y-116636800D03*
X206248000Y-117856000D03*
X207162400Y-117856000D03*
X203860400Y-111099600D03*
X201574400Y-117856000D03*
X200304400Y-117856000D03*
X204978000Y-111099600D03*
X207873600Y-110337600D03*
X204165200Y-83515200D03*
X200710800Y-83464400D03*
X204317600Y-86766400D03*
X200660000Y-86969600D03*
X203835000Y-114300000D03*
X205105000Y-114300000D03*
X206375000Y-114300000D03*
X206375000Y-115570000D03*
X205105000Y-115570000D03*
X203835000Y-115570000D03*
X207669543Y-99633642D03*
X202990000Y-112250000D03*
X200930000Y-115340000D03*
X195940000Y-112740000D03*
X193600000Y-109970000D03*
X203440000Y-96747500D03*
X191540000Y-76420000D03*
X191000000Y-84460000D03*
X192818400Y-91541600D03*
X193751200Y-117551200D03*
X196240000Y-124110000D03*
X212610000Y-76520000D03*
X212610000Y-75660000D03*
X212390000Y-74900000D03*
X211845000Y-74355000D03*
X211105000Y-74295000D03*
X210335000Y-74295000D03*
%TO.N,VDD*%
X194570000Y-115360000D03*
X199970000Y-111090000D03*
X197431999Y-100610500D03*
X204399708Y-107660030D03*
X189020000Y-93940000D03*
X189020000Y-93260000D03*
X195910000Y-116220000D03*
%TO.N,/RF_Part/50_ohm_ant*%
X197490000Y-118151000D03*
D26*
X197480000Y-120270000D03*
D25*
%TO.N,NSS*%
X195262500Y-108648500D03*
X194437000Y-97282000D03*
X195326000Y-106299000D03*
%TO.N,MOSI*%
X193865500Y-107505500D03*
X198755000Y-97409000D03*
%TO.N,MISO*%
X191643000Y-97218500D03*
X193675000Y-99695000D03*
X193675000Y-104965500D03*
%TO.N,SCK*%
X194601000Y-103695500D03*
X196596000Y-97345500D03*
X196215000Y-102425500D03*
%TO.N,DIO5*%
X194400000Y-100647500D03*
X199898000Y-99885500D03*
X200152000Y-97345500D03*
%TO.N,NRESET*%
X203962000Y-103251000D03*
X199263000Y-89662000D03*
%TO.N,DIO0*%
X204597000Y-99527000D03*
X204660500Y-96747500D03*
X203962000Y-102108000D03*
%TO.N,DIO1*%
X202882500Y-99568000D03*
X202628500Y-97472500D03*
X202819000Y-101219000D03*
%TO.N,DIO2*%
X201676000Y-100330000D03*
%TO.N,/MCU_part/MCLR*%
X190601600Y-79451200D03*
%TO.N,Net-(R301-Pad2)*%
X201485500Y-93218000D03*
X203962000Y-89979500D03*
%TO.N,Net-(R307-Pad1)*%
X194664500Y-90068400D03*
X194970400Y-86106000D03*
%TO.N,Net-(Rext1-Pad1)*%
X199339200Y-75145000D03*
X199339200Y-73138400D03*
X194143800Y-83007200D03*
X199288400Y-77724000D03*
%TO.N,/MCU_part/DONE*%
X195783200Y-78587600D03*
X193446400Y-78181200D03*
%TO.N,/MCU_part/WAKE_UP*%
X193649600Y-76962000D03*
X206502000Y-87630000D03*
%TD*%
D27*
%TO.N,+BATT*%
X202450400Y-78041900D02*
X202463500Y-78028800D01*
X202450400Y-80294000D02*
X202450400Y-78041900D01*
D28*
X203454000Y-94361000D02*
X203250400Y-94157400D01*
X203250400Y-93090400D02*
X203280000Y-93120000D01*
X203250400Y-93060400D02*
X203250400Y-91694000D01*
X203250400Y-93060400D02*
X203250400Y-93090400D01*
X203250400Y-94157400D02*
X203250400Y-93060400D01*
X203280000Y-93120000D02*
X203280000Y-93120000D01*
X191516000Y-81381600D02*
X190701600Y-81381600D01*
X190701600Y-81381600D02*
X190640000Y-81320000D01*
X191658000Y-86878600D02*
X192989400Y-85547200D01*
X191658000Y-87528400D02*
X191658000Y-86878600D01*
X192989400Y-85547200D02*
X193912800Y-85547200D01*
X193912800Y-85547200D02*
X194130000Y-85330000D01*
X202450400Y-80294000D02*
X202450400Y-81620400D01*
X202450400Y-81620400D02*
X202710000Y-81880000D01*
X202710000Y-81880000D02*
X203210000Y-82380000D01*
X204056500Y-75946000D02*
X204056500Y-77986500D01*
X204056500Y-77986500D02*
X204070000Y-78000000D01*
X204041200Y-78028800D02*
X204070000Y-78000000D01*
X202463500Y-78028800D02*
X204041200Y-78028800D01*
X210959500Y-77978000D02*
X210959500Y-76700500D01*
X210959500Y-76700500D02*
X210970000Y-76690000D01*
X198056500Y-75946000D02*
X198056500Y-75696500D01*
D29*
X198056500Y-75946000D02*
X198056500Y-74366500D01*
X198056500Y-74366500D02*
X198020000Y-74330000D01*
X197985000Y-74295000D02*
X198020000Y-74330000D01*
X196225000Y-74295000D02*
X197255000Y-74295000D01*
D28*
X196225000Y-74295000D02*
X194437000Y-74295000D01*
X196655000Y-74295000D02*
X196225000Y-74295000D01*
D29*
X196655000Y-74295000D02*
X196455000Y-74295000D01*
X197255000Y-74295000D02*
X197985000Y-74295000D01*
X196455000Y-74295000D02*
X194437000Y-74295000D01*
D27*
%TO.N,GND*%
X198211990Y-108687010D02*
X198211990Y-110728990D01*
X207010000Y-100889000D02*
X207569000Y-100330000D01*
X207010000Y-102232000D02*
X207010000Y-100889000D01*
X206606000Y-106703000D02*
X206606000Y-109728000D01*
X207391000Y-105918000D02*
X206606000Y-106703000D01*
X198562000Y-111079000D02*
X198882000Y-111079000D01*
X198217000Y-108682000D02*
X198211990Y-108687010D01*
X207391000Y-105410000D02*
X207391000Y-105918000D01*
X198217000Y-108619000D02*
X198217000Y-108682000D01*
D30*
X207772000Y-119126000D02*
X209042000Y-119126000D01*
X209042000Y-99568000D02*
X209042000Y-98552000D01*
D27*
X198211990Y-110728990D02*
X198562000Y-111079000D01*
D31*
X200167000Y-106314000D02*
X199517000Y-105664000D01*
X198217000Y-106964000D02*
X199517000Y-105664000D01*
D30*
X192470990Y-118605493D02*
X192470990Y-119126000D01*
X192532000Y-98679000D02*
X192532000Y-99822000D01*
X192532000Y-99822000D02*
X192405000Y-99949000D01*
D31*
X198217000Y-108619000D02*
X198217000Y-106964000D01*
X200167000Y-108619000D02*
X200167000Y-106314000D01*
D30*
X192405000Y-99949000D02*
X190754000Y-99949000D01*
D31*
X196562000Y-103714000D02*
X197567000Y-103714000D01*
X197567000Y-103714000D02*
X199517000Y-105664000D01*
D30*
X192470990Y-100137010D02*
X192470990Y-118605493D01*
D31*
X201930000Y-110979768D02*
X201930000Y-110998000D01*
X200167000Y-109216768D02*
X201930000Y-110979768D01*
X200167000Y-108619000D02*
X200167000Y-109216768D01*
X196562000Y-103714000D02*
X196562000Y-103221500D01*
X196562000Y-103221500D02*
X197040500Y-102743000D01*
X196492000Y-101539000D02*
X196492000Y-101219000D01*
X197040500Y-102087500D02*
X196492000Y-101539000D01*
X197040500Y-102743000D02*
X197040500Y-102087500D01*
D27*
X192862400Y-91541600D02*
X193548000Y-90856000D01*
X191719200Y-91541600D02*
X192818400Y-91541600D01*
D31*
X210947000Y-100330000D02*
X211328000Y-99949000D01*
X208788000Y-105410000D02*
X209042000Y-105664000D01*
X207391000Y-105410000D02*
X208788000Y-105410000D01*
D30*
X209042000Y-119126000D02*
X209042000Y-105664000D01*
X209042000Y-105664000D02*
X209042000Y-99568000D01*
X209042000Y-98552000D02*
X201371200Y-98552000D01*
X201371200Y-98552000D02*
X192532000Y-98552000D01*
D27*
X202449999Y-91694401D02*
X202450400Y-91694000D01*
D29*
X207137000Y-74295000D02*
X207137000Y-73634600D01*
D27*
X205910000Y-103632000D02*
X205910000Y-103633662D01*
X205910000Y-103633662D02*
X204987631Y-104556031D01*
X206656800Y-109778800D02*
X206606000Y-109728000D01*
X207365600Y-109778800D02*
X206656800Y-109778800D01*
D28*
X207162400Y-117856000D02*
X200304400Y-117856000D01*
X203835000Y-115570000D02*
X206375000Y-115570000D01*
D30*
X192470990Y-119126000D02*
X207772000Y-119126000D01*
D28*
X207950000Y-99949000D02*
X207569000Y-100330000D01*
X191008000Y-99949000D02*
X192405000Y-99949000D01*
X207569000Y-100330000D02*
X207569000Y-99734185D01*
X207569000Y-99734185D02*
X207669543Y-99633642D01*
D27*
X206487500Y-76375000D02*
X206275000Y-76587500D01*
X201650400Y-78790700D02*
X200888500Y-78028800D01*
X201650400Y-80294000D02*
X201650400Y-78790700D01*
D31*
X203758800Y-110998000D02*
X203860400Y-111099600D01*
X201930000Y-110998000D02*
X203758800Y-110998000D01*
X201930000Y-112268000D02*
X202972000Y-112268000D01*
X202972000Y-112268000D02*
X202990000Y-112250000D01*
X199725000Y-115316000D02*
X200906000Y-115316000D01*
X200906000Y-115316000D02*
X200930000Y-115340000D01*
X195925000Y-113762500D02*
X195925000Y-112755000D01*
X195925000Y-112755000D02*
X195940000Y-112740000D01*
X194333000Y-109982000D02*
X193612000Y-109982000D01*
X193612000Y-109982000D02*
X193600000Y-109970000D01*
D28*
X206275000Y-75157000D02*
X207137000Y-74295000D01*
X206275000Y-76587500D02*
X206275000Y-75157000D01*
X201650400Y-82524800D02*
X201650400Y-80294000D01*
X200710800Y-83464400D02*
X201650400Y-82524800D01*
X203454000Y-95936000D02*
X203454000Y-96733500D01*
X203454000Y-96733500D02*
X203440000Y-96747500D01*
X202479999Y-91723599D02*
X202450400Y-91694000D01*
X202479999Y-94961999D02*
X202479999Y-91723599D01*
X203454000Y-95936000D02*
X202479999Y-94961999D01*
X191516000Y-77419200D02*
X191516000Y-76444000D01*
X191516000Y-76444000D02*
X191540000Y-76420000D01*
X189390200Y-72440600D02*
X189238000Y-72288400D01*
X192227200Y-72440600D02*
X189390200Y-72440600D01*
X191414400Y-85547200D02*
X191008000Y-85953600D01*
X191008000Y-83870800D02*
X191465200Y-83413600D01*
X191008000Y-86368000D02*
X191008000Y-87528400D01*
X191008000Y-85953600D02*
X191008000Y-86368000D01*
X192466000Y-82412800D02*
X191465200Y-83413600D01*
X192466000Y-81381600D02*
X192466000Y-82412800D01*
X191008000Y-84438000D02*
X191008000Y-84452000D01*
X191008000Y-84452000D02*
X191000000Y-84460000D01*
X191008000Y-84438000D02*
X191008000Y-83870800D01*
X191008000Y-86368000D02*
X191008000Y-84438000D01*
D27*
X191008000Y-90830400D02*
X191719200Y-91541600D01*
X191008000Y-89428400D02*
X191008000Y-90830400D01*
X192818400Y-91541600D02*
X192862400Y-91541600D01*
D31*
X193954400Y-117348000D02*
X193751200Y-117551200D01*
D27*
X194914800Y-117551200D02*
X195118000Y-117348000D01*
X193751200Y-117551200D02*
X194914800Y-117551200D01*
X197470000Y-123930000D02*
X196420000Y-123930000D01*
X196420000Y-123930000D02*
X196240000Y-124110000D01*
D29*
X207137000Y-74295000D02*
X210335000Y-74295000D01*
X211785000Y-74295000D02*
X211845000Y-74355000D01*
X212610000Y-75120000D02*
X212610000Y-75660000D01*
X212610000Y-76280000D02*
X212620000Y-76290000D01*
X212610000Y-75660000D02*
X212610000Y-76280000D01*
X212390000Y-74900000D02*
X212610000Y-75120000D01*
X211845000Y-74355000D02*
X212390000Y-74900000D01*
X211105000Y-74295000D02*
X211785000Y-74295000D01*
X210335000Y-74295000D02*
X211105000Y-74295000D01*
D27*
X203860400Y-111099600D02*
X204978000Y-111099600D01*
%TO.N,VDD*%
X198882000Y-110109000D02*
X199010338Y-110109000D01*
X199010338Y-110109000D02*
X199073169Y-110171831D01*
X198867000Y-108619000D02*
X198867000Y-110094000D01*
X197567000Y-102709000D02*
X197567000Y-101324000D01*
X198867000Y-110094000D02*
X198882000Y-110109000D01*
X197567000Y-101324000D02*
X197462000Y-101219000D01*
D31*
X195925000Y-115337500D02*
X194592500Y-115337500D01*
X194592500Y-115337500D02*
X194570000Y-115360000D01*
X198882000Y-110109000D02*
X198989000Y-110109000D01*
X198989000Y-110109000D02*
X199970000Y-111090000D01*
X197462000Y-101219000D02*
X197462000Y-100640501D01*
X197462000Y-100640501D02*
X197431999Y-100610500D01*
X202472000Y-106314000D02*
X203144000Y-106314000D01*
X205636000Y-108458000D02*
X205288000Y-108458000D01*
X204240000Y-107500322D02*
X204399708Y-107660030D01*
X204240000Y-107410000D02*
X204240000Y-107500322D01*
X204240000Y-107410000D02*
X203144000Y-106314000D01*
X205288000Y-108458000D02*
X204240000Y-107410000D01*
D27*
X190358000Y-91327800D02*
X190144200Y-91541600D01*
X190358000Y-89428400D02*
X190358000Y-91327800D01*
D28*
X189020000Y-93260000D02*
X189020000Y-93940000D01*
X189020000Y-92520000D02*
X189020000Y-93260000D01*
X189280000Y-87695402D02*
X189020000Y-87955402D01*
X190144200Y-91541600D02*
X189061600Y-91541600D01*
X189020000Y-87955402D02*
X189020000Y-91500000D01*
X189061600Y-91541600D02*
X189020000Y-91500000D01*
X189020000Y-91500000D02*
X189020000Y-92520000D01*
X189941000Y-77419200D02*
X189449200Y-77419200D01*
X189280000Y-74828400D02*
X189280000Y-77250000D01*
X189449200Y-77419200D02*
X189280000Y-77250000D01*
X189280000Y-77250000D02*
X189280000Y-87695402D01*
D27*
X195925000Y-115337500D02*
X195925000Y-116205000D01*
X195925000Y-116205000D02*
X195910000Y-116220000D01*
%TO.N,/RF_Part/VR_DIG*%
X202472000Y-105698000D02*
X202577990Y-105803990D01*
X202472000Y-105664000D02*
X202472000Y-105698000D01*
X202577990Y-105803990D02*
X203593990Y-105803990D01*
X204851000Y-107061000D02*
X205659000Y-107061000D01*
X203593990Y-105803990D02*
X204851000Y-107061000D01*
%TO.N,/RF_Part/VR_ANA*%
X205636000Y-109728000D02*
X204089000Y-109728000D01*
X203454000Y-109093000D02*
X203454000Y-107442000D01*
X202976000Y-106964000D02*
X202472000Y-106964000D01*
X203454000Y-107442000D02*
X202976000Y-106964000D01*
X204089000Y-109728000D02*
X203454000Y-109093000D01*
D31*
%TO.N,/RF_Part/XTA*%
X207010000Y-104216000D02*
X207010000Y-103632000D01*
X205816000Y-105410000D02*
X207010000Y-104216000D01*
D27*
X202472000Y-105014000D02*
X203921600Y-105014000D01*
X204317600Y-105410000D02*
X203921600Y-105014000D01*
X205816000Y-105410000D02*
X204317600Y-105410000D01*
%TO.N,/RF_Part/XTB*%
X202472000Y-104364000D02*
X204119000Y-104364000D01*
X204851000Y-103291000D02*
X205910000Y-102232000D01*
X204119000Y-104364000D02*
X204851000Y-103632000D01*
X205910000Y-102232000D02*
X205910000Y-100414000D01*
X204851000Y-103632000D02*
X204851000Y-103291000D01*
X205910000Y-100414000D02*
X205994000Y-100330000D01*
%TO.N,VR_PA*%
X199517000Y-108619000D02*
X199517000Y-109555000D01*
X199517000Y-109555000D02*
X200960000Y-110998000D01*
X200960000Y-112268000D02*
X199598000Y-112268000D01*
X200960000Y-110998000D02*
X200960000Y-112268000D01*
%TO.N,RFI_HF*%
X196562000Y-110824000D02*
X196261000Y-111125000D01*
X196532000Y-109982000D02*
X196562000Y-110012000D01*
X195303000Y-109982000D02*
X196532000Y-109982000D01*
X196562000Y-107614000D02*
X196562000Y-110012000D01*
X196562000Y-110012000D02*
X196562000Y-110824000D01*
%TO.N,RFO_HF*%
X197567000Y-112186000D02*
X197485000Y-112268000D01*
X197231000Y-111125000D02*
X197475000Y-111125000D01*
X197567000Y-108619000D02*
X197567000Y-111217000D01*
X197475000Y-111125000D02*
X197567000Y-111217000D01*
X197567000Y-111217000D02*
X197567000Y-112186000D01*
X198628000Y-112268000D02*
X197485000Y-112268000D01*
%TO.N,Net-(C212-Pad1)*%
X197485000Y-113238000D02*
X197485000Y-114346000D01*
%TO.N,Net-(C213-Pad2)*%
X197485000Y-115316000D02*
X197485000Y-116378000D01*
X198755000Y-115316000D02*
X197485000Y-115316000D01*
%TO.N,/RF_Part/50_ohm_ant*%
X197485000Y-117348000D02*
X196088000Y-117348000D01*
X197485000Y-117348000D02*
X197485000Y-118146000D01*
X197485000Y-118146000D02*
X197490000Y-118151000D01*
X197470000Y-120280000D02*
X197480000Y-120270000D01*
X197470000Y-120880000D02*
X197470000Y-120280000D01*
D31*
%TO.N,NSS*%
X193548000Y-95948500D02*
X193548000Y-96393000D01*
X193548000Y-96393000D02*
X194437000Y-97282000D01*
X195326000Y-108585000D02*
X195262500Y-108648500D01*
X195326000Y-106299000D02*
X196547000Y-106299000D01*
X196547000Y-106299000D02*
X196562000Y-106314000D01*
X195326000Y-106299000D02*
X195326000Y-108585000D01*
%TO.N,MOSI*%
X194981999Y-105573999D02*
X193865500Y-106690498D01*
X193865500Y-106690498D02*
X193865500Y-107505500D01*
X196471999Y-105573999D02*
X196562000Y-105664000D01*
X194981999Y-105573999D02*
X196471999Y-105573999D01*
X198755000Y-95936000D02*
X198755000Y-97409000D01*
%TO.N,MISO*%
X193675000Y-99695000D02*
X193675000Y-104965500D01*
D27*
X191008000Y-96583500D02*
X191643000Y-97218500D01*
X191008000Y-95948500D02*
X191008000Y-96583500D01*
D31*
X193723500Y-105014000D02*
X193675000Y-104965500D01*
X196513500Y-104965500D02*
X196562000Y-105014000D01*
X193675000Y-104965500D02*
X196513500Y-104965500D01*
%TO.N,SCK*%
X196151500Y-96901000D02*
X196596000Y-97345500D01*
X195135500Y-104013000D02*
X195486500Y-104364000D01*
X195135500Y-103505000D02*
X195135500Y-103695500D01*
X196215000Y-102425500D02*
X195135500Y-103505000D01*
X195135500Y-103695500D02*
X195135500Y-104013000D01*
X194601000Y-103695500D02*
X195135500Y-103695500D01*
X196151500Y-95948500D02*
X196151500Y-96901000D01*
X195486500Y-104364000D02*
X196562000Y-104364000D01*
%TO.N,DIO5*%
X198120000Y-99885500D02*
X199898000Y-99885500D01*
D27*
X198217000Y-102646000D02*
X198247000Y-102616000D01*
D31*
X195162000Y-99885500D02*
X198120000Y-99885500D01*
X194400000Y-100647500D02*
X195162000Y-99885500D01*
D27*
X198217000Y-102709000D02*
X198217000Y-102646000D01*
D31*
X198217000Y-102709000D02*
X198217000Y-102074500D01*
X198217000Y-102074500D02*
X198564500Y-101727000D01*
X198564500Y-101727000D02*
X199199500Y-101727000D01*
X199898000Y-101028500D02*
X199898000Y-99885500D01*
X199199500Y-101727000D02*
X199898000Y-101028500D01*
D27*
X201358500Y-95936000D02*
X200291500Y-95936000D01*
X200152000Y-96075500D02*
X200152000Y-97345500D01*
X200291500Y-95936000D02*
X200152000Y-96075500D01*
%TO.N,NRESET*%
X202472000Y-103714000D02*
X203499000Y-103714000D01*
X203499000Y-103714000D02*
X203962000Y-103251000D01*
X196738000Y-83579000D02*
X197942500Y-83579000D01*
X199263000Y-89662000D02*
X199263000Y-84391500D01*
X198450500Y-83579000D02*
X197942500Y-83579000D01*
X199263000Y-84391500D02*
X198450500Y-83579000D01*
%TO.N,DIO0*%
X203361000Y-102709000D02*
X203962000Y-102108000D01*
D31*
X205408500Y-95999500D02*
X204660500Y-96747500D01*
D27*
X201467000Y-102709000D02*
X203361000Y-102709000D01*
D31*
X205740000Y-95999500D02*
X205408500Y-95999500D01*
X204597000Y-99527000D02*
X203962000Y-100162000D01*
X203962000Y-100162000D02*
X203962000Y-102108000D01*
D27*
%TO.N,DIO1*%
X200817000Y-102709000D02*
X200817000Y-102304000D01*
X200817000Y-102304000D02*
X201902000Y-101219000D01*
D31*
X207835500Y-97472500D02*
X202628500Y-97472500D01*
X208089500Y-97218500D02*
X207835500Y-97472500D01*
X208089500Y-95999500D02*
X208089500Y-97218500D01*
X202882500Y-99568000D02*
X202882500Y-101155500D01*
D27*
X201902000Y-101219000D02*
X202819000Y-101219000D01*
D31*
X202882500Y-101155500D02*
X202819000Y-101219000D01*
D27*
%TO.N,DIO2*%
X200167000Y-102709000D02*
X200167000Y-101839000D01*
D31*
X213169500Y-98425000D02*
X213169500Y-106870500D01*
X210744000Y-95999500D02*
X213169500Y-98425000D01*
X212471000Y-107569000D02*
X211328000Y-107569000D01*
X213169500Y-106870500D02*
X212471000Y-107569000D01*
D27*
X200167000Y-101839000D02*
X201676000Y-100330000D01*
D31*
X210185000Y-95999500D02*
X210744000Y-95999500D01*
D27*
%TO.N,Net-(D301-Pad1)*%
X206687500Y-78162500D02*
X208475000Y-76375000D01*
X206275000Y-78162500D02*
X206687500Y-78162500D01*
%TO.N,/MCU_part/MCLR*%
X212534500Y-80010000D02*
X211836000Y-80708500D01*
X212534500Y-77978000D02*
X212534500Y-80010000D01*
D31*
X191516000Y-79181600D02*
X190871200Y-79181600D01*
X190871200Y-79181600D02*
X190601600Y-79451200D01*
D27*
X208150400Y-85194000D02*
X209246000Y-85194000D01*
X209246000Y-85194000D02*
X209930000Y-84510000D01*
X209930000Y-82614500D02*
X211836000Y-80708500D01*
X209930000Y-84510000D02*
X209930000Y-82614500D01*
%TO.N,/MCU_part/PGD*%
X209486500Y-85979000D02*
X208138000Y-85979000D01*
X211836000Y-88328500D02*
X209486500Y-85979000D01*
%TO.N,/MCU_part/PGC*%
X211836000Y-90868500D02*
X211010500Y-90868500D01*
X211010500Y-90868500D02*
X210312000Y-90170000D01*
X210312000Y-90170000D02*
X210312000Y-87820500D01*
X210312000Y-87820500D02*
X209270500Y-86779000D01*
X209270500Y-86779000D02*
X208138000Y-86779000D01*
%TO.N,Net-(R301-Pad2)*%
X201358500Y-94361000D02*
X201358500Y-93345000D01*
X201358500Y-93345000D02*
X201485500Y-93218000D01*
X203962000Y-91603000D02*
X204038000Y-91679000D01*
X203962000Y-89979500D02*
X203962000Y-91603000D01*
%TO.N,Net-(R302-Pad2)*%
X204838000Y-93522500D02*
X204838000Y-91679000D01*
X205740000Y-94424500D02*
X204838000Y-93522500D01*
%TO.N,Net-(R303-Pad2)*%
X205638000Y-92534002D02*
X205638000Y-91679000D01*
X207528498Y-94424500D02*
X205638000Y-92534002D01*
X208089500Y-94424500D02*
X207528498Y-94424500D01*
%TO.N,Net-(R304-Pad2)*%
X209613500Y-88646000D02*
X209613500Y-93853000D01*
X208138000Y-88379000D02*
X209346500Y-88379000D01*
X209346500Y-88379000D02*
X209613500Y-88646000D01*
X209613500Y-93853000D02*
X210185000Y-94424500D01*
D31*
%TO.N,Net-(R306-Pad1)*%
X196151500Y-94373500D02*
X196151500Y-92202000D01*
X196151500Y-92202000D02*
X198374000Y-89979500D01*
X198374000Y-89979500D02*
X198374000Y-85471000D01*
X198082000Y-85179000D02*
X196738000Y-85179000D01*
X198374000Y-85471000D02*
X198082000Y-85179000D01*
%TO.N,Net-(R307-Pad1)*%
X191008000Y-94373500D02*
X191186000Y-94373500D01*
X191008000Y-94373500D02*
X191630500Y-94373500D01*
X191630500Y-94373500D02*
X194881500Y-91122500D01*
X194881500Y-91122500D02*
X194881500Y-90285400D01*
X194881500Y-90285400D02*
X194664500Y-90068400D01*
X196638400Y-86106000D02*
X196750400Y-85994000D01*
X194970400Y-86106000D02*
X196638400Y-86106000D01*
%TO.N,Net-(R308-Pad1)*%
X195738000Y-87579000D02*
X196738000Y-87579000D01*
X195389500Y-87927500D02*
X195738000Y-87579000D01*
X193548000Y-93408500D02*
X195389500Y-91567000D01*
X195389500Y-91567000D02*
X195389500Y-87927500D01*
X193548000Y-94373500D02*
X193548000Y-93408500D01*
%TO.N,Net-(R309-Pad1)*%
X198755000Y-94361000D02*
X198628000Y-94361000D01*
X198755000Y-94234000D02*
X198755000Y-94361000D01*
D27*
X199238000Y-93878000D02*
X198755000Y-94361000D01*
X199238000Y-91679000D02*
X199238000Y-93878000D01*
%TO.N,/MCU_part/EN_LORA*%
X193400600Y-89428400D02*
X193548000Y-89281000D01*
X191658000Y-89428400D02*
X193400600Y-89428400D01*
D31*
X193548000Y-89281000D02*
X194589400Y-89281000D01*
X194589400Y-89281000D02*
X194868800Y-89001600D01*
X194868800Y-89001600D02*
X194868800Y-87630000D01*
X195704800Y-86794000D02*
X196750400Y-86794000D01*
X194868800Y-87630000D02*
X195704800Y-86794000D01*
D27*
%TO.N,Net-(Rext1-Pad1)*%
X193416000Y-83037800D02*
X193040200Y-83413600D01*
X193416000Y-81381600D02*
X193416000Y-83037800D01*
X198056500Y-72196000D02*
X199380800Y-72196000D01*
X199380800Y-72196000D02*
X204056500Y-72196000D01*
D31*
X193737400Y-83413600D02*
X194143800Y-83007200D01*
X199339200Y-72237600D02*
X199380800Y-72196000D01*
X199339200Y-73138400D02*
X199339200Y-72237600D01*
X199288400Y-75195800D02*
X199339200Y-75145000D01*
X199288400Y-77724000D02*
X199288400Y-75195800D01*
X193040200Y-83413600D02*
X193737400Y-83413600D01*
%TO.N,/MCU_part/DONE*%
X199250400Y-80294000D02*
X199250400Y-79006800D01*
X199250400Y-79006800D02*
X198831200Y-78587600D01*
X198831200Y-78587600D02*
X195783200Y-78587600D01*
X193446400Y-79151200D02*
X193416000Y-79181600D01*
X193446400Y-78181200D02*
X193446400Y-79151200D01*
%TO.N,/MCU_part/WAKE_UP*%
X193592598Y-76962000D02*
X193649600Y-76962000D01*
X192466000Y-79181600D02*
X192466000Y-78088598D01*
X192466000Y-78088598D02*
X193592598Y-76962000D01*
X208114400Y-87630000D02*
X208150400Y-87594000D01*
X206502000Y-87630000D02*
X208114400Y-87630000D01*
%TO.N,/MCU_part/temp_sens2*%
X192227200Y-74015600D02*
X192227200Y-75590400D01*
X194868800Y-83413600D02*
X194868800Y-84124800D01*
X194868800Y-83413600D02*
X194868800Y-83718400D01*
X194868800Y-78232000D02*
X194868800Y-83413600D01*
X195138000Y-84394000D02*
X196750400Y-84394000D01*
X194868800Y-84124800D02*
X195138000Y-84394000D01*
X192227200Y-75590400D02*
X192735200Y-76098400D01*
X192735200Y-76098400D02*
X194106800Y-76098400D01*
X194868800Y-76860400D02*
X194868800Y-78232000D01*
X194106800Y-76098400D02*
X194868800Y-76860400D01*
D27*
X191770000Y-73558400D02*
X192227200Y-74015600D01*
X190500000Y-73558400D02*
X191770000Y-73558400D01*
D31*
%TO.N,/MCU_part/LED*%
X206908400Y-79836000D02*
X206450400Y-80294000D01*
D27*
X206450400Y-80274600D02*
X208475000Y-78250000D01*
X206450400Y-80294000D02*
X206450400Y-80274600D01*
%TD*%
D32*
%TO.N,GND*%
G36*
X212130883Y-98461185D02*
G01*
X211613750Y-98464000D01*
X211455000Y-98622750D01*
X211455000Y-99822000D01*
X211475000Y-99822000D01*
X211475000Y-100076000D01*
X211455000Y-100076000D01*
X211455000Y-100096000D01*
X211201000Y-100096000D01*
X211201000Y-100076000D01*
X210001750Y-100076000D01*
X209843000Y-100234750D01*
X209839928Y-100799000D01*
X209852188Y-100923482D01*
X209888498Y-101043180D01*
X209947463Y-101153494D01*
X210026815Y-101250185D01*
X210123506Y-101329537D01*
X210233820Y-101388502D01*
X210306380Y-101410513D01*
X210174525Y-101542368D01*
X210012010Y-101785589D01*
X209900068Y-102055842D01*
X209843000Y-102342740D01*
X209843000Y-102635260D01*
X209900068Y-102922158D01*
X210012010Y-103192411D01*
X210174525Y-103435632D01*
X210381368Y-103642475D01*
X210555760Y-103759000D01*
X210381368Y-103875525D01*
X210174525Y-104082368D01*
X210012010Y-104325589D01*
X209900068Y-104595842D01*
X209843000Y-104882740D01*
X209843000Y-105175260D01*
X209900068Y-105462158D01*
X210012010Y-105732411D01*
X210174525Y-105975632D01*
X210381368Y-106182475D01*
X210555760Y-106299000D01*
X210381368Y-106415525D01*
X210174525Y-106622368D01*
X210012010Y-106865589D01*
X209900068Y-107135842D01*
X209843000Y-107422740D01*
X209843000Y-107715260D01*
X209900068Y-108002158D01*
X210012010Y-108272411D01*
X210174525Y-108515632D01*
X210381368Y-108722475D01*
X210555760Y-108839000D01*
X210381368Y-108955525D01*
X210174525Y-109162368D01*
X210012010Y-109405589D01*
X209900068Y-109675842D01*
X209843000Y-109962740D01*
X209843000Y-110255260D01*
X209900068Y-110542158D01*
X210012010Y-110812411D01*
X210174525Y-111055632D01*
X210381368Y-111262475D01*
X210555760Y-111379000D01*
X210381368Y-111495525D01*
X210174525Y-111702368D01*
X210012010Y-111945589D01*
X209900068Y-112215842D01*
X209843000Y-112502740D01*
X209843000Y-112795260D01*
X209900068Y-113082158D01*
X210012010Y-113352411D01*
X210174525Y-113595632D01*
X210381368Y-113802475D01*
X210555760Y-113919000D01*
X210381368Y-114035525D01*
X210174525Y-114242368D01*
X210012010Y-114485589D01*
X209900068Y-114755842D01*
X209843000Y-115042740D01*
X209843000Y-115335260D01*
X209900068Y-115622158D01*
X210012010Y-115892411D01*
X210174525Y-116135632D01*
X210306380Y-116267487D01*
X210233820Y-116289498D01*
X210123506Y-116348463D01*
X210026815Y-116427815D01*
X209947463Y-116524506D01*
X209888498Y-116634820D01*
X209852188Y-116754518D01*
X209839928Y-116879000D01*
X209843000Y-117443250D01*
X210001750Y-117602000D01*
X211201000Y-117602000D01*
X211201000Y-117582000D01*
X211455000Y-117582000D01*
X211455000Y-117602000D01*
X212654250Y-117602000D01*
X212813000Y-117443250D01*
X212816072Y-116879000D01*
X212803812Y-116754518D01*
X212767502Y-116634820D01*
X212708537Y-116524506D01*
X212629185Y-116427815D01*
X212532494Y-116348463D01*
X212422180Y-116289498D01*
X212349620Y-116267487D01*
X212481475Y-116135632D01*
X212643990Y-115892411D01*
X212755932Y-115622158D01*
X212813000Y-115335260D01*
X212813000Y-115042740D01*
X212755932Y-114755842D01*
X212643990Y-114485589D01*
X212481475Y-114242368D01*
X212274632Y-114035525D01*
X212100240Y-113919000D01*
X212274632Y-113802475D01*
X212481475Y-113595632D01*
X212643990Y-113352411D01*
X212755932Y-113082158D01*
X212813000Y-112795260D01*
X212813000Y-112502740D01*
X212755932Y-112215842D01*
X212643990Y-111945589D01*
X212481475Y-111702368D01*
X212274632Y-111495525D01*
X212100240Y-111379000D01*
X212274632Y-111262475D01*
X212481475Y-111055632D01*
X212643990Y-110812411D01*
X212755932Y-110542158D01*
X212813000Y-110255260D01*
X212813000Y-109962740D01*
X212755932Y-109675842D01*
X212643990Y-109405589D01*
X212481475Y-109162368D01*
X212274632Y-108955525D01*
X212100240Y-108839000D01*
X212274632Y-108722475D01*
X212481475Y-108515632D01*
X212613071Y-108318684D01*
X212619986Y-108318003D01*
X212763247Y-108274546D01*
X212895276Y-108203974D01*
X212954001Y-108155780D01*
X212954001Y-124562000D01*
X198597534Y-124562000D01*
X198608072Y-124455000D01*
X198605000Y-124215750D01*
X198530898Y-124141648D01*
X198659250Y-124140000D01*
X198818000Y-123981250D01*
X198818000Y-122532000D01*
X199072000Y-122532000D01*
X199072000Y-123981250D01*
X199230750Y-124140000D01*
X199470000Y-124143072D01*
X199594482Y-124130812D01*
X199714180Y-124094502D01*
X199824494Y-124035537D01*
X199921185Y-123956185D01*
X200000537Y-123859494D01*
X200059502Y-123749180D01*
X200095812Y-123629482D01*
X200108072Y-123505000D01*
X200105000Y-122690750D01*
X199946250Y-122532000D01*
X199072000Y-122532000D01*
X198818000Y-122532000D01*
X198798000Y-122532000D01*
X198798000Y-122278000D01*
X198818000Y-122278000D01*
X198818000Y-120828750D01*
X199072000Y-120828750D01*
X199072000Y-122278000D01*
X199946250Y-122278000D01*
X200105000Y-122119250D01*
X200108072Y-121305000D01*
X200095812Y-121180518D01*
X200059502Y-121060820D01*
X200000537Y-120950506D01*
X199921185Y-120853815D01*
X199824494Y-120774463D01*
X199714180Y-120715498D01*
X199594482Y-120679188D01*
X199470000Y-120666928D01*
X199230750Y-120670000D01*
X199072000Y-120828750D01*
X198818000Y-120828750D01*
X198659250Y-120670000D01*
X198608072Y-120669343D01*
X198608072Y-120416618D01*
X198615000Y-120381788D01*
X198615000Y-120158212D01*
X198571383Y-119938933D01*
X198485824Y-119732376D01*
X198361612Y-119546480D01*
X198203520Y-119388388D01*
X198017624Y-119264176D01*
X197811067Y-119178617D01*
X197720062Y-119160515D01*
X197791898Y-119146226D01*
X197980256Y-119068205D01*
X198149774Y-118954937D01*
X198293937Y-118810774D01*
X198407205Y-118641256D01*
X198432992Y-118579000D01*
X209839928Y-118579000D01*
X209852188Y-118703482D01*
X209888498Y-118823180D01*
X209947463Y-118933494D01*
X210026815Y-119030185D01*
X210123506Y-119109537D01*
X210233820Y-119168502D01*
X210353518Y-119204812D01*
X210478000Y-119217072D01*
X211042250Y-119214000D01*
X211201000Y-119055250D01*
X211201000Y-117856000D01*
X211455000Y-117856000D01*
X211455000Y-119055250D01*
X211613750Y-119214000D01*
X212178000Y-119217072D01*
X212302482Y-119204812D01*
X212422180Y-119168502D01*
X212532494Y-119109537D01*
X212629185Y-119030185D01*
X212708537Y-118933494D01*
X212767502Y-118823180D01*
X212803812Y-118703482D01*
X212816072Y-118579000D01*
X212813000Y-118014750D01*
X212654250Y-117856000D01*
X211455000Y-117856000D01*
X211201000Y-117856000D01*
X210001750Y-117856000D01*
X209843000Y-118014750D01*
X209839928Y-118579000D01*
X198432992Y-118579000D01*
X198485226Y-118452898D01*
X198525000Y-118252939D01*
X198525000Y-118049061D01*
X198485226Y-117849102D01*
X198417097Y-117684625D01*
X198427977Y-117648757D01*
X198443072Y-117495500D01*
X198443072Y-117200500D01*
X198427977Y-117047243D01*
X198383274Y-116899875D01*
X198363564Y-116863000D01*
X198383274Y-116826125D01*
X198427977Y-116678757D01*
X198443072Y-116525500D01*
X198443072Y-116255588D01*
X198454243Y-116258977D01*
X198607500Y-116274072D01*
X198902500Y-116274072D01*
X199055757Y-116258977D01*
X199178684Y-116221688D01*
X199185820Y-116225502D01*
X199305518Y-116261812D01*
X199430000Y-116274072D01*
X199439250Y-116271000D01*
X199598000Y-116112250D01*
X199598000Y-115845763D01*
X199628274Y-115789125D01*
X199672977Y-115641757D01*
X199688072Y-115488500D01*
X199688072Y-115443000D01*
X199852000Y-115443000D01*
X199852000Y-116112250D01*
X200010750Y-116271000D01*
X200020000Y-116274072D01*
X200144482Y-116261812D01*
X200264180Y-116225502D01*
X200374494Y-116166537D01*
X200471185Y-116087185D01*
X200550537Y-115990494D01*
X200609502Y-115880180D01*
X200645812Y-115760482D01*
X200658072Y-115636000D01*
X200655000Y-115601750D01*
X200496250Y-115443000D01*
X199852000Y-115443000D01*
X199688072Y-115443000D01*
X199688072Y-115143500D01*
X199672977Y-114990243D01*
X199628274Y-114842875D01*
X199598000Y-114786237D01*
X199598000Y-114519750D01*
X199852000Y-114519750D01*
X199852000Y-115189000D01*
X200496250Y-115189000D01*
X200655000Y-115030250D01*
X200658072Y-114996000D01*
X200645812Y-114871518D01*
X200609502Y-114751820D01*
X200550537Y-114641506D01*
X200471185Y-114544815D01*
X200374494Y-114465463D01*
X200264180Y-114406498D01*
X200144482Y-114370188D01*
X200020000Y-114357928D01*
X200010750Y-114361000D01*
X199852000Y-114519750D01*
X199598000Y-114519750D01*
X199439250Y-114361000D01*
X199430000Y-114357928D01*
X199305518Y-114370188D01*
X199185820Y-114406498D01*
X199178684Y-114410312D01*
X199055757Y-114373023D01*
X198902500Y-114357928D01*
X198607500Y-114357928D01*
X198454243Y-114373023D01*
X198443072Y-114376412D01*
X198443072Y-114198500D01*
X198427977Y-114045243D01*
X198383274Y-113897875D01*
X198326682Y-113792000D01*
X198383274Y-113686125D01*
X198427977Y-113538757D01*
X198443072Y-113385500D01*
X198443072Y-113222386D01*
X198480500Y-113226072D01*
X198775500Y-113226072D01*
X198928757Y-113210977D01*
X199076125Y-113166274D01*
X199113000Y-113146564D01*
X199149875Y-113166274D01*
X199297243Y-113210977D01*
X199450500Y-113226072D01*
X199745500Y-113226072D01*
X199898757Y-113210977D01*
X200046125Y-113166274D01*
X200181940Y-113093679D01*
X200231508Y-113053000D01*
X200326492Y-113053000D01*
X200376060Y-113093679D01*
X200511875Y-113166274D01*
X200659243Y-113210977D01*
X200812500Y-113226072D01*
X201107500Y-113226072D01*
X201260757Y-113210977D01*
X201383684Y-113173688D01*
X201390820Y-113177502D01*
X201510518Y-113213812D01*
X201635000Y-113226072D01*
X201644250Y-113223000D01*
X201803000Y-113064250D01*
X201803000Y-112797763D01*
X201833274Y-112741125D01*
X201877977Y-112593757D01*
X201893072Y-112440500D01*
X201893072Y-112395000D01*
X202057000Y-112395000D01*
X202057000Y-113064250D01*
X202215750Y-113223000D01*
X202225000Y-113226072D01*
X202349482Y-113213812D01*
X202469180Y-113177502D01*
X202579494Y-113118537D01*
X202676185Y-113039185D01*
X202755537Y-112942494D01*
X202814502Y-112832180D01*
X202850812Y-112712482D01*
X202863072Y-112588000D01*
X202860000Y-112553750D01*
X202701250Y-112395000D01*
X202057000Y-112395000D01*
X201893072Y-112395000D01*
X201893072Y-112095500D01*
X201877977Y-111942243D01*
X201833274Y-111794875D01*
X201803000Y-111738237D01*
X201803000Y-111527763D01*
X201833274Y-111471125D01*
X201877977Y-111323757D01*
X201893072Y-111170500D01*
X201893072Y-111125000D01*
X202057000Y-111125000D01*
X202057000Y-112141000D01*
X202701250Y-112141000D01*
X202860000Y-111982250D01*
X202863072Y-111948000D01*
X202850812Y-111823518D01*
X202814502Y-111703820D01*
X202776647Y-111633000D01*
X202814502Y-111562180D01*
X202850812Y-111442482D01*
X202863072Y-111318000D01*
X202860000Y-111283750D01*
X202701250Y-111125000D01*
X202057000Y-111125000D01*
X201893072Y-111125000D01*
X201893072Y-110825500D01*
X201877977Y-110672243D01*
X201833274Y-110524875D01*
X201803000Y-110468237D01*
X201803000Y-110201750D01*
X202057000Y-110201750D01*
X202057000Y-110871000D01*
X202701250Y-110871000D01*
X202860000Y-110712250D01*
X202863072Y-110678000D01*
X202850812Y-110553518D01*
X202814502Y-110433820D01*
X202755537Y-110323506D01*
X202676185Y-110226815D01*
X202579494Y-110147463D01*
X202469180Y-110088498D01*
X202349482Y-110052188D01*
X202225000Y-110039928D01*
X202215750Y-110043000D01*
X202057000Y-110201750D01*
X201803000Y-110201750D01*
X201644250Y-110043000D01*
X201635000Y-110039928D01*
X201510518Y-110052188D01*
X201390820Y-110088498D01*
X201383684Y-110092312D01*
X201260757Y-110055023D01*
X201112587Y-110040429D01*
X200734229Y-109662072D01*
X200964200Y-109662072D01*
X201091179Y-109649566D01*
X201142000Y-109634149D01*
X201192821Y-109649566D01*
X201319800Y-109662072D01*
X201614200Y-109662072D01*
X201741179Y-109649566D01*
X201863278Y-109612527D01*
X201975805Y-109552380D01*
X202074436Y-109471436D01*
X202155380Y-109372805D01*
X202215527Y-109260278D01*
X202252566Y-109138179D01*
X202265072Y-109011200D01*
X202265072Y-108508774D01*
X202318185Y-108465185D01*
X202361774Y-108412072D01*
X202669000Y-108412072D01*
X202669000Y-109054447D01*
X202665203Y-109093000D01*
X202669000Y-109131553D01*
X202669000Y-109131560D01*
X202680359Y-109246886D01*
X202725246Y-109394859D01*
X202798138Y-109531232D01*
X202896236Y-109650764D01*
X202926190Y-109675347D01*
X203506653Y-110255810D01*
X203531236Y-110285764D01*
X203650767Y-110383862D01*
X203774936Y-110450231D01*
X203787140Y-110456754D01*
X203935113Y-110501642D01*
X204010026Y-110509020D01*
X204050439Y-110513000D01*
X204050444Y-110513000D01*
X204089000Y-110516797D01*
X204127556Y-110513000D01*
X205002492Y-110513000D01*
X205052060Y-110553679D01*
X205187875Y-110626274D01*
X205335243Y-110670977D01*
X205488500Y-110686072D01*
X205783500Y-110686072D01*
X205936757Y-110670977D01*
X206059684Y-110633688D01*
X206066820Y-110637502D01*
X206186518Y-110673812D01*
X206311000Y-110686072D01*
X206320250Y-110683000D01*
X206479000Y-110524250D01*
X206479000Y-110257763D01*
X206509274Y-110201125D01*
X206553977Y-110053757D01*
X206569072Y-109900500D01*
X206569072Y-109855000D01*
X206733000Y-109855000D01*
X206733000Y-110524250D01*
X206891750Y-110683000D01*
X206901000Y-110686072D01*
X207025482Y-110673812D01*
X207145180Y-110637502D01*
X207255494Y-110578537D01*
X207352185Y-110499185D01*
X207431537Y-110402494D01*
X207490502Y-110292180D01*
X207526812Y-110172482D01*
X207539072Y-110048000D01*
X207536000Y-110013750D01*
X207377250Y-109855000D01*
X206733000Y-109855000D01*
X206569072Y-109855000D01*
X206569072Y-109555500D01*
X206553977Y-109402243D01*
X206509274Y-109254875D01*
X206479000Y-109198237D01*
X206479000Y-108987763D01*
X206509274Y-108931125D01*
X206553977Y-108783757D01*
X206569072Y-108630500D01*
X206569072Y-108585000D01*
X206733000Y-108585000D01*
X206733000Y-109601000D01*
X207377250Y-109601000D01*
X207536000Y-109442250D01*
X207539072Y-109408000D01*
X207526812Y-109283518D01*
X207490502Y-109163820D01*
X207452647Y-109093000D01*
X207490502Y-109022180D01*
X207526812Y-108902482D01*
X207539072Y-108778000D01*
X207536000Y-108743750D01*
X207377250Y-108585000D01*
X206733000Y-108585000D01*
X206569072Y-108585000D01*
X206569072Y-108285500D01*
X206553977Y-108132243D01*
X206509274Y-107984875D01*
X206479000Y-107928237D01*
X206479000Y-107880250D01*
X206502000Y-107857250D01*
X206502000Y-107661750D01*
X206733000Y-107661750D01*
X206733000Y-108331000D01*
X207377250Y-108331000D01*
X207536000Y-108172250D01*
X207539072Y-108138000D01*
X207526812Y-108013518D01*
X207490502Y-107893820D01*
X207431537Y-107783506D01*
X207423336Y-107773513D01*
X207454537Y-107735494D01*
X207513502Y-107625180D01*
X207549812Y-107505482D01*
X207562072Y-107381000D01*
X207559000Y-107346750D01*
X207400250Y-107188000D01*
X206756000Y-107188000D01*
X206756000Y-107638750D01*
X206733000Y-107661750D01*
X206502000Y-107661750D01*
X206502000Y-107590763D01*
X206532274Y-107534125D01*
X206576977Y-107386757D01*
X206592072Y-107233500D01*
X206592072Y-106914000D01*
X206756000Y-106914000D01*
X206756000Y-106934000D01*
X207400250Y-106934000D01*
X207559000Y-106775250D01*
X207562072Y-106741000D01*
X207549812Y-106616518D01*
X207518002Y-106511655D01*
X207518002Y-106361252D01*
X207676750Y-106520000D01*
X207828500Y-106523072D01*
X207952982Y-106510812D01*
X208072680Y-106474502D01*
X208182994Y-106415537D01*
X208279685Y-106336185D01*
X208359037Y-106239494D01*
X208418002Y-106129180D01*
X208454312Y-106009482D01*
X208466572Y-105885000D01*
X208463500Y-105695750D01*
X208304750Y-105537000D01*
X207518000Y-105537000D01*
X207518000Y-105557000D01*
X207264000Y-105557000D01*
X207264000Y-105537000D01*
X207244000Y-105537000D01*
X207244000Y-105283000D01*
X207264000Y-105283000D01*
X207264000Y-105263000D01*
X207518000Y-105263000D01*
X207518000Y-105283000D01*
X208304750Y-105283000D01*
X208463500Y-105124250D01*
X208466572Y-104935000D01*
X208454312Y-104810518D01*
X208418002Y-104690820D01*
X208359037Y-104580506D01*
X208279685Y-104483815D01*
X208182994Y-104404463D01*
X208072680Y-104345498D01*
X208000302Y-104323542D01*
X208035812Y-104206482D01*
X208048072Y-104082000D01*
X208048072Y-103182000D01*
X208035812Y-103057518D01*
X207999502Y-102937820D01*
X207996391Y-102932000D01*
X207999502Y-102926180D01*
X208035812Y-102806482D01*
X208048072Y-102682000D01*
X208045000Y-102517750D01*
X207886250Y-102359000D01*
X207137000Y-102359000D01*
X207137000Y-102379000D01*
X206948072Y-102379000D01*
X206948072Y-102085000D01*
X207137000Y-102085000D01*
X207137000Y-102105000D01*
X207886250Y-102105000D01*
X208045000Y-101946250D01*
X208048072Y-101782000D01*
X208035812Y-101657518D01*
X207999502Y-101537820D01*
X207948227Y-101441892D01*
X208006500Y-101443072D01*
X208130982Y-101430812D01*
X208250680Y-101394502D01*
X208360994Y-101335537D01*
X208457685Y-101256185D01*
X208537037Y-101159494D01*
X208596002Y-101049180D01*
X208632312Y-100929482D01*
X208644572Y-100805000D01*
X208641500Y-100615750D01*
X208482750Y-100457000D01*
X207696000Y-100457000D01*
X207696000Y-100477000D01*
X207442000Y-100477000D01*
X207442000Y-100457000D01*
X207422000Y-100457000D01*
X207422000Y-100203000D01*
X207442000Y-100203000D01*
X207442000Y-99378750D01*
X207696000Y-99378750D01*
X207696000Y-100203000D01*
X208482750Y-100203000D01*
X208641500Y-100044250D01*
X208644572Y-99855000D01*
X208632312Y-99730518D01*
X208596002Y-99610820D01*
X208537037Y-99500506D01*
X208457685Y-99403815D01*
X208360994Y-99324463D01*
X208250680Y-99265498D01*
X208130982Y-99229188D01*
X208006500Y-99216928D01*
X207854750Y-99220000D01*
X207696000Y-99378750D01*
X207442000Y-99378750D01*
X207283250Y-99220000D01*
X207131500Y-99216928D01*
X207007018Y-99229188D01*
X206887320Y-99265498D01*
X206777006Y-99324463D01*
X206710430Y-99379100D01*
X206688775Y-99361329D01*
X206540642Y-99282150D01*
X206379908Y-99233392D01*
X206212750Y-99216928D01*
X205775250Y-99216928D01*
X205608092Y-99233392D01*
X205594684Y-99237459D01*
X205592226Y-99225102D01*
X205539993Y-99099000D01*
X209839928Y-99099000D01*
X209843000Y-99663250D01*
X210001750Y-99822000D01*
X211201000Y-99822000D01*
X211201000Y-98622750D01*
X211042250Y-98464000D01*
X210478000Y-98460928D01*
X210353518Y-98473188D01*
X210233820Y-98509498D01*
X210123506Y-98568463D01*
X210026815Y-98647815D01*
X209947463Y-98744506D01*
X209888498Y-98854820D01*
X209852188Y-98974518D01*
X209839928Y-99099000D01*
X205539993Y-99099000D01*
X205514205Y-99036744D01*
X205400937Y-98867226D01*
X205256774Y-98723063D01*
X205087256Y-98609795D01*
X204898898Y-98531774D01*
X204698939Y-98492000D01*
X204495061Y-98492000D01*
X204295102Y-98531774D01*
X204106744Y-98609795D01*
X203937226Y-98723063D01*
X203793063Y-98867226D01*
X203726052Y-98967515D01*
X203686437Y-98908226D01*
X203542274Y-98764063D01*
X203372756Y-98650795D01*
X203184398Y-98572774D01*
X202984439Y-98533000D01*
X202780561Y-98533000D01*
X202580602Y-98572774D01*
X202392244Y-98650795D01*
X202222726Y-98764063D01*
X202078563Y-98908226D01*
X201965295Y-99077744D01*
X201887274Y-99266102D01*
X201877583Y-99314820D01*
X201777939Y-99295000D01*
X201574061Y-99295000D01*
X201374102Y-99334774D01*
X201185744Y-99412795D01*
X201016226Y-99526063D01*
X200904087Y-99638202D01*
X200893226Y-99583602D01*
X200815205Y-99395244D01*
X200701937Y-99225726D01*
X200557774Y-99081563D01*
X200388256Y-98968295D01*
X200199898Y-98890274D01*
X199999939Y-98850500D01*
X199796061Y-98850500D01*
X199596102Y-98890274D01*
X199407744Y-98968295D01*
X199238226Y-99081563D01*
X199194289Y-99125500D01*
X195199325Y-99125500D01*
X195162000Y-99121824D01*
X195124675Y-99125500D01*
X195124667Y-99125500D01*
X195013014Y-99136497D01*
X194869753Y-99179954D01*
X194737724Y-99250526D01*
X194643275Y-99328038D01*
X194592205Y-99204744D01*
X194478937Y-99035226D01*
X194334774Y-98891063D01*
X194165256Y-98777795D01*
X193976898Y-98699774D01*
X193776939Y-98660000D01*
X193573061Y-98660000D01*
X193373102Y-98699774D01*
X193184744Y-98777795D01*
X193015226Y-98891063D01*
X192871063Y-99035226D01*
X192757795Y-99204744D01*
X192679774Y-99393102D01*
X192640000Y-99593061D01*
X192640000Y-99796939D01*
X192679774Y-99996898D01*
X192757795Y-100185256D01*
X192871063Y-100354774D01*
X192915000Y-100398711D01*
X192915001Y-104261788D01*
X192871063Y-104305726D01*
X192757795Y-104475244D01*
X192679774Y-104663602D01*
X192640000Y-104863561D01*
X192640000Y-105067439D01*
X192679774Y-105267398D01*
X192757795Y-105455756D01*
X192871063Y-105625274D01*
X193015226Y-105769437D01*
X193184744Y-105882705D01*
X193373102Y-105960726D01*
X193496021Y-105985176D01*
X193354502Y-106126694D01*
X193325499Y-106150497D01*
X193276287Y-106210463D01*
X193230526Y-106266222D01*
X193184473Y-106352380D01*
X193159954Y-106398252D01*
X193116497Y-106541513D01*
X193105500Y-106653166D01*
X193105500Y-106653176D01*
X193101824Y-106690498D01*
X193105500Y-106727820D01*
X193105500Y-106801789D01*
X193061563Y-106845726D01*
X192948295Y-107015244D01*
X192870274Y-107203602D01*
X192830500Y-107403561D01*
X192830500Y-107607439D01*
X192870274Y-107807398D01*
X192948295Y-107995756D01*
X193061563Y-108165274D01*
X193205726Y-108309437D01*
X193375244Y-108422705D01*
X193563602Y-108500726D01*
X193763561Y-108540500D01*
X193967439Y-108540500D01*
X194167398Y-108500726D01*
X194242832Y-108469480D01*
X194227500Y-108546561D01*
X194227500Y-108750439D01*
X194267274Y-108950398D01*
X194299004Y-109027000D01*
X194205998Y-109027000D01*
X194205998Y-109185748D01*
X194047250Y-109027000D01*
X194038000Y-109023928D01*
X193913518Y-109036188D01*
X193793820Y-109072498D01*
X193683506Y-109131463D01*
X193586815Y-109210815D01*
X193507463Y-109307506D01*
X193448498Y-109417820D01*
X193412188Y-109537518D01*
X193399928Y-109662000D01*
X193403000Y-109696250D01*
X193561750Y-109855000D01*
X194206000Y-109855000D01*
X194206000Y-109835000D01*
X194369928Y-109835000D01*
X194369928Y-110154500D01*
X194385023Y-110307757D01*
X194429726Y-110455125D01*
X194460000Y-110511763D01*
X194460000Y-110778250D01*
X194618750Y-110937000D01*
X194628000Y-110940072D01*
X194752482Y-110927812D01*
X194872180Y-110891502D01*
X194879316Y-110887688D01*
X195002243Y-110924977D01*
X195155500Y-110940072D01*
X195329152Y-110940072D01*
X195327928Y-110952500D01*
X195327928Y-111297500D01*
X195343023Y-111450757D01*
X195387726Y-111598125D01*
X195460321Y-111733940D01*
X195558017Y-111852983D01*
X195677060Y-111950679D01*
X195812875Y-112023274D01*
X195960243Y-112067977D01*
X196113500Y-112083072D01*
X196408500Y-112083072D01*
X196531811Y-112070927D01*
X196526928Y-112120500D01*
X196526928Y-112415500D01*
X196542023Y-112568757D01*
X196586726Y-112716125D01*
X196587967Y-112718446D01*
X196524482Y-112699188D01*
X196400000Y-112686928D01*
X196210750Y-112690000D01*
X196052000Y-112848750D01*
X196052000Y-113635500D01*
X196072000Y-113635500D01*
X196072000Y-113889500D01*
X196052000Y-113889500D01*
X196052000Y-113909500D01*
X195798000Y-113909500D01*
X195798000Y-113889500D01*
X194973750Y-113889500D01*
X194815000Y-114048250D01*
X194811928Y-114200000D01*
X194824188Y-114324482D01*
X194834132Y-114357262D01*
X194671939Y-114325000D01*
X194468061Y-114325000D01*
X194268102Y-114364774D01*
X194079744Y-114442795D01*
X193910226Y-114556063D01*
X193766063Y-114700226D01*
X193652795Y-114869744D01*
X193574774Y-115058102D01*
X193535000Y-115258061D01*
X193535000Y-115461939D01*
X193574774Y-115661898D01*
X193652795Y-115850256D01*
X193766063Y-116019774D01*
X193910226Y-116163937D01*
X194079744Y-116277205D01*
X194268102Y-116355226D01*
X194468061Y-116395000D01*
X194671939Y-116395000D01*
X194871898Y-116355226D01*
X194880881Y-116351505D01*
X194903259Y-116464009D01*
X194832250Y-116393000D01*
X194823000Y-116389928D01*
X194698518Y-116402188D01*
X194578820Y-116438498D01*
X194468506Y-116497463D01*
X194371815Y-116576815D01*
X194292463Y-116673506D01*
X194233498Y-116783820D01*
X194197188Y-116903518D01*
X194184928Y-117028000D01*
X194188000Y-117062250D01*
X194346750Y-117221000D01*
X194991000Y-117221000D01*
X194991000Y-117201000D01*
X195154928Y-117201000D01*
X195154928Y-117520500D01*
X195170023Y-117673757D01*
X195214726Y-117821125D01*
X195245000Y-117877763D01*
X195245000Y-118144250D01*
X195403750Y-118303000D01*
X195413000Y-118306072D01*
X195537482Y-118293812D01*
X195657180Y-118257502D01*
X195664316Y-118253688D01*
X195787243Y-118290977D01*
X195940500Y-118306072D01*
X196235500Y-118306072D01*
X196388757Y-118290977D01*
X196458366Y-118269862D01*
X196494774Y-118452898D01*
X196572795Y-118641256D01*
X196686063Y-118810774D01*
X196830226Y-118954937D01*
X196999744Y-119068205D01*
X197188102Y-119146226D01*
X197249938Y-119158526D01*
X197148933Y-119178617D01*
X196942376Y-119264176D01*
X196756480Y-119388388D01*
X196598388Y-119546480D01*
X196474176Y-119732376D01*
X196388617Y-119938933D01*
X196345000Y-120158212D01*
X196345000Y-120227841D01*
X196344188Y-120230518D01*
X196331928Y-120355000D01*
X196331928Y-120669343D01*
X196280750Y-120670000D01*
X196122000Y-120828750D01*
X196122000Y-122278000D01*
X196142000Y-122278000D01*
X196142000Y-122532000D01*
X196122000Y-122532000D01*
X196122000Y-123981250D01*
X196280750Y-124140000D01*
X196409102Y-124141648D01*
X196335000Y-124215750D01*
X196331928Y-124455000D01*
X196342466Y-124562000D01*
X188682724Y-124562000D01*
X188681483Y-123505000D01*
X194831928Y-123505000D01*
X194844188Y-123629482D01*
X194880498Y-123749180D01*
X194939463Y-123859494D01*
X195018815Y-123956185D01*
X195115506Y-124035537D01*
X195225820Y-124094502D01*
X195345518Y-124130812D01*
X195470000Y-124143072D01*
X195709250Y-124140000D01*
X195868000Y-123981250D01*
X195868000Y-122532000D01*
X194993750Y-122532000D01*
X194835000Y-122690750D01*
X194831928Y-123505000D01*
X188681483Y-123505000D01*
X188678898Y-121305000D01*
X194831928Y-121305000D01*
X194835000Y-122119250D01*
X194993750Y-122278000D01*
X195868000Y-122278000D01*
X195868000Y-120828750D01*
X195709250Y-120670000D01*
X195470000Y-120666928D01*
X195345518Y-120679188D01*
X195225820Y-120715498D01*
X195115506Y-120774463D01*
X195018815Y-120853815D01*
X194939463Y-120950506D01*
X194880498Y-121060820D01*
X194844188Y-121180518D01*
X194831928Y-121305000D01*
X188678898Y-121305000D01*
X188675694Y-118579000D01*
X189519928Y-118579000D01*
X189532188Y-118703482D01*
X189568498Y-118823180D01*
X189627463Y-118933494D01*
X189706815Y-119030185D01*
X189803506Y-119109537D01*
X189913820Y-119168502D01*
X190033518Y-119204812D01*
X190158000Y-119217072D01*
X190722250Y-119214000D01*
X190881000Y-119055250D01*
X190881000Y-117856000D01*
X191135000Y-117856000D01*
X191135000Y-119055250D01*
X191293750Y-119214000D01*
X191858000Y-119217072D01*
X191982482Y-119204812D01*
X192102180Y-119168502D01*
X192212494Y-119109537D01*
X192309185Y-119030185D01*
X192388537Y-118933494D01*
X192447502Y-118823180D01*
X192483812Y-118703482D01*
X192496072Y-118579000D01*
X192493000Y-118014750D01*
X192334250Y-117856000D01*
X191135000Y-117856000D01*
X190881000Y-117856000D01*
X189681750Y-117856000D01*
X189523000Y-118014750D01*
X189519928Y-118579000D01*
X188675694Y-118579000D01*
X188674624Y-117668000D01*
X194184928Y-117668000D01*
X194197188Y-117792482D01*
X194233498Y-117912180D01*
X194292463Y-118022494D01*
X194371815Y-118119185D01*
X194468506Y-118198537D01*
X194578820Y-118257502D01*
X194698518Y-118293812D01*
X194823000Y-118306072D01*
X194832250Y-118303000D01*
X194991000Y-118144250D01*
X194991000Y-117475000D01*
X194346750Y-117475000D01*
X194188000Y-117633750D01*
X194184928Y-117668000D01*
X188674624Y-117668000D01*
X188654801Y-100799000D01*
X189519928Y-100799000D01*
X189532188Y-100923482D01*
X189568498Y-101043180D01*
X189627463Y-101153494D01*
X189706815Y-101250185D01*
X189803506Y-101329537D01*
X189913820Y-101388502D01*
X189986380Y-101410513D01*
X189854525Y-101542368D01*
X189692010Y-101785589D01*
X189580068Y-102055842D01*
X189523000Y-102342740D01*
X189523000Y-102635260D01*
X189580068Y-102922158D01*
X189692010Y-103192411D01*
X189854525Y-103435632D01*
X190061368Y-103642475D01*
X190235760Y-103759000D01*
X190061368Y-103875525D01*
X189854525Y-104082368D01*
X189692010Y-104325589D01*
X189580068Y-104595842D01*
X189523000Y-104882740D01*
X189523000Y-105175260D01*
X189580068Y-105462158D01*
X189692010Y-105732411D01*
X189854525Y-105975632D01*
X190061368Y-106182475D01*
X190235760Y-106299000D01*
X190061368Y-106415525D01*
X189854525Y-106622368D01*
X189692010Y-106865589D01*
X189580068Y-107135842D01*
X189523000Y-107422740D01*
X189523000Y-107715260D01*
X189580068Y-108002158D01*
X189692010Y-108272411D01*
X189854525Y-108515632D01*
X190061368Y-108722475D01*
X190235760Y-108839000D01*
X190061368Y-108955525D01*
X189854525Y-109162368D01*
X189692010Y-109405589D01*
X189580068Y-109675842D01*
X189523000Y-109962740D01*
X189523000Y-110255260D01*
X189580068Y-110542158D01*
X189692010Y-110812411D01*
X189854525Y-111055632D01*
X190061368Y-111262475D01*
X190235760Y-111379000D01*
X190061368Y-111495525D01*
X189854525Y-111702368D01*
X189692010Y-111945589D01*
X189580068Y-112215842D01*
X189523000Y-112502740D01*
X189523000Y-112795260D01*
X189580068Y-113082158D01*
X189692010Y-113352411D01*
X189854525Y-113595632D01*
X190061368Y-113802475D01*
X190235760Y-113919000D01*
X190061368Y-114035525D01*
X189854525Y-114242368D01*
X189692010Y-114485589D01*
X189580068Y-114755842D01*
X189523000Y-115042740D01*
X189523000Y-115335260D01*
X189580068Y-115622158D01*
X189692010Y-115892411D01*
X189854525Y-116135632D01*
X189986380Y-116267487D01*
X189913820Y-116289498D01*
X189803506Y-116348463D01*
X189706815Y-116427815D01*
X189627463Y-116524506D01*
X189568498Y-116634820D01*
X189532188Y-116754518D01*
X189519928Y-116879000D01*
X189523000Y-117443250D01*
X189681750Y-117602000D01*
X190881000Y-117602000D01*
X190881000Y-117582000D01*
X191135000Y-117582000D01*
X191135000Y-117602000D01*
X192334250Y-117602000D01*
X192493000Y-117443250D01*
X192496072Y-116879000D01*
X192483812Y-116754518D01*
X192447502Y-116634820D01*
X192388537Y-116524506D01*
X192309185Y-116427815D01*
X192212494Y-116348463D01*
X192102180Y-116289498D01*
X192029620Y-116267487D01*
X192161475Y-116135632D01*
X192323990Y-115892411D01*
X192435932Y-115622158D01*
X192493000Y-115335260D01*
X192493000Y-115042740D01*
X192435932Y-114755842D01*
X192323990Y-114485589D01*
X192161475Y-114242368D01*
X191954632Y-114035525D01*
X191780240Y-113919000D01*
X191954632Y-113802475D01*
X192161475Y-113595632D01*
X192323990Y-113352411D01*
X192335343Y-113325000D01*
X194811928Y-113325000D01*
X194815000Y-113476750D01*
X194973750Y-113635500D01*
X195798000Y-113635500D01*
X195798000Y-112848750D01*
X195639250Y-112690000D01*
X195450000Y-112686928D01*
X195325518Y-112699188D01*
X195205820Y-112735498D01*
X195095506Y-112794463D01*
X194998815Y-112873815D01*
X194919463Y-112970506D01*
X194860498Y-113080820D01*
X194824188Y-113200518D01*
X194811928Y-113325000D01*
X192335343Y-113325000D01*
X192435932Y-113082158D01*
X192493000Y-112795260D01*
X192493000Y-112502740D01*
X192435932Y-112215842D01*
X192323990Y-111945589D01*
X192161475Y-111702368D01*
X191954632Y-111495525D01*
X191780240Y-111379000D01*
X191954632Y-111262475D01*
X192161475Y-111055632D01*
X192323990Y-110812411D01*
X192435932Y-110542158D01*
X192483702Y-110302000D01*
X193399928Y-110302000D01*
X193412188Y-110426482D01*
X193448498Y-110546180D01*
X193507463Y-110656494D01*
X193586815Y-110753185D01*
X193683506Y-110832537D01*
X193793820Y-110891502D01*
X193913518Y-110927812D01*
X194038000Y-110940072D01*
X194047250Y-110937000D01*
X194206000Y-110778250D01*
X194206000Y-110109000D01*
X193561750Y-110109000D01*
X193403000Y-110267750D01*
X193399928Y-110302000D01*
X192483702Y-110302000D01*
X192493000Y-110255260D01*
X192493000Y-109962740D01*
X192435932Y-109675842D01*
X192323990Y-109405589D01*
X192161475Y-109162368D01*
X191954632Y-108955525D01*
X191780240Y-108839000D01*
X191954632Y-108722475D01*
X192161475Y-108515632D01*
X192323990Y-108272411D01*
X192435932Y-108002158D01*
X192493000Y-107715260D01*
X192493000Y-107422740D01*
X192435932Y-107135842D01*
X192323990Y-106865589D01*
X192161475Y-106622368D01*
X191954632Y-106415525D01*
X191780240Y-106299000D01*
X191954632Y-106182475D01*
X192161475Y-105975632D01*
X192323990Y-105732411D01*
X192435932Y-105462158D01*
X192493000Y-105175260D01*
X192493000Y-104882740D01*
X192435932Y-104595842D01*
X192323990Y-104325589D01*
X192161475Y-104082368D01*
X191954632Y-103875525D01*
X191780240Y-103759000D01*
X191954632Y-103642475D01*
X192161475Y-103435632D01*
X192323990Y-103192411D01*
X192435932Y-102922158D01*
X192493000Y-102635260D01*
X192493000Y-102342740D01*
X192435932Y-102055842D01*
X192323990Y-101785589D01*
X192161475Y-101542368D01*
X192029620Y-101410513D01*
X192102180Y-101388502D01*
X192212494Y-101329537D01*
X192309185Y-101250185D01*
X192388537Y-101153494D01*
X192447502Y-101043180D01*
X192483812Y-100923482D01*
X192496072Y-100799000D01*
X192493000Y-100234750D01*
X192334250Y-100076000D01*
X191135000Y-100076000D01*
X191135000Y-100096000D01*
X190881000Y-100096000D01*
X190881000Y-100076000D01*
X189681750Y-100076000D01*
X189523000Y-100234750D01*
X189519928Y-100799000D01*
X188654801Y-100799000D01*
X188652803Y-99099000D01*
X189519928Y-99099000D01*
X189523000Y-99663250D01*
X189681750Y-99822000D01*
X190881000Y-99822000D01*
X190881000Y-98622750D01*
X191135000Y-98622750D01*
X191135000Y-99822000D01*
X192334250Y-99822000D01*
X192493000Y-99663250D01*
X192496072Y-99099000D01*
X192483812Y-98974518D01*
X192447502Y-98854820D01*
X192388537Y-98744506D01*
X192309185Y-98647815D01*
X192212494Y-98568463D01*
X192102180Y-98509498D01*
X191982482Y-98473188D01*
X191858000Y-98460928D01*
X191293750Y-98464000D01*
X191135000Y-98622750D01*
X190881000Y-98622750D01*
X190722250Y-98464000D01*
X190158000Y-98460928D01*
X190033518Y-98473188D01*
X189913820Y-98509498D01*
X189803506Y-98568463D01*
X189706815Y-98647815D01*
X189627463Y-98744506D01*
X189568498Y-98854820D01*
X189532188Y-98974518D01*
X189519928Y-99099000D01*
X188652803Y-99099000D01*
X188651977Y-98396374D01*
X198396581Y-98380814D01*
X198453102Y-98404226D01*
X198653061Y-98444000D01*
X198856939Y-98444000D01*
X199056898Y-98404226D01*
X199116193Y-98379665D01*
X200038460Y-98378192D01*
X200050061Y-98380500D01*
X200253939Y-98380500D01*
X200267378Y-98377827D01*
X202116049Y-98374875D01*
X202138244Y-98389705D01*
X202326602Y-98467726D01*
X202526561Y-98507500D01*
X202730439Y-98507500D01*
X202930398Y-98467726D01*
X203118756Y-98389705D01*
X203143406Y-98373234D01*
X212028744Y-98359046D01*
X212130883Y-98461185D01*
G37*
X212130883Y-98461185D02*
X211613750Y-98464000D01*
X211455000Y-98622750D01*
X211455000Y-99822000D01*
X211475000Y-99822000D01*
X211475000Y-100076000D01*
X211455000Y-100076000D01*
X211455000Y-100096000D01*
X211201000Y-100096000D01*
X211201000Y-100076000D01*
X210001750Y-100076000D01*
X209843000Y-100234750D01*
X209839928Y-100799000D01*
X209852188Y-100923482D01*
X209888498Y-101043180D01*
X209947463Y-101153494D01*
X210026815Y-101250185D01*
X210123506Y-101329537D01*
X210233820Y-101388502D01*
X210306380Y-101410513D01*
X210174525Y-101542368D01*
X210012010Y-101785589D01*
X209900068Y-102055842D01*
X209843000Y-102342740D01*
X209843000Y-102635260D01*
X209900068Y-102922158D01*
X210012010Y-103192411D01*
X210174525Y-103435632D01*
X210381368Y-103642475D01*
X210555760Y-103759000D01*
X210381368Y-103875525D01*
X210174525Y-104082368D01*
X210012010Y-104325589D01*
X209900068Y-104595842D01*
X209843000Y-104882740D01*
X209843000Y-105175260D01*
X209900068Y-105462158D01*
X210012010Y-105732411D01*
X210174525Y-105975632D01*
X210381368Y-106182475D01*
X210555760Y-106299000D01*
X210381368Y-106415525D01*
X210174525Y-106622368D01*
X210012010Y-106865589D01*
X209900068Y-107135842D01*
X209843000Y-107422740D01*
X209843000Y-107715260D01*
X209900068Y-108002158D01*
X210012010Y-108272411D01*
X210174525Y-108515632D01*
X210381368Y-108722475D01*
X210555760Y-108839000D01*
X210381368Y-108955525D01*
X210174525Y-109162368D01*
X210012010Y-109405589D01*
X209900068Y-109675842D01*
X209843000Y-109962740D01*
X209843000Y-110255260D01*
X209900068Y-110542158D01*
X210012010Y-110812411D01*
X210174525Y-111055632D01*
X210381368Y-111262475D01*
X210555760Y-111379000D01*
X210381368Y-111495525D01*
X210174525Y-111702368D01*
X210012010Y-111945589D01*
X209900068Y-112215842D01*
X209843000Y-112502740D01*
X209843000Y-112795260D01*
X209900068Y-113082158D01*
X210012010Y-113352411D01*
X210174525Y-113595632D01*
X210381368Y-113802475D01*
X210555760Y-113919000D01*
X210381368Y-114035525D01*
X210174525Y-114242368D01*
X210012010Y-114485589D01*
X209900068Y-114755842D01*
X209843000Y-115042740D01*
X209843000Y-115335260D01*
X209900068Y-115622158D01*
X210012010Y-115892411D01*
X210174525Y-116135632D01*
X210306380Y-116267487D01*
X210233820Y-116289498D01*
X210123506Y-116348463D01*
X210026815Y-116427815D01*
X209947463Y-116524506D01*
X209888498Y-116634820D01*
X209852188Y-116754518D01*
X209839928Y-116879000D01*
X209843000Y-117443250D01*
X210001750Y-117602000D01*
X211201000Y-117602000D01*
X211201000Y-117582000D01*
X211455000Y-117582000D01*
X211455000Y-117602000D01*
X212654250Y-117602000D01*
X212813000Y-117443250D01*
X212816072Y-116879000D01*
X212803812Y-116754518D01*
X212767502Y-116634820D01*
X212708537Y-116524506D01*
X212629185Y-116427815D01*
X212532494Y-116348463D01*
X212422180Y-116289498D01*
X212349620Y-116267487D01*
X212481475Y-116135632D01*
X212643990Y-115892411D01*
X212755932Y-115622158D01*
X212813000Y-115335260D01*
X212813000Y-115042740D01*
X212755932Y-114755842D01*
X212643990Y-114485589D01*
X212481475Y-114242368D01*
X212274632Y-114035525D01*
X212100240Y-113919000D01*
X212274632Y-113802475D01*
X212481475Y-113595632D01*
X212643990Y-113352411D01*
X212755932Y-113082158D01*
X212813000Y-112795260D01*
X212813000Y-112502740D01*
X212755932Y-112215842D01*
X212643990Y-111945589D01*
X212481475Y-111702368D01*
X212274632Y-111495525D01*
X212100240Y-111379000D01*
X212274632Y-111262475D01*
X212481475Y-111055632D01*
X212643990Y-110812411D01*
X212755932Y-110542158D01*
X212813000Y-110255260D01*
X212813000Y-109962740D01*
X212755932Y-109675842D01*
X212643990Y-109405589D01*
X212481475Y-109162368D01*
X212274632Y-108955525D01*
X212100240Y-108839000D01*
X212274632Y-108722475D01*
X212481475Y-108515632D01*
X212613071Y-108318684D01*
X212619986Y-108318003D01*
X212763247Y-108274546D01*
X212895276Y-108203974D01*
X212954001Y-108155780D01*
X212954001Y-124562000D01*
X198597534Y-124562000D01*
X198608072Y-124455000D01*
X198605000Y-124215750D01*
X198530898Y-124141648D01*
X198659250Y-124140000D01*
X198818000Y-123981250D01*
X198818000Y-122532000D01*
X199072000Y-122532000D01*
X199072000Y-123981250D01*
X199230750Y-124140000D01*
X199470000Y-124143072D01*
X199594482Y-124130812D01*
X199714180Y-124094502D01*
X199824494Y-124035537D01*
X199921185Y-123956185D01*
X200000537Y-123859494D01*
X200059502Y-123749180D01*
X200095812Y-123629482D01*
X200108072Y-123505000D01*
X200105000Y-122690750D01*
X199946250Y-122532000D01*
X199072000Y-122532000D01*
X198818000Y-122532000D01*
X198798000Y-122532000D01*
X198798000Y-122278000D01*
X198818000Y-122278000D01*
X198818000Y-120828750D01*
X199072000Y-120828750D01*
X199072000Y-122278000D01*
X199946250Y-122278000D01*
X200105000Y-122119250D01*
X200108072Y-121305000D01*
X200095812Y-121180518D01*
X200059502Y-121060820D01*
X200000537Y-120950506D01*
X199921185Y-120853815D01*
X199824494Y-120774463D01*
X199714180Y-120715498D01*
X199594482Y-120679188D01*
X199470000Y-120666928D01*
X199230750Y-120670000D01*
X199072000Y-120828750D01*
X198818000Y-120828750D01*
X198659250Y-120670000D01*
X198608072Y-120669343D01*
X198608072Y-120416618D01*
X198615000Y-120381788D01*
X198615000Y-120158212D01*
X198571383Y-119938933D01*
X198485824Y-119732376D01*
X198361612Y-119546480D01*
X198203520Y-119388388D01*
X198017624Y-119264176D01*
X197811067Y-119178617D01*
X197720062Y-119160515D01*
X197791898Y-119146226D01*
X197980256Y-119068205D01*
X198149774Y-118954937D01*
X198293937Y-118810774D01*
X198407205Y-118641256D01*
X198432992Y-118579000D01*
X209839928Y-118579000D01*
X209852188Y-118703482D01*
X209888498Y-118823180D01*
X209947463Y-118933494D01*
X210026815Y-119030185D01*
X210123506Y-119109537D01*
X210233820Y-119168502D01*
X210353518Y-119204812D01*
X210478000Y-119217072D01*
X211042250Y-119214000D01*
X211201000Y-119055250D01*
X211201000Y-117856000D01*
X211455000Y-117856000D01*
X211455000Y-119055250D01*
X211613750Y-119214000D01*
X212178000Y-119217072D01*
X212302482Y-119204812D01*
X212422180Y-119168502D01*
X212532494Y-119109537D01*
X212629185Y-119030185D01*
X212708537Y-118933494D01*
X212767502Y-118823180D01*
X212803812Y-118703482D01*
X212816072Y-118579000D01*
X212813000Y-118014750D01*
X212654250Y-117856000D01*
X211455000Y-117856000D01*
X211201000Y-117856000D01*
X210001750Y-117856000D01*
X209843000Y-118014750D01*
X209839928Y-118579000D01*
X198432992Y-118579000D01*
X198485226Y-118452898D01*
X198525000Y-118252939D01*
X198525000Y-118049061D01*
X198485226Y-117849102D01*
X198417097Y-117684625D01*
X198427977Y-117648757D01*
X198443072Y-117495500D01*
X198443072Y-117200500D01*
X198427977Y-117047243D01*
X198383274Y-116899875D01*
X198363564Y-116863000D01*
X198383274Y-116826125D01*
X198427977Y-116678757D01*
X198443072Y-116525500D01*
X198443072Y-116255588D01*
X198454243Y-116258977D01*
X198607500Y-116274072D01*
X198902500Y-116274072D01*
X199055757Y-116258977D01*
X199178684Y-116221688D01*
X199185820Y-116225502D01*
X199305518Y-116261812D01*
X199430000Y-116274072D01*
X199439250Y-116271000D01*
X199598000Y-116112250D01*
X199598000Y-115845763D01*
X199628274Y-115789125D01*
X199672977Y-115641757D01*
X199688072Y-115488500D01*
X199688072Y-115443000D01*
X199852000Y-115443000D01*
X199852000Y-116112250D01*
X200010750Y-116271000D01*
X200020000Y-116274072D01*
X200144482Y-116261812D01*
X200264180Y-116225502D01*
X200374494Y-116166537D01*
X200471185Y-116087185D01*
X200550537Y-115990494D01*
X200609502Y-115880180D01*
X200645812Y-115760482D01*
X200658072Y-115636000D01*
X200655000Y-115601750D01*
X200496250Y-115443000D01*
X199852000Y-115443000D01*
X199688072Y-115443000D01*
X199688072Y-115143500D01*
X199672977Y-114990243D01*
X199628274Y-114842875D01*
X199598000Y-114786237D01*
X199598000Y-114519750D01*
X199852000Y-114519750D01*
X199852000Y-115189000D01*
X200496250Y-115189000D01*
X200655000Y-115030250D01*
X200658072Y-114996000D01*
X200645812Y-114871518D01*
X200609502Y-114751820D01*
X200550537Y-114641506D01*
X200471185Y-114544815D01*
X200374494Y-114465463D01*
X200264180Y-114406498D01*
X200144482Y-114370188D01*
X200020000Y-114357928D01*
X200010750Y-114361000D01*
X199852000Y-114519750D01*
X199598000Y-114519750D01*
X199439250Y-114361000D01*
X199430000Y-114357928D01*
X199305518Y-114370188D01*
X199185820Y-114406498D01*
X199178684Y-114410312D01*
X199055757Y-114373023D01*
X198902500Y-114357928D01*
X198607500Y-114357928D01*
X198454243Y-114373023D01*
X198443072Y-114376412D01*
X198443072Y-114198500D01*
X198427977Y-114045243D01*
X198383274Y-113897875D01*
X198326682Y-113792000D01*
X198383274Y-113686125D01*
X198427977Y-113538757D01*
X198443072Y-113385500D01*
X198443072Y-113222386D01*
X198480500Y-113226072D01*
X198775500Y-113226072D01*
X198928757Y-113210977D01*
X199076125Y-113166274D01*
X199113000Y-113146564D01*
X199149875Y-113166274D01*
X199297243Y-113210977D01*
X199450500Y-113226072D01*
X199745500Y-113226072D01*
X199898757Y-113210977D01*
X200046125Y-113166274D01*
X200181940Y-113093679D01*
X200231508Y-113053000D01*
X200326492Y-113053000D01*
X200376060Y-113093679D01*
X200511875Y-113166274D01*
X200659243Y-113210977D01*
X200812500Y-113226072D01*
X201107500Y-113226072D01*
X201260757Y-113210977D01*
X201383684Y-113173688D01*
X201390820Y-113177502D01*
X201510518Y-113213812D01*
X201635000Y-113226072D01*
X201644250Y-113223000D01*
X201803000Y-113064250D01*
X201803000Y-112797763D01*
X201833274Y-112741125D01*
X201877977Y-112593757D01*
X201893072Y-112440500D01*
X201893072Y-112395000D01*
X202057000Y-112395000D01*
X202057000Y-113064250D01*
X202215750Y-113223000D01*
X202225000Y-113226072D01*
X202349482Y-113213812D01*
X202469180Y-113177502D01*
X202579494Y-113118537D01*
X202676185Y-113039185D01*
X202755537Y-112942494D01*
X202814502Y-112832180D01*
X202850812Y-112712482D01*
X202863072Y-112588000D01*
X202860000Y-112553750D01*
X202701250Y-112395000D01*
X202057000Y-112395000D01*
X201893072Y-112395000D01*
X201893072Y-112095500D01*
X201877977Y-111942243D01*
X201833274Y-111794875D01*
X201803000Y-111738237D01*
X201803000Y-111527763D01*
X201833274Y-111471125D01*
X201877977Y-111323757D01*
X201893072Y-111170500D01*
X201893072Y-111125000D01*
X202057000Y-111125000D01*
X202057000Y-112141000D01*
X202701250Y-112141000D01*
X202860000Y-111982250D01*
X202863072Y-111948000D01*
X202850812Y-111823518D01*
X202814502Y-111703820D01*
X202776647Y-111633000D01*
X202814502Y-111562180D01*
X202850812Y-111442482D01*
X202863072Y-111318000D01*
X202860000Y-111283750D01*
X202701250Y-111125000D01*
X202057000Y-111125000D01*
X201893072Y-111125000D01*
X201893072Y-110825500D01*
X201877977Y-110672243D01*
X201833274Y-110524875D01*
X201803000Y-110468237D01*
X201803000Y-110201750D01*
X202057000Y-110201750D01*
X202057000Y-110871000D01*
X202701250Y-110871000D01*
X202860000Y-110712250D01*
X202863072Y-110678000D01*
X202850812Y-110553518D01*
X202814502Y-110433820D01*
X202755537Y-110323506D01*
X202676185Y-110226815D01*
X202579494Y-110147463D01*
X202469180Y-110088498D01*
X202349482Y-110052188D01*
X202225000Y-110039928D01*
X202215750Y-110043000D01*
X202057000Y-110201750D01*
X201803000Y-110201750D01*
X201644250Y-110043000D01*
X201635000Y-110039928D01*
X201510518Y-110052188D01*
X201390820Y-110088498D01*
X201383684Y-110092312D01*
X201260757Y-110055023D01*
X201112587Y-110040429D01*
X200734229Y-109662072D01*
X200964200Y-109662072D01*
X201091179Y-109649566D01*
X201142000Y-109634149D01*
X201192821Y-109649566D01*
X201319800Y-109662072D01*
X201614200Y-109662072D01*
X201741179Y-109649566D01*
X201863278Y-109612527D01*
X201975805Y-109552380D01*
X202074436Y-109471436D01*
X202155380Y-109372805D01*
X202215527Y-109260278D01*
X202252566Y-109138179D01*
X202265072Y-109011200D01*
X202265072Y-108508774D01*
X202318185Y-108465185D01*
X202361774Y-108412072D01*
X202669000Y-108412072D01*
X202669000Y-109054447D01*
X202665203Y-109093000D01*
X202669000Y-109131553D01*
X202669000Y-109131560D01*
X202680359Y-109246886D01*
X202725246Y-109394859D01*
X202798138Y-109531232D01*
X202896236Y-109650764D01*
X202926190Y-109675347D01*
X203506653Y-110255810D01*
X203531236Y-110285764D01*
X203650767Y-110383862D01*
X203774936Y-110450231D01*
X203787140Y-110456754D01*
X203935113Y-110501642D01*
X204010026Y-110509020D01*
X204050439Y-110513000D01*
X204050444Y-110513000D01*
X204089000Y-110516797D01*
X204127556Y-110513000D01*
X205002492Y-110513000D01*
X205052060Y-110553679D01*
X205187875Y-110626274D01*
X205335243Y-110670977D01*
X205488500Y-110686072D01*
X205783500Y-110686072D01*
X205936757Y-110670977D01*
X206059684Y-110633688D01*
X206066820Y-110637502D01*
X206186518Y-110673812D01*
X206311000Y-110686072D01*
X206320250Y-110683000D01*
X206479000Y-110524250D01*
X206479000Y-110257763D01*
X206509274Y-110201125D01*
X206553977Y-110053757D01*
X206569072Y-109900500D01*
X206569072Y-109855000D01*
X206733000Y-109855000D01*
X206733000Y-110524250D01*
X206891750Y-110683000D01*
X206901000Y-110686072D01*
X207025482Y-110673812D01*
X207145180Y-110637502D01*
X207255494Y-110578537D01*
X207352185Y-110499185D01*
X207431537Y-110402494D01*
X207490502Y-110292180D01*
X207526812Y-110172482D01*
X207539072Y-110048000D01*
X207536000Y-110013750D01*
X207377250Y-109855000D01*
X206733000Y-109855000D01*
X206569072Y-109855000D01*
X206569072Y-109555500D01*
X206553977Y-109402243D01*
X206509274Y-109254875D01*
X206479000Y-109198237D01*
X206479000Y-108987763D01*
X206509274Y-108931125D01*
X206553977Y-108783757D01*
X206569072Y-108630500D01*
X206569072Y-108585000D01*
X206733000Y-108585000D01*
X206733000Y-109601000D01*
X207377250Y-109601000D01*
X207536000Y-109442250D01*
X207539072Y-109408000D01*
X207526812Y-109283518D01*
X207490502Y-109163820D01*
X207452647Y-109093000D01*
X207490502Y-109022180D01*
X207526812Y-108902482D01*
X207539072Y-108778000D01*
X207536000Y-108743750D01*
X207377250Y-108585000D01*
X206733000Y-108585000D01*
X206569072Y-108585000D01*
X206569072Y-108285500D01*
X206553977Y-108132243D01*
X206509274Y-107984875D01*
X206479000Y-107928237D01*
X206479000Y-107880250D01*
X206502000Y-107857250D01*
X206502000Y-107661750D01*
X206733000Y-107661750D01*
X206733000Y-108331000D01*
X207377250Y-108331000D01*
X207536000Y-108172250D01*
X207539072Y-108138000D01*
X207526812Y-108013518D01*
X207490502Y-107893820D01*
X207431537Y-107783506D01*
X207423336Y-107773513D01*
X207454537Y-107735494D01*
X207513502Y-107625180D01*
X207549812Y-107505482D01*
X207562072Y-107381000D01*
X207559000Y-107346750D01*
X207400250Y-107188000D01*
X206756000Y-107188000D01*
X206756000Y-107638750D01*
X206733000Y-107661750D01*
X206502000Y-107661750D01*
X206502000Y-107590763D01*
X206532274Y-107534125D01*
X206576977Y-107386757D01*
X206592072Y-107233500D01*
X206592072Y-106914000D01*
X206756000Y-106914000D01*
X206756000Y-106934000D01*
X207400250Y-106934000D01*
X207559000Y-106775250D01*
X207562072Y-106741000D01*
X207549812Y-106616518D01*
X207518002Y-106511655D01*
X207518002Y-106361252D01*
X207676750Y-106520000D01*
X207828500Y-106523072D01*
X207952982Y-106510812D01*
X208072680Y-106474502D01*
X208182994Y-106415537D01*
X208279685Y-106336185D01*
X208359037Y-106239494D01*
X208418002Y-106129180D01*
X208454312Y-106009482D01*
X208466572Y-105885000D01*
X208463500Y-105695750D01*
X208304750Y-105537000D01*
X207518000Y-105537000D01*
X207518000Y-105557000D01*
X207264000Y-105557000D01*
X207264000Y-105537000D01*
X207244000Y-105537000D01*
X207244000Y-105283000D01*
X207264000Y-105283000D01*
X207264000Y-105263000D01*
X207518000Y-105263000D01*
X207518000Y-105283000D01*
X208304750Y-105283000D01*
X208463500Y-105124250D01*
X208466572Y-104935000D01*
X208454312Y-104810518D01*
X208418002Y-104690820D01*
X208359037Y-104580506D01*
X208279685Y-104483815D01*
X208182994Y-104404463D01*
X208072680Y-104345498D01*
X208000302Y-104323542D01*
X208035812Y-104206482D01*
X208048072Y-104082000D01*
X208048072Y-103182000D01*
X208035812Y-103057518D01*
X207999502Y-102937820D01*
X207996391Y-102932000D01*
X207999502Y-102926180D01*
X208035812Y-102806482D01*
X208048072Y-102682000D01*
X208045000Y-102517750D01*
X207886250Y-102359000D01*
X207137000Y-102359000D01*
X207137000Y-102379000D01*
X206948072Y-102379000D01*
X206948072Y-102085000D01*
X207137000Y-102085000D01*
X207137000Y-102105000D01*
X207886250Y-102105000D01*
X208045000Y-101946250D01*
X208048072Y-101782000D01*
X208035812Y-101657518D01*
X207999502Y-101537820D01*
X207948227Y-101441892D01*
X208006500Y-101443072D01*
X208130982Y-101430812D01*
X208250680Y-101394502D01*
X208360994Y-101335537D01*
X208457685Y-101256185D01*
X208537037Y-101159494D01*
X208596002Y-101049180D01*
X208632312Y-100929482D01*
X208644572Y-100805000D01*
X208641500Y-100615750D01*
X208482750Y-100457000D01*
X207696000Y-100457000D01*
X207696000Y-100477000D01*
X207442000Y-100477000D01*
X207442000Y-100457000D01*
X207422000Y-100457000D01*
X207422000Y-100203000D01*
X207442000Y-100203000D01*
X207442000Y-99378750D01*
X207696000Y-99378750D01*
X207696000Y-100203000D01*
X208482750Y-100203000D01*
X208641500Y-100044250D01*
X208644572Y-99855000D01*
X208632312Y-99730518D01*
X208596002Y-99610820D01*
X208537037Y-99500506D01*
X208457685Y-99403815D01*
X208360994Y-99324463D01*
X208250680Y-99265498D01*
X208130982Y-99229188D01*
X208006500Y-99216928D01*
X207854750Y-99220000D01*
X207696000Y-99378750D01*
X207442000Y-99378750D01*
X207283250Y-99220000D01*
X207131500Y-99216928D01*
X207007018Y-99229188D01*
X206887320Y-99265498D01*
X206777006Y-99324463D01*
X206710430Y-99379100D01*
X206688775Y-99361329D01*
X206540642Y-99282150D01*
X206379908Y-99233392D01*
X206212750Y-99216928D01*
X205775250Y-99216928D01*
X205608092Y-99233392D01*
X205594684Y-99237459D01*
X205592226Y-99225102D01*
X205539993Y-99099000D01*
X209839928Y-99099000D01*
X209843000Y-99663250D01*
X210001750Y-99822000D01*
X211201000Y-99822000D01*
X211201000Y-98622750D01*
X211042250Y-98464000D01*
X210478000Y-98460928D01*
X210353518Y-98473188D01*
X210233820Y-98509498D01*
X210123506Y-98568463D01*
X210026815Y-98647815D01*
X209947463Y-98744506D01*
X209888498Y-98854820D01*
X209852188Y-98974518D01*
X209839928Y-99099000D01*
X205539993Y-99099000D01*
X205514205Y-99036744D01*
X205400937Y-98867226D01*
X205256774Y-98723063D01*
X205087256Y-98609795D01*
X204898898Y-98531774D01*
X204698939Y-98492000D01*
X204495061Y-98492000D01*
X204295102Y-98531774D01*
X204106744Y-98609795D01*
X203937226Y-98723063D01*
X203793063Y-98867226D01*
X203726052Y-98967515D01*
X203686437Y-98908226D01*
X203542274Y-98764063D01*
X203372756Y-98650795D01*
X203184398Y-98572774D01*
X202984439Y-98533000D01*
X202780561Y-98533000D01*
X202580602Y-98572774D01*
X202392244Y-98650795D01*
X202222726Y-98764063D01*
X202078563Y-98908226D01*
X201965295Y-99077744D01*
X201887274Y-99266102D01*
X201877583Y-99314820D01*
X201777939Y-99295000D01*
X201574061Y-99295000D01*
X201374102Y-99334774D01*
X201185744Y-99412795D01*
X201016226Y-99526063D01*
X200904087Y-99638202D01*
X200893226Y-99583602D01*
X200815205Y-99395244D01*
X200701937Y-99225726D01*
X200557774Y-99081563D01*
X200388256Y-98968295D01*
X200199898Y-98890274D01*
X199999939Y-98850500D01*
X199796061Y-98850500D01*
X199596102Y-98890274D01*
X199407744Y-98968295D01*
X199238226Y-99081563D01*
X199194289Y-99125500D01*
X195199325Y-99125500D01*
X195162000Y-99121824D01*
X195124675Y-99125500D01*
X195124667Y-99125500D01*
X195013014Y-99136497D01*
X194869753Y-99179954D01*
X194737724Y-99250526D01*
X194643275Y-99328038D01*
X194592205Y-99204744D01*
X194478937Y-99035226D01*
X194334774Y-98891063D01*
X194165256Y-98777795D01*
X193976898Y-98699774D01*
X193776939Y-98660000D01*
X193573061Y-98660000D01*
X193373102Y-98699774D01*
X193184744Y-98777795D01*
X193015226Y-98891063D01*
X192871063Y-99035226D01*
X192757795Y-99204744D01*
X192679774Y-99393102D01*
X192640000Y-99593061D01*
X192640000Y-99796939D01*
X192679774Y-99996898D01*
X192757795Y-100185256D01*
X192871063Y-100354774D01*
X192915000Y-100398711D01*
X192915001Y-104261788D01*
X192871063Y-104305726D01*
X192757795Y-104475244D01*
X192679774Y-104663602D01*
X192640000Y-104863561D01*
X192640000Y-105067439D01*
X192679774Y-105267398D01*
X192757795Y-105455756D01*
X192871063Y-105625274D01*
X193015226Y-105769437D01*
X193184744Y-105882705D01*
X193373102Y-105960726D01*
X193496021Y-105985176D01*
X193354502Y-106126694D01*
X193325499Y-106150497D01*
X193276287Y-106210463D01*
X193230526Y-106266222D01*
X193184473Y-106352380D01*
X193159954Y-106398252D01*
X193116497Y-106541513D01*
X193105500Y-106653166D01*
X193105500Y-106653176D01*
X193101824Y-106690498D01*
X193105500Y-106727820D01*
X193105500Y-106801789D01*
X193061563Y-106845726D01*
X192948295Y-107015244D01*
X192870274Y-107203602D01*
X192830500Y-107403561D01*
X192830500Y-107607439D01*
X192870274Y-107807398D01*
X192948295Y-107995756D01*
X193061563Y-108165274D01*
X193205726Y-108309437D01*
X193375244Y-108422705D01*
X193563602Y-108500726D01*
X193763561Y-108540500D01*
X193967439Y-108540500D01*
X194167398Y-108500726D01*
X194242832Y-108469480D01*
X194227500Y-108546561D01*
X194227500Y-108750439D01*
X194267274Y-108950398D01*
X194299004Y-109027000D01*
X194205998Y-109027000D01*
X194205998Y-109185748D01*
X194047250Y-109027000D01*
X194038000Y-109023928D01*
X193913518Y-109036188D01*
X193793820Y-109072498D01*
X193683506Y-109131463D01*
X193586815Y-109210815D01*
X193507463Y-109307506D01*
X193448498Y-109417820D01*
X193412188Y-109537518D01*
X193399928Y-109662000D01*
X193403000Y-109696250D01*
X193561750Y-109855000D01*
X194206000Y-109855000D01*
X194206000Y-109835000D01*
X194369928Y-109835000D01*
X194369928Y-110154500D01*
X194385023Y-110307757D01*
X194429726Y-110455125D01*
X194460000Y-110511763D01*
X194460000Y-110778250D01*
X194618750Y-110937000D01*
X194628000Y-110940072D01*
X194752482Y-110927812D01*
X194872180Y-110891502D01*
X194879316Y-110887688D01*
X195002243Y-110924977D01*
X195155500Y-110940072D01*
X195329152Y-110940072D01*
X195327928Y-110952500D01*
X195327928Y-111297500D01*
X195343023Y-111450757D01*
X195387726Y-111598125D01*
X195460321Y-111733940D01*
X195558017Y-111852983D01*
X195677060Y-111950679D01*
X195812875Y-112023274D01*
X195960243Y-112067977D01*
X196113500Y-112083072D01*
X196408500Y-112083072D01*
X196531811Y-112070927D01*
X196526928Y-112120500D01*
X196526928Y-112415500D01*
X196542023Y-112568757D01*
X196586726Y-112716125D01*
X196587967Y-112718446D01*
X196524482Y-112699188D01*
X196400000Y-112686928D01*
X196210750Y-112690000D01*
X196052000Y-112848750D01*
X196052000Y-113635500D01*
X196072000Y-113635500D01*
X196072000Y-113889500D01*
X196052000Y-113889500D01*
X196052000Y-113909500D01*
X195798000Y-113909500D01*
X195798000Y-113889500D01*
X194973750Y-113889500D01*
X194815000Y-114048250D01*
X194811928Y-114200000D01*
X194824188Y-114324482D01*
X194834132Y-114357262D01*
X194671939Y-114325000D01*
X194468061Y-114325000D01*
X194268102Y-114364774D01*
X194079744Y-114442795D01*
X193910226Y-114556063D01*
X193766063Y-114700226D01*
X193652795Y-114869744D01*
X193574774Y-115058102D01*
X193535000Y-115258061D01*
X193535000Y-115461939D01*
X193574774Y-115661898D01*
X193652795Y-115850256D01*
X193766063Y-116019774D01*
X193910226Y-116163937D01*
X194079744Y-116277205D01*
X194268102Y-116355226D01*
X194468061Y-116395000D01*
X194671939Y-116395000D01*
X194871898Y-116355226D01*
X194880881Y-116351505D01*
X194903259Y-116464009D01*
X194832250Y-116393000D01*
X194823000Y-116389928D01*
X194698518Y-116402188D01*
X194578820Y-116438498D01*
X194468506Y-116497463D01*
X194371815Y-116576815D01*
X194292463Y-116673506D01*
X194233498Y-116783820D01*
X194197188Y-116903518D01*
X194184928Y-117028000D01*
X194188000Y-117062250D01*
X194346750Y-117221000D01*
X194991000Y-117221000D01*
X194991000Y-117201000D01*
X195154928Y-117201000D01*
X195154928Y-117520500D01*
X195170023Y-117673757D01*
X195214726Y-117821125D01*
X195245000Y-117877763D01*
X195245000Y-118144250D01*
X195403750Y-118303000D01*
X195413000Y-118306072D01*
X195537482Y-118293812D01*
X195657180Y-118257502D01*
X195664316Y-118253688D01*
X195787243Y-118290977D01*
X195940500Y-118306072D01*
X196235500Y-118306072D01*
X196388757Y-118290977D01*
X196458366Y-118269862D01*
X196494774Y-118452898D01*
X196572795Y-118641256D01*
X196686063Y-118810774D01*
X196830226Y-118954937D01*
X196999744Y-119068205D01*
X197188102Y-119146226D01*
X197249938Y-119158526D01*
X197148933Y-119178617D01*
X196942376Y-119264176D01*
X196756480Y-119388388D01*
X196598388Y-119546480D01*
X196474176Y-119732376D01*
X196388617Y-119938933D01*
X196345000Y-120158212D01*
X196345000Y-120227841D01*
X196344188Y-120230518D01*
X196331928Y-120355000D01*
X196331928Y-120669343D01*
X196280750Y-120670000D01*
X196122000Y-120828750D01*
X196122000Y-122278000D01*
X196142000Y-122278000D01*
X196142000Y-122532000D01*
X196122000Y-122532000D01*
X196122000Y-123981250D01*
X196280750Y-124140000D01*
X196409102Y-124141648D01*
X196335000Y-124215750D01*
X196331928Y-124455000D01*
X196342466Y-124562000D01*
X188682724Y-124562000D01*
X188681483Y-123505000D01*
X194831928Y-123505000D01*
X194844188Y-123629482D01*
X194880498Y-123749180D01*
X194939463Y-123859494D01*
X195018815Y-123956185D01*
X195115506Y-124035537D01*
X195225820Y-124094502D01*
X195345518Y-124130812D01*
X195470000Y-124143072D01*
X195709250Y-124140000D01*
X195868000Y-123981250D01*
X195868000Y-122532000D01*
X194993750Y-122532000D01*
X194835000Y-122690750D01*
X194831928Y-123505000D01*
X188681483Y-123505000D01*
X188678898Y-121305000D01*
X194831928Y-121305000D01*
X194835000Y-122119250D01*
X194993750Y-122278000D01*
X195868000Y-122278000D01*
X195868000Y-120828750D01*
X195709250Y-120670000D01*
X195470000Y-120666928D01*
X195345518Y-120679188D01*
X195225820Y-120715498D01*
X195115506Y-120774463D01*
X195018815Y-120853815D01*
X194939463Y-120950506D01*
X194880498Y-121060820D01*
X194844188Y-121180518D01*
X194831928Y-121305000D01*
X188678898Y-121305000D01*
X188675694Y-118579000D01*
X189519928Y-118579000D01*
X189532188Y-118703482D01*
X189568498Y-118823180D01*
X189627463Y-118933494D01*
X189706815Y-119030185D01*
X189803506Y-119109537D01*
X189913820Y-119168502D01*
X190033518Y-119204812D01*
X190158000Y-119217072D01*
X190722250Y-119214000D01*
X190881000Y-119055250D01*
X190881000Y-117856000D01*
X191135000Y-117856000D01*
X191135000Y-119055250D01*
X191293750Y-119214000D01*
X191858000Y-119217072D01*
X191982482Y-119204812D01*
X192102180Y-119168502D01*
X192212494Y-119109537D01*
X192309185Y-119030185D01*
X192388537Y-118933494D01*
X192447502Y-118823180D01*
X192483812Y-118703482D01*
X192496072Y-118579000D01*
X192493000Y-118014750D01*
X192334250Y-117856000D01*
X191135000Y-117856000D01*
X190881000Y-117856000D01*
X189681750Y-117856000D01*
X189523000Y-118014750D01*
X189519928Y-118579000D01*
X188675694Y-118579000D01*
X188674624Y-117668000D01*
X194184928Y-117668000D01*
X194197188Y-117792482D01*
X194233498Y-117912180D01*
X194292463Y-118022494D01*
X194371815Y-118119185D01*
X194468506Y-118198537D01*
X194578820Y-118257502D01*
X194698518Y-118293812D01*
X194823000Y-118306072D01*
X194832250Y-118303000D01*
X194991000Y-118144250D01*
X194991000Y-117475000D01*
X194346750Y-117475000D01*
X194188000Y-117633750D01*
X194184928Y-117668000D01*
X188674624Y-117668000D01*
X188654801Y-100799000D01*
X189519928Y-100799000D01*
X189532188Y-100923482D01*
X189568498Y-101043180D01*
X189627463Y-101153494D01*
X189706815Y-101250185D01*
X189803506Y-101329537D01*
X189913820Y-101388502D01*
X189986380Y-101410513D01*
X189854525Y-101542368D01*
X189692010Y-101785589D01*
X189580068Y-102055842D01*
X189523000Y-102342740D01*
X189523000Y-102635260D01*
X189580068Y-102922158D01*
X189692010Y-103192411D01*
X189854525Y-103435632D01*
X190061368Y-103642475D01*
X190235760Y-103759000D01*
X190061368Y-103875525D01*
X189854525Y-104082368D01*
X189692010Y-104325589D01*
X189580068Y-104595842D01*
X189523000Y-104882740D01*
X189523000Y-105175260D01*
X189580068Y-105462158D01*
X189692010Y-105732411D01*
X189854525Y-105975632D01*
X190061368Y-106182475D01*
X190235760Y-106299000D01*
X190061368Y-106415525D01*
X189854525Y-106622368D01*
X189692010Y-106865589D01*
X189580068Y-107135842D01*
X189523000Y-107422740D01*
X189523000Y-107715260D01*
X189580068Y-108002158D01*
X189692010Y-108272411D01*
X189854525Y-108515632D01*
X190061368Y-108722475D01*
X190235760Y-108839000D01*
X190061368Y-108955525D01*
X189854525Y-109162368D01*
X189692010Y-109405589D01*
X189580068Y-109675842D01*
X189523000Y-109962740D01*
X189523000Y-110255260D01*
X189580068Y-110542158D01*
X189692010Y-110812411D01*
X189854525Y-111055632D01*
X190061368Y-111262475D01*
X190235760Y-111379000D01*
X190061368Y-111495525D01*
X189854525Y-111702368D01*
X189692010Y-111945589D01*
X189580068Y-112215842D01*
X189523000Y-112502740D01*
X189523000Y-112795260D01*
X189580068Y-113082158D01*
X189692010Y-113352411D01*
X189854525Y-113595632D01*
X190061368Y-113802475D01*
X190235760Y-113919000D01*
X190061368Y-114035525D01*
X189854525Y-114242368D01*
X189692010Y-114485589D01*
X189580068Y-114755842D01*
X189523000Y-115042740D01*
X189523000Y-115335260D01*
X189580068Y-115622158D01*
X189692010Y-115892411D01*
X189854525Y-116135632D01*
X189986380Y-116267487D01*
X189913820Y-116289498D01*
X189803506Y-116348463D01*
X189706815Y-116427815D01*
X189627463Y-116524506D01*
X189568498Y-116634820D01*
X189532188Y-116754518D01*
X189519928Y-116879000D01*
X189523000Y-117443250D01*
X189681750Y-117602000D01*
X190881000Y-117602000D01*
X190881000Y-117582000D01*
X191135000Y-117582000D01*
X191135000Y-117602000D01*
X192334250Y-117602000D01*
X192493000Y-117443250D01*
X192496072Y-116879000D01*
X192483812Y-116754518D01*
X192447502Y-116634820D01*
X192388537Y-116524506D01*
X192309185Y-116427815D01*
X192212494Y-116348463D01*
X192102180Y-116289498D01*
X192029620Y-116267487D01*
X192161475Y-116135632D01*
X192323990Y-115892411D01*
X192435932Y-115622158D01*
X192493000Y-115335260D01*
X192493000Y-115042740D01*
X192435932Y-114755842D01*
X192323990Y-114485589D01*
X192161475Y-114242368D01*
X191954632Y-114035525D01*
X191780240Y-113919000D01*
X191954632Y-113802475D01*
X192161475Y-113595632D01*
X192323990Y-113352411D01*
X192335343Y-113325000D01*
X194811928Y-113325000D01*
X194815000Y-113476750D01*
X194973750Y-113635500D01*
X195798000Y-113635500D01*
X195798000Y-112848750D01*
X195639250Y-112690000D01*
X195450000Y-112686928D01*
X195325518Y-112699188D01*
X195205820Y-112735498D01*
X195095506Y-112794463D01*
X194998815Y-112873815D01*
X194919463Y-112970506D01*
X194860498Y-113080820D01*
X194824188Y-113200518D01*
X194811928Y-113325000D01*
X192335343Y-113325000D01*
X192435932Y-113082158D01*
X192493000Y-112795260D01*
X192493000Y-112502740D01*
X192435932Y-112215842D01*
X192323990Y-111945589D01*
X192161475Y-111702368D01*
X191954632Y-111495525D01*
X191780240Y-111379000D01*
X191954632Y-111262475D01*
X192161475Y-111055632D01*
X192323990Y-110812411D01*
X192435932Y-110542158D01*
X192483702Y-110302000D01*
X193399928Y-110302000D01*
X193412188Y-110426482D01*
X193448498Y-110546180D01*
X193507463Y-110656494D01*
X193586815Y-110753185D01*
X193683506Y-110832537D01*
X193793820Y-110891502D01*
X193913518Y-110927812D01*
X194038000Y-110940072D01*
X194047250Y-110937000D01*
X194206000Y-110778250D01*
X194206000Y-110109000D01*
X193561750Y-110109000D01*
X193403000Y-110267750D01*
X193399928Y-110302000D01*
X192483702Y-110302000D01*
X192493000Y-110255260D01*
X192493000Y-109962740D01*
X192435932Y-109675842D01*
X192323990Y-109405589D01*
X192161475Y-109162368D01*
X191954632Y-108955525D01*
X191780240Y-108839000D01*
X191954632Y-108722475D01*
X192161475Y-108515632D01*
X192323990Y-108272411D01*
X192435932Y-108002158D01*
X192493000Y-107715260D01*
X192493000Y-107422740D01*
X192435932Y-107135842D01*
X192323990Y-106865589D01*
X192161475Y-106622368D01*
X191954632Y-106415525D01*
X191780240Y-106299000D01*
X191954632Y-106182475D01*
X192161475Y-105975632D01*
X192323990Y-105732411D01*
X192435932Y-105462158D01*
X192493000Y-105175260D01*
X192493000Y-104882740D01*
X192435932Y-104595842D01*
X192323990Y-104325589D01*
X192161475Y-104082368D01*
X191954632Y-103875525D01*
X191780240Y-103759000D01*
X191954632Y-103642475D01*
X192161475Y-103435632D01*
X192323990Y-103192411D01*
X192435932Y-102922158D01*
X192493000Y-102635260D01*
X192493000Y-102342740D01*
X192435932Y-102055842D01*
X192323990Y-101785589D01*
X192161475Y-101542368D01*
X192029620Y-101410513D01*
X192102180Y-101388502D01*
X192212494Y-101329537D01*
X192309185Y-101250185D01*
X192388537Y-101153494D01*
X192447502Y-101043180D01*
X192483812Y-100923482D01*
X192496072Y-100799000D01*
X192493000Y-100234750D01*
X192334250Y-100076000D01*
X191135000Y-100076000D01*
X191135000Y-100096000D01*
X190881000Y-100096000D01*
X190881000Y-100076000D01*
X189681750Y-100076000D01*
X189523000Y-100234750D01*
X189519928Y-100799000D01*
X188654801Y-100799000D01*
X188652803Y-99099000D01*
X189519928Y-99099000D01*
X189523000Y-99663250D01*
X189681750Y-99822000D01*
X190881000Y-99822000D01*
X190881000Y-98622750D01*
X191135000Y-98622750D01*
X191135000Y-99822000D01*
X192334250Y-99822000D01*
X192493000Y-99663250D01*
X192496072Y-99099000D01*
X192483812Y-98974518D01*
X192447502Y-98854820D01*
X192388537Y-98744506D01*
X192309185Y-98647815D01*
X192212494Y-98568463D01*
X192102180Y-98509498D01*
X191982482Y-98473188D01*
X191858000Y-98460928D01*
X191293750Y-98464000D01*
X191135000Y-98622750D01*
X190881000Y-98622750D01*
X190722250Y-98464000D01*
X190158000Y-98460928D01*
X190033518Y-98473188D01*
X189913820Y-98509498D01*
X189803506Y-98568463D01*
X189706815Y-98647815D01*
X189627463Y-98744506D01*
X189568498Y-98854820D01*
X189532188Y-98974518D01*
X189519928Y-99099000D01*
X188652803Y-99099000D01*
X188651977Y-98396374D01*
X198396581Y-98380814D01*
X198453102Y-98404226D01*
X198653061Y-98444000D01*
X198856939Y-98444000D01*
X199056898Y-98404226D01*
X199116193Y-98379665D01*
X200038460Y-98378192D01*
X200050061Y-98380500D01*
X200253939Y-98380500D01*
X200267378Y-98377827D01*
X202116049Y-98374875D01*
X202138244Y-98389705D01*
X202326602Y-98467726D01*
X202526561Y-98507500D01*
X202730439Y-98507500D01*
X202930398Y-98467726D01*
X203118756Y-98389705D01*
X203143406Y-98373234D01*
X212028744Y-98359046D01*
X212130883Y-98461185D01*
G36*
X197597000Y-123803000D02*
G01*
X197617000Y-123803000D01*
X197617000Y-124057000D01*
X197597000Y-124057000D01*
X197597000Y-124077000D01*
X197343000Y-124077000D01*
X197343000Y-124057000D01*
X197323000Y-124057000D01*
X197323000Y-123803000D01*
X197343000Y-123803000D01*
X197343000Y-123783000D01*
X197597000Y-123783000D01*
X197597000Y-123803000D01*
G37*
X197597000Y-123803000D02*
X197617000Y-123803000D01*
X197617000Y-124057000D01*
X197597000Y-124057000D01*
X197597000Y-124077000D01*
X197343000Y-124077000D01*
X197343000Y-124057000D01*
X197323000Y-124057000D01*
X197323000Y-123803000D01*
X197343000Y-123803000D01*
X197343000Y-123783000D01*
X197597000Y-123783000D01*
X197597000Y-123803000D01*
G36*
X198935000Y-111129801D02*
G01*
X198935000Y-111191939D01*
X198941775Y-111226000D01*
X198755000Y-111226000D01*
X198755000Y-111206000D01*
X198735000Y-111206000D01*
X198735000Y-111042072D01*
X198847271Y-111042072D01*
X198935000Y-111129801D01*
G37*
X198935000Y-111129801D02*
X198935000Y-111191939D01*
X198941775Y-111226000D01*
X198755000Y-111226000D01*
X198755000Y-111206000D01*
X198735000Y-111206000D01*
X198735000Y-111042072D01*
X198847271Y-111042072D01*
X198935000Y-111129801D01*
G36*
X199644000Y-105537000D02*
G01*
X199664000Y-105537000D01*
X199664000Y-105791000D01*
X199644000Y-105791000D01*
X199644000Y-105811000D01*
X199390000Y-105811000D01*
X199390000Y-105791000D01*
X199370000Y-105791000D01*
X199370000Y-105537000D01*
X199390000Y-105537000D01*
X199390000Y-105517000D01*
X199644000Y-105517000D01*
X199644000Y-105537000D01*
G37*
X199644000Y-105537000D02*
X199664000Y-105537000D01*
X199664000Y-105791000D01*
X199644000Y-105791000D01*
X199644000Y-105811000D01*
X199390000Y-105811000D01*
X199390000Y-105791000D01*
X199370000Y-105791000D01*
X199370000Y-105537000D01*
X199390000Y-105537000D01*
X199390000Y-105517000D01*
X199644000Y-105517000D01*
X199644000Y-105537000D01*
G36*
X205971928Y-103779000D02*
G01*
X205783000Y-103779000D01*
X205783000Y-103759000D01*
X205763000Y-103759000D01*
X205763000Y-103505000D01*
X205783000Y-103505000D01*
X205783000Y-103485000D01*
X205971928Y-103485000D01*
X205971928Y-103779000D01*
G37*
X205971928Y-103779000D02*
X205783000Y-103779000D01*
X205783000Y-103759000D01*
X205763000Y-103759000D01*
X205763000Y-103505000D01*
X205783000Y-103505000D01*
X205783000Y-103485000D01*
X205971928Y-103485000D01*
X205971928Y-103779000D01*
G36*
X195607498Y-100654820D02*
G01*
X195571188Y-100774518D01*
X195558928Y-100899000D01*
X195562000Y-100933250D01*
X195720750Y-101092000D01*
X196365000Y-101092000D01*
X196365000Y-101072000D01*
X196502883Y-101072000D01*
X196514794Y-101100756D01*
X196528928Y-101121909D01*
X196528928Y-101366000D01*
X196365000Y-101366000D01*
X196365000Y-101346000D01*
X195720750Y-101346000D01*
X195562000Y-101504750D01*
X195558928Y-101539000D01*
X195566329Y-101614144D01*
X195555226Y-101621563D01*
X195411063Y-101765726D01*
X195297795Y-101935244D01*
X195219774Y-102123602D01*
X195180000Y-102323561D01*
X195180000Y-102385698D01*
X194871642Y-102694057D01*
X194702939Y-102660500D01*
X194499061Y-102660500D01*
X194435000Y-102673242D01*
X194435000Y-101682500D01*
X194501939Y-101682500D01*
X194701898Y-101642726D01*
X194890256Y-101564705D01*
X195059774Y-101451437D01*
X195203937Y-101307274D01*
X195317205Y-101137756D01*
X195395226Y-100949398D01*
X195435000Y-100749439D01*
X195435000Y-100687302D01*
X195476802Y-100645500D01*
X195612480Y-100645500D01*
X195607498Y-100654820D01*
G37*
X195607498Y-100654820D02*
X195571188Y-100774518D01*
X195558928Y-100899000D01*
X195562000Y-100933250D01*
X195720750Y-101092000D01*
X196365000Y-101092000D01*
X196365000Y-101072000D01*
X196502883Y-101072000D01*
X196514794Y-101100756D01*
X196528928Y-101121909D01*
X196528928Y-101366000D01*
X196365000Y-101366000D01*
X196365000Y-101346000D01*
X195720750Y-101346000D01*
X195562000Y-101504750D01*
X195558928Y-101539000D01*
X195566329Y-101614144D01*
X195555226Y-101621563D01*
X195411063Y-101765726D01*
X195297795Y-101935244D01*
X195219774Y-102123602D01*
X195180000Y-102323561D01*
X195180000Y-102385698D01*
X194871642Y-102694057D01*
X194702939Y-102660500D01*
X194499061Y-102660500D01*
X194435000Y-102673242D01*
X194435000Y-101682500D01*
X194501939Y-101682500D01*
X194701898Y-101642726D01*
X194890256Y-101564705D01*
X195059774Y-101451437D01*
X195203937Y-101307274D01*
X195317205Y-101137756D01*
X195395226Y-100949398D01*
X195435000Y-100749439D01*
X195435000Y-100687302D01*
X195476802Y-100645500D01*
X195612480Y-100645500D01*
X195607498Y-100654820D01*
%TD*%
M02*
