%TF.GenerationSoftware,KiCad,Pcbnew,(5.1.6)-1*%
%TF.CreationDate,2022-09-14T08:17:57+02:00*%
%TF.ProjectId,LoRaWAN_EndNode_Microchip,4c6f5261-5741-44e5-9f45-6e644e6f6465,rev?*%
%TF.SameCoordinates,Original*%
%TF.FileFunction,Soldermask,Top*%
%TF.FilePolarity,Negative*%
%FSLAX46Y46*%
G04 Gerber Fmt 4.6, Leading zero omitted, Abs format (unit mm)*
G04 Created by KiCad (PCBNEW (5.1.6)-1) date 2022-09-14 08:17:57*
%MOMM*%
%LPD*%
G01*
G04 APERTURE LIST*
%ADD10C,2.100000*%
%ADD11R,2.100000X2.100000*%
%ADD12O,1.800000X1.800000*%
%ADD13R,1.800000X1.800000*%
%ADD14O,1.600000X1.200000*%
%ADD15O,1.600000X1.100000*%
%ADD16R,0.500000X0.750000*%
%ADD17R,0.750000X1.160000*%
%ADD18R,0.900000X1.000000*%
%ADD19R,4.800000X4.800000*%
%ADD20R,1.100000X0.850000*%
%ADD21R,0.650000X1.600000*%
%ADD22R,1.600000X0.650000*%
%ADD23R,1.150000X2.300000*%
%ADD24R,1.100000X1.150000*%
G04 APERTURE END LIST*
D10*
%TO.C,B1*%
X207137000Y-74295000D03*
D11*
X194437000Y-74295000D03*
%TD*%
D12*
%TO.C,J1*%
X211836000Y-90868500D03*
X211836000Y-88328500D03*
X211836000Y-85788500D03*
X211836000Y-83248500D03*
D13*
X211836000Y-80708500D03*
%TD*%
D14*
%TO.C,U4*%
X189238000Y-72288400D03*
X190500000Y-73558400D03*
D15*
X189280000Y-74828400D03*
%TD*%
%TO.C,R311*%
G36*
G01*
X193266750Y-90368500D02*
X193829250Y-90368500D01*
G75*
G02*
X194073000Y-90612250I0J-243750D01*
G01*
X194073000Y-91099750D01*
G75*
G02*
X193829250Y-91343500I-243750J0D01*
G01*
X193266750Y-91343500D01*
G75*
G02*
X193023000Y-91099750I0J243750D01*
G01*
X193023000Y-90612250D01*
G75*
G02*
X193266750Y-90368500I243750J0D01*
G01*
G37*
G36*
G01*
X193266750Y-88793500D02*
X193829250Y-88793500D01*
G75*
G02*
X194073000Y-89037250I0J-243750D01*
G01*
X194073000Y-89524750D01*
G75*
G02*
X193829250Y-89768500I-243750J0D01*
G01*
X193266750Y-89768500D01*
G75*
G02*
X193023000Y-89524750I0J243750D01*
G01*
X193023000Y-89037250D01*
G75*
G02*
X193266750Y-88793500I243750J0D01*
G01*
G37*
%TD*%
D16*
%TO.C,U6*%
X190358000Y-87528400D03*
X191658000Y-87528400D03*
X191008000Y-89428400D03*
X191008000Y-87528400D03*
X191658000Y-89428400D03*
X190358000Y-89428400D03*
%TD*%
%TO.C,R302*%
G36*
G01*
X206021250Y-94912000D02*
X205458750Y-94912000D01*
G75*
G02*
X205215000Y-94668250I0J243750D01*
G01*
X205215000Y-94180750D01*
G75*
G02*
X205458750Y-93937000I243750J0D01*
G01*
X206021250Y-93937000D01*
G75*
G02*
X206265000Y-94180750I0J-243750D01*
G01*
X206265000Y-94668250D01*
G75*
G02*
X206021250Y-94912000I-243750J0D01*
G01*
G37*
G36*
G01*
X206021250Y-96487000D02*
X205458750Y-96487000D01*
G75*
G02*
X205215000Y-96243250I0J243750D01*
G01*
X205215000Y-95755750D01*
G75*
G02*
X205458750Y-95512000I243750J0D01*
G01*
X206021250Y-95512000D01*
G75*
G02*
X206265000Y-95755750I0J-243750D01*
G01*
X206265000Y-96243250D01*
G75*
G02*
X206021250Y-96487000I-243750J0D01*
G01*
G37*
%TD*%
D13*
%TO.C,CON1*%
X191008000Y-99949000D03*
D12*
X191008000Y-102489000D03*
X191008000Y-105029000D03*
X191008000Y-107569000D03*
X191008000Y-110109000D03*
X191008000Y-112649000D03*
X191008000Y-115189000D03*
D13*
X191008000Y-117729000D03*
%TD*%
%TO.C,L204*%
G36*
G01*
X197287500Y-116033000D02*
X197682500Y-116033000D01*
G75*
G02*
X197855000Y-116205500I0J-172500D01*
G01*
X197855000Y-116550500D01*
G75*
G02*
X197682500Y-116723000I-172500J0D01*
G01*
X197287500Y-116723000D01*
G75*
G02*
X197115000Y-116550500I0J172500D01*
G01*
X197115000Y-116205500D01*
G75*
G02*
X197287500Y-116033000I172500J0D01*
G01*
G37*
G36*
G01*
X197287500Y-117003000D02*
X197682500Y-117003000D01*
G75*
G02*
X197855000Y-117175500I0J-172500D01*
G01*
X197855000Y-117520500D01*
G75*
G02*
X197682500Y-117693000I-172500J0D01*
G01*
X197287500Y-117693000D01*
G75*
G02*
X197115000Y-117520500I0J172500D01*
G01*
X197115000Y-117175500D01*
G75*
G02*
X197287500Y-117003000I172500J0D01*
G01*
G37*
%TD*%
%TO.C,L203*%
G36*
G01*
X197287500Y-114971000D02*
X197682500Y-114971000D01*
G75*
G02*
X197855000Y-115143500I0J-172500D01*
G01*
X197855000Y-115488500D01*
G75*
G02*
X197682500Y-115661000I-172500J0D01*
G01*
X197287500Y-115661000D01*
G75*
G02*
X197115000Y-115488500I0J172500D01*
G01*
X197115000Y-115143500D01*
G75*
G02*
X197287500Y-114971000I172500J0D01*
G01*
G37*
G36*
G01*
X197287500Y-114001000D02*
X197682500Y-114001000D01*
G75*
G02*
X197855000Y-114173500I0J-172500D01*
G01*
X197855000Y-114518500D01*
G75*
G02*
X197682500Y-114691000I-172500J0D01*
G01*
X197287500Y-114691000D01*
G75*
G02*
X197115000Y-114518500I0J172500D01*
G01*
X197115000Y-114173500D01*
G75*
G02*
X197287500Y-114001000I172500J0D01*
G01*
G37*
%TD*%
%TO.C,CON2*%
X211328000Y-99949000D03*
D12*
X211328000Y-102489000D03*
X211328000Y-105029000D03*
X211328000Y-107569000D03*
X211328000Y-110109000D03*
X211328000Y-112649000D03*
X211328000Y-115189000D03*
D13*
X211328000Y-117729000D03*
%TD*%
%TO.C,L202*%
G36*
G01*
X194678000Y-109784500D02*
X194678000Y-110179500D01*
G75*
G02*
X194505500Y-110352000I-172500J0D01*
G01*
X194160500Y-110352000D01*
G75*
G02*
X193988000Y-110179500I0J172500D01*
G01*
X193988000Y-109784500D01*
G75*
G02*
X194160500Y-109612000I172500J0D01*
G01*
X194505500Y-109612000D01*
G75*
G02*
X194678000Y-109784500I0J-172500D01*
G01*
G37*
G36*
G01*
X195648000Y-109784500D02*
X195648000Y-110179500D01*
G75*
G02*
X195475500Y-110352000I-172500J0D01*
G01*
X195130500Y-110352000D01*
G75*
G02*
X194958000Y-110179500I0J172500D01*
G01*
X194958000Y-109784500D01*
G75*
G02*
X195130500Y-109612000I172500J0D01*
G01*
X195475500Y-109612000D01*
G75*
G02*
X195648000Y-109784500I0J-172500D01*
G01*
G37*
%TD*%
%TO.C,L201*%
G36*
G01*
X199943000Y-112070500D02*
X199943000Y-112465500D01*
G75*
G02*
X199770500Y-112638000I-172500J0D01*
G01*
X199425500Y-112638000D01*
G75*
G02*
X199253000Y-112465500I0J172500D01*
G01*
X199253000Y-112070500D01*
G75*
G02*
X199425500Y-111898000I172500J0D01*
G01*
X199770500Y-111898000D01*
G75*
G02*
X199943000Y-112070500I0J-172500D01*
G01*
G37*
G36*
G01*
X198973000Y-112070500D02*
X198973000Y-112465500D01*
G75*
G02*
X198800500Y-112638000I-172500J0D01*
G01*
X198455500Y-112638000D01*
G75*
G02*
X198283000Y-112465500I0J172500D01*
G01*
X198283000Y-112070500D01*
G75*
G02*
X198455500Y-111898000I172500J0D01*
G01*
X198800500Y-111898000D01*
G75*
G02*
X198973000Y-112070500I0J-172500D01*
G01*
G37*
%TD*%
%TO.C,C302*%
G36*
G01*
X201376000Y-77747550D02*
X201376000Y-78310050D01*
G75*
G02*
X201132250Y-78553800I-243750J0D01*
G01*
X200644750Y-78553800D01*
G75*
G02*
X200401000Y-78310050I0J243750D01*
G01*
X200401000Y-77747550D01*
G75*
G02*
X200644750Y-77503800I243750J0D01*
G01*
X201132250Y-77503800D01*
G75*
G02*
X201376000Y-77747550I0J-243750D01*
G01*
G37*
G36*
G01*
X202951000Y-77747550D02*
X202951000Y-78310050D01*
G75*
G02*
X202707250Y-78553800I-243750J0D01*
G01*
X202219750Y-78553800D01*
G75*
G02*
X201976000Y-78310050I0J243750D01*
G01*
X201976000Y-77747550D01*
G75*
G02*
X202219750Y-77503800I243750J0D01*
G01*
X202707250Y-77503800D01*
G75*
G02*
X202951000Y-77747550I0J-243750D01*
G01*
G37*
%TD*%
%TO.C,D301*%
G36*
G01*
X207993750Y-77712500D02*
X208956250Y-77712500D01*
G75*
G02*
X209225000Y-77981250I0J-268750D01*
G01*
X209225000Y-78518750D01*
G75*
G02*
X208956250Y-78787500I-268750J0D01*
G01*
X207993750Y-78787500D01*
G75*
G02*
X207725000Y-78518750I0J268750D01*
G01*
X207725000Y-77981250D01*
G75*
G02*
X207993750Y-77712500I268750J0D01*
G01*
G37*
G36*
G01*
X207993750Y-75837500D02*
X208956250Y-75837500D01*
G75*
G02*
X209225000Y-76106250I0J-268750D01*
G01*
X209225000Y-76643750D01*
G75*
G02*
X208956250Y-76912500I-268750J0D01*
G01*
X207993750Y-76912500D01*
G75*
G02*
X207725000Y-76643750I0J268750D01*
G01*
X207725000Y-76106250D01*
G75*
G02*
X207993750Y-75837500I268750J0D01*
G01*
G37*
%TD*%
%TO.C,C308*%
G36*
G01*
X191945950Y-71953100D02*
X192508450Y-71953100D01*
G75*
G02*
X192752200Y-72196850I0J-243750D01*
G01*
X192752200Y-72684350D01*
G75*
G02*
X192508450Y-72928100I-243750J0D01*
G01*
X191945950Y-72928100D01*
G75*
G02*
X191702200Y-72684350I0J243750D01*
G01*
X191702200Y-72196850D01*
G75*
G02*
X191945950Y-71953100I243750J0D01*
G01*
G37*
G36*
G01*
X191945950Y-73528100D02*
X192508450Y-73528100D01*
G75*
G02*
X192752200Y-73771850I0J-243750D01*
G01*
X192752200Y-74259350D01*
G75*
G02*
X192508450Y-74503100I-243750J0D01*
G01*
X191945950Y-74503100D01*
G75*
G02*
X191702200Y-74259350I0J243750D01*
G01*
X191702200Y-73771850D01*
G75*
G02*
X191945950Y-73528100I243750J0D01*
G01*
G37*
%TD*%
%TO.C,C309*%
G36*
G01*
X191901900Y-85265950D02*
X191901900Y-85828450D01*
G75*
G02*
X191658150Y-86072200I-243750J0D01*
G01*
X191170650Y-86072200D01*
G75*
G02*
X190926900Y-85828450I0J243750D01*
G01*
X190926900Y-85265950D01*
G75*
G02*
X191170650Y-85022200I243750J0D01*
G01*
X191658150Y-85022200D01*
G75*
G02*
X191901900Y-85265950I0J-243750D01*
G01*
G37*
G36*
G01*
X193476900Y-85265950D02*
X193476900Y-85828450D01*
G75*
G02*
X193233150Y-86072200I-243750J0D01*
G01*
X192745650Y-86072200D01*
G75*
G02*
X192501900Y-85828450I0J243750D01*
G01*
X192501900Y-85265950D01*
G75*
G02*
X192745650Y-85022200I243750J0D01*
G01*
X193233150Y-85022200D01*
G75*
G02*
X193476900Y-85265950I0J-243750D01*
G01*
G37*
%TD*%
%TO.C,R301*%
G36*
G01*
X201639750Y-96423500D02*
X201077250Y-96423500D01*
G75*
G02*
X200833500Y-96179750I0J243750D01*
G01*
X200833500Y-95692250D01*
G75*
G02*
X201077250Y-95448500I243750J0D01*
G01*
X201639750Y-95448500D01*
G75*
G02*
X201883500Y-95692250I0J-243750D01*
G01*
X201883500Y-96179750D01*
G75*
G02*
X201639750Y-96423500I-243750J0D01*
G01*
G37*
G36*
G01*
X201639750Y-94848500D02*
X201077250Y-94848500D01*
G75*
G02*
X200833500Y-94604750I0J243750D01*
G01*
X200833500Y-94117250D01*
G75*
G02*
X201077250Y-93873500I243750J0D01*
G01*
X201639750Y-93873500D01*
G75*
G02*
X201883500Y-94117250I0J-243750D01*
G01*
X201883500Y-94604750D01*
G75*
G02*
X201639750Y-94848500I-243750J0D01*
G01*
G37*
%TD*%
%TO.C,C310*%
G36*
G01*
X189656700Y-91822850D02*
X189656700Y-91260350D01*
G75*
G02*
X189900450Y-91016600I243750J0D01*
G01*
X190387950Y-91016600D01*
G75*
G02*
X190631700Y-91260350I0J-243750D01*
G01*
X190631700Y-91822850D01*
G75*
G02*
X190387950Y-92066600I-243750J0D01*
G01*
X189900450Y-92066600D01*
G75*
G02*
X189656700Y-91822850I0J243750D01*
G01*
G37*
G36*
G01*
X191231700Y-91822850D02*
X191231700Y-91260350D01*
G75*
G02*
X191475450Y-91016600I243750J0D01*
G01*
X191962950Y-91016600D01*
G75*
G02*
X192206700Y-91260350I0J-243750D01*
G01*
X192206700Y-91822850D01*
G75*
G02*
X191962950Y-92066600I-243750J0D01*
G01*
X191475450Y-92066600D01*
G75*
G02*
X191231700Y-91822850I0J243750D01*
G01*
G37*
%TD*%
%TO.C,C307*%
G36*
G01*
X190428500Y-77137950D02*
X190428500Y-77700450D01*
G75*
G02*
X190184750Y-77944200I-243750J0D01*
G01*
X189697250Y-77944200D01*
G75*
G02*
X189453500Y-77700450I0J243750D01*
G01*
X189453500Y-77137950D01*
G75*
G02*
X189697250Y-76894200I243750J0D01*
G01*
X190184750Y-76894200D01*
G75*
G02*
X190428500Y-77137950I0J-243750D01*
G01*
G37*
G36*
G01*
X192003500Y-77137950D02*
X192003500Y-77700450D01*
G75*
G02*
X191759750Y-77944200I-243750J0D01*
G01*
X191272250Y-77944200D01*
G75*
G02*
X191028500Y-77700450I0J243750D01*
G01*
X191028500Y-77137950D01*
G75*
G02*
X191272250Y-76894200I243750J0D01*
G01*
X191759750Y-76894200D01*
G75*
G02*
X192003500Y-77137950I0J-243750D01*
G01*
G37*
%TD*%
%TO.C,C301*%
G36*
G01*
X203172750Y-93873500D02*
X203735250Y-93873500D01*
G75*
G02*
X203979000Y-94117250I0J-243750D01*
G01*
X203979000Y-94604750D01*
G75*
G02*
X203735250Y-94848500I-243750J0D01*
G01*
X203172750Y-94848500D01*
G75*
G02*
X202929000Y-94604750I0J243750D01*
G01*
X202929000Y-94117250D01*
G75*
G02*
X203172750Y-93873500I243750J0D01*
G01*
G37*
G36*
G01*
X203172750Y-95448500D02*
X203735250Y-95448500D01*
G75*
G02*
X203979000Y-95692250I0J-243750D01*
G01*
X203979000Y-96179750D01*
G75*
G02*
X203735250Y-96423500I-243750J0D01*
G01*
X203172750Y-96423500D01*
G75*
G02*
X202929000Y-96179750I0J243750D01*
G01*
X202929000Y-95692250D01*
G75*
G02*
X203172750Y-95448500I243750J0D01*
G01*
G37*
%TD*%
%TO.C,R303*%
G36*
G01*
X208370750Y-94912000D02*
X207808250Y-94912000D01*
G75*
G02*
X207564500Y-94668250I0J243750D01*
G01*
X207564500Y-94180750D01*
G75*
G02*
X207808250Y-93937000I243750J0D01*
G01*
X208370750Y-93937000D01*
G75*
G02*
X208614500Y-94180750I0J-243750D01*
G01*
X208614500Y-94668250D01*
G75*
G02*
X208370750Y-94912000I-243750J0D01*
G01*
G37*
G36*
G01*
X208370750Y-96487000D02*
X207808250Y-96487000D01*
G75*
G02*
X207564500Y-96243250I0J243750D01*
G01*
X207564500Y-95755750D01*
G75*
G02*
X207808250Y-95512000I243750J0D01*
G01*
X208370750Y-95512000D01*
G75*
G02*
X208614500Y-95755750I0J-243750D01*
G01*
X208614500Y-96243250D01*
G75*
G02*
X208370750Y-96487000I-243750J0D01*
G01*
G37*
%TD*%
D17*
%TO.C,U5*%
X192466000Y-79181600D03*
X191516000Y-79181600D03*
X193416000Y-79181600D03*
X193416000Y-81381600D03*
X192466000Y-81381600D03*
X191516000Y-81381600D03*
%TD*%
%TO.C,R307*%
G36*
G01*
X190726750Y-95461000D02*
X191289250Y-95461000D01*
G75*
G02*
X191533000Y-95704750I0J-243750D01*
G01*
X191533000Y-96192250D01*
G75*
G02*
X191289250Y-96436000I-243750J0D01*
G01*
X190726750Y-96436000D01*
G75*
G02*
X190483000Y-96192250I0J243750D01*
G01*
X190483000Y-95704750D01*
G75*
G02*
X190726750Y-95461000I243750J0D01*
G01*
G37*
G36*
G01*
X190726750Y-93886000D02*
X191289250Y-93886000D01*
G75*
G02*
X191533000Y-94129750I0J-243750D01*
G01*
X191533000Y-94617250D01*
G75*
G02*
X191289250Y-94861000I-243750J0D01*
G01*
X190726750Y-94861000D01*
G75*
G02*
X190483000Y-94617250I0J243750D01*
G01*
X190483000Y-94129750D01*
G75*
G02*
X190726750Y-93886000I243750J0D01*
G01*
G37*
%TD*%
D18*
%TO.C,Y1*%
X205910000Y-103632000D03*
X205910000Y-102232000D03*
X207010000Y-102232000D03*
X207010000Y-103632000D03*
%TD*%
%TO.C,Rext1*%
G36*
G01*
X193527700Y-83132350D02*
X193527700Y-83694850D01*
G75*
G02*
X193283950Y-83938600I-243750J0D01*
G01*
X192796450Y-83938600D01*
G75*
G02*
X192552700Y-83694850I0J243750D01*
G01*
X192552700Y-83132350D01*
G75*
G02*
X192796450Y-82888600I243750J0D01*
G01*
X193283950Y-82888600D01*
G75*
G02*
X193527700Y-83132350I0J-243750D01*
G01*
G37*
G36*
G01*
X191952700Y-83132350D02*
X191952700Y-83694850D01*
G75*
G02*
X191708950Y-83938600I-243750J0D01*
G01*
X191221450Y-83938600D01*
G75*
G02*
X190977700Y-83694850I0J243750D01*
G01*
X190977700Y-83132350D01*
G75*
G02*
X191221450Y-82888600I243750J0D01*
G01*
X191708950Y-82888600D01*
G75*
G02*
X191952700Y-83132350I0J-243750D01*
G01*
G37*
%TD*%
%TO.C,R305*%
G36*
G01*
X212047000Y-78259250D02*
X212047000Y-77696750D01*
G75*
G02*
X212290750Y-77453000I243750J0D01*
G01*
X212778250Y-77453000D01*
G75*
G02*
X213022000Y-77696750I0J-243750D01*
G01*
X213022000Y-78259250D01*
G75*
G02*
X212778250Y-78503000I-243750J0D01*
G01*
X212290750Y-78503000D01*
G75*
G02*
X212047000Y-78259250I0J243750D01*
G01*
G37*
G36*
G01*
X210472000Y-78259250D02*
X210472000Y-77696750D01*
G75*
G02*
X210715750Y-77453000I243750J0D01*
G01*
X211203250Y-77453000D01*
G75*
G02*
X211447000Y-77696750I0J-243750D01*
G01*
X211447000Y-78259250D01*
G75*
G02*
X211203250Y-78503000I-243750J0D01*
G01*
X210715750Y-78503000D01*
G75*
G02*
X210472000Y-78259250I0J243750D01*
G01*
G37*
%TD*%
D19*
%TO.C,U1*%
X199517000Y-105664000D03*
G36*
G01*
X197017000Y-107420800D02*
X197017000Y-107807200D01*
G75*
G02*
X197000200Y-107824000I-16800J0D01*
G01*
X196123800Y-107824000D01*
G75*
G02*
X196107000Y-107807200I0J16800D01*
G01*
X196107000Y-107420800D01*
G75*
G02*
X196123800Y-107404000I16800J0D01*
G01*
X197000200Y-107404000D01*
G75*
G02*
X197017000Y-107420800I0J-16800D01*
G01*
G37*
G36*
G01*
X197017000Y-106770800D02*
X197017000Y-107157200D01*
G75*
G02*
X197000200Y-107174000I-16800J0D01*
G01*
X196123800Y-107174000D01*
G75*
G02*
X196107000Y-107157200I0J16800D01*
G01*
X196107000Y-106770800D01*
G75*
G02*
X196123800Y-106754000I16800J0D01*
G01*
X197000200Y-106754000D01*
G75*
G02*
X197017000Y-106770800I0J-16800D01*
G01*
G37*
G36*
G01*
X197017000Y-106120800D02*
X197017000Y-106507200D01*
G75*
G02*
X197000200Y-106524000I-16800J0D01*
G01*
X196123800Y-106524000D01*
G75*
G02*
X196107000Y-106507200I0J16800D01*
G01*
X196107000Y-106120800D01*
G75*
G02*
X196123800Y-106104000I16800J0D01*
G01*
X197000200Y-106104000D01*
G75*
G02*
X197017000Y-106120800I0J-16800D01*
G01*
G37*
G36*
G01*
X197017000Y-105470800D02*
X197017000Y-105857200D01*
G75*
G02*
X197000200Y-105874000I-16800J0D01*
G01*
X196123800Y-105874000D01*
G75*
G02*
X196107000Y-105857200I0J16800D01*
G01*
X196107000Y-105470800D01*
G75*
G02*
X196123800Y-105454000I16800J0D01*
G01*
X197000200Y-105454000D01*
G75*
G02*
X197017000Y-105470800I0J-16800D01*
G01*
G37*
G36*
G01*
X197017000Y-104820800D02*
X197017000Y-105207200D01*
G75*
G02*
X197000200Y-105224000I-16800J0D01*
G01*
X196123800Y-105224000D01*
G75*
G02*
X196107000Y-105207200I0J16800D01*
G01*
X196107000Y-104820800D01*
G75*
G02*
X196123800Y-104804000I16800J0D01*
G01*
X197000200Y-104804000D01*
G75*
G02*
X197017000Y-104820800I0J-16800D01*
G01*
G37*
G36*
G01*
X197017000Y-104170800D02*
X197017000Y-104557200D01*
G75*
G02*
X197000200Y-104574000I-16800J0D01*
G01*
X196123800Y-104574000D01*
G75*
G02*
X196107000Y-104557200I0J16800D01*
G01*
X196107000Y-104170800D01*
G75*
G02*
X196123800Y-104154000I16800J0D01*
G01*
X197000200Y-104154000D01*
G75*
G02*
X197017000Y-104170800I0J-16800D01*
G01*
G37*
G36*
G01*
X197017000Y-103520800D02*
X197017000Y-103907200D01*
G75*
G02*
X197000200Y-103924000I-16800J0D01*
G01*
X196123800Y-103924000D01*
G75*
G02*
X196107000Y-103907200I0J16800D01*
G01*
X196107000Y-103520800D01*
G75*
G02*
X196123800Y-103504000I16800J0D01*
G01*
X197000200Y-103504000D01*
G75*
G02*
X197017000Y-103520800I0J-16800D01*
G01*
G37*
G36*
G01*
X202927000Y-103520800D02*
X202927000Y-103907200D01*
G75*
G02*
X202910200Y-103924000I-16800J0D01*
G01*
X202033800Y-103924000D01*
G75*
G02*
X202017000Y-103907200I0J16800D01*
G01*
X202017000Y-103520800D01*
G75*
G02*
X202033800Y-103504000I16800J0D01*
G01*
X202910200Y-103504000D01*
G75*
G02*
X202927000Y-103520800I0J-16800D01*
G01*
G37*
G36*
G01*
X202927000Y-104170800D02*
X202927000Y-104557200D01*
G75*
G02*
X202910200Y-104574000I-16800J0D01*
G01*
X202033800Y-104574000D01*
G75*
G02*
X202017000Y-104557200I0J16800D01*
G01*
X202017000Y-104170800D01*
G75*
G02*
X202033800Y-104154000I16800J0D01*
G01*
X202910200Y-104154000D01*
G75*
G02*
X202927000Y-104170800I0J-16800D01*
G01*
G37*
G36*
G01*
X202927000Y-104820800D02*
X202927000Y-105207200D01*
G75*
G02*
X202910200Y-105224000I-16800J0D01*
G01*
X202033800Y-105224000D01*
G75*
G02*
X202017000Y-105207200I0J16800D01*
G01*
X202017000Y-104820800D01*
G75*
G02*
X202033800Y-104804000I16800J0D01*
G01*
X202910200Y-104804000D01*
G75*
G02*
X202927000Y-104820800I0J-16800D01*
G01*
G37*
G36*
G01*
X202927000Y-105470800D02*
X202927000Y-105857200D01*
G75*
G02*
X202910200Y-105874000I-16800J0D01*
G01*
X202033800Y-105874000D01*
G75*
G02*
X202017000Y-105857200I0J16800D01*
G01*
X202017000Y-105470800D01*
G75*
G02*
X202033800Y-105454000I16800J0D01*
G01*
X202910200Y-105454000D01*
G75*
G02*
X202927000Y-105470800I0J-16800D01*
G01*
G37*
G36*
G01*
X202927000Y-106120800D02*
X202927000Y-106507200D01*
G75*
G02*
X202910200Y-106524000I-16800J0D01*
G01*
X202033800Y-106524000D01*
G75*
G02*
X202017000Y-106507200I0J16800D01*
G01*
X202017000Y-106120800D01*
G75*
G02*
X202033800Y-106104000I16800J0D01*
G01*
X202910200Y-106104000D01*
G75*
G02*
X202927000Y-106120800I0J-16800D01*
G01*
G37*
G36*
G01*
X202927000Y-106770800D02*
X202927000Y-107157200D01*
G75*
G02*
X202910200Y-107174000I-16800J0D01*
G01*
X202033800Y-107174000D01*
G75*
G02*
X202017000Y-107157200I0J16800D01*
G01*
X202017000Y-106770800D01*
G75*
G02*
X202033800Y-106754000I16800J0D01*
G01*
X202910200Y-106754000D01*
G75*
G02*
X202927000Y-106770800I0J-16800D01*
G01*
G37*
G36*
G01*
X202927000Y-107420800D02*
X202927000Y-107807200D01*
G75*
G02*
X202910200Y-107824000I-16800J0D01*
G01*
X202033800Y-107824000D01*
G75*
G02*
X202017000Y-107807200I0J16800D01*
G01*
X202017000Y-107420800D01*
G75*
G02*
X202033800Y-107404000I16800J0D01*
G01*
X202910200Y-107404000D01*
G75*
G02*
X202927000Y-107420800I0J-16800D01*
G01*
G37*
G36*
G01*
X201273800Y-108164000D02*
X201660200Y-108164000D01*
G75*
G02*
X201677000Y-108180800I0J-16800D01*
G01*
X201677000Y-109057200D01*
G75*
G02*
X201660200Y-109074000I-16800J0D01*
G01*
X201273800Y-109074000D01*
G75*
G02*
X201257000Y-109057200I0J16800D01*
G01*
X201257000Y-108180800D01*
G75*
G02*
X201273800Y-108164000I16800J0D01*
G01*
G37*
G36*
G01*
X200623800Y-108164000D02*
X201010200Y-108164000D01*
G75*
G02*
X201027000Y-108180800I0J-16800D01*
G01*
X201027000Y-109057200D01*
G75*
G02*
X201010200Y-109074000I-16800J0D01*
G01*
X200623800Y-109074000D01*
G75*
G02*
X200607000Y-109057200I0J16800D01*
G01*
X200607000Y-108180800D01*
G75*
G02*
X200623800Y-108164000I16800J0D01*
G01*
G37*
G36*
G01*
X199973800Y-108164000D02*
X200360200Y-108164000D01*
G75*
G02*
X200377000Y-108180800I0J-16800D01*
G01*
X200377000Y-109057200D01*
G75*
G02*
X200360200Y-109074000I-16800J0D01*
G01*
X199973800Y-109074000D01*
G75*
G02*
X199957000Y-109057200I0J16800D01*
G01*
X199957000Y-108180800D01*
G75*
G02*
X199973800Y-108164000I16800J0D01*
G01*
G37*
G36*
G01*
X199323800Y-108164000D02*
X199710200Y-108164000D01*
G75*
G02*
X199727000Y-108180800I0J-16800D01*
G01*
X199727000Y-109057200D01*
G75*
G02*
X199710200Y-109074000I-16800J0D01*
G01*
X199323800Y-109074000D01*
G75*
G02*
X199307000Y-109057200I0J16800D01*
G01*
X199307000Y-108180800D01*
G75*
G02*
X199323800Y-108164000I16800J0D01*
G01*
G37*
G36*
G01*
X198673800Y-108164000D02*
X199060200Y-108164000D01*
G75*
G02*
X199077000Y-108180800I0J-16800D01*
G01*
X199077000Y-109057200D01*
G75*
G02*
X199060200Y-109074000I-16800J0D01*
G01*
X198673800Y-109074000D01*
G75*
G02*
X198657000Y-109057200I0J16800D01*
G01*
X198657000Y-108180800D01*
G75*
G02*
X198673800Y-108164000I16800J0D01*
G01*
G37*
G36*
G01*
X198023800Y-108164000D02*
X198410200Y-108164000D01*
G75*
G02*
X198427000Y-108180800I0J-16800D01*
G01*
X198427000Y-109057200D01*
G75*
G02*
X198410200Y-109074000I-16800J0D01*
G01*
X198023800Y-109074000D01*
G75*
G02*
X198007000Y-109057200I0J16800D01*
G01*
X198007000Y-108180800D01*
G75*
G02*
X198023800Y-108164000I16800J0D01*
G01*
G37*
G36*
G01*
X197373800Y-108164000D02*
X197760200Y-108164000D01*
G75*
G02*
X197777000Y-108180800I0J-16800D01*
G01*
X197777000Y-109057200D01*
G75*
G02*
X197760200Y-109074000I-16800J0D01*
G01*
X197373800Y-109074000D01*
G75*
G02*
X197357000Y-109057200I0J16800D01*
G01*
X197357000Y-108180800D01*
G75*
G02*
X197373800Y-108164000I16800J0D01*
G01*
G37*
G36*
G01*
X197373800Y-102254000D02*
X197760200Y-102254000D01*
G75*
G02*
X197777000Y-102270800I0J-16800D01*
G01*
X197777000Y-103147200D01*
G75*
G02*
X197760200Y-103164000I-16800J0D01*
G01*
X197373800Y-103164000D01*
G75*
G02*
X197357000Y-103147200I0J16800D01*
G01*
X197357000Y-102270800D01*
G75*
G02*
X197373800Y-102254000I16800J0D01*
G01*
G37*
G36*
G01*
X198023800Y-102254000D02*
X198410200Y-102254000D01*
G75*
G02*
X198427000Y-102270800I0J-16800D01*
G01*
X198427000Y-103147200D01*
G75*
G02*
X198410200Y-103164000I-16800J0D01*
G01*
X198023800Y-103164000D01*
G75*
G02*
X198007000Y-103147200I0J16800D01*
G01*
X198007000Y-102270800D01*
G75*
G02*
X198023800Y-102254000I16800J0D01*
G01*
G37*
G36*
G01*
X198673800Y-102254000D02*
X199060200Y-102254000D01*
G75*
G02*
X199077000Y-102270800I0J-16800D01*
G01*
X199077000Y-103147200D01*
G75*
G02*
X199060200Y-103164000I-16800J0D01*
G01*
X198673800Y-103164000D01*
G75*
G02*
X198657000Y-103147200I0J16800D01*
G01*
X198657000Y-102270800D01*
G75*
G02*
X198673800Y-102254000I16800J0D01*
G01*
G37*
G36*
G01*
X199323800Y-102254000D02*
X199710200Y-102254000D01*
G75*
G02*
X199727000Y-102270800I0J-16800D01*
G01*
X199727000Y-103147200D01*
G75*
G02*
X199710200Y-103164000I-16800J0D01*
G01*
X199323800Y-103164000D01*
G75*
G02*
X199307000Y-103147200I0J16800D01*
G01*
X199307000Y-102270800D01*
G75*
G02*
X199323800Y-102254000I16800J0D01*
G01*
G37*
G36*
G01*
X199973800Y-102254000D02*
X200360200Y-102254000D01*
G75*
G02*
X200377000Y-102270800I0J-16800D01*
G01*
X200377000Y-103147200D01*
G75*
G02*
X200360200Y-103164000I-16800J0D01*
G01*
X199973800Y-103164000D01*
G75*
G02*
X199957000Y-103147200I0J16800D01*
G01*
X199957000Y-102270800D01*
G75*
G02*
X199973800Y-102254000I16800J0D01*
G01*
G37*
G36*
G01*
X200623800Y-102254000D02*
X201010200Y-102254000D01*
G75*
G02*
X201027000Y-102270800I0J-16800D01*
G01*
X201027000Y-103147200D01*
G75*
G02*
X201010200Y-103164000I-16800J0D01*
G01*
X200623800Y-103164000D01*
G75*
G02*
X200607000Y-103147200I0J16800D01*
G01*
X200607000Y-102270800D01*
G75*
G02*
X200623800Y-102254000I16800J0D01*
G01*
G37*
G36*
G01*
X201273800Y-102254000D02*
X201660200Y-102254000D01*
G75*
G02*
X201677000Y-102270800I0J-16800D01*
G01*
X201677000Y-103147200D01*
G75*
G02*
X201660200Y-103164000I-16800J0D01*
G01*
X201273800Y-103164000D01*
G75*
G02*
X201257000Y-103147200I0J16800D01*
G01*
X201257000Y-102270800D01*
G75*
G02*
X201273800Y-102254000I16800J0D01*
G01*
G37*
%TD*%
D20*
%TO.C,S301*%
X198056500Y-72196000D03*
X204056500Y-72196000D03*
X198056500Y-75946000D03*
X204056500Y-75946000D03*
%TD*%
%TO.C,R310*%
G36*
G01*
X206556250Y-77075000D02*
X205993750Y-77075000D01*
G75*
G02*
X205750000Y-76831250I0J243750D01*
G01*
X205750000Y-76343750D01*
G75*
G02*
X205993750Y-76100000I243750J0D01*
G01*
X206556250Y-76100000D01*
G75*
G02*
X206800000Y-76343750I0J-243750D01*
G01*
X206800000Y-76831250D01*
G75*
G02*
X206556250Y-77075000I-243750J0D01*
G01*
G37*
G36*
G01*
X206556250Y-78650000D02*
X205993750Y-78650000D01*
G75*
G02*
X205750000Y-78406250I0J243750D01*
G01*
X205750000Y-77918750D01*
G75*
G02*
X205993750Y-77675000I243750J0D01*
G01*
X206556250Y-77675000D01*
G75*
G02*
X206800000Y-77918750I0J-243750D01*
G01*
X206800000Y-78406250D01*
G75*
G02*
X206556250Y-78650000I-243750J0D01*
G01*
G37*
%TD*%
%TO.C,R309*%
G36*
G01*
X198473750Y-93873500D02*
X199036250Y-93873500D01*
G75*
G02*
X199280000Y-94117250I0J-243750D01*
G01*
X199280000Y-94604750D01*
G75*
G02*
X199036250Y-94848500I-243750J0D01*
G01*
X198473750Y-94848500D01*
G75*
G02*
X198230000Y-94604750I0J243750D01*
G01*
X198230000Y-94117250D01*
G75*
G02*
X198473750Y-93873500I243750J0D01*
G01*
G37*
G36*
G01*
X198473750Y-95448500D02*
X199036250Y-95448500D01*
G75*
G02*
X199280000Y-95692250I0J-243750D01*
G01*
X199280000Y-96179750D01*
G75*
G02*
X199036250Y-96423500I-243750J0D01*
G01*
X198473750Y-96423500D01*
G75*
G02*
X198230000Y-96179750I0J243750D01*
G01*
X198230000Y-95692250D01*
G75*
G02*
X198473750Y-95448500I243750J0D01*
G01*
G37*
%TD*%
%TO.C,R308*%
G36*
G01*
X193266750Y-93886000D02*
X193829250Y-93886000D01*
G75*
G02*
X194073000Y-94129750I0J-243750D01*
G01*
X194073000Y-94617250D01*
G75*
G02*
X193829250Y-94861000I-243750J0D01*
G01*
X193266750Y-94861000D01*
G75*
G02*
X193023000Y-94617250I0J243750D01*
G01*
X193023000Y-94129750D01*
G75*
G02*
X193266750Y-93886000I243750J0D01*
G01*
G37*
G36*
G01*
X193266750Y-95461000D02*
X193829250Y-95461000D01*
G75*
G02*
X194073000Y-95704750I0J-243750D01*
G01*
X194073000Y-96192250D01*
G75*
G02*
X193829250Y-96436000I-243750J0D01*
G01*
X193266750Y-96436000D01*
G75*
G02*
X193023000Y-96192250I0J243750D01*
G01*
X193023000Y-95704750D01*
G75*
G02*
X193266750Y-95461000I243750J0D01*
G01*
G37*
%TD*%
%TO.C,R304*%
G36*
G01*
X210466250Y-96487000D02*
X209903750Y-96487000D01*
G75*
G02*
X209660000Y-96243250I0J243750D01*
G01*
X209660000Y-95755750D01*
G75*
G02*
X209903750Y-95512000I243750J0D01*
G01*
X210466250Y-95512000D01*
G75*
G02*
X210710000Y-95755750I0J-243750D01*
G01*
X210710000Y-96243250D01*
G75*
G02*
X210466250Y-96487000I-243750J0D01*
G01*
G37*
G36*
G01*
X210466250Y-94912000D02*
X209903750Y-94912000D01*
G75*
G02*
X209660000Y-94668250I0J243750D01*
G01*
X209660000Y-94180750D01*
G75*
G02*
X209903750Y-93937000I243750J0D01*
G01*
X210466250Y-93937000D01*
G75*
G02*
X210710000Y-94180750I0J-243750D01*
G01*
X210710000Y-94668250D01*
G75*
G02*
X210466250Y-94912000I-243750J0D01*
G01*
G37*
%TD*%
%TO.C,R306*%
G36*
G01*
X195870250Y-93886000D02*
X196432750Y-93886000D01*
G75*
G02*
X196676500Y-94129750I0J-243750D01*
G01*
X196676500Y-94617250D01*
G75*
G02*
X196432750Y-94861000I-243750J0D01*
G01*
X195870250Y-94861000D01*
G75*
G02*
X195626500Y-94617250I0J243750D01*
G01*
X195626500Y-94129750D01*
G75*
G02*
X195870250Y-93886000I243750J0D01*
G01*
G37*
G36*
G01*
X195870250Y-95461000D02*
X196432750Y-95461000D01*
G75*
G02*
X196676500Y-95704750I0J-243750D01*
G01*
X196676500Y-96192250D01*
G75*
G02*
X196432750Y-96436000I-243750J0D01*
G01*
X195870250Y-96436000D01*
G75*
G02*
X195626500Y-96192250I0J243750D01*
G01*
X195626500Y-95704750D01*
G75*
G02*
X195870250Y-95461000I243750J0D01*
G01*
G37*
%TD*%
%TO.C,C213*%
G36*
G01*
X200070000Y-115118500D02*
X200070000Y-115513500D01*
G75*
G02*
X199897500Y-115686000I-172500J0D01*
G01*
X199552500Y-115686000D01*
G75*
G02*
X199380000Y-115513500I0J172500D01*
G01*
X199380000Y-115118500D01*
G75*
G02*
X199552500Y-114946000I172500J0D01*
G01*
X199897500Y-114946000D01*
G75*
G02*
X200070000Y-115118500I0J-172500D01*
G01*
G37*
G36*
G01*
X199100000Y-115118500D02*
X199100000Y-115513500D01*
G75*
G02*
X198927500Y-115686000I-172500J0D01*
G01*
X198582500Y-115686000D01*
G75*
G02*
X198410000Y-115513500I0J172500D01*
G01*
X198410000Y-115118500D01*
G75*
G02*
X198582500Y-114946000I172500J0D01*
G01*
X198927500Y-114946000D01*
G75*
G02*
X199100000Y-115118500I0J-172500D01*
G01*
G37*
%TD*%
%TO.C,C206*%
G36*
G01*
X206261000Y-109925500D02*
X206261000Y-109530500D01*
G75*
G02*
X206433500Y-109358000I172500J0D01*
G01*
X206778500Y-109358000D01*
G75*
G02*
X206951000Y-109530500I0J-172500D01*
G01*
X206951000Y-109925500D01*
G75*
G02*
X206778500Y-110098000I-172500J0D01*
G01*
X206433500Y-110098000D01*
G75*
G02*
X206261000Y-109925500I0J172500D01*
G01*
G37*
G36*
G01*
X205291000Y-109925500D02*
X205291000Y-109530500D01*
G75*
G02*
X205463500Y-109358000I172500J0D01*
G01*
X205808500Y-109358000D01*
G75*
G02*
X205981000Y-109530500I0J-172500D01*
G01*
X205981000Y-109925500D01*
G75*
G02*
X205808500Y-110098000I-172500J0D01*
G01*
X205463500Y-110098000D01*
G75*
G02*
X205291000Y-109925500I0J172500D01*
G01*
G37*
%TD*%
%TO.C,C212*%
G36*
G01*
X197682500Y-112613000D02*
X197287500Y-112613000D01*
G75*
G02*
X197115000Y-112440500I0J172500D01*
G01*
X197115000Y-112095500D01*
G75*
G02*
X197287500Y-111923000I172500J0D01*
G01*
X197682500Y-111923000D01*
G75*
G02*
X197855000Y-112095500I0J-172500D01*
G01*
X197855000Y-112440500D01*
G75*
G02*
X197682500Y-112613000I-172500J0D01*
G01*
G37*
G36*
G01*
X197682500Y-113583000D02*
X197287500Y-113583000D01*
G75*
G02*
X197115000Y-113410500I0J172500D01*
G01*
X197115000Y-113065500D01*
G75*
G02*
X197287500Y-112893000I172500J0D01*
G01*
X197682500Y-112893000D01*
G75*
G02*
X197855000Y-113065500I0J-172500D01*
G01*
X197855000Y-113410500D01*
G75*
G02*
X197682500Y-113583000I-172500J0D01*
G01*
G37*
%TD*%
%TO.C,C211*%
G36*
G01*
X197576000Y-110927500D02*
X197576000Y-111322500D01*
G75*
G02*
X197403500Y-111495000I-172500J0D01*
G01*
X197058500Y-111495000D01*
G75*
G02*
X196886000Y-111322500I0J172500D01*
G01*
X196886000Y-110927500D01*
G75*
G02*
X197058500Y-110755000I172500J0D01*
G01*
X197403500Y-110755000D01*
G75*
G02*
X197576000Y-110927500I0J-172500D01*
G01*
G37*
G36*
G01*
X196606000Y-110927500D02*
X196606000Y-111322500D01*
G75*
G02*
X196433500Y-111495000I-172500J0D01*
G01*
X196088500Y-111495000D01*
G75*
G02*
X195916000Y-111322500I0J172500D01*
G01*
X195916000Y-110927500D01*
G75*
G02*
X196088500Y-110755000I172500J0D01*
G01*
X196433500Y-110755000D01*
G75*
G02*
X196606000Y-110927500I0J-172500D01*
G01*
G37*
%TD*%
%TO.C,C204*%
G36*
G01*
X206261000Y-108655500D02*
X206261000Y-108260500D01*
G75*
G02*
X206433500Y-108088000I172500J0D01*
G01*
X206778500Y-108088000D01*
G75*
G02*
X206951000Y-108260500I0J-172500D01*
G01*
X206951000Y-108655500D01*
G75*
G02*
X206778500Y-108828000I-172500J0D01*
G01*
X206433500Y-108828000D01*
G75*
G02*
X206261000Y-108655500I0J172500D01*
G01*
G37*
G36*
G01*
X205291000Y-108655500D02*
X205291000Y-108260500D01*
G75*
G02*
X205463500Y-108088000I172500J0D01*
G01*
X205808500Y-108088000D01*
G75*
G02*
X205981000Y-108260500I0J-172500D01*
G01*
X205981000Y-108655500D01*
G75*
G02*
X205808500Y-108828000I-172500J0D01*
G01*
X205463500Y-108828000D01*
G75*
G02*
X205291000Y-108655500I0J172500D01*
G01*
G37*
%TD*%
%TO.C,C209*%
G36*
G01*
X201585000Y-111195500D02*
X201585000Y-110800500D01*
G75*
G02*
X201757500Y-110628000I172500J0D01*
G01*
X202102500Y-110628000D01*
G75*
G02*
X202275000Y-110800500I0J-172500D01*
G01*
X202275000Y-111195500D01*
G75*
G02*
X202102500Y-111368000I-172500J0D01*
G01*
X201757500Y-111368000D01*
G75*
G02*
X201585000Y-111195500I0J172500D01*
G01*
G37*
G36*
G01*
X200615000Y-111195500D02*
X200615000Y-110800500D01*
G75*
G02*
X200787500Y-110628000I172500J0D01*
G01*
X201132500Y-110628000D01*
G75*
G02*
X201305000Y-110800500I0J-172500D01*
G01*
X201305000Y-111195500D01*
G75*
G02*
X201132500Y-111368000I-172500J0D01*
G01*
X200787500Y-111368000D01*
G75*
G02*
X200615000Y-111195500I0J172500D01*
G01*
G37*
%TD*%
%TO.C,C203*%
G36*
G01*
X197807000Y-101021500D02*
X197807000Y-101416500D01*
G75*
G02*
X197634500Y-101589000I-172500J0D01*
G01*
X197289500Y-101589000D01*
G75*
G02*
X197117000Y-101416500I0J172500D01*
G01*
X197117000Y-101021500D01*
G75*
G02*
X197289500Y-100849000I172500J0D01*
G01*
X197634500Y-100849000D01*
G75*
G02*
X197807000Y-101021500I0J-172500D01*
G01*
G37*
G36*
G01*
X196837000Y-101021500D02*
X196837000Y-101416500D01*
G75*
G02*
X196664500Y-101589000I-172500J0D01*
G01*
X196319500Y-101589000D01*
G75*
G02*
X196147000Y-101416500I0J172500D01*
G01*
X196147000Y-101021500D01*
G75*
G02*
X196319500Y-100849000I172500J0D01*
G01*
X196664500Y-100849000D01*
G75*
G02*
X196837000Y-101021500I0J-172500D01*
G01*
G37*
%TD*%
%TO.C,C208*%
G36*
G01*
X205506500Y-100611250D02*
X205506500Y-100048750D01*
G75*
G02*
X205750250Y-99805000I243750J0D01*
G01*
X206237750Y-99805000D01*
G75*
G02*
X206481500Y-100048750I0J-243750D01*
G01*
X206481500Y-100611250D01*
G75*
G02*
X206237750Y-100855000I-243750J0D01*
G01*
X205750250Y-100855000D01*
G75*
G02*
X205506500Y-100611250I0J243750D01*
G01*
G37*
G36*
G01*
X207081500Y-100611250D02*
X207081500Y-100048750D01*
G75*
G02*
X207325250Y-99805000I243750J0D01*
G01*
X207812750Y-99805000D01*
G75*
G02*
X208056500Y-100048750I0J-243750D01*
G01*
X208056500Y-100611250D01*
G75*
G02*
X207812750Y-100855000I-243750J0D01*
G01*
X207325250Y-100855000D01*
G75*
G02*
X207081500Y-100611250I0J243750D01*
G01*
G37*
%TD*%
%TO.C,C205*%
G36*
G01*
X205314000Y-107258500D02*
X205314000Y-106863500D01*
G75*
G02*
X205486500Y-106691000I172500J0D01*
G01*
X205831500Y-106691000D01*
G75*
G02*
X206004000Y-106863500I0J-172500D01*
G01*
X206004000Y-107258500D01*
G75*
G02*
X205831500Y-107431000I-172500J0D01*
G01*
X205486500Y-107431000D01*
G75*
G02*
X205314000Y-107258500I0J172500D01*
G01*
G37*
G36*
G01*
X206284000Y-107258500D02*
X206284000Y-106863500D01*
G75*
G02*
X206456500Y-106691000I172500J0D01*
G01*
X206801500Y-106691000D01*
G75*
G02*
X206974000Y-106863500I0J-172500D01*
G01*
X206974000Y-107258500D01*
G75*
G02*
X206801500Y-107431000I-172500J0D01*
G01*
X206456500Y-107431000D01*
G75*
G02*
X206284000Y-107258500I0J172500D01*
G01*
G37*
%TD*%
%TO.C,C207*%
G36*
G01*
X206903500Y-105691250D02*
X206903500Y-105128750D01*
G75*
G02*
X207147250Y-104885000I243750J0D01*
G01*
X207634750Y-104885000D01*
G75*
G02*
X207878500Y-105128750I0J-243750D01*
G01*
X207878500Y-105691250D01*
G75*
G02*
X207634750Y-105935000I-243750J0D01*
G01*
X207147250Y-105935000D01*
G75*
G02*
X206903500Y-105691250I0J243750D01*
G01*
G37*
G36*
G01*
X205328500Y-105691250D02*
X205328500Y-105128750D01*
G75*
G02*
X205572250Y-104885000I243750J0D01*
G01*
X206059750Y-104885000D01*
G75*
G02*
X206303500Y-105128750I0J-243750D01*
G01*
X206303500Y-105691250D01*
G75*
G02*
X206059750Y-105935000I-243750J0D01*
G01*
X205572250Y-105935000D01*
G75*
G02*
X205328500Y-105691250I0J243750D01*
G01*
G37*
%TD*%
%TO.C,C202*%
G36*
G01*
X198684500Y-110734000D02*
X199079500Y-110734000D01*
G75*
G02*
X199252000Y-110906500I0J-172500D01*
G01*
X199252000Y-111251500D01*
G75*
G02*
X199079500Y-111424000I-172500J0D01*
G01*
X198684500Y-111424000D01*
G75*
G02*
X198512000Y-111251500I0J172500D01*
G01*
X198512000Y-110906500D01*
G75*
G02*
X198684500Y-110734000I172500J0D01*
G01*
G37*
G36*
G01*
X198684500Y-109764000D02*
X199079500Y-109764000D01*
G75*
G02*
X199252000Y-109936500I0J-172500D01*
G01*
X199252000Y-110281500D01*
G75*
G02*
X199079500Y-110454000I-172500J0D01*
G01*
X198684500Y-110454000D01*
G75*
G02*
X198512000Y-110281500I0J172500D01*
G01*
X198512000Y-109936500D01*
G75*
G02*
X198684500Y-109764000I172500J0D01*
G01*
G37*
%TD*%
%TO.C,C201*%
G36*
G01*
X200615000Y-112465500D02*
X200615000Y-112070500D01*
G75*
G02*
X200787500Y-111898000I172500J0D01*
G01*
X201132500Y-111898000D01*
G75*
G02*
X201305000Y-112070500I0J-172500D01*
G01*
X201305000Y-112465500D01*
G75*
G02*
X201132500Y-112638000I-172500J0D01*
G01*
X200787500Y-112638000D01*
G75*
G02*
X200615000Y-112465500I0J172500D01*
G01*
G37*
G36*
G01*
X201585000Y-112465500D02*
X201585000Y-112070500D01*
G75*
G02*
X201757500Y-111898000I172500J0D01*
G01*
X202102500Y-111898000D01*
G75*
G02*
X202275000Y-112070500I0J-172500D01*
G01*
X202275000Y-112465500D01*
G75*
G02*
X202102500Y-112638000I-172500J0D01*
G01*
X201757500Y-112638000D01*
G75*
G02*
X201585000Y-112465500I0J172500D01*
G01*
G37*
%TD*%
%TO.C,C214*%
G36*
G01*
X195743000Y-117545500D02*
X195743000Y-117150500D01*
G75*
G02*
X195915500Y-116978000I172500J0D01*
G01*
X196260500Y-116978000D01*
G75*
G02*
X196433000Y-117150500I0J-172500D01*
G01*
X196433000Y-117545500D01*
G75*
G02*
X196260500Y-117718000I-172500J0D01*
G01*
X195915500Y-117718000D01*
G75*
G02*
X195743000Y-117545500I0J172500D01*
G01*
G37*
G36*
G01*
X194773000Y-117545500D02*
X194773000Y-117150500D01*
G75*
G02*
X194945500Y-116978000I172500J0D01*
G01*
X195290500Y-116978000D01*
G75*
G02*
X195463000Y-117150500I0J-172500D01*
G01*
X195463000Y-117545500D01*
G75*
G02*
X195290500Y-117718000I-172500J0D01*
G01*
X194945500Y-117718000D01*
G75*
G02*
X194773000Y-117545500I0J172500D01*
G01*
G37*
%TD*%
D21*
%TO.C,U2*%
X198450400Y-91694000D03*
X199250400Y-91694000D03*
X200050400Y-91694000D03*
X200850400Y-91694000D03*
X201650400Y-91694000D03*
X202450400Y-91694000D03*
X203250400Y-91694000D03*
X204050400Y-91694000D03*
X204850400Y-91694000D03*
X205650400Y-91694000D03*
X206450400Y-91694000D03*
D22*
X208150400Y-89994000D03*
X208150400Y-89194000D03*
X208150400Y-88394000D03*
X208150400Y-87594000D03*
X208150400Y-86794000D03*
X208150400Y-85994000D03*
X208150400Y-85194000D03*
X208150400Y-84394000D03*
X208150400Y-83594000D03*
X208150400Y-82794000D03*
X208150400Y-81994000D03*
D21*
X206450400Y-80294000D03*
X205650400Y-80294000D03*
X204850400Y-80294000D03*
X204050400Y-80294000D03*
X203250400Y-80294000D03*
X202450400Y-80294000D03*
X201650400Y-80294000D03*
X200850400Y-80294000D03*
X200050400Y-80294000D03*
X199250400Y-80294000D03*
X198450400Y-80294000D03*
D22*
X196750400Y-81994000D03*
X196750400Y-82794000D03*
X196750400Y-83594000D03*
X196750400Y-84394000D03*
X196750400Y-85194000D03*
X196750400Y-85994000D03*
X196750400Y-86794000D03*
X196750400Y-87594000D03*
X196750400Y-88394000D03*
X196750400Y-89194000D03*
X196750400Y-89994000D03*
%TD*%
%TO.C,C215*%
G36*
G01*
X196206250Y-115825000D02*
X195643750Y-115825000D01*
G75*
G02*
X195400000Y-115581250I0J243750D01*
G01*
X195400000Y-115093750D01*
G75*
G02*
X195643750Y-114850000I243750J0D01*
G01*
X196206250Y-114850000D01*
G75*
G02*
X196450000Y-115093750I0J-243750D01*
G01*
X196450000Y-115581250D01*
G75*
G02*
X196206250Y-115825000I-243750J0D01*
G01*
G37*
G36*
G01*
X196206250Y-114250000D02*
X195643750Y-114250000D01*
G75*
G02*
X195400000Y-114006250I0J243750D01*
G01*
X195400000Y-113518750D01*
G75*
G02*
X195643750Y-113275000I243750J0D01*
G01*
X196206250Y-113275000D01*
G75*
G02*
X196450000Y-113518750I0J-243750D01*
G01*
X196450000Y-114006250D01*
G75*
G02*
X196206250Y-114250000I-243750J0D01*
G01*
G37*
%TD*%
D23*
%TO.C,J2*%
X195995000Y-122405000D03*
X198945000Y-122405000D03*
D24*
X197470000Y-123930000D03*
X197470000Y-120880000D03*
%TD*%
M02*
