%TF.GenerationSoftware,KiCad,Pcbnew,(5.1.6)-1*%
%TF.CreationDate,2022-09-14T08:17:57+02:00*%
%TF.ProjectId,LoRaWAN_EndNode_Microchip,4c6f5261-5741-44e5-9f45-6e644e6f6465,rev?*%
%TF.SameCoordinates,Original*%
%TF.FileFunction,Legend,Bot*%
%TF.FilePolarity,Positive*%
%FSLAX46Y46*%
G04 Gerber Fmt 4.6, Leading zero omitted, Abs format (unit mm)*
G04 Created by KiCad (PCBNEW (5.1.6)-1) date 2022-09-14 08:17:57*
%MOMM*%
%LPD*%
G01*
G04 APERTURE LIST*
%ADD10C,0.120000*%
%ADD11C,0.150000*%
G04 APERTURE END LIST*
D10*
%TO.C,B1*%
X212217000Y-120825000D02*
X210947000Y-120825000D01*
X212217000Y-123365000D02*
X212217000Y-120825000D01*
X189357000Y-123365000D02*
X212217000Y-123365000D01*
X189357000Y-120825000D02*
X190627000Y-120825000D01*
X189357000Y-123365000D02*
X189357000Y-120825000D01*
X210947000Y-75565000D02*
X210947000Y-88265000D01*
X212217000Y-75565000D02*
X210947000Y-75565000D01*
X212217000Y-73025000D02*
X212217000Y-75565000D01*
X189357000Y-73025000D02*
X212217000Y-73025000D01*
X189357000Y-75565000D02*
X189357000Y-73025000D01*
X190627000Y-75565000D02*
X189357000Y-75565000D01*
X190627000Y-75565000D02*
X190627000Y-88265000D01*
X210947000Y-120825000D02*
X210947000Y-108125000D01*
X189357000Y-88265000D02*
X190627000Y-88265000D01*
X189357000Y-108125000D02*
X189357000Y-88265000D01*
X190627000Y-108125000D02*
X189357000Y-108125000D01*
X190627000Y-120825000D02*
X190627000Y-108125000D01*
X212217000Y-108125000D02*
X210947000Y-108125000D01*
X212217000Y-88265000D02*
X212217000Y-108125000D01*
X210947000Y-88265000D02*
X212217000Y-88265000D01*
X201137000Y-103045000D02*
X201137000Y-123365000D01*
X200437000Y-103045000D02*
X201137000Y-103045000D01*
X200437000Y-123365000D02*
X200437000Y-103045000D01*
X201137000Y-95885000D02*
X201137000Y-73025000D01*
X200437000Y-95885000D02*
X201137000Y-95885000D01*
X200437000Y-73025000D02*
X200437000Y-95885000D01*
X191897000Y-108125000D02*
X196977000Y-108125000D01*
X191897000Y-89535000D02*
X191897000Y-108125000D01*
X193167000Y-89535000D02*
X191897000Y-89535000D01*
X193167000Y-88265000D02*
X193167000Y-89535000D01*
X195707000Y-88265000D02*
X193167000Y-88265000D01*
X195707000Y-89535000D02*
X195707000Y-88265000D01*
X196977000Y-89535000D02*
X195707000Y-89535000D01*
X196977000Y-108125000D02*
X196977000Y-89535000D01*
X209677000Y-106855000D02*
X209677000Y-88265000D01*
X208407000Y-106855000D02*
X209677000Y-106855000D01*
X208407000Y-108125000D02*
X208407000Y-106855000D01*
X205867000Y-108125000D02*
X208407000Y-108125000D01*
X205867000Y-106855000D02*
X205867000Y-108125000D01*
X204597000Y-106855000D02*
X205867000Y-106855000D01*
X204597000Y-88265000D02*
X204597000Y-106855000D01*
X209677000Y-88265000D02*
X204597000Y-88265000D01*
X188382000Y-124795000D02*
X188382000Y-71595000D01*
X188387000Y-71595000D02*
X213187000Y-71595000D01*
X213192000Y-71595000D02*
X213192000Y-124795000D01*
X213187000Y-124795000D02*
X188387000Y-124795000D01*
D11*
X187365571Y-73890238D02*
X187413190Y-74033095D01*
X187460809Y-74080714D01*
X187556047Y-74128333D01*
X187698904Y-74128333D01*
X187794142Y-74080714D01*
X187841761Y-74033095D01*
X187889380Y-73937857D01*
X187889380Y-73556904D01*
X186889380Y-73556904D01*
X186889380Y-73890238D01*
X186937000Y-73985476D01*
X186984619Y-74033095D01*
X187079857Y-74080714D01*
X187175095Y-74080714D01*
X187270333Y-74033095D01*
X187317952Y-73985476D01*
X187365571Y-73890238D01*
X187365571Y-73556904D01*
X187889380Y-75080714D02*
X187889380Y-74509285D01*
X187889380Y-74795000D02*
X186889380Y-74795000D01*
X187032238Y-74699761D01*
X187127476Y-74604523D01*
X187175095Y-74509285D01*
X207244142Y-108823571D02*
X207244142Y-109966428D01*
X207815571Y-109395000D02*
X206672714Y-109395000D01*
X207244142Y-86423571D02*
X207244142Y-87566428D01*
X194544142Y-108823571D02*
X194544142Y-109966428D01*
X194544142Y-86423571D02*
X194544142Y-87566428D01*
X195115571Y-86995000D02*
X193972714Y-86995000D01*
X205291428Y-74347142D02*
X204148571Y-74347142D01*
X196677142Y-73758571D02*
X196677142Y-74901428D01*
X197248571Y-74330000D02*
X196105714Y-74330000D01*
%TD*%
M02*
