%TF.GenerationSoftware,KiCad,Pcbnew,(5.1.6)-1*%
%TF.CreationDate,2022-09-14T08:17:57+02:00*%
%TF.ProjectId,LoRaWAN_EndNode_Microchip,4c6f5261-5741-44e5-9f45-6e644e6f6465,rev?*%
%TF.SameCoordinates,Original*%
%TF.FileFunction,Paste,Top*%
%TF.FilePolarity,Positive*%
%FSLAX46Y46*%
G04 Gerber Fmt 4.6, Leading zero omitted, Abs format (unit mm)*
G04 Created by KiCad (PCBNEW (5.1.6)-1) date 2022-09-14 08:17:57*
%MOMM*%
%LPD*%
G01*
G04 APERTURE LIST*
%ADD10C,0.010000*%
%ADD11R,0.400000X0.650000*%
%ADD12R,0.650000X1.060000*%
%ADD13R,0.800000X0.900000*%
%ADD14R,1.000000X0.750000*%
%ADD15R,0.550000X1.500000*%
%ADD16R,1.500000X0.550000*%
%ADD17R,1.050000X2.200000*%
%ADD18R,1.000000X1.050000*%
G04 APERTURE END LIST*
D10*
%TO.C,U1*%
G36*
X199077000Y-105224000D02*
G01*
X197597000Y-105224000D01*
X197597000Y-103744000D01*
X199077000Y-103744000D01*
X199077000Y-105224000D01*
G37*
X199077000Y-105224000D02*
X197597000Y-105224000D01*
X197597000Y-103744000D01*
X199077000Y-103744000D01*
X199077000Y-105224000D01*
G36*
X201437000Y-105224000D02*
G01*
X199957000Y-105224000D01*
X199957000Y-103744000D01*
X201437000Y-103744000D01*
X201437000Y-105224000D01*
G37*
X201437000Y-105224000D02*
X199957000Y-105224000D01*
X199957000Y-103744000D01*
X201437000Y-103744000D01*
X201437000Y-105224000D01*
G36*
X199077000Y-107584000D02*
G01*
X197597000Y-107584000D01*
X197597000Y-106104000D01*
X199077000Y-106104000D01*
X199077000Y-107584000D01*
G37*
X199077000Y-107584000D02*
X197597000Y-107584000D01*
X197597000Y-106104000D01*
X199077000Y-106104000D01*
X199077000Y-107584000D01*
G36*
X201437000Y-107584000D02*
G01*
X199957000Y-107584000D01*
X199957000Y-106104000D01*
X201437000Y-106104000D01*
X201437000Y-107584000D01*
G37*
X201437000Y-107584000D02*
X199957000Y-107584000D01*
X199957000Y-106104000D01*
X201437000Y-106104000D01*
X201437000Y-107584000D01*
%TD*%
%TO.C,R311*%
G36*
G01*
X193291750Y-90418500D02*
X193804250Y-90418500D01*
G75*
G02*
X194023000Y-90637250I0J-218750D01*
G01*
X194023000Y-91074750D01*
G75*
G02*
X193804250Y-91293500I-218750J0D01*
G01*
X193291750Y-91293500D01*
G75*
G02*
X193073000Y-91074750I0J218750D01*
G01*
X193073000Y-90637250D01*
G75*
G02*
X193291750Y-90418500I218750J0D01*
G01*
G37*
G36*
G01*
X193291750Y-88843500D02*
X193804250Y-88843500D01*
G75*
G02*
X194023000Y-89062250I0J-218750D01*
G01*
X194023000Y-89499750D01*
G75*
G02*
X193804250Y-89718500I-218750J0D01*
G01*
X193291750Y-89718500D01*
G75*
G02*
X193073000Y-89499750I0J218750D01*
G01*
X193073000Y-89062250D01*
G75*
G02*
X193291750Y-88843500I218750J0D01*
G01*
G37*
%TD*%
D11*
%TO.C,U6*%
X190358000Y-87528400D03*
X191658000Y-87528400D03*
X191008000Y-89428400D03*
X191008000Y-87528400D03*
X191658000Y-89428400D03*
X190358000Y-89428400D03*
%TD*%
%TO.C,R302*%
G36*
G01*
X205996250Y-94862000D02*
X205483750Y-94862000D01*
G75*
G02*
X205265000Y-94643250I0J218750D01*
G01*
X205265000Y-94205750D01*
G75*
G02*
X205483750Y-93987000I218750J0D01*
G01*
X205996250Y-93987000D01*
G75*
G02*
X206215000Y-94205750I0J-218750D01*
G01*
X206215000Y-94643250D01*
G75*
G02*
X205996250Y-94862000I-218750J0D01*
G01*
G37*
G36*
G01*
X205996250Y-96437000D02*
X205483750Y-96437000D01*
G75*
G02*
X205265000Y-96218250I0J218750D01*
G01*
X205265000Y-95780750D01*
G75*
G02*
X205483750Y-95562000I218750J0D01*
G01*
X205996250Y-95562000D01*
G75*
G02*
X206215000Y-95780750I0J-218750D01*
G01*
X206215000Y-96218250D01*
G75*
G02*
X205996250Y-96437000I-218750J0D01*
G01*
G37*
%TD*%
%TO.C,L204*%
G36*
G01*
X197312500Y-116083000D02*
X197657500Y-116083000D01*
G75*
G02*
X197805000Y-116230500I0J-147500D01*
G01*
X197805000Y-116525500D01*
G75*
G02*
X197657500Y-116673000I-147500J0D01*
G01*
X197312500Y-116673000D01*
G75*
G02*
X197165000Y-116525500I0J147500D01*
G01*
X197165000Y-116230500D01*
G75*
G02*
X197312500Y-116083000I147500J0D01*
G01*
G37*
G36*
G01*
X197312500Y-117053000D02*
X197657500Y-117053000D01*
G75*
G02*
X197805000Y-117200500I0J-147500D01*
G01*
X197805000Y-117495500D01*
G75*
G02*
X197657500Y-117643000I-147500J0D01*
G01*
X197312500Y-117643000D01*
G75*
G02*
X197165000Y-117495500I0J147500D01*
G01*
X197165000Y-117200500D01*
G75*
G02*
X197312500Y-117053000I147500J0D01*
G01*
G37*
%TD*%
%TO.C,L203*%
G36*
G01*
X197312500Y-115021000D02*
X197657500Y-115021000D01*
G75*
G02*
X197805000Y-115168500I0J-147500D01*
G01*
X197805000Y-115463500D01*
G75*
G02*
X197657500Y-115611000I-147500J0D01*
G01*
X197312500Y-115611000D01*
G75*
G02*
X197165000Y-115463500I0J147500D01*
G01*
X197165000Y-115168500D01*
G75*
G02*
X197312500Y-115021000I147500J0D01*
G01*
G37*
G36*
G01*
X197312500Y-114051000D02*
X197657500Y-114051000D01*
G75*
G02*
X197805000Y-114198500I0J-147500D01*
G01*
X197805000Y-114493500D01*
G75*
G02*
X197657500Y-114641000I-147500J0D01*
G01*
X197312500Y-114641000D01*
G75*
G02*
X197165000Y-114493500I0J147500D01*
G01*
X197165000Y-114198500D01*
G75*
G02*
X197312500Y-114051000I147500J0D01*
G01*
G37*
%TD*%
%TO.C,L202*%
G36*
G01*
X194628000Y-109809500D02*
X194628000Y-110154500D01*
G75*
G02*
X194480500Y-110302000I-147500J0D01*
G01*
X194185500Y-110302000D01*
G75*
G02*
X194038000Y-110154500I0J147500D01*
G01*
X194038000Y-109809500D01*
G75*
G02*
X194185500Y-109662000I147500J0D01*
G01*
X194480500Y-109662000D01*
G75*
G02*
X194628000Y-109809500I0J-147500D01*
G01*
G37*
G36*
G01*
X195598000Y-109809500D02*
X195598000Y-110154500D01*
G75*
G02*
X195450500Y-110302000I-147500J0D01*
G01*
X195155500Y-110302000D01*
G75*
G02*
X195008000Y-110154500I0J147500D01*
G01*
X195008000Y-109809500D01*
G75*
G02*
X195155500Y-109662000I147500J0D01*
G01*
X195450500Y-109662000D01*
G75*
G02*
X195598000Y-109809500I0J-147500D01*
G01*
G37*
%TD*%
%TO.C,L201*%
G36*
G01*
X199893000Y-112095500D02*
X199893000Y-112440500D01*
G75*
G02*
X199745500Y-112588000I-147500J0D01*
G01*
X199450500Y-112588000D01*
G75*
G02*
X199303000Y-112440500I0J147500D01*
G01*
X199303000Y-112095500D01*
G75*
G02*
X199450500Y-111948000I147500J0D01*
G01*
X199745500Y-111948000D01*
G75*
G02*
X199893000Y-112095500I0J-147500D01*
G01*
G37*
G36*
G01*
X198923000Y-112095500D02*
X198923000Y-112440500D01*
G75*
G02*
X198775500Y-112588000I-147500J0D01*
G01*
X198480500Y-112588000D01*
G75*
G02*
X198333000Y-112440500I0J147500D01*
G01*
X198333000Y-112095500D01*
G75*
G02*
X198480500Y-111948000I147500J0D01*
G01*
X198775500Y-111948000D01*
G75*
G02*
X198923000Y-112095500I0J-147500D01*
G01*
G37*
%TD*%
%TO.C,C302*%
G36*
G01*
X201326000Y-77772550D02*
X201326000Y-78285050D01*
G75*
G02*
X201107250Y-78503800I-218750J0D01*
G01*
X200669750Y-78503800D01*
G75*
G02*
X200451000Y-78285050I0J218750D01*
G01*
X200451000Y-77772550D01*
G75*
G02*
X200669750Y-77553800I218750J0D01*
G01*
X201107250Y-77553800D01*
G75*
G02*
X201326000Y-77772550I0J-218750D01*
G01*
G37*
G36*
G01*
X202901000Y-77772550D02*
X202901000Y-78285050D01*
G75*
G02*
X202682250Y-78503800I-218750J0D01*
G01*
X202244750Y-78503800D01*
G75*
G02*
X202026000Y-78285050I0J218750D01*
G01*
X202026000Y-77772550D01*
G75*
G02*
X202244750Y-77553800I218750J0D01*
G01*
X202682250Y-77553800D01*
G75*
G02*
X202901000Y-77772550I0J-218750D01*
G01*
G37*
%TD*%
%TO.C,D301*%
G36*
G01*
X208018750Y-77762500D02*
X208931250Y-77762500D01*
G75*
G02*
X209175000Y-78006250I0J-243750D01*
G01*
X209175000Y-78493750D01*
G75*
G02*
X208931250Y-78737500I-243750J0D01*
G01*
X208018750Y-78737500D01*
G75*
G02*
X207775000Y-78493750I0J243750D01*
G01*
X207775000Y-78006250D01*
G75*
G02*
X208018750Y-77762500I243750J0D01*
G01*
G37*
G36*
G01*
X208018750Y-75887500D02*
X208931250Y-75887500D01*
G75*
G02*
X209175000Y-76131250I0J-243750D01*
G01*
X209175000Y-76618750D01*
G75*
G02*
X208931250Y-76862500I-243750J0D01*
G01*
X208018750Y-76862500D01*
G75*
G02*
X207775000Y-76618750I0J243750D01*
G01*
X207775000Y-76131250D01*
G75*
G02*
X208018750Y-75887500I243750J0D01*
G01*
G37*
%TD*%
%TO.C,C308*%
G36*
G01*
X191970950Y-72003100D02*
X192483450Y-72003100D01*
G75*
G02*
X192702200Y-72221850I0J-218750D01*
G01*
X192702200Y-72659350D01*
G75*
G02*
X192483450Y-72878100I-218750J0D01*
G01*
X191970950Y-72878100D01*
G75*
G02*
X191752200Y-72659350I0J218750D01*
G01*
X191752200Y-72221850D01*
G75*
G02*
X191970950Y-72003100I218750J0D01*
G01*
G37*
G36*
G01*
X191970950Y-73578100D02*
X192483450Y-73578100D01*
G75*
G02*
X192702200Y-73796850I0J-218750D01*
G01*
X192702200Y-74234350D01*
G75*
G02*
X192483450Y-74453100I-218750J0D01*
G01*
X191970950Y-74453100D01*
G75*
G02*
X191752200Y-74234350I0J218750D01*
G01*
X191752200Y-73796850D01*
G75*
G02*
X191970950Y-73578100I218750J0D01*
G01*
G37*
%TD*%
%TO.C,C309*%
G36*
G01*
X191851900Y-85290950D02*
X191851900Y-85803450D01*
G75*
G02*
X191633150Y-86022200I-218750J0D01*
G01*
X191195650Y-86022200D01*
G75*
G02*
X190976900Y-85803450I0J218750D01*
G01*
X190976900Y-85290950D01*
G75*
G02*
X191195650Y-85072200I218750J0D01*
G01*
X191633150Y-85072200D01*
G75*
G02*
X191851900Y-85290950I0J-218750D01*
G01*
G37*
G36*
G01*
X193426900Y-85290950D02*
X193426900Y-85803450D01*
G75*
G02*
X193208150Y-86022200I-218750J0D01*
G01*
X192770650Y-86022200D01*
G75*
G02*
X192551900Y-85803450I0J218750D01*
G01*
X192551900Y-85290950D01*
G75*
G02*
X192770650Y-85072200I218750J0D01*
G01*
X193208150Y-85072200D01*
G75*
G02*
X193426900Y-85290950I0J-218750D01*
G01*
G37*
%TD*%
%TO.C,R301*%
G36*
G01*
X201614750Y-96373500D02*
X201102250Y-96373500D01*
G75*
G02*
X200883500Y-96154750I0J218750D01*
G01*
X200883500Y-95717250D01*
G75*
G02*
X201102250Y-95498500I218750J0D01*
G01*
X201614750Y-95498500D01*
G75*
G02*
X201833500Y-95717250I0J-218750D01*
G01*
X201833500Y-96154750D01*
G75*
G02*
X201614750Y-96373500I-218750J0D01*
G01*
G37*
G36*
G01*
X201614750Y-94798500D02*
X201102250Y-94798500D01*
G75*
G02*
X200883500Y-94579750I0J218750D01*
G01*
X200883500Y-94142250D01*
G75*
G02*
X201102250Y-93923500I218750J0D01*
G01*
X201614750Y-93923500D01*
G75*
G02*
X201833500Y-94142250I0J-218750D01*
G01*
X201833500Y-94579750D01*
G75*
G02*
X201614750Y-94798500I-218750J0D01*
G01*
G37*
%TD*%
%TO.C,C310*%
G36*
G01*
X189706700Y-91797850D02*
X189706700Y-91285350D01*
G75*
G02*
X189925450Y-91066600I218750J0D01*
G01*
X190362950Y-91066600D01*
G75*
G02*
X190581700Y-91285350I0J-218750D01*
G01*
X190581700Y-91797850D01*
G75*
G02*
X190362950Y-92016600I-218750J0D01*
G01*
X189925450Y-92016600D01*
G75*
G02*
X189706700Y-91797850I0J218750D01*
G01*
G37*
G36*
G01*
X191281700Y-91797850D02*
X191281700Y-91285350D01*
G75*
G02*
X191500450Y-91066600I218750J0D01*
G01*
X191937950Y-91066600D01*
G75*
G02*
X192156700Y-91285350I0J-218750D01*
G01*
X192156700Y-91797850D01*
G75*
G02*
X191937950Y-92016600I-218750J0D01*
G01*
X191500450Y-92016600D01*
G75*
G02*
X191281700Y-91797850I0J218750D01*
G01*
G37*
%TD*%
%TO.C,C307*%
G36*
G01*
X190378500Y-77162950D02*
X190378500Y-77675450D01*
G75*
G02*
X190159750Y-77894200I-218750J0D01*
G01*
X189722250Y-77894200D01*
G75*
G02*
X189503500Y-77675450I0J218750D01*
G01*
X189503500Y-77162950D01*
G75*
G02*
X189722250Y-76944200I218750J0D01*
G01*
X190159750Y-76944200D01*
G75*
G02*
X190378500Y-77162950I0J-218750D01*
G01*
G37*
G36*
G01*
X191953500Y-77162950D02*
X191953500Y-77675450D01*
G75*
G02*
X191734750Y-77894200I-218750J0D01*
G01*
X191297250Y-77894200D01*
G75*
G02*
X191078500Y-77675450I0J218750D01*
G01*
X191078500Y-77162950D01*
G75*
G02*
X191297250Y-76944200I218750J0D01*
G01*
X191734750Y-76944200D01*
G75*
G02*
X191953500Y-77162950I0J-218750D01*
G01*
G37*
%TD*%
%TO.C,C301*%
G36*
G01*
X203197750Y-93923500D02*
X203710250Y-93923500D01*
G75*
G02*
X203929000Y-94142250I0J-218750D01*
G01*
X203929000Y-94579750D01*
G75*
G02*
X203710250Y-94798500I-218750J0D01*
G01*
X203197750Y-94798500D01*
G75*
G02*
X202979000Y-94579750I0J218750D01*
G01*
X202979000Y-94142250D01*
G75*
G02*
X203197750Y-93923500I218750J0D01*
G01*
G37*
G36*
G01*
X203197750Y-95498500D02*
X203710250Y-95498500D01*
G75*
G02*
X203929000Y-95717250I0J-218750D01*
G01*
X203929000Y-96154750D01*
G75*
G02*
X203710250Y-96373500I-218750J0D01*
G01*
X203197750Y-96373500D01*
G75*
G02*
X202979000Y-96154750I0J218750D01*
G01*
X202979000Y-95717250D01*
G75*
G02*
X203197750Y-95498500I218750J0D01*
G01*
G37*
%TD*%
%TO.C,R303*%
G36*
G01*
X208345750Y-94862000D02*
X207833250Y-94862000D01*
G75*
G02*
X207614500Y-94643250I0J218750D01*
G01*
X207614500Y-94205750D01*
G75*
G02*
X207833250Y-93987000I218750J0D01*
G01*
X208345750Y-93987000D01*
G75*
G02*
X208564500Y-94205750I0J-218750D01*
G01*
X208564500Y-94643250D01*
G75*
G02*
X208345750Y-94862000I-218750J0D01*
G01*
G37*
G36*
G01*
X208345750Y-96437000D02*
X207833250Y-96437000D01*
G75*
G02*
X207614500Y-96218250I0J218750D01*
G01*
X207614500Y-95780750D01*
G75*
G02*
X207833250Y-95562000I218750J0D01*
G01*
X208345750Y-95562000D01*
G75*
G02*
X208564500Y-95780750I0J-218750D01*
G01*
X208564500Y-96218250D01*
G75*
G02*
X208345750Y-96437000I-218750J0D01*
G01*
G37*
%TD*%
D12*
%TO.C,U5*%
X192466000Y-79181600D03*
X191516000Y-79181600D03*
X193416000Y-79181600D03*
X193416000Y-81381600D03*
X192466000Y-81381600D03*
X191516000Y-81381600D03*
%TD*%
%TO.C,R307*%
G36*
G01*
X190751750Y-95511000D02*
X191264250Y-95511000D01*
G75*
G02*
X191483000Y-95729750I0J-218750D01*
G01*
X191483000Y-96167250D01*
G75*
G02*
X191264250Y-96386000I-218750J0D01*
G01*
X190751750Y-96386000D01*
G75*
G02*
X190533000Y-96167250I0J218750D01*
G01*
X190533000Y-95729750D01*
G75*
G02*
X190751750Y-95511000I218750J0D01*
G01*
G37*
G36*
G01*
X190751750Y-93936000D02*
X191264250Y-93936000D01*
G75*
G02*
X191483000Y-94154750I0J-218750D01*
G01*
X191483000Y-94592250D01*
G75*
G02*
X191264250Y-94811000I-218750J0D01*
G01*
X190751750Y-94811000D01*
G75*
G02*
X190533000Y-94592250I0J218750D01*
G01*
X190533000Y-94154750D01*
G75*
G02*
X190751750Y-93936000I218750J0D01*
G01*
G37*
%TD*%
D13*
%TO.C,Y1*%
X205910000Y-103632000D03*
X205910000Y-102232000D03*
X207010000Y-102232000D03*
X207010000Y-103632000D03*
%TD*%
%TO.C,Rext1*%
G36*
G01*
X193477700Y-83157350D02*
X193477700Y-83669850D01*
G75*
G02*
X193258950Y-83888600I-218750J0D01*
G01*
X192821450Y-83888600D01*
G75*
G02*
X192602700Y-83669850I0J218750D01*
G01*
X192602700Y-83157350D01*
G75*
G02*
X192821450Y-82938600I218750J0D01*
G01*
X193258950Y-82938600D01*
G75*
G02*
X193477700Y-83157350I0J-218750D01*
G01*
G37*
G36*
G01*
X191902700Y-83157350D02*
X191902700Y-83669850D01*
G75*
G02*
X191683950Y-83888600I-218750J0D01*
G01*
X191246450Y-83888600D01*
G75*
G02*
X191027700Y-83669850I0J218750D01*
G01*
X191027700Y-83157350D01*
G75*
G02*
X191246450Y-82938600I218750J0D01*
G01*
X191683950Y-82938600D01*
G75*
G02*
X191902700Y-83157350I0J-218750D01*
G01*
G37*
%TD*%
%TO.C,R305*%
G36*
G01*
X212097000Y-78234250D02*
X212097000Y-77721750D01*
G75*
G02*
X212315750Y-77503000I218750J0D01*
G01*
X212753250Y-77503000D01*
G75*
G02*
X212972000Y-77721750I0J-218750D01*
G01*
X212972000Y-78234250D01*
G75*
G02*
X212753250Y-78453000I-218750J0D01*
G01*
X212315750Y-78453000D01*
G75*
G02*
X212097000Y-78234250I0J218750D01*
G01*
G37*
G36*
G01*
X210522000Y-78234250D02*
X210522000Y-77721750D01*
G75*
G02*
X210740750Y-77503000I218750J0D01*
G01*
X211178250Y-77503000D01*
G75*
G02*
X211397000Y-77721750I0J-218750D01*
G01*
X211397000Y-78234250D01*
G75*
G02*
X211178250Y-78453000I-218750J0D01*
G01*
X210740750Y-78453000D01*
G75*
G02*
X210522000Y-78234250I0J218750D01*
G01*
G37*
%TD*%
%TO.C,U1*%
G36*
G01*
X196967000Y-107466800D02*
X196967000Y-107761200D01*
G75*
G02*
X196954200Y-107774000I-12800J0D01*
G01*
X196169800Y-107774000D01*
G75*
G02*
X196157000Y-107761200I0J12800D01*
G01*
X196157000Y-107466800D01*
G75*
G02*
X196169800Y-107454000I12800J0D01*
G01*
X196954200Y-107454000D01*
G75*
G02*
X196967000Y-107466800I0J-12800D01*
G01*
G37*
G36*
G01*
X196967000Y-106816800D02*
X196967000Y-107111200D01*
G75*
G02*
X196954200Y-107124000I-12800J0D01*
G01*
X196169800Y-107124000D01*
G75*
G02*
X196157000Y-107111200I0J12800D01*
G01*
X196157000Y-106816800D01*
G75*
G02*
X196169800Y-106804000I12800J0D01*
G01*
X196954200Y-106804000D01*
G75*
G02*
X196967000Y-106816800I0J-12800D01*
G01*
G37*
G36*
G01*
X196967000Y-106166800D02*
X196967000Y-106461200D01*
G75*
G02*
X196954200Y-106474000I-12800J0D01*
G01*
X196169800Y-106474000D01*
G75*
G02*
X196157000Y-106461200I0J12800D01*
G01*
X196157000Y-106166800D01*
G75*
G02*
X196169800Y-106154000I12800J0D01*
G01*
X196954200Y-106154000D01*
G75*
G02*
X196967000Y-106166800I0J-12800D01*
G01*
G37*
G36*
G01*
X196967000Y-105516800D02*
X196967000Y-105811200D01*
G75*
G02*
X196954200Y-105824000I-12800J0D01*
G01*
X196169800Y-105824000D01*
G75*
G02*
X196157000Y-105811200I0J12800D01*
G01*
X196157000Y-105516800D01*
G75*
G02*
X196169800Y-105504000I12800J0D01*
G01*
X196954200Y-105504000D01*
G75*
G02*
X196967000Y-105516800I0J-12800D01*
G01*
G37*
G36*
G01*
X196967000Y-104866800D02*
X196967000Y-105161200D01*
G75*
G02*
X196954200Y-105174000I-12800J0D01*
G01*
X196169800Y-105174000D01*
G75*
G02*
X196157000Y-105161200I0J12800D01*
G01*
X196157000Y-104866800D01*
G75*
G02*
X196169800Y-104854000I12800J0D01*
G01*
X196954200Y-104854000D01*
G75*
G02*
X196967000Y-104866800I0J-12800D01*
G01*
G37*
G36*
G01*
X196967000Y-104216800D02*
X196967000Y-104511200D01*
G75*
G02*
X196954200Y-104524000I-12800J0D01*
G01*
X196169800Y-104524000D01*
G75*
G02*
X196157000Y-104511200I0J12800D01*
G01*
X196157000Y-104216800D01*
G75*
G02*
X196169800Y-104204000I12800J0D01*
G01*
X196954200Y-104204000D01*
G75*
G02*
X196967000Y-104216800I0J-12800D01*
G01*
G37*
G36*
G01*
X196967000Y-103566800D02*
X196967000Y-103861200D01*
G75*
G02*
X196954200Y-103874000I-12800J0D01*
G01*
X196169800Y-103874000D01*
G75*
G02*
X196157000Y-103861200I0J12800D01*
G01*
X196157000Y-103566800D01*
G75*
G02*
X196169800Y-103554000I12800J0D01*
G01*
X196954200Y-103554000D01*
G75*
G02*
X196967000Y-103566800I0J-12800D01*
G01*
G37*
G36*
G01*
X202877000Y-103566800D02*
X202877000Y-103861200D01*
G75*
G02*
X202864200Y-103874000I-12800J0D01*
G01*
X202079800Y-103874000D01*
G75*
G02*
X202067000Y-103861200I0J12800D01*
G01*
X202067000Y-103566800D01*
G75*
G02*
X202079800Y-103554000I12800J0D01*
G01*
X202864200Y-103554000D01*
G75*
G02*
X202877000Y-103566800I0J-12800D01*
G01*
G37*
G36*
G01*
X202877000Y-104216800D02*
X202877000Y-104511200D01*
G75*
G02*
X202864200Y-104524000I-12800J0D01*
G01*
X202079800Y-104524000D01*
G75*
G02*
X202067000Y-104511200I0J12800D01*
G01*
X202067000Y-104216800D01*
G75*
G02*
X202079800Y-104204000I12800J0D01*
G01*
X202864200Y-104204000D01*
G75*
G02*
X202877000Y-104216800I0J-12800D01*
G01*
G37*
G36*
G01*
X202877000Y-104866800D02*
X202877000Y-105161200D01*
G75*
G02*
X202864200Y-105174000I-12800J0D01*
G01*
X202079800Y-105174000D01*
G75*
G02*
X202067000Y-105161200I0J12800D01*
G01*
X202067000Y-104866800D01*
G75*
G02*
X202079800Y-104854000I12800J0D01*
G01*
X202864200Y-104854000D01*
G75*
G02*
X202877000Y-104866800I0J-12800D01*
G01*
G37*
G36*
G01*
X202877000Y-105516800D02*
X202877000Y-105811200D01*
G75*
G02*
X202864200Y-105824000I-12800J0D01*
G01*
X202079800Y-105824000D01*
G75*
G02*
X202067000Y-105811200I0J12800D01*
G01*
X202067000Y-105516800D01*
G75*
G02*
X202079800Y-105504000I12800J0D01*
G01*
X202864200Y-105504000D01*
G75*
G02*
X202877000Y-105516800I0J-12800D01*
G01*
G37*
G36*
G01*
X202877000Y-106166800D02*
X202877000Y-106461200D01*
G75*
G02*
X202864200Y-106474000I-12800J0D01*
G01*
X202079800Y-106474000D01*
G75*
G02*
X202067000Y-106461200I0J12800D01*
G01*
X202067000Y-106166800D01*
G75*
G02*
X202079800Y-106154000I12800J0D01*
G01*
X202864200Y-106154000D01*
G75*
G02*
X202877000Y-106166800I0J-12800D01*
G01*
G37*
G36*
G01*
X202877000Y-106816800D02*
X202877000Y-107111200D01*
G75*
G02*
X202864200Y-107124000I-12800J0D01*
G01*
X202079800Y-107124000D01*
G75*
G02*
X202067000Y-107111200I0J12800D01*
G01*
X202067000Y-106816800D01*
G75*
G02*
X202079800Y-106804000I12800J0D01*
G01*
X202864200Y-106804000D01*
G75*
G02*
X202877000Y-106816800I0J-12800D01*
G01*
G37*
G36*
G01*
X202877000Y-107466800D02*
X202877000Y-107761200D01*
G75*
G02*
X202864200Y-107774000I-12800J0D01*
G01*
X202079800Y-107774000D01*
G75*
G02*
X202067000Y-107761200I0J12800D01*
G01*
X202067000Y-107466800D01*
G75*
G02*
X202079800Y-107454000I12800J0D01*
G01*
X202864200Y-107454000D01*
G75*
G02*
X202877000Y-107466800I0J-12800D01*
G01*
G37*
G36*
G01*
X201319800Y-108214000D02*
X201614200Y-108214000D01*
G75*
G02*
X201627000Y-108226800I0J-12800D01*
G01*
X201627000Y-109011200D01*
G75*
G02*
X201614200Y-109024000I-12800J0D01*
G01*
X201319800Y-109024000D01*
G75*
G02*
X201307000Y-109011200I0J12800D01*
G01*
X201307000Y-108226800D01*
G75*
G02*
X201319800Y-108214000I12800J0D01*
G01*
G37*
G36*
G01*
X200669800Y-108214000D02*
X200964200Y-108214000D01*
G75*
G02*
X200977000Y-108226800I0J-12800D01*
G01*
X200977000Y-109011200D01*
G75*
G02*
X200964200Y-109024000I-12800J0D01*
G01*
X200669800Y-109024000D01*
G75*
G02*
X200657000Y-109011200I0J12800D01*
G01*
X200657000Y-108226800D01*
G75*
G02*
X200669800Y-108214000I12800J0D01*
G01*
G37*
G36*
G01*
X200019800Y-108214000D02*
X200314200Y-108214000D01*
G75*
G02*
X200327000Y-108226800I0J-12800D01*
G01*
X200327000Y-109011200D01*
G75*
G02*
X200314200Y-109024000I-12800J0D01*
G01*
X200019800Y-109024000D01*
G75*
G02*
X200007000Y-109011200I0J12800D01*
G01*
X200007000Y-108226800D01*
G75*
G02*
X200019800Y-108214000I12800J0D01*
G01*
G37*
G36*
G01*
X199369800Y-108214000D02*
X199664200Y-108214000D01*
G75*
G02*
X199677000Y-108226800I0J-12800D01*
G01*
X199677000Y-109011200D01*
G75*
G02*
X199664200Y-109024000I-12800J0D01*
G01*
X199369800Y-109024000D01*
G75*
G02*
X199357000Y-109011200I0J12800D01*
G01*
X199357000Y-108226800D01*
G75*
G02*
X199369800Y-108214000I12800J0D01*
G01*
G37*
G36*
G01*
X198719800Y-108214000D02*
X199014200Y-108214000D01*
G75*
G02*
X199027000Y-108226800I0J-12800D01*
G01*
X199027000Y-109011200D01*
G75*
G02*
X199014200Y-109024000I-12800J0D01*
G01*
X198719800Y-109024000D01*
G75*
G02*
X198707000Y-109011200I0J12800D01*
G01*
X198707000Y-108226800D01*
G75*
G02*
X198719800Y-108214000I12800J0D01*
G01*
G37*
G36*
G01*
X198069800Y-108214000D02*
X198364200Y-108214000D01*
G75*
G02*
X198377000Y-108226800I0J-12800D01*
G01*
X198377000Y-109011200D01*
G75*
G02*
X198364200Y-109024000I-12800J0D01*
G01*
X198069800Y-109024000D01*
G75*
G02*
X198057000Y-109011200I0J12800D01*
G01*
X198057000Y-108226800D01*
G75*
G02*
X198069800Y-108214000I12800J0D01*
G01*
G37*
G36*
G01*
X197419800Y-108214000D02*
X197714200Y-108214000D01*
G75*
G02*
X197727000Y-108226800I0J-12800D01*
G01*
X197727000Y-109011200D01*
G75*
G02*
X197714200Y-109024000I-12800J0D01*
G01*
X197419800Y-109024000D01*
G75*
G02*
X197407000Y-109011200I0J12800D01*
G01*
X197407000Y-108226800D01*
G75*
G02*
X197419800Y-108214000I12800J0D01*
G01*
G37*
G36*
G01*
X197419800Y-102304000D02*
X197714200Y-102304000D01*
G75*
G02*
X197727000Y-102316800I0J-12800D01*
G01*
X197727000Y-103101200D01*
G75*
G02*
X197714200Y-103114000I-12800J0D01*
G01*
X197419800Y-103114000D01*
G75*
G02*
X197407000Y-103101200I0J12800D01*
G01*
X197407000Y-102316800D01*
G75*
G02*
X197419800Y-102304000I12800J0D01*
G01*
G37*
G36*
G01*
X198069800Y-102304000D02*
X198364200Y-102304000D01*
G75*
G02*
X198377000Y-102316800I0J-12800D01*
G01*
X198377000Y-103101200D01*
G75*
G02*
X198364200Y-103114000I-12800J0D01*
G01*
X198069800Y-103114000D01*
G75*
G02*
X198057000Y-103101200I0J12800D01*
G01*
X198057000Y-102316800D01*
G75*
G02*
X198069800Y-102304000I12800J0D01*
G01*
G37*
G36*
G01*
X198719800Y-102304000D02*
X199014200Y-102304000D01*
G75*
G02*
X199027000Y-102316800I0J-12800D01*
G01*
X199027000Y-103101200D01*
G75*
G02*
X199014200Y-103114000I-12800J0D01*
G01*
X198719800Y-103114000D01*
G75*
G02*
X198707000Y-103101200I0J12800D01*
G01*
X198707000Y-102316800D01*
G75*
G02*
X198719800Y-102304000I12800J0D01*
G01*
G37*
G36*
G01*
X199369800Y-102304000D02*
X199664200Y-102304000D01*
G75*
G02*
X199677000Y-102316800I0J-12800D01*
G01*
X199677000Y-103101200D01*
G75*
G02*
X199664200Y-103114000I-12800J0D01*
G01*
X199369800Y-103114000D01*
G75*
G02*
X199357000Y-103101200I0J12800D01*
G01*
X199357000Y-102316800D01*
G75*
G02*
X199369800Y-102304000I12800J0D01*
G01*
G37*
G36*
G01*
X200019800Y-102304000D02*
X200314200Y-102304000D01*
G75*
G02*
X200327000Y-102316800I0J-12800D01*
G01*
X200327000Y-103101200D01*
G75*
G02*
X200314200Y-103114000I-12800J0D01*
G01*
X200019800Y-103114000D01*
G75*
G02*
X200007000Y-103101200I0J12800D01*
G01*
X200007000Y-102316800D01*
G75*
G02*
X200019800Y-102304000I12800J0D01*
G01*
G37*
G36*
G01*
X200669800Y-102304000D02*
X200964200Y-102304000D01*
G75*
G02*
X200977000Y-102316800I0J-12800D01*
G01*
X200977000Y-103101200D01*
G75*
G02*
X200964200Y-103114000I-12800J0D01*
G01*
X200669800Y-103114000D01*
G75*
G02*
X200657000Y-103101200I0J12800D01*
G01*
X200657000Y-102316800D01*
G75*
G02*
X200669800Y-102304000I12800J0D01*
G01*
G37*
G36*
G01*
X201319800Y-102304000D02*
X201614200Y-102304000D01*
G75*
G02*
X201627000Y-102316800I0J-12800D01*
G01*
X201627000Y-103101200D01*
G75*
G02*
X201614200Y-103114000I-12800J0D01*
G01*
X201319800Y-103114000D01*
G75*
G02*
X201307000Y-103101200I0J12800D01*
G01*
X201307000Y-102316800D01*
G75*
G02*
X201319800Y-102304000I12800J0D01*
G01*
G37*
%TD*%
D14*
%TO.C,S301*%
X198056500Y-72196000D03*
X204056500Y-72196000D03*
X198056500Y-75946000D03*
X204056500Y-75946000D03*
%TD*%
%TO.C,R310*%
G36*
G01*
X206531250Y-77025000D02*
X206018750Y-77025000D01*
G75*
G02*
X205800000Y-76806250I0J218750D01*
G01*
X205800000Y-76368750D01*
G75*
G02*
X206018750Y-76150000I218750J0D01*
G01*
X206531250Y-76150000D01*
G75*
G02*
X206750000Y-76368750I0J-218750D01*
G01*
X206750000Y-76806250D01*
G75*
G02*
X206531250Y-77025000I-218750J0D01*
G01*
G37*
G36*
G01*
X206531250Y-78600000D02*
X206018750Y-78600000D01*
G75*
G02*
X205800000Y-78381250I0J218750D01*
G01*
X205800000Y-77943750D01*
G75*
G02*
X206018750Y-77725000I218750J0D01*
G01*
X206531250Y-77725000D01*
G75*
G02*
X206750000Y-77943750I0J-218750D01*
G01*
X206750000Y-78381250D01*
G75*
G02*
X206531250Y-78600000I-218750J0D01*
G01*
G37*
%TD*%
%TO.C,R309*%
G36*
G01*
X198498750Y-93923500D02*
X199011250Y-93923500D01*
G75*
G02*
X199230000Y-94142250I0J-218750D01*
G01*
X199230000Y-94579750D01*
G75*
G02*
X199011250Y-94798500I-218750J0D01*
G01*
X198498750Y-94798500D01*
G75*
G02*
X198280000Y-94579750I0J218750D01*
G01*
X198280000Y-94142250D01*
G75*
G02*
X198498750Y-93923500I218750J0D01*
G01*
G37*
G36*
G01*
X198498750Y-95498500D02*
X199011250Y-95498500D01*
G75*
G02*
X199230000Y-95717250I0J-218750D01*
G01*
X199230000Y-96154750D01*
G75*
G02*
X199011250Y-96373500I-218750J0D01*
G01*
X198498750Y-96373500D01*
G75*
G02*
X198280000Y-96154750I0J218750D01*
G01*
X198280000Y-95717250D01*
G75*
G02*
X198498750Y-95498500I218750J0D01*
G01*
G37*
%TD*%
%TO.C,R308*%
G36*
G01*
X193291750Y-93936000D02*
X193804250Y-93936000D01*
G75*
G02*
X194023000Y-94154750I0J-218750D01*
G01*
X194023000Y-94592250D01*
G75*
G02*
X193804250Y-94811000I-218750J0D01*
G01*
X193291750Y-94811000D01*
G75*
G02*
X193073000Y-94592250I0J218750D01*
G01*
X193073000Y-94154750D01*
G75*
G02*
X193291750Y-93936000I218750J0D01*
G01*
G37*
G36*
G01*
X193291750Y-95511000D02*
X193804250Y-95511000D01*
G75*
G02*
X194023000Y-95729750I0J-218750D01*
G01*
X194023000Y-96167250D01*
G75*
G02*
X193804250Y-96386000I-218750J0D01*
G01*
X193291750Y-96386000D01*
G75*
G02*
X193073000Y-96167250I0J218750D01*
G01*
X193073000Y-95729750D01*
G75*
G02*
X193291750Y-95511000I218750J0D01*
G01*
G37*
%TD*%
%TO.C,R304*%
G36*
G01*
X210441250Y-96437000D02*
X209928750Y-96437000D01*
G75*
G02*
X209710000Y-96218250I0J218750D01*
G01*
X209710000Y-95780750D01*
G75*
G02*
X209928750Y-95562000I218750J0D01*
G01*
X210441250Y-95562000D01*
G75*
G02*
X210660000Y-95780750I0J-218750D01*
G01*
X210660000Y-96218250D01*
G75*
G02*
X210441250Y-96437000I-218750J0D01*
G01*
G37*
G36*
G01*
X210441250Y-94862000D02*
X209928750Y-94862000D01*
G75*
G02*
X209710000Y-94643250I0J218750D01*
G01*
X209710000Y-94205750D01*
G75*
G02*
X209928750Y-93987000I218750J0D01*
G01*
X210441250Y-93987000D01*
G75*
G02*
X210660000Y-94205750I0J-218750D01*
G01*
X210660000Y-94643250D01*
G75*
G02*
X210441250Y-94862000I-218750J0D01*
G01*
G37*
%TD*%
%TO.C,R306*%
G36*
G01*
X195895250Y-93936000D02*
X196407750Y-93936000D01*
G75*
G02*
X196626500Y-94154750I0J-218750D01*
G01*
X196626500Y-94592250D01*
G75*
G02*
X196407750Y-94811000I-218750J0D01*
G01*
X195895250Y-94811000D01*
G75*
G02*
X195676500Y-94592250I0J218750D01*
G01*
X195676500Y-94154750D01*
G75*
G02*
X195895250Y-93936000I218750J0D01*
G01*
G37*
G36*
G01*
X195895250Y-95511000D02*
X196407750Y-95511000D01*
G75*
G02*
X196626500Y-95729750I0J-218750D01*
G01*
X196626500Y-96167250D01*
G75*
G02*
X196407750Y-96386000I-218750J0D01*
G01*
X195895250Y-96386000D01*
G75*
G02*
X195676500Y-96167250I0J218750D01*
G01*
X195676500Y-95729750D01*
G75*
G02*
X195895250Y-95511000I218750J0D01*
G01*
G37*
%TD*%
%TO.C,C213*%
G36*
G01*
X200020000Y-115143500D02*
X200020000Y-115488500D01*
G75*
G02*
X199872500Y-115636000I-147500J0D01*
G01*
X199577500Y-115636000D01*
G75*
G02*
X199430000Y-115488500I0J147500D01*
G01*
X199430000Y-115143500D01*
G75*
G02*
X199577500Y-114996000I147500J0D01*
G01*
X199872500Y-114996000D01*
G75*
G02*
X200020000Y-115143500I0J-147500D01*
G01*
G37*
G36*
G01*
X199050000Y-115143500D02*
X199050000Y-115488500D01*
G75*
G02*
X198902500Y-115636000I-147500J0D01*
G01*
X198607500Y-115636000D01*
G75*
G02*
X198460000Y-115488500I0J147500D01*
G01*
X198460000Y-115143500D01*
G75*
G02*
X198607500Y-114996000I147500J0D01*
G01*
X198902500Y-114996000D01*
G75*
G02*
X199050000Y-115143500I0J-147500D01*
G01*
G37*
%TD*%
%TO.C,C206*%
G36*
G01*
X206311000Y-109900500D02*
X206311000Y-109555500D01*
G75*
G02*
X206458500Y-109408000I147500J0D01*
G01*
X206753500Y-109408000D01*
G75*
G02*
X206901000Y-109555500I0J-147500D01*
G01*
X206901000Y-109900500D01*
G75*
G02*
X206753500Y-110048000I-147500J0D01*
G01*
X206458500Y-110048000D01*
G75*
G02*
X206311000Y-109900500I0J147500D01*
G01*
G37*
G36*
G01*
X205341000Y-109900500D02*
X205341000Y-109555500D01*
G75*
G02*
X205488500Y-109408000I147500J0D01*
G01*
X205783500Y-109408000D01*
G75*
G02*
X205931000Y-109555500I0J-147500D01*
G01*
X205931000Y-109900500D01*
G75*
G02*
X205783500Y-110048000I-147500J0D01*
G01*
X205488500Y-110048000D01*
G75*
G02*
X205341000Y-109900500I0J147500D01*
G01*
G37*
%TD*%
%TO.C,C212*%
G36*
G01*
X197657500Y-112563000D02*
X197312500Y-112563000D01*
G75*
G02*
X197165000Y-112415500I0J147500D01*
G01*
X197165000Y-112120500D01*
G75*
G02*
X197312500Y-111973000I147500J0D01*
G01*
X197657500Y-111973000D01*
G75*
G02*
X197805000Y-112120500I0J-147500D01*
G01*
X197805000Y-112415500D01*
G75*
G02*
X197657500Y-112563000I-147500J0D01*
G01*
G37*
G36*
G01*
X197657500Y-113533000D02*
X197312500Y-113533000D01*
G75*
G02*
X197165000Y-113385500I0J147500D01*
G01*
X197165000Y-113090500D01*
G75*
G02*
X197312500Y-112943000I147500J0D01*
G01*
X197657500Y-112943000D01*
G75*
G02*
X197805000Y-113090500I0J-147500D01*
G01*
X197805000Y-113385500D01*
G75*
G02*
X197657500Y-113533000I-147500J0D01*
G01*
G37*
%TD*%
%TO.C,C211*%
G36*
G01*
X197526000Y-110952500D02*
X197526000Y-111297500D01*
G75*
G02*
X197378500Y-111445000I-147500J0D01*
G01*
X197083500Y-111445000D01*
G75*
G02*
X196936000Y-111297500I0J147500D01*
G01*
X196936000Y-110952500D01*
G75*
G02*
X197083500Y-110805000I147500J0D01*
G01*
X197378500Y-110805000D01*
G75*
G02*
X197526000Y-110952500I0J-147500D01*
G01*
G37*
G36*
G01*
X196556000Y-110952500D02*
X196556000Y-111297500D01*
G75*
G02*
X196408500Y-111445000I-147500J0D01*
G01*
X196113500Y-111445000D01*
G75*
G02*
X195966000Y-111297500I0J147500D01*
G01*
X195966000Y-110952500D01*
G75*
G02*
X196113500Y-110805000I147500J0D01*
G01*
X196408500Y-110805000D01*
G75*
G02*
X196556000Y-110952500I0J-147500D01*
G01*
G37*
%TD*%
%TO.C,C204*%
G36*
G01*
X206311000Y-108630500D02*
X206311000Y-108285500D01*
G75*
G02*
X206458500Y-108138000I147500J0D01*
G01*
X206753500Y-108138000D01*
G75*
G02*
X206901000Y-108285500I0J-147500D01*
G01*
X206901000Y-108630500D01*
G75*
G02*
X206753500Y-108778000I-147500J0D01*
G01*
X206458500Y-108778000D01*
G75*
G02*
X206311000Y-108630500I0J147500D01*
G01*
G37*
G36*
G01*
X205341000Y-108630500D02*
X205341000Y-108285500D01*
G75*
G02*
X205488500Y-108138000I147500J0D01*
G01*
X205783500Y-108138000D01*
G75*
G02*
X205931000Y-108285500I0J-147500D01*
G01*
X205931000Y-108630500D01*
G75*
G02*
X205783500Y-108778000I-147500J0D01*
G01*
X205488500Y-108778000D01*
G75*
G02*
X205341000Y-108630500I0J147500D01*
G01*
G37*
%TD*%
%TO.C,C209*%
G36*
G01*
X201635000Y-111170500D02*
X201635000Y-110825500D01*
G75*
G02*
X201782500Y-110678000I147500J0D01*
G01*
X202077500Y-110678000D01*
G75*
G02*
X202225000Y-110825500I0J-147500D01*
G01*
X202225000Y-111170500D01*
G75*
G02*
X202077500Y-111318000I-147500J0D01*
G01*
X201782500Y-111318000D01*
G75*
G02*
X201635000Y-111170500I0J147500D01*
G01*
G37*
G36*
G01*
X200665000Y-111170500D02*
X200665000Y-110825500D01*
G75*
G02*
X200812500Y-110678000I147500J0D01*
G01*
X201107500Y-110678000D01*
G75*
G02*
X201255000Y-110825500I0J-147500D01*
G01*
X201255000Y-111170500D01*
G75*
G02*
X201107500Y-111318000I-147500J0D01*
G01*
X200812500Y-111318000D01*
G75*
G02*
X200665000Y-111170500I0J147500D01*
G01*
G37*
%TD*%
%TO.C,C203*%
G36*
G01*
X197757000Y-101046500D02*
X197757000Y-101391500D01*
G75*
G02*
X197609500Y-101539000I-147500J0D01*
G01*
X197314500Y-101539000D01*
G75*
G02*
X197167000Y-101391500I0J147500D01*
G01*
X197167000Y-101046500D01*
G75*
G02*
X197314500Y-100899000I147500J0D01*
G01*
X197609500Y-100899000D01*
G75*
G02*
X197757000Y-101046500I0J-147500D01*
G01*
G37*
G36*
G01*
X196787000Y-101046500D02*
X196787000Y-101391500D01*
G75*
G02*
X196639500Y-101539000I-147500J0D01*
G01*
X196344500Y-101539000D01*
G75*
G02*
X196197000Y-101391500I0J147500D01*
G01*
X196197000Y-101046500D01*
G75*
G02*
X196344500Y-100899000I147500J0D01*
G01*
X196639500Y-100899000D01*
G75*
G02*
X196787000Y-101046500I0J-147500D01*
G01*
G37*
%TD*%
%TO.C,C208*%
G36*
G01*
X205556500Y-100586250D02*
X205556500Y-100073750D01*
G75*
G02*
X205775250Y-99855000I218750J0D01*
G01*
X206212750Y-99855000D01*
G75*
G02*
X206431500Y-100073750I0J-218750D01*
G01*
X206431500Y-100586250D01*
G75*
G02*
X206212750Y-100805000I-218750J0D01*
G01*
X205775250Y-100805000D01*
G75*
G02*
X205556500Y-100586250I0J218750D01*
G01*
G37*
G36*
G01*
X207131500Y-100586250D02*
X207131500Y-100073750D01*
G75*
G02*
X207350250Y-99855000I218750J0D01*
G01*
X207787750Y-99855000D01*
G75*
G02*
X208006500Y-100073750I0J-218750D01*
G01*
X208006500Y-100586250D01*
G75*
G02*
X207787750Y-100805000I-218750J0D01*
G01*
X207350250Y-100805000D01*
G75*
G02*
X207131500Y-100586250I0J218750D01*
G01*
G37*
%TD*%
%TO.C,C205*%
G36*
G01*
X205364000Y-107233500D02*
X205364000Y-106888500D01*
G75*
G02*
X205511500Y-106741000I147500J0D01*
G01*
X205806500Y-106741000D01*
G75*
G02*
X205954000Y-106888500I0J-147500D01*
G01*
X205954000Y-107233500D01*
G75*
G02*
X205806500Y-107381000I-147500J0D01*
G01*
X205511500Y-107381000D01*
G75*
G02*
X205364000Y-107233500I0J147500D01*
G01*
G37*
G36*
G01*
X206334000Y-107233500D02*
X206334000Y-106888500D01*
G75*
G02*
X206481500Y-106741000I147500J0D01*
G01*
X206776500Y-106741000D01*
G75*
G02*
X206924000Y-106888500I0J-147500D01*
G01*
X206924000Y-107233500D01*
G75*
G02*
X206776500Y-107381000I-147500J0D01*
G01*
X206481500Y-107381000D01*
G75*
G02*
X206334000Y-107233500I0J147500D01*
G01*
G37*
%TD*%
%TO.C,C207*%
G36*
G01*
X206953500Y-105666250D02*
X206953500Y-105153750D01*
G75*
G02*
X207172250Y-104935000I218750J0D01*
G01*
X207609750Y-104935000D01*
G75*
G02*
X207828500Y-105153750I0J-218750D01*
G01*
X207828500Y-105666250D01*
G75*
G02*
X207609750Y-105885000I-218750J0D01*
G01*
X207172250Y-105885000D01*
G75*
G02*
X206953500Y-105666250I0J218750D01*
G01*
G37*
G36*
G01*
X205378500Y-105666250D02*
X205378500Y-105153750D01*
G75*
G02*
X205597250Y-104935000I218750J0D01*
G01*
X206034750Y-104935000D01*
G75*
G02*
X206253500Y-105153750I0J-218750D01*
G01*
X206253500Y-105666250D01*
G75*
G02*
X206034750Y-105885000I-218750J0D01*
G01*
X205597250Y-105885000D01*
G75*
G02*
X205378500Y-105666250I0J218750D01*
G01*
G37*
%TD*%
%TO.C,C202*%
G36*
G01*
X198709500Y-110784000D02*
X199054500Y-110784000D01*
G75*
G02*
X199202000Y-110931500I0J-147500D01*
G01*
X199202000Y-111226500D01*
G75*
G02*
X199054500Y-111374000I-147500J0D01*
G01*
X198709500Y-111374000D01*
G75*
G02*
X198562000Y-111226500I0J147500D01*
G01*
X198562000Y-110931500D01*
G75*
G02*
X198709500Y-110784000I147500J0D01*
G01*
G37*
G36*
G01*
X198709500Y-109814000D02*
X199054500Y-109814000D01*
G75*
G02*
X199202000Y-109961500I0J-147500D01*
G01*
X199202000Y-110256500D01*
G75*
G02*
X199054500Y-110404000I-147500J0D01*
G01*
X198709500Y-110404000D01*
G75*
G02*
X198562000Y-110256500I0J147500D01*
G01*
X198562000Y-109961500D01*
G75*
G02*
X198709500Y-109814000I147500J0D01*
G01*
G37*
%TD*%
%TO.C,C201*%
G36*
G01*
X200665000Y-112440500D02*
X200665000Y-112095500D01*
G75*
G02*
X200812500Y-111948000I147500J0D01*
G01*
X201107500Y-111948000D01*
G75*
G02*
X201255000Y-112095500I0J-147500D01*
G01*
X201255000Y-112440500D01*
G75*
G02*
X201107500Y-112588000I-147500J0D01*
G01*
X200812500Y-112588000D01*
G75*
G02*
X200665000Y-112440500I0J147500D01*
G01*
G37*
G36*
G01*
X201635000Y-112440500D02*
X201635000Y-112095500D01*
G75*
G02*
X201782500Y-111948000I147500J0D01*
G01*
X202077500Y-111948000D01*
G75*
G02*
X202225000Y-112095500I0J-147500D01*
G01*
X202225000Y-112440500D01*
G75*
G02*
X202077500Y-112588000I-147500J0D01*
G01*
X201782500Y-112588000D01*
G75*
G02*
X201635000Y-112440500I0J147500D01*
G01*
G37*
%TD*%
%TO.C,C214*%
G36*
G01*
X195793000Y-117520500D02*
X195793000Y-117175500D01*
G75*
G02*
X195940500Y-117028000I147500J0D01*
G01*
X196235500Y-117028000D01*
G75*
G02*
X196383000Y-117175500I0J-147500D01*
G01*
X196383000Y-117520500D01*
G75*
G02*
X196235500Y-117668000I-147500J0D01*
G01*
X195940500Y-117668000D01*
G75*
G02*
X195793000Y-117520500I0J147500D01*
G01*
G37*
G36*
G01*
X194823000Y-117520500D02*
X194823000Y-117175500D01*
G75*
G02*
X194970500Y-117028000I147500J0D01*
G01*
X195265500Y-117028000D01*
G75*
G02*
X195413000Y-117175500I0J-147500D01*
G01*
X195413000Y-117520500D01*
G75*
G02*
X195265500Y-117668000I-147500J0D01*
G01*
X194970500Y-117668000D01*
G75*
G02*
X194823000Y-117520500I0J147500D01*
G01*
G37*
%TD*%
D15*
%TO.C,U2*%
X198450400Y-91694000D03*
X199250400Y-91694000D03*
X200050400Y-91694000D03*
X200850400Y-91694000D03*
X201650400Y-91694000D03*
X202450400Y-91694000D03*
X203250400Y-91694000D03*
X204050400Y-91694000D03*
X204850400Y-91694000D03*
X205650400Y-91694000D03*
X206450400Y-91694000D03*
D16*
X208150400Y-89994000D03*
X208150400Y-89194000D03*
X208150400Y-88394000D03*
X208150400Y-87594000D03*
X208150400Y-86794000D03*
X208150400Y-85994000D03*
X208150400Y-85194000D03*
X208150400Y-84394000D03*
X208150400Y-83594000D03*
X208150400Y-82794000D03*
X208150400Y-81994000D03*
D15*
X206450400Y-80294000D03*
X205650400Y-80294000D03*
X204850400Y-80294000D03*
X204050400Y-80294000D03*
X203250400Y-80294000D03*
X202450400Y-80294000D03*
X201650400Y-80294000D03*
X200850400Y-80294000D03*
X200050400Y-80294000D03*
X199250400Y-80294000D03*
X198450400Y-80294000D03*
D16*
X196750400Y-81994000D03*
X196750400Y-82794000D03*
X196750400Y-83594000D03*
X196750400Y-84394000D03*
X196750400Y-85194000D03*
X196750400Y-85994000D03*
X196750400Y-86794000D03*
X196750400Y-87594000D03*
X196750400Y-88394000D03*
X196750400Y-89194000D03*
X196750400Y-89994000D03*
%TD*%
%TO.C,C215*%
G36*
G01*
X196181250Y-115775000D02*
X195668750Y-115775000D01*
G75*
G02*
X195450000Y-115556250I0J218750D01*
G01*
X195450000Y-115118750D01*
G75*
G02*
X195668750Y-114900000I218750J0D01*
G01*
X196181250Y-114900000D01*
G75*
G02*
X196400000Y-115118750I0J-218750D01*
G01*
X196400000Y-115556250D01*
G75*
G02*
X196181250Y-115775000I-218750J0D01*
G01*
G37*
G36*
G01*
X196181250Y-114200000D02*
X195668750Y-114200000D01*
G75*
G02*
X195450000Y-113981250I0J218750D01*
G01*
X195450000Y-113543750D01*
G75*
G02*
X195668750Y-113325000I218750J0D01*
G01*
X196181250Y-113325000D01*
G75*
G02*
X196400000Y-113543750I0J-218750D01*
G01*
X196400000Y-113981250D01*
G75*
G02*
X196181250Y-114200000I-218750J0D01*
G01*
G37*
%TD*%
D17*
%TO.C,J2*%
X195995000Y-122405000D03*
X198945000Y-122405000D03*
D18*
X197470000Y-123930000D03*
X197470000Y-120880000D03*
%TD*%
M02*
