M48
; DRILL file {KiCad (5.1.6)-1} date 09/14/22 08:18:03
; FORMAT={-:-/ absolute / inch / decimal}
; #@! TF.CreationDate,2022-09-14T08:18:03+02:00
; #@! TF.GenerationSoftware,Kicad,Pcbnew,(5.1.6)-1
; #@! TF.FileFunction,Plated,1,4,PTH
FMAT,2
INCH
T1C0.0157
T2C0.0343
T3C0.0394
T4C0.0402
%
G90
G05
T1
X7.4417Y-3.6717
X7.4417Y-3.6984
X7.504Y-3.128
X7.5055Y-3.2016
X7.5197Y-3.3252
X7.5409Y-3.0087
X7.545Y-3.8275
X7.5913Y-3.604
X7.616Y-3.078
X7.622Y-4.3295
X7.624Y-3.03
X7.625Y-3.925
X7.625Y-4.1325
X7.626Y-4.476
X7.626Y-4.508
X7.628Y-4.592
X7.628Y-4.628
X7.6325Y-4.2325
X7.6429Y-3.3594
X7.6435Y-3.268
X7.6535Y-3.9625
X7.655Y-3.83
X7.6602Y-4.5417
X7.6615Y-4.0825
X7.664Y-3.546
X7.676Y-3.39
X7.6875Y-4.2775
X7.69Y-4.185
X7.708Y-3.094
X7.713Y-4.5756
X7.7142Y-4.4386
X7.725Y-4.0325
X7.726Y-4.8862
X7.7344Y-2.925
X7.74Y-3.8325
X7.7659Y-2.925
X7.7729Y-3.961
X7.7748Y-4.735
X7.7752Y-4.6516
X7.7961Y-2.9264
X7.825Y-3.835
X7.845Y-3.53
X7.846Y-3.06
X7.848Y-2.8795
X7.848Y-2.9585
X7.87Y-3.9325
X7.8728Y-4.3736
X7.88Y-3.8325
X7.886Y-4.64
X7.9Y-3.424
X7.902Y-3.286
X7.9106Y-4.5409
X7.9325Y-3.67
X7.936Y-4.64
X7.94Y-3.95
X7.9775Y-3.8375
X7.978Y-4.64
X7.9807Y-3.2236
X7.985Y-3.985
X7.9875Y-3.92
X7.9917Y-4.4193
X8.0004Y-3.2433
X8.0031Y-3.6661
X8.0094Y-3.809
X8.012Y-4.64
X8.025Y-4.5
X8.025Y-4.55
X8.026Y-4.374
X8.03Y-3.5425
X8.03Y-4.02
X8.03Y-4.065
X8.0311Y-3.6669
X8.0343Y-3.0709
X8.038Y-3.288
X8.044Y-3.416
X8.0472Y-4.2386
X8.048Y-4.64
X8.055Y-3.9184
X8.0575Y-3.809
X8.07Y-4.374
X8.0704Y-4.1164
X8.075Y-4.5
X8.075Y-4.55
X8.084Y-4.64
X8.12Y-4.64
X8.125Y-4.5
X8.125Y-4.55
X8.13Y-3.45
X8.156Y-4.64
X8.164Y-4.322
X8.176Y-3.9226
X8.184Y-4.344
X8.2809Y-2.925
X8.3059Y-3.0193
X8.3112Y-2.925
X8.3404Y-2.9274
X8.3618Y-2.9488
X8.3705Y-2.9787
X8.3705Y-3.0126
T2
X7.4503Y-2.846
X7.452Y-2.946
X7.5Y-2.896
T3
X8.32Y-3.935
X8.32Y-4.035
X8.32Y-4.135
X8.32Y-4.235
X8.32Y-4.335
X8.32Y-4.435
X8.32Y-4.535
X8.32Y-4.635
X8.34Y-3.1775
X8.34Y-3.2775
X8.34Y-3.3775
X8.34Y-3.4775
X8.34Y-3.5775
X7.52Y-3.935
X7.52Y-4.035
X7.52Y-4.135
X7.52Y-4.235
X7.52Y-4.335
X7.52Y-4.435
X7.52Y-4.535
X7.52Y-4.635
T4
X7.655Y-2.925
X8.155Y-2.925
T0
M30
